<svg id="Слой_1" data-name="Слой 1" xmlns="http://www.w3.org/2000/svg" viewBox="0 0 380.16 182.56"><defs><style>.cls-1,.cls-3{fill:#0071bc;}.cls-2{fill:#fff;}.cls-3{stroke:#0071bc;stroke-miterlimit:10;}</style></defs><path class="cls-1" d="M798.6,523s98.53-192.4,348.8-45.49C1147.4,477.5,1051.27,670.69,798.6,523Z" transform="translate(-790.51 -409.05)"/><path class="cls-1" d="M790.81,525.26a8.46,8.46,0,0,1-.13-3.93,9.42,9.42,0,0,1,.82-2.3l.11-.2.2-.4.4-.77.8-1.47c.54-1,1.07-1.93,1.63-2.87,1.09-1.89,2.22-3.74,3.38-5.57q3.48-5.47,7.29-10.68a218.49,218.49,0,0,1,16.39-19.93,216,216,0,0,1,39.41-33.58A204.2,204.2,0,0,1,908,420.51a212.17,212.17,0,0,1,51.3-10.62,231.23,231.23,0,0,1,26.18-.74,256.64,256.64,0,0,1,26,2,315.78,315.78,0,0,1,50.71,10.77,401.79,401.79,0,0,1,48.31,17.74c15.67,6.85,30.92,14.51,45.79,22.77h0l14.41,8.62-7.61,14.25-.56,1.06-.47.85-.92,1.58c-.61,1-1.21,2-1.83,3-1.22,2-2.47,3.88-3.75,5.76-2.55,3.76-5.21,7.39-8,10.93a225.7,225.7,0,0,1-17.7,20.1,229,229,0,0,1-19.9,17.84,218.82,218.82,0,0,1-22,15.26,204.89,204.89,0,0,1-48.82,21.46,214.37,214.37,0,0,1-52.22,8.3,249.85,249.85,0,0,1-52-3.73l-3.19-.54-3.17-.64-6.33-1.28L916,583.78l-3.13-.74-3.11-.83-6.21-1.68c-2.06-.59-4.09-1.24-6.14-1.85-4.11-1.2-8.14-2.6-12.18-4A403.17,403.17,0,0,1,838.32,555c-3.77-1.91-7.57-3.74-11.29-5.72s-7.45-3.94-11.12-6l-5.48-3.11-2.75-1.55-1.37-.78-.81-.47-1-.59a60.19,60.19,0,0,1-7.61-5.45A53,53,0,0,1,790.81,525.26Zm15.57-4.55c1.93.08,3.44,0,4.69.06a7.61,7.61,0,0,1,3.16.68l10.41,5.29c3.62,1.83,7.31,3.52,11,5.29s7.38,3.33,11.06,5A385.8,385.8,0,0,0,892,553.72c3.85,1.1,7.68,2.25,11.56,3.19,1.94.49,3.86,1,5.8,1.47l5.83,1.3,2.92.64,2.92.56,5.85,1.11,5.87.91,2.93.46,2.94.36A225,225,0,0,0,985.45,565a183.13,183.13,0,0,0,22.93-3.24,180.67,180.67,0,0,0,22.19-6,174.89,174.89,0,0,0,40.88-20.2,188.85,188.85,0,0,0,18.19-13.78A195.46,195.46,0,0,0,1106,505.83a189.16,189.16,0,0,0,14.35-17.71c2.21-3.07,4.31-6.21,6.27-9.37,1-1.58,1.93-3.17,2.82-4.75.45-.78.88-1.57,1.29-2.33l.59-1.12.26-.52.1-.23,0-.1s0,0,0,0l6.8,22.87h0c-13.62-8.42-27.55-16.27-41.82-23.33a370,370,0,0,0-43.8-18.49,286.49,286.49,0,0,0-45.56-12,228.11,228.11,0,0,0-23.23-2.89,203.87,203.87,0,0,0-23.31-.45A187.26,187.26,0,0,0,915,442.69a182.16,182.16,0,0,0-42.73,18.57A196.06,196.06,0,0,0,835,490.06a202,202,0,0,0-15.9,17.56c-2.48,3.08-4.86,6.24-7.12,9.45q-1.71,2.41-3.29,4.87c-.53.81-1.05,1.63-1.54,2.44l-.74,1.22-.34.59-.16.28-.08.13a8.44,8.44,0,0,0,.73-2.13A7.72,7.72,0,0,0,806.38,520.71Z" transform="translate(-790.51 -409.05)"/><path class="cls-2" d="M972.6,551.22a52,52,0,0,1-8.69-.75,50.49,50.49,0,0,1,8.58-100.22,50.8,50.8,0,0,1,8.68.75,50.49,50.49,0,0,1-8.57,100.22Z" transform="translate(-790.51 -409.05)"/><path class="cls-2" d="M972.49,438.6v23.29a38.84,38.84,0,1,1-38.16,32.21,38.76,38.76,0,0,1,38.16-32.21V438.6m0,0a62.16,62.16,0,1,0,10.67.93,62.14,62.14,0,0,0-10.67-.93Z" transform="translate(-790.51 -409.05)"/><circle class="cls-3" cx="179.99" cy="91.45" r="29"/></svg>