<?xml version="1.0" encoding="UTF-8"?>
<svg version="1.1" xmlns="http://www.w3.org/2000/svg" width="350" height="420">
<path d="M0 0 C115.5 0 231 0 350 0 C350 138.6 350 277.2 350 420 C234.5 420 119 420 0 420 C0 281.4 0 142.8 0 0 Z " fill="#FDFDFD" transform="translate(0,0)"/>
<path d="M0 0 C0.99 0.33 1.98 0.66 3 1 C4.07470703 4.1315918 4.07470703 4.1315918 5 8 C5.44448486 9.67799683 5.44448486 9.67799683 5.89794922 11.38989258 C6.34678467 13.12468872 6.34678467 13.12468872 6.8046875 14.89453125 C7.14418193 16.19345073 7.48403715 17.49227595 7.82421875 18.79101562 C8.34946123 20.7974419 8.87287396 22.8042447 9.39013672 24.81274414 C11.24996037 32.0242148 13.23090927 39.05043538 16.13378906 45.9230957 C17.26141547 48.62679297 18.11462807 51.37760092 18.9375 54.1875 C22.36957686 65.60083794 25.90586702 77.06569204 30.87890625 87.91796875 C33.88110489 94.48799765 34.12576094 100.78901432 34.0625 107.9375 C34.05798828 108.62134766 34.05347656 109.30519531 34.04882812 110.00976562 C34.0371956 111.67321604 34.01926694 113.3366205 34 115 C39.33724828 112.13510286 43.90909658 108.86533634 48.5625 105 C49.25359863 104.4318457 49.94469727 103.86369141 50.65673828 103.27832031 C60.21305887 95.39299063 69.60606295 87.33009061 78.78125 79.00390625 C80.79308393 77.18688018 82.82660434 75.40055608 84.875 73.625 C90.34576603 68.85589535 95.66525667 63.91989087 101 59 C101.52787109 58.51337891 102.05574219 58.02675781 102.59960938 57.52539062 C103.67254929 56.53609037 104.74530187 55.54658691 105.81787109 54.55688477 C106.89594704 53.56217526 107.97439655 52.56787047 109.05322266 51.57397461 C111.90512439 48.94424895 114.74516478 46.30299679 117.5703125 43.64453125 C118.15498291 43.09724365 118.73965332 42.54995605 119.34204102 41.98608398 C120.46065464 40.93858415 121.57592419 39.88749776 122.68725586 38.83227539 C125.29749172 36.39469943 127.67256744 34.35650728 131 33 C130.566875 33.8353125 130.566875 33.8353125 130.125 34.6875 C128.96539211 36.9805386 128.96539211 36.9805386 128.10253906 39.38305664 C127.03209459 41.92382154 125.81393855 43.93284776 124.234375 46.18359375 C120.95294481 50.99536366 118.0921714 55.98259231 115.25 61.0625 C98.3613642 90.86905635 80.66812972 116.1902129 52.75390625 136.515625 C47.6783569 140.21762345 42.70913623 144.04331932 37.76171875 147.9140625 C35 150 35 150 31.87768555 151.65478516 C28.67304142 153.77166618 28.67304142 153.77166618 28.22705078 157.48339844 C28.18631567 158.85816128 28.17747647 160.23412445 28.1953125 161.609375 C28.18160614 162.33618469 28.16789978 163.06299438 28.15377808 163.81182861 C28.11649199 166.12518289 28.120191 168.43638804 28.125 170.75 C28.10687182 172.32164811 28.08606873 173.89326781 28.0625 175.46484375 C28.01066374 179.31025569 27.99556796 183.15425786 28 187 C28.66 187 29.32 187 30 187 C30.35578125 185.95392578 30.35578125 185.95392578 30.71875 184.88671875 C32.22439178 181.49443438 34.22853967 178.71615091 36.5 175.8125 C36.94432373 175.24370117 37.38864746 174.67490234 37.84643555 174.08886719 C48.37584511 160.84213072 60.67820099 152.09244508 75.55200195 144.44287109 C87.95969251 137.99315657 99.07489843 129.67250331 110 121 C111.0003125 120.2059375 112.000625 119.411875 113.03125 118.59375 C115.35986894 116.7360877 117.6831511 114.87230678 120 113 C120.66 113.33 121.32 113.66 122 114 C121.57332031 114.57363281 121.14664063 115.14726563 120.70703125 115.73828125 C117.39507143 120.23844934 114.14438591 124.75866764 111.03125 129.3984375 C101.38875403 143.76485005 91.02160634 157.51243993 79 170 C78.41734375 170.6084375 77.8346875 171.216875 77.234375 171.84375 C70.81639002 177.98269215 62.77265476 181.85907383 55 186 C53.77506836 186.65766357 53.77506836 186.65766357 52.52539062 187.32861328 C49.99924717 188.68343004 47.46954564 190.03124869 44.9375 191.375 C44.15270264 191.79177002 43.36790527 192.20854004 42.55932617 192.63793945 C39.10461506 194.45159811 35.71074453 196.14079586 32.06640625 197.5390625 C28.64656423 199.16838851 28.53034468 199.79356353 27 203 C14.82206533 207.25324901 -3.76571082 206.56616514 -16 203 C-16.33 202.67 -16.66 202.34 -17 202 C-16.94779297 200.37578125 -16.94779297 200.37578125 -16.89453125 198.71875 C-16.56814897 190.57893779 -16.56814897 190.57893779 -19.99609375 183.5 C-22.5515193 181.64414485 -25.16516383 179.97747154 -27.87451172 178.35693359 C-32.39437601 175.47140571 -36.56899696 172.08424232 -40.8125 168.8125 C-42.15489746 167.79542969 -42.15489746 167.79542969 -43.52441406 166.7578125 C-57.74060664 155.96982589 -66.96709332 143.91317122 -76.67382812 129.00976562 C-77.51421093 127.73619581 -78.37054169 126.47289139 -79.24804688 125.22460938 C-82 121.30222979 -82 121.30222979 -82 118 C-82.66 118 -83.32 118 -84 118 C-84.36351563 117.32195312 -84.72703125 116.64390625 -85.1015625 115.9453125 C-89.21632575 108.32772516 -93.55890926 100.89026891 -98.15625 93.5546875 C-98.52379395 92.9654248 -98.89133789 92.37616211 -99.27001953 91.76904297 C-100.32961383 90.07266199 -101.39514535 88.3799939 -102.4609375 86.6875 C-104 84 -104 84 -104 82 C-100.74792908 83.41738489 -98.68638933 85.12526412 -96.25 87.6875 C-93.5697696 90.44231937 -90.85418433 93.05924859 -87.9375 95.5625 C-85.35046262 97.78644441 -82.89053167 100.06610268 -80.5 102.5 C-77.57532885 105.47057406 -74.51380439 108.20729119 -71.35546875 110.92578125 C-68.98382951 113.01423969 -66.67133171 115.15503797 -64.36206055 117.31176758 C-59.01835808 122.30021004 -53.58481594 127.07598823 -47.87890625 131.65234375 C-45.14067448 133.88528445 -42.46880693 136.17713221 -39.80297852 138.49511719 C-33.4299605 144.03537117 -26.94483565 149.18113444 -20 154 C-20.42410156 153.34515625 -20.84820312 152.6903125 -21.28515625 152.015625 C-36 129.11868132 -36 129.11868132 -36 124 C-36.66 124 -37.32 124 -38 124 C-38.24121582 123.20940186 -38.48243164 122.41880371 -38.73095703 121.60424805 C-39.64971411 118.61359109 -40.57921775 115.62653071 -41.515625 112.64135742 C-42.1096504 110.7367159 -42.69170688 108.82835447 -43.2734375 106.91992188 C-45.46636442 99.9573789 -47.96005544 93.65165726 -51.64526367 87.34155273 C-52.96206232 85.06557223 -54.09109086 82.76350922 -55.1875 80.375 C-58.6969297 73.24182692 -63.26825128 66.71786279 -67.63671875 60.09277344 C-69.80790502 56.75978477 -71.90747532 53.3827636 -74 50 C-69.91167988 51.90931955 -66.74933822 54.61126627 -63.375 57.5625 C-62.75036865 58.10406738 -62.1257373 58.64563477 -61.48217773 59.20361328 C-28.56106099 87.8229472 -28.56106099 87.8229472 -15 104 C-14.30519531 104.81726563 -13.61039062 105.63453125 -12.89453125 106.4765625 C-12.18683594 107.32992187 -11.47914062 108.18328125 -10.75 109.0625 C-10.10546875 109.83722656 -9.4609375 110.61195312 -8.796875 111.41015625 C-4.31767714 117.86604359 -2.73831599 125.22182888 -0.875 132.75 C-0.61074219 133.7709375 -0.34648437 134.791875 -0.07421875 135.84375 C1.6042217 142.55751179 2.58854745 149.09237753 3 156 C5.64 156 8.28 156 11 156 C11 155.01 11 154.02 11 153 C10.34 153 9.68 153 9 153 C8.76925781 152.01902344 8.53851563 151.03804687 8.30078125 150.02734375 C6.38102379 142.02067261 4.1747928 134.2207511 1.50390625 126.42578125 C-0.50570742 120.55703524 -2.40775887 114.65343887 -4.3125 108.75 C-4.85535645 107.08723022 -4.85535645 107.08723022 -5.40917969 105.39086914 C-5.91239746 103.82840454 -5.91239746 103.82840454 -6.42578125 102.234375 C-6.72911377 101.29819336 -7.03244629 100.36201172 -7.3449707 99.39746094 C-8 97 -8 97 -8 94 C-8.66 94 -9.32 94 -10 94 C-10.65789669 77.68821059 -9.83212066 62.02369753 -7.625 45.875 C-7.51394928 45.05843933 -7.40289856 44.24187866 -7.28848267 43.40057373 C-6.2113384 35.5785132 -5.05393642 27.79050359 -3.41992188 20.06201172 C-2.78318914 16.93535786 -2.36023841 13.78665704 -1.9375 10.625 C-1.45392683 7.02018185 -0.97604198 3.5068411 0 0 Z " fill="#036303" transform="translate(130,5)"/>
<path d="M0 0 C-1.64656834 5.20895519 -4.85816849 9.22252506 -8.0625 13.5625 C-8.6488623 14.36316895 -9.23522461 15.16383789 -9.83935547 15.98876953 C-11.01657363 17.59377374 -12.1962191 19.19700073 -13.37841797 20.79833984 C-14.75434849 22.66647315 -16.11710908 24.54285488 -17.47265625 26.42578125 C-22.84138913 33.78221197 -28.76160609 40.38236632 -35 47 C-34.15928955 46.68772461 -33.3185791 46.37544922 -32.45239258 46.05371094 C-29.26821869 44.87294681 -26.08286966 43.69545995 -22.89672852 42.52001953 C-21.53004972 42.01509919 -20.16382167 41.50895676 -18.7980957 41.00146484 C-10.87282617 38.05754347 -2.95417186 35.27627556 5.1628418 32.89257812 C9.07081141 31.66311965 12.79959218 30.10610138 16.55859375 28.484375 C19.25045472 27.3232999 21.94879223 26.19210049 24.66015625 25.078125 C25.4888623 24.73555664 26.31756836 24.39298828 27.17138672 24.04003906 C28.80049037 23.36664671 30.43094491 22.69650944 32.06298828 22.03027344 C36.98027656 19.98235048 41.52258911 17.64272505 46.06567383 14.85546875 C48 14 48 14 51 15 C37.29208751 24.80036962 23.39122847 34.22730405 9 43 C8.31099609 43.42039551 7.62199219 43.84079102 6.91210938 44.27392578 C-14.66997338 57.20428278 -50.86283073 70 -76 70 C-76 115.21 -76 160.42 -76 207 C-83.11860013 208.42372003 -89.03272725 209.29163693 -96.125 209.1875 C-96.96675781 209.18685547 -97.80851562 209.18621094 -98.67578125 209.18554688 C-103.93529905 209.14885256 -108.69916415 208.66260448 -114 208 C-114 178.63 -114 149.26 -114 119 C-113.01 118.505 -113.01 118.505 -112 118 C-112.33 117.67 -112.66 117.34 -113 117 C-113.09494733 114.62699131 -113.12559319 112.28321297 -113.11352539 109.90991211 C-113.11367142 109.16849472 -113.11381744 108.42707733 -113.1139679 107.66319275 C-113.11326865 105.20121379 -113.10547574 102.73930957 -113.09765625 100.27734375 C-113.09579211 98.57483461 -113.09436819 96.87232493 -113.09336853 95.16981506 C-113.08954302 90.68006927 -113.07971247 86.19035562 -113.06866455 81.70062256 C-113.05665668 76.31836359 -113.05204835 70.9360939 -113.04621124 65.55382538 C-113.03650072 57.36919454 -113.01734441 49.18463428 -113 41 C-100.79 41 -88.58 41 -76 41 C-76 47.27 -76 53.54 -76 60 C-73.71719325 59.10936979 -73.71719325 59.10936979 -72.66015625 56.3046875 C-65.51604905 42.08371175 -52.35181565 33.49527836 -38.86621094 26.03857422 C-26.6031149 19.21397838 -15.38341898 11.63817642 -4.8125 2.375 C-2 0 -2 0 0 0 Z " fill="#076607" transform="translate(293,206)"/>
<path d="M0 0 C3.98751813 1.55070149 6.27992029 4.34256256 9 7.5 C17.99305888 17.55239162 28.45003513 25.11794334 39.49365234 32.74633789 C46.90721293 37.88100827 54.00252662 43.31565449 61 49 C61.96164063 49.77988281 62.92328125 50.55976563 63.9140625 51.36328125 C66.61644396 53.5670543 69.30847975 55.7829848 72 58 C73.79157706 59.45844341 75.58324502 60.91677517 77.375 62.375 C82.19402105 66.31215408 86.9470904 70.32288381 91.67333984 74.37060547 C94.0529138 76.39939677 96.39387492 78.26258328 99 80 C99 68.78 99 57.56 99 46 C101.97 46.33 104.94 46.66 108 47 C109.97406627 47.08170676 111.95002625 47.13040031 113.92578125 47.1328125 C115.49295898 47.13474609 115.49295898 47.13474609 117.09179688 47.13671875 C118.15462891 47.13285156 119.21746094 47.12898438 120.3125 47.125 C121.8893457 47.13080078 121.8893457 47.13080078 123.49804688 47.13671875 C124.54669922 47.13542969 125.59535156 47.13414062 126.67578125 47.1328125 C127.60302002 47.13168457 128.53025879 47.13055664 129.4855957 47.12939453 C134.66723746 46.93861508 139.83275811 46.43060349 145 46 C145 77.02 145 108.04 145 140 C129.82 140 114.64 140 99 140 C99 123.83 99 107.66 99 91 C97.02 90.34 95.04 89.68 93 89 C89.82888748 87.56825722 86.76568113 85.93349725 83.6875 84.3125 C82.78467285 83.83772217 81.8818457 83.36294434 80.95166016 82.8737793 C73.47341728 78.88652831 66.15147481 74.65569533 58.875 70.3125 C57.85752686 69.70768799 56.84005371 69.10287598 55.79174805 68.47973633 C40.7707325 59.40819698 29.66499988 49.7007358 20 35 C19.44828125 34.17113281 18.8965625 33.34226563 18.328125 32.48828125 C14.33664139 26.36373416 10.71795484 20.05981122 7.19580078 13.65771484 C5.48399312 10.56070964 3.73943847 7.55952424 1.73046875 4.64453125 C0 2 0 2 0 0 Z " fill="#046404" transform="translate(14,164)"/>
<path d="M0 0 C15.51 0 31.02 0 47 0 C47 34.98 47 69.96 47 106 C29.91951515 109.20259091 17.30031116 109.08126945 0 108 C0 72.36 0 36.72 0 0 Z " fill="#006400" transform="translate(112,306)"/>
<path d="M0 0 C11.88 0 23.76 0 36 0 C36 28.38 36 56.76 36 86 C25.86992716 89.37669095 25.86992716 89.37669095 21.9921875 89.328125 C21.15042969 89.32296875 20.30867188 89.3178125 19.44140625 89.3125 C18.59449219 89.291875 17.74757812 89.27125 16.875 89.25 C16.02035156 89.24484375 15.16570312 89.2396875 14.28515625 89.234375 C9.35931571 89.1738424 4.94594067 88.70656295 0 88 C0 58.96 0 29.92 0 0 Z " fill="#006200" transform="translate(180,326)"/>
<path d="M0 0 C12.21 0 24.42 0 37 0 C37 12.87 37 25.74 37 39 C24.6527314 43.1157562 12.66062992 42.81347332 0 40 C0 26.8 0 13.6 0 0 Z " fill="#026302" transform="translate(180,205)"/>
<path d="M0 0 C15.51 0 31.02 0 47 0 C47 34.98 47 69.96 47 106 C45.68 106 44.36 106 43 106 C43 71.68 43 37.36 43 2 C30.13 2 17.26 2 4 2 C4 36.32 4 70.64 4 106 C5.98 106 7.96 106 10 106 C9.505 106.99 9.505 106.99 9 108 C6.03 108 3.06 108 0 108 C0 72.36 0 36.72 0 0 Z " fill="#1B691B" transform="translate(112,306)"/>
<path d="M0 0 C0 0.66 0 1.32 0 2 C-0.60328125 2.10957031 -1.2065625 2.21914063 -1.828125 2.33203125 C-2.62734375 2.49058594 -3.4265625 2.64914062 -4.25 2.8125 C-5.03890625 2.96332031 -5.8278125 3.11414063 -6.640625 3.26953125 C-9.46673846 3.99947384 -9.46673846 3.99947384 -13 7 C-6.07 10.465 -6.07 10.465 1 14 C1 14.66 1 15.32 1 16 C0.01 16 -0.98 16 -2 16 C-2.03480469 16.59167969 -2.06960938 17.18335938 -2.10546875 17.79296875 C-3.50340087 21.24201524 -5.99783283 21.79463602 -9.3125 23.3125 C-10.58895154 23.91173131 -11.86366462 24.51467814 -13.13671875 25.12109375 C-13.7817334 25.42772949 -14.42674805 25.73436523 -15.09130859 26.05029297 C-19.01933161 28.00475825 -22.73544154 30.33151634 -26.4765625 32.6171875 C-30.52951868 34.83815729 -30.52951868 34.83815729 -33 35 C-35.76953125 33.890625 -35.76953125 33.890625 -38.8125 32.25 C-43.15676023 29.96354725 -47.45852586 27.85787579 -52 26 C-48.39665443 21.57771226 -43.29592117 18.93623829 -38 17 C-37.01 17.33 -36.02 17.66 -35 18 C-36.98 18.99 -38.96 19.98 -41 21 C-40.29875 20.855625 -39.5975 20.71125 -38.875 20.5625 C-35.92443859 19.98521625 -32.96729849 19.48304859 -30 19 C-30 22.76687864 -30.23537317 23.91190305 -32 27 C-29.20011357 29.30546619 -29.20011357 29.30546619 -26.125 28.8125 C-22.94541088 27.98580683 -20.70788778 26.83180644 -18 25 C-19.36125 25.4640625 -19.36125 25.4640625 -20.75 25.9375 C-23.16563338 26.7272263 -25.52780285 27.42949297 -28 28 C-28.6875 26.3125 -28.6875 26.3125 -29 24 C-27.5625 21.25 -27.5625 21.25 -26 19 C-28.64 18.34 -31.28 17.68 -34 17 C-33.01 16.67 -32.02 16.34 -31 16 C-31 15.01 -31 14.02 -31 13 C-26.15939723 9.93757784 -22.70709064 8.46588495 -17 8 C-16.67 7.01 -16.34 6.02 -16 5 C-11.0687015 1.70318085 -6.0358349 -0.7941888 0 0 Z " fill="#EFEFEF" transform="translate(349,270)"/>
<path d="M0 0 C0.99 0 1.98 0 3 0 C3 0.66 3 1.32 3 2 C3.66 2 4.32 2 5 2 C5.495 4.475 5.495 4.475 6 7 C5.46375 6.67 4.9275 6.34 4.375 6 C1.28004754 4.69686212 -0.65356315 4.60630155 -4 5 C-6.49781811 6.15593192 -8.67105104 7.50947267 -11 9 C-9.4221875 8.2575 -9.4221875 8.2575 -7.8125 7.5 C-4.74547391 6.17220212 -2.37865064 5.69284994 1 6 C1 6.99 1 7.98 1 9 C0.01 9.66 -0.98 10.32 -2 11 C-1.29875 10.649375 -0.5975 10.29875 0.125 9.9375 C3.50268586 8.8360807 5.58080593 9.20483859 9 10 C9 10.99 9 11.98 9 13 C7.02 13.66 5.04 14.32 3 15 C3 15.66 3 16.32 3 17 C3.94875 16.505 4.8975 16.01 5.875 15.5 C9 14 9 14 11 14 C11 14.66 11 15.32 11 16 C8.03 16.99 5.06 17.98 2 19 C2 19.66 2 20.32 2 21 C-0.53241602 22.37448233 -3.0735432 23.72421399 -5.625 25.0625 C-6.69427734 25.64741211 -6.69427734 25.64741211 -7.78515625 26.24414062 C-11.25126166 28.04079159 -13.34467588 29.02704758 -17.3125 28.86328125 C-20.17082632 27.94512701 -22.56672939 26.62045 -25.12109375 25.0546875 C-28.26652008 23.28906357 -31.60171474 22.19238079 -35 21 C-34.505 19.515 -34.505 19.515 -34 18 C-32.31472932 17.23997597 -30.62329838 16.48952223 -28.8984375 15.82421875 C-26.71353251 14.94923286 -26.71353251 14.94923286 -23.9375 12.875 C-20.8369545 10.8959284 -18.62683987 10.34541332 -15 10 C-14.67 9.01 -14.34 8.02 -14 7 C-9.74837792 4.05734987 -5.13134625 2.51313463 0 2 C0 1.34 0 0.68 0 0 Z " fill="#F0F0F0" transform="translate(39,119)"/>
<path d="M0 0 C2.0824891 0.25900729 2.0824891 0.25900729 4.2265625 -0.0234375 C12.67713045 -0.8275817 18.97415704 3.17721785 26.140625 7.13964844 C27.907662 8.1047087 29.70470926 9.01428117 31.50390625 9.91796875 C32.49390625 10.42070312 33.48390625 10.9234375 34.50390625 11.44140625 C35.36886719 11.8796875 36.23382813 12.31796875 37.125 12.76953125 C39.06640625 14.19140625 39.06640625 14.19140625 39.8515625 16.36328125 C39.92246094 16.9665625 39.99335937 17.56984375 40.06640625 18.19140625 C33.59179485 23.93026635 33.59179485 23.93026635 30.06640625 24.19140625 C29.73640625 23.86140625 29.40640625 23.53140625 29.06640625 23.19140625 C19.63295945 21.49102007 13.01036676 23.57442369 4.75390625 27.94140625 C3.49054443 28.60523315 3.49054443 28.60523315 2.20166016 29.2824707 C-2.18794056 31.44188346 -2.18794056 31.44188346 -4.66870117 35.35253906 C-4.75611572 35.95936523 -4.84353027 36.56619141 -4.93359375 37.19140625 C-5.59359375 37.19140625 -6.25359375 37.19140625 -6.93359375 37.19140625 C-7.42859375 38.18140625 -7.42859375 38.18140625 -7.93359375 39.19140625 C-7.99609375 36.56640625 -7.99609375 36.56640625 -6.93359375 33.19140625 C-4.2117841 30.72851585 -1.11832186 28.9946948 2.06640625 27.19140625 C3.02417969 26.63839844 3.98195312 26.08539063 4.96875 25.515625 C11.59277838 21.79016474 16.22075482 20.16060185 23.81640625 19.62890625 C25.57210937 19.50322266 25.57210937 19.50322266 27.36328125 19.375 C28.2553125 19.31441406 29.14734375 19.25382812 30.06640625 19.19140625 C30.56140625 17.70640625 30.56140625 17.70640625 31.06640625 16.19140625 C18.68759869 8.79381225 9.70471661 3.75559112 -4.93359375 5.19140625 C-8.28825643 4.99947281 -11.60298618 4.63026278 -14.93359375 4.19140625 C-14.60359375 3.20140625 -14.27359375 2.21140625 -13.93359375 1.19140625 C-14.74103027 1.62074463 -15.5484668 2.05008301 -16.38037109 2.49243164 C-19.37006696 4.07730211 -22.36334465 5.65494324 -25.359375 7.2277832 C-26.6567916 7.91077944 -27.95270127 8.59664608 -29.24707031 9.28540039 C-31.10486014 10.27332921 -32.9677754 11.25090264 -34.83203125 12.2265625 C-35.95270996 12.81832275 -37.07338867 13.41008301 -38.22802734 14.01977539 C-39.56728271 14.59973267 -39.56728271 14.59973267 -40.93359375 15.19140625 C-41.59359375 14.86140625 -42.25359375 14.53140625 -42.93359375 14.19140625 C-39.09605787 11.07222684 -34.85557269 9.05797164 -30.42895508 6.90014648 C-29.49345825 6.44297241 -29.49345825 6.44297241 -28.5390625 5.9765625 C-27.92466309 5.67637207 -27.31026367 5.37618164 -26.67724609 5.06689453 C-25.13428503 4.29217339 -23.61922843 3.46241525 -22.109375 2.625 C-14.35757945 -1.64639755 -8.61282464 -1.33153258 0 0 Z " fill="#F0F0F0" transform="translate(42.93359375,267.80859375)"/>
<path d="M0 0 C0.70769531 0.04890381 1.41539062 0.09780762 2.14453125 0.14819336 C7.56528946 0.53389166 12.97463712 1.01486285 18.375 1.625 C18.375 3.605 18.375 5.585 18.375 7.625 C17.385 7.295 16.395 6.965 15.375 6.625 C13.52473017 6.40230779 11.66959993 6.21828868 9.8125 6.0625 C8.84183594 5.97871094 7.87117188 5.89492187 6.87109375 5.80859375 C5.37518781 5.69856624 3.87494688 5.625 2.375 5.625 C1.58424072 5.55611572 0.79348145 5.48723145 -0.02124023 5.41625977 C-8.71668626 4.94170321 -14.24861403 7.26501899 -21.6875 11.5625 C-23.6985793 12.67693596 -25.71026955 13.79027036 -27.72265625 14.90234375 C-29.02988647 15.64859009 -29.02988647 15.64859009 -30.36352539 16.40991211 C-32.625 17.625 -32.625 17.625 -35.625 18.625 C-35.13 19.12 -34.635 19.615 -34.125 20.125 C-31.96946556 23.71755739 -32.52350143 26.46355866 -32.625 30.625 C-29.28704601 32.50952422 -25.92752961 34.35182604 -22.5625 36.1875 C-21.61955078 36.72052734 -20.67660156 37.25355469 -19.70507812 37.80273438 C-14.16739307 40.79347021 -10.78160574 42.46088104 -4.625 40.625 C-4.46 39.573125 -4.295 38.52125 -4.125 37.4375 C-2.90951585 33.26294064 -0.7624283 31.92943301 2.94140625 29.890625 C3.74449219 29.47296875 4.54757812 29.0553125 5.375 28.625 C6.33277344 28.08359375 7.29054688 27.5421875 8.27734375 26.984375 C16.02847547 22.625 16.02847547 22.625 18.375 22.625 C18.375 23.285 18.375 23.945 18.375 24.625 C17.87049316 24.88192627 17.36598633 25.13885254 16.84619141 25.40356445 C14.55993508 26.57355257 12.27999023 27.75535073 10 28.9375 C9.2059375 29.34162109 8.411875 29.74574219 7.59375 30.16210938 C6.83320313 30.55849609 6.07265625 30.95488281 5.2890625 31.36328125 C4.5873291 31.72462158 3.8855957 32.08596191 3.16259766 32.45825195 C1.06912776 33.6574233 1.06912776 33.6574233 -0.625 36.625 C-0.769375 37.470625 -0.91375 38.31625 -1.0625 39.1875 C-1.625 41.625 -1.625 41.625 -4.625 43.625 C-12.87806677 44.63226405 -18.05263835 41.91903658 -25.125 37.875 C-26.1253125 37.33617187 -27.125625 36.79734375 -28.15625 36.2421875 C-35.38999126 32.21252185 -35.38999126 32.21252185 -36.44726562 29.56933594 C-36.625 27.625 -36.625 27.625 -36.0625 25.5 C-35.8459375 24.571875 -35.8459375 24.571875 -35.625 23.625 C-36.285 22.965 -36.945 22.305 -37.625 21.625 C-37.63671875 19.73828125 -37.63671875 19.73828125 -36.625 17.625 C-34.56664647 16.16335803 -32.65130134 14.98642293 -30.4375 13.8125 C-29.82052246 13.47283203 -29.20354492 13.13316406 -28.56787109 12.78320312 C-22.0163084 9.21173178 -15.33442013 5.88793988 -8.625 2.625 C-15.8457193 4.7470073 -21.90870723 7.80610527 -28.375 11.625 C-29.75365234 12.42550781 -29.75365234 12.42550781 -31.16015625 13.2421875 C-35.33475675 15.67082628 -39.48604798 18.13612242 -43.625 20.625 C-42.11545936 16.30656727 -39.39932544 15.02451425 -35.5 12.875 C-34.88979004 12.53718506 -34.27958008 12.19937012 -33.65087891 11.85131836 C-28.8165959 9.20327479 -23.91823521 6.67553506 -19 4.1875 C-18.32565918 3.84557617 -17.65131836 3.50365234 -16.95654297 3.15136719 C-10.80614102 0.09713879 -6.80422804 -0.51429154 0 0 Z " fill="#F1F1F1" transform="translate(331.625,110.375)"/>
<path d="M0 0 C2.97 0.33 5.94 0.66 9 1 C9 1.33 9 1.66 9 2 C7.35 2 5.7 2 4 2 C4 36.32 4 70.64 4 106 C5.98 106 7.96 106 10 106 C9.505 106.99 9.505 106.99 9 108 C6.03 108 3.06 108 0 108 C0 72.36 0 36.72 0 0 Z " fill="#2C782F" transform="translate(112,306)"/>
<path d="M0 0 C0.33 0.66 0.66 1.32 1 2 C-0.04800781 2.53109375 -1.09601562 3.0621875 -2.17578125 3.609375 C-3.55494777 4.32241347 -4.93383976 5.03598313 -6.3125 5.75 C-7.00279297 6.09804688 -7.69308594 6.44609375 -8.40429688 6.8046875 C-12.11677089 8.74163047 -14.81090268 10.27601835 -17 14 C-16.484375 14.556875 -15.96875 15.11375 -15.4375 15.6875 C-14 18 -14 18 -14.41015625 20.64453125 C-14.60480469 21.42183594 -14.79945312 22.19914062 -15 23 C-12.45934066 24.43930464 -9.91751978 25.87648839 -7.375 27.3125 C-6.66214844 27.71662109 -5.94929687 28.12074219 -5.21484375 28.53710938 C-3.149231 29.70256978 -1.07608038 30.8533128 1 32 C2.0725 32.598125 3.145 33.19625 4.25 33.8125 C7.08747351 35.03777265 8.3906812 35.2534915 11.375 34.6875 C12.57125 34.460625 13.7675 34.23375 15 34 C13.68 34.99 12.36 35.98 11 37 C15.97852745 35.53117979 20.24289774 33.38091344 24.75 30.875 C31.73572664 27 31.73572664 27 34 27 C34 27.66 34 28.32 34 29 C30.89779023 30.64954167 27.79290789 32.2939881 24.6875 33.9375 C23.36588867 34.64036133 23.36588867 34.64036133 22.01757812 35.35742188 C21.17001953 35.80537109 20.32246094 36.25332031 19.44921875 36.71484375 C18.66893311 37.12855225 17.88864746 37.54226074 17.0847168 37.96850586 C12.8967646 40.04065693 9.64172256 40.35778951 5 40 C2.25003312 39.02788917 -0.25400402 37.70465931 -2.8125 36.3125 C-3.85374023 35.76819336 -3.85374023 35.76819336 -4.91601562 35.21289062 C-6.30304428 34.48782365 -7.68740347 33.75762378 -9.06884766 33.02197266 C-11.68979702 31.63495697 -14.34255374 30.31545485 -17 29 C-18.33333333 28.33333333 -19.66666667 27.66666667 -21 27 C-21.66023554 21.81815137 -21.9432006 17.16362364 -21 12 C-17.89333329 8.47679697 -14.25729144 6.86423427 -10 5 C-8.1021488 4.02475018 -6.20614379 3.04589442 -4.3125 2.0625 C-2.87803416 1.36869148 -1.44170669 0.67863417 0 0 Z M49 18 C49 18.99 49 19.98 49 21 C47.06891037 22.03290841 45.129882 23.05098672 43.1875 24.0625 C42.10855469 24.63097656 41.02960937 25.19945312 39.91796875 25.78515625 C37 27 37 27 34 26 C38.95 23.36 43.9 20.72 49 18 Z " fill="#EFEFEF" transform="translate(21,274)"/>
<path d="M0 0 C3.25207092 1.41738489 5.31361067 3.12526412 7.75 5.6875 C10.44250961 8.46008425 13.17566289 11.06516858 16.125 13.5625 C19.84129554 16.74999459 22.90579342 20.20959694 26 24 C25.67 24.66 25.34 25.32 25 26 C25.66 26 26.32 26 27 26 C26.9375 27.8125 26.9375 27.8125 26 30 C22.4375 31.75 22.4375 31.75 19 33 C14.26508931 26.41731928 10.3757413 19.41332529 6.51611328 12.29736328 C4.52904504 8.65401567 2.51038642 5.31174755 0 2 C0 1.34 0 0.68 0 0 Z " fill="#086008" transform="translate(26,87)"/>
<path d="M0 0 C-2.48270089 1.24768387 -4.97341594 2.47684227 -7.46875 3.69921875 C-15.85334495 7.82483952 -24.00350804 12.15364124 -32 17 C-31.50341822 19.0199937 -30.99561394 21.01403538 -30.375 23 C-29.94088602 25.31527453 -30.37367681 26.75645425 -31 29 C-27.55783616 31.00830525 -24.09396471 32.97590956 -20.625 34.9375 C-19.17673828 35.78344727 -19.17673828 35.78344727 -17.69921875 36.64648438 C-11.52499077 40.10653831 -6.17166143 42.29573862 1 42 C3.99594957 41.22737205 3.99594957 41.22737205 6 40 C5 43 5 43 3.25 44.15673828 C-2.1066183 46.16430768 -7.67363372 45.85345534 -13 43.89941406 C-16.06981377 42.41147373 -19.03420674 40.81037276 -22 39.125 C-23.02222656 38.56941406 -24.04445313 38.01382813 -25.09765625 37.44140625 C-28.82313505 35.4044185 -32.46610466 33.35593023 -36 31 C-35.649375 30.278125 -35.29875 29.55625 -34.9375 28.8125 C-33.87241022 25.61723066 -34.09935771 24.19318629 -35 21 C-35.185625 20.236875 -35.37125 19.47375 -35.5625 18.6875 C-35.706875 18.130625 -35.85125 17.57375 -36 17 C-31.16989413 12.68217809 -25.54403952 9.86025211 -19.875 6.8125 C-18.87339844 6.26658203 -17.87179687 5.72066406 -16.83984375 5.15820312 C-10.92775164 1.95615055 -6.84712844 -0.15215841 0 0 Z " fill="#F7F7F7" transform="translate(327,112)"/>
<path d="M0 0 C0.66 0 1.32 0 2 0 C3.48203779 2.96407559 3.11920826 5.62079165 3.11352539 8.92822266 C3.11367142 9.64052536 3.11381744 10.35282806 3.1139679 11.0867157 C3.11327011 13.44586206 3.10548397 15.80492989 3.09765625 18.1640625 C3.0957916 19.79788164 3.09436792 21.43170134 3.09336853 23.06552124 C3.08954709 27.3694818 3.07971998 31.67340871 3.06866455 35.97735596 C3.05844242 40.36771184 3.05386919 44.75807315 3.04882812 49.1484375 C3.03809739 57.76564046 3.02102543 66.38281604 3 75 C3.66 75.33 4.32 75.66 5 76 C3.35 76 1.7 76 0 76 C0 50.92 0 25.84 0 0 Z " fill="#0E5D0E" transform="translate(180,247)"/>
<path d="M0 0 C0.33 0 0.66 0 1 0 C1.17422119 4.04137562 1.33779896 8.08312555 1.5 12.125 C1.54769531 13.2284375 1.59539062 14.331875 1.64453125 15.46875 C1.92927666 22.70941905 2.03547128 29.93414218 2.02734375 37.1796875 C2.02671684 38.13926928 2.02608994 39.09885105 2.02544403 40.08751106 C2.01089809 50.11907335 1.90401553 60.14896479 1.78125 70.1796875 C1.75871755 72.09880443 1.73629972 74.01792271 1.71398926 75.93704224 C1.65593788 80.90488046 1.59636643 85.87269925 1.53643799 90.84051514 C1.47516579 95.94314474 1.41538695 101.04579185 1.35546875 106.1484375 C1.23841057 116.09897564 1.11974066 126.04949381 1 136 C0.67 136 0.34 136 0 136 C0 107.29 0 78.58 0 49 C-1.98 49 -3.96 49 -6 49 C-6 48.67 -6 48.34 -6 48 C-4.02 48 -2.04 48 0 48 C0 32.16 0 16.32 0 0 Z " fill="#B7D6BD" transform="translate(217,276)"/>
<path d="M0 0 C0.81049805 0.42708252 1.62099609 0.85416504 2.45605469 1.29418945 C3.2143457 1.71273193 3.97263672 2.13127441 4.75390625 2.5625 C5.78173218 3.12130859 5.78173218 3.12130859 6.83032227 3.69140625 C8.82663929 5.31684439 9.072216 6.49821783 9.4375 9 C3.15178571 14.57142857 3.15178571 14.57142857 -0.5625 15 C-0.5625 14.01 -0.5625 13.02 -0.5625 12 C0.75087396 10.9739266 2.08414105 9.97272675 3.4375 9 C3.4375 8.34 3.4375 7.68 3.4375 7 C0.01829707 4.98793233 -3.42540957 3.02193853 -6.875 1.0625 C-8.31069336 0.21655273 -8.31069336 0.21655273 -9.77539062 -0.64648438 C-16.4282567 -4.38732153 -21.91653714 -5.97848316 -29.5625 -6 C-18.43771437 -11.72808111 -10.06931323 -5.41379021 0 0 Z " fill="#F6F6F6" transform="translate(73.5625,277)"/>
<path d="M0 0 C4.6803115 3.36022364 4.6803115 3.36022364 6.4375 5.75 C6.625 8.1875 6.625 8.1875 5.4375 10.75 C-0.08288908 15.88223672 -5.40068005 17.18901394 -12.81640625 17.08984375 C-17.65358433 16.49121716 -21.74756628 14.78978783 -25.5625 11.75 C-27 8.1875 -27 8.1875 -26.5625 4.75 C-19.88297712 -2.51889254 -8.92139885 -3.13031539 0 0 Z M-23.0625 3.5625 C-24.85551811 6.17731807 -24.90776827 7.64258553 -24.5625 10.75 C-17.89103015 14.85551991 -12.3525756 15.67999498 -4.5625 14.75 C-1.05813918 13.42075969 0.8209084 12.3665916 3.4375 9.75 C3.50698565 6.74706929 3.50698565 6.74706929 2.4375 3.75 C-4.01346024 -2.28476926 -16.28136451 -1.35382323 -23.0625 3.5625 Z " fill="#F0F0F0" transform="translate(44.5625,280.25)"/>
<path d="M0 0 C0.66 0.33 1.32 0.66 2 1 C1.67 1.33 1.34 1.66 1 2 C3.31 2.33 5.62 2.66 8 3 C7.34 3.66 6.68 4.32 6 5 C8.35968744 7.09749995 9.54616994 7.96905704 12.75 8.1875 C13.4925 8.125625 14.235 8.06375 15 8 C15 9.65 15 11.3 15 13 C13.54735962 13.8638129 12.0876837 14.71580454 10.625 15.5625 C9.81289063 16.03816406 9.00078125 16.51382812 8.1640625 17.00390625 C7.44992187 17.33261719 6.73578125 17.66132813 6 18 C3.24616077 16.62308038 2.48516899 14.63279958 1 12 C2.98 11.34 4.96 10.68 7 10 C6.67 9.34 6.34 8.68 6 8 C2.7 8 -0.6 8 -4 8 C-3.67 6.68 -3.34 5.36 -3 4 C-4.32 4.33 -5.64 4.66 -7 5 C-4.88437775 2.67281553 -2.94982021 1.14186589 0 0 Z " fill="#EDEDED" transform="translate(289,299)"/>
<path d="M0 0 C2.97 0 5.94 0 9 0 C9.02464775 5.53588533 9.04283496 11.071739 9.05493164 16.60766602 C9.05997244 18.4924373 9.06680498 20.37720465 9.07543945 22.26196289 C9.08751617 24.96501636 9.09323068 27.66801831 9.09765625 30.37109375 C9.10281754 31.21900986 9.10797882 32.06692596 9.11329651 32.9405365 C9.11349195 34.96071068 9.06206211 36.98077934 9 39 C8 40 8 40 5.4375 40.0625 C4.633125 40.041875 3.82875 40.02125 3 40 C4.485 39.505 4.485 39.505 6 39 C6 26.79 6 14.58 6 2 C4.02 2 2.04 2 0 2 C0 1.34 0 0.68 0 0 Z " fill="#166518" transform="translate(208,205)"/>
<path d="M0 0 C8.52705647 0.98502204 17.18767402 0.20974244 25.68359375 -0.71484375 C26.53566406 -0.72257813 27.38773438 -0.7303125 28.265625 -0.73828125 C28.925625 -0.07828125 29.585625 0.58171875 30.265625 1.26171875 C26.55047461 2.12047152 23.11056775 2.39033842 19.30078125 2.39453125 C18.17091797 2.39582031 17.04105469 2.39710938 15.87695312 2.3984375 C14.70583984 2.39457031 13.53472656 2.39070312 12.328125 2.38671875 C11.16087891 2.39058594 9.99363281 2.39445313 8.79101562 2.3984375 C7.09428711 2.39650391 7.09428711 2.39650391 5.36328125 2.39453125 C4.33726807 2.39340332 3.31125488 2.39227539 2.25415039 2.39111328 C-0.734375 2.26171875 -0.734375 2.26171875 -6.734375 1.26171875 C-6.734375 26.34171875 -6.734375 51.42171875 -6.734375 77.26171875 C-7.064375 77.26171875 -7.394375 77.26171875 -7.734375 77.26171875 C-7.734375 51.85171875 -7.734375 26.44171875 -7.734375 0.26171875 C-4.62859245 -0.7735421 -3.13378055 -0.50693509 0 0 Z " fill="#AED4B5" transform="translate(186.734375,245.73828125)"/>
<path d="M0 0 C0.7425 0.0825 1.485 0.165 2.25 0.25 C2.58 1.57 2.91 2.89 3.25 4.25 C1.27 5.24 1.27 5.24 -0.75 6.25 C0.57 7.24 1.89 8.23 3.25 9.25 C2.92 10.24 2.59 11.23 2.25 12.25 C-1.20689963 13.46631654 -4.07831864 14.25 -7.75 14.25 C-9.57421875 12.9375 -9.57421875 12.9375 -11.4375 11.25 C-12.06011719 10.693125 -12.68273438 10.13625 -13.32421875 9.5625 C-14.02998047 8.9128125 -14.02998047 8.9128125 -14.75 8.25 C-14.42 6.93 -14.09 5.61 -13.75 4.25 C-9.13 6.56 -4.51 8.87 0.25 11.25 C0.25 10.59 0.25 9.93 0.25 9.25 C-2.225 8.26 -2.225 8.26 -4.75 7.25 C-3.43 5.6 -2.11 3.95 -0.75 2.25 C-2.73 2.91 -4.71 3.57 -6.75 4.25 C-3.42692308 0.31153846 -3.42692308 0.31153846 0 0 Z " fill="#EDEFED" transform="translate(73.75,108.75)"/>
<path d="M0 0 C1.5 1.6875 1.5 1.6875 2.125 4.5625 C1.24596004 8.95769979 -0.88447995 10.20626075 -4.5 12.6875 C-11.19620217 14.91956739 -19.8536266 14.93206858 -26.3125 11.9375 C-29.5 9.6875 -29.5 9.6875 -30.19921875 7.546875 C-30.29847656 6.93328125 -30.39773438 6.3196875 -30.5 5.6875 C-29.84 5.6875 -29.18 5.6875 -28.5 5.6875 C-27.63375 6.615625 -27.63375 6.615625 -26.75 7.5625 C-22.99470721 11.10916541 -19.09090469 11.8033107 -14.0625 12 C-9.49720641 11.86868022 -6.39567035 11.12229397 -2.5 8.6875 C-1.44250443 5.60380113 -1.44250443 5.60380113 -1.5 2.6875 C-6.49965488 -1.41935937 -10.34753508 -1.43428208 -16.75 -1.375 C-18.64492188 -1.36146484 -18.64492188 -1.36146484 -20.578125 -1.34765625 C-21.54234375 -1.33605469 -22.5065625 -1.32445313 -23.5 -1.3125 C-23.17 -1.9725 -22.84 -2.6325 -22.5 -3.3125 C-14.18220747 -5.75890957 -7.38240891 -3.87576468 0 0 Z " fill="#F0F0F0" transform="translate(341.5,126.3125)"/>
<path d="M0 0 C-1.25521297 3.41684456 -2.6789001 6.21081831 -4.828125 9.14453125 C-5.38113281 9.90443359 -5.93414062 10.66433594 -6.50390625 11.44726562 C-7.08011719 12.22779297 -7.65632813 13.00832031 -8.25 13.8125 C-8.81074219 14.58142578 -9.37148438 15.35035156 -9.94921875 16.14257812 C-13.59125187 21.12619157 -17.28556343 26.07019034 -21 31 C-21.66 30.34 -22.32 29.68 -23 29 C-22.63648438 28.52691406 -22.27296875 28.05382812 -21.8984375 27.56640625 C-18.05368143 22.50907327 -14.47221015 17.31913045 -11 12 C-11.99 11.34 -12.98 10.68 -14 10 C-12.04653795 8.32731078 -10.08770186 6.66178419 -8.125 5 C-7.56941406 4.52304688 -7.01382812 4.04609375 -6.44140625 3.5546875 C-2.2265625 0 -2.2265625 0 0 0 Z " fill="#115D11" transform="translate(293,206)"/>
<path d="M0 0 C0.66 0 1.32 0 2 0 C2.66580096 15.6746545 3.16100974 31.31049525 3 47 C1.02 47 -0.96 47 -3 47 C-1.515 46.505 -1.515 46.505 0 46 C0 30.82 0 15.64 0 0 Z " fill="#005700" transform="translate(214,276)"/>
<path d="M0 0 C4.14497228 1.58369224 6.64257037 4.62827478 9.5 7.875 C12.58874123 11.33405353 15.68011654 14.75841567 19 18 C15.62537285 17.45276317 13.91765 16.9451 11 15 C12.32 17.31 13.64 19.62 15 22 C14.34 22.66 13.68 23.32 13 24 C12.39671875 22.91460937 11.7934375 21.82921875 11.171875 20.7109375 C10.36471223 19.26555301 9.55741332 17.82024454 8.75 16.375 C8.35425781 15.66214844 7.95851563 14.94929687 7.55078125 14.21484375 C5.70874036 10.92332806 3.84478152 7.70828646 1.703125 4.6015625 C0 2 0 2 0 0 Z " fill="#0D590E" transform="translate(14,164)"/>
<path d="M0 0 C0.99 0.33 1.98 0.66 3 1 C-0.26660962 3.31851241 -3.53897876 5.62875884 -6.8125 7.9375 C-7.74126953 8.59685547 -8.67003906 9.25621094 -9.62695312 9.93554688 C-10.51962891 10.56396484 -11.41230469 11.19238281 -12.33203125 11.83984375 C-13.15421143 12.42113037 -13.9763916 13.00241699 -14.82348633 13.60131836 C-17 15 -17 15 -20 16 C-20 15.01 -20 14.02 -20 13 C-20.99 13.495 -20.99 13.495 -22 14 C-23.99960012 14.039992 -26.00047242 14.04346799 -28 14 C-25.61973835 12.4131589 -23.6069559 11.31284652 -21.015625 10.1953125 C-20.24476563 9.85886719 -19.47390625 9.52242187 -18.6796875 9.17578125 C-17.07590498 8.48218399 -15.47174555 7.78945751 -13.8671875 7.09765625 C-10.13768845 5.46832361 -6.58445692 3.80456672 -3.109375 1.6796875 C-2.08328125 1.12539062 -1.0571875 0.57109375 0 0 Z " fill="#165E17" transform="translate(341,220)"/>
<path d="M0 0 C0.66 0.33 1.32 0.66 2 1 C2 1.66 2 2.32 2 3 C3.423125 3.12375 3.423125 3.12375 4.875 3.25 C5.90625 3.4975 6.9375 3.745 8 4 C9.1953125 6.046875 9.1953125 6.046875 10 8 C8.73760288 8.86658615 7.46472499 9.71792059 6.1875 10.5625 C5.12595703 11.27599609 5.12595703 11.27599609 4.04296875 12.00390625 C2 13 2 13 -1 12 C-0.030625 11.38125 0.93875 10.7625 1.9375 10.125 C5.02835362 8.34321154 5.02835362 8.34321154 6 6 C1.83861737 5.91840426 -1.9472484 6.01751476 -6 7 C-4.625 5.5 -4.625 5.5 -3 4 C-2.34 4 -1.68 4 -1 4 C-1 3.34 -1 2.68 -1 2 C-4.76667915 2.51363807 -7.64120164 3.26269051 -11 5 C-11.99 5 -12.98 5 -14 5 C-14 4.34 -14 3.68 -14 3 C-8.98375652 -0.00974609 -5.69062784 -0.37937519 0 0 Z " fill="#FBFBFB" transform="translate(335,280)"/>
<path d="M0 0 C7.59 0 15.18 0 23 0 C19.97137983 3.02862017 17.96553903 4.47479268 14 6 C8.28875868 5.89615925 4.69924536 3.97299196 0 1 C0 0.67 0 0.34 0 0 Z " fill="#F3F3F3" transform="translate(278,0)"/>
<path d="M0 0 C1.98 0.99 1.98 0.99 4 2 C4 4.64 4 7.28 4 10 C7.24930212 11.79293448 10.49956227 13.58412522 13.75 15.375 C15.13058594 16.13683594 15.13058594 16.13683594 16.5390625 16.9140625 C17.42851562 17.40390625 18.31796875 17.89375 19.234375 18.3984375 C20.05131836 18.84880371 20.86826172 19.29916992 21.70996094 19.76318359 C23.78768579 20.88533222 25.88131979 21.95767741 28 23 C26.4140625 23.7265625 26.4140625 23.7265625 24 24 C21.65249167 22.88242047 19.56875266 21.74037168 17.375 20.375 C16.13149449 19.63065961 14.88669171 18.88848233 13.640625 18.1484375 C13.02767578 17.78202148 12.41472656 17.41560547 11.78320312 17.03808594 C7.96204013 14.81360825 3.97620645 12.92785767 0 11 C0 7.37 0 3.74 0 0 Z " fill="#FBFBFB" transform="translate(0,288)"/>
<path d="M0 0 C2.31 0.33 4.62 0.66 7 1 C7 1.33 7 1.66 7 2 C5.35 2 3.7 2 2 2 C2.33 14.21 2.66 26.42 3 39 C2.01 39 1.02 39 0 39 C0 26.13 0 13.26 0 0 Z " fill="#085A08" transform="translate(180,205)"/>
<path d="M0 0 C2.475 0.99 2.475 0.99 5 2 C6.9924325 2.37593066 8.9918674 2.71979545 11 3 C11 6 11 6 9.8125 7.5 C6.62509685 10.13785088 4.21206073 12 0 12 C0 8.04 0 4.08 0 0 Z " fill="#F3F3F3" transform="translate(0,148)"/>
<path d="M0 0 C0.99 0.66 1.98 1.32 3 2 C2.690625 2.598125 2.38125 3.19625 2.0625 3.8125 C0.89790296 6.08956772 0.89790296 6.08956772 0 9 C3.9492568 8.44894091 7.34920174 7.61064629 11 6 C10 9 10 9 7.3125 10.75 C3.590285 12.15460943 1.78805411 12.03310567 -2 11 C-2.66 10.67 -3.32 10.34 -4 10 C-3.37240135 7.07120629 -2.41377341 4.63904371 -1 2 C-5.19469571 2.59924224 -9.00999834 3.57499941 -13 5 C-13 4.34 -13 3.68 -13 3 C-8.46370773 0.3446094 -5.25370771 -0.4956328 0 0 Z " fill="#FCFCFC" transform="translate(27,131)"/>
<path d="M0 0 C0.72348129 -0.00191345 1.44696259 -0.0038269 2.19236755 -0.00579834 C3.71963855 -0.00715785 5.2469212 -0.00347774 6.77416992 0.00488281 C9.11598533 0.01560162 11.45703633 0.00497209 13.79882812 -0.0078125 C15.28255378 -0.00649117 16.76627896 -0.00392932 18.25 0 C19.30315147 -0.00607269 19.30315147 -0.00607269 20.37757874 -0.01226807 C25.32865822 0.03568947 25.32865822 0.03568947 27.55859375 2.265625 C21.03895958 3.44760184 14.60814252 3.41373059 7.99609375 3.390625 C6.88556641 3.39449219 5.77503906 3.39835938 4.63085938 3.40234375 C3.0153418 3.40041016 3.0153418 3.40041016 1.3671875 3.3984375 C0.39579834 3.39730957 -0.57559082 3.39618164 -1.57641602 3.39501953 C-4.59806062 3.25854986 -7.4702652 2.81963649 -10.44140625 2.265625 C-6.82625824 -0.14447368 -4.17622982 -0.02415065 0 0 Z " fill="#C2D8C3" transform="translate(126.44140625,208.734375)"/>
<path d="M0 0 C0.33 0 0.66 0 1 0 C2.3445497 9.53596018 2.80568387 18.3898164 -2 27 C-2.70758326 30.2366963 -2.70758326 30.2366963 -3 33 C-3.33 33 -3.66 33 -4 33 C-3.59591214 21.7412761 -2.35785057 11.01813189 0 0 Z " fill="#2E7831" transform="translate(127,23)"/>
<path d="M0 0 C0.99 0.33 1.98 0.66 3 1 C4.64160449 5.56001248 5.62832294 10.16819819 6 15 C5.01 16.485 5.01 16.485 4 18 C3.34 16.02 2.68 14.04 2 12 C1.01 12.33 0.02 12.66 -1 13 C-1 14.65 -1 16.3 -1 18 C-1.33 18 -1.66 18 -2 18 C-2.2361959 11.59646678 -1.823321 6.15370839 0 0 Z " fill="#2C712E" transform="translate(130,5)"/>
<path d="M0 0 C0.33 0 0.66 0 1 0 C1 14.52 1 29.04 1 44 C3.64 43.67 6.28 43.34 9 43 C9 43.66 9 44.32 9 45 C14.94 45 20.88 45 27 45 C27 45.33 27 45.66 27 46 C23.81251971 46.02932572 20.62507472 46.04690739 17.4375 46.0625 C16.54224609 46.07087891 15.64699219 46.07925781 14.72460938 46.08789062 C13.84482422 46.09111328 12.96503906 46.09433594 12.05859375 46.09765625 C10.85674438 46.10551147 10.85674438 46.10551147 9.63061523 46.11352539 C6.40202817 45.97419425 3.19911298 45.45701614 0 45 C0 30.15 0 15.3 0 0 Z " fill="#2A772C" transform="translate(180,369)"/>
<path d="M0 0 C0.33 0.66 0.66 1.32 1 2 C0.01 2.99 -0.98 3.98 -2 5 C0.5217982 5.90064221 1.57303018 6.19407719 4.0625 5.0625 C4.701875 4.711875 5.34125 4.36125 6 4 C6.99 4 7.98 4 9 4 C9 4.66 9 5.32 9 6 C6.9021477 7.20005531 4.7979751 8.38502983 2.6875 9.5625 C2.09259766 9.90474609 1.49769531 10.24699219 0.88476562 10.59960938 C-0.70282559 11.47766262 -2.34993931 12.24586268 -4 13 C-4.99 12.67 -5.98 12.34 -7 12 C-6.34 11.34 -5.68 10.68 -5 10 C-5 8.68 -5 7.36 -5 6 C-5.66 5.34 -6.32 4.68 -7 4 C-4.69 2.68 -2.38 1.36 0 0 Z " fill="#FBFBFB" transform="translate(36,126)"/>
<path d="M0 0 C4.34007922 2.01978783 7.63322503 4.84633359 11.25 7.9375 C11.8996875 8.47568359 12.549375 9.01386719 13.21875 9.56835938 C14.13914062 10.35243164 14.13914062 10.35243164 15.078125 11.15234375 C15.63918945 11.62663818 16.20025391 12.10093262 16.77832031 12.58959961 C18 14 18 14 18 17 C17.67 16.34 17.34 15.68 17 15 C14.69467163 13.69364726 12.52428777 12.84142926 10 12 C9.67 12.66 9.34 13.32 9 14 C7.49717827 11.85609361 5.99764203 9.71001973 4.5 7.5625 C4.07074219 6.95083984 3.64148437 6.33917969 3.19921875 5.70898438 C0 1.11328125 0 1.11328125 0 0 Z " fill="#1F5B22" transform="translate(56,55)"/>
<path d="M0 0 C0.99 0.33 1.98 0.66 3 1 C2.01 1.33 1.02 1.66 0 2 C0 2.66 0 3.32 0 4 C4.46839215 4.21278058 7.82262526 3.59138085 12 2 C11 5 11 5 7.83984375 6.82421875 C6.54399131 7.45553148 5.24293771 8.07625399 3.9375 8.6875 C3.27427734 9.00783203 2.61105469 9.32816406 1.92773438 9.65820312 C0.28949142 10.4478598 -1.35471454 11.22512362 -3 12 C-1.125 7.25 -1.125 7.25 0 5 C-0.99 4.67 -1.98 4.34 -3 4 C-3 3.34 -3 2.68 -3 2 C-2.01 1.34 -1.02 0.68 0 0 Z " fill="#FCFCFC" transform="translate(326,284)"/>
<path d="M0 0 C2.97 0.495 2.97 0.495 6 1 C6.33 1.99 6.66 2.98 7 4 C1.25 7 1.25 7 -1 7 C-1 6.34 -1 5.68 -1 5 C-4.96 6.98 -8.92 8.96 -13 11 C-13.33 10.34 -13.66 9.68 -14 9 C-13.15695313 8.60167969 -12.31390625 8.20335938 -11.4453125 7.79296875 C-10.34960938 7.26316406 -9.25390625 6.73335938 -8.125 6.1875 C-7.03445312 5.66542969 -5.94390625 5.14335938 -4.8203125 4.60546875 C-1.77778598 3.15275103 -1.77778598 3.15275103 0 0 Z " fill="#ECECEC" transform="translate(70,101)"/>
<path d="M0 0 C8.52705647 0.98502204 17.18767402 0.20974244 25.68359375 -0.71484375 C26.53566406 -0.72257813 27.38773438 -0.7303125 28.265625 -0.73828125 C28.925625 -0.07828125 29.585625 0.58171875 30.265625 1.26171875 C26.55047461 2.12047152 23.11056775 2.39033842 19.30078125 2.39453125 C18.17091797 2.39582031 17.04105469 2.39710938 15.87695312 2.3984375 C14.70583984 2.39457031 13.53472656 2.39070312 12.328125 2.38671875 C11.16087891 2.39058594 9.99363281 2.39445313 8.79101562 2.3984375 C7.09428711 2.39650391 7.09428711 2.39650391 5.36328125 2.39453125 C4.33726807 2.39340332 3.31125488 2.39227539 2.25415039 2.39111328 C-0.81337027 2.25829848 -3.71921603 1.82781646 -6.734375 1.26171875 C-7.064375 1.92171875 -7.394375 2.58171875 -7.734375 3.26171875 C-7.734375 2.27171875 -7.734375 1.28171875 -7.734375 0.26171875 C-4.62859245 -0.7735421 -3.13378055 -0.50693509 0 0 Z " fill="#C6DECA" transform="translate(186.734375,245.73828125)"/>
<path d="M0 0 C0.66 0.33 1.32 0.66 2 1 C0.68626098 4.50537948 -0.85881093 7.62164636 -2.8125 10.8125 C-3.33714844 11.67230469 -3.86179688 12.53210938 -4.40234375 13.41796875 C-6.58967879 16.95300167 -8.78506932 20.48216893 -11 24 C-11.66 23.01 -12.32 22.02 -13 21 C-12.39671875 20.07058594 -11.7934375 19.14117187 -11.171875 18.18359375 C-10.36448668 16.93495833 -9.55720048 15.68625686 -8.75 14.4375 C-8.35425781 13.82841797 -7.95851562 13.21933594 -7.55078125 12.59179688 C-4.8889825 8.46819062 -2.40188247 4.28041899 0 0 Z " fill="#116012" transform="translate(240,69)"/>
<path d="M0 0 C4.875 1.875 4.875 1.875 6 3 C6.07319621 5.69654854 6.09242537 8.36691458 6.0625 11.0625 C6.05798828 11.82111328 6.05347656 12.57972656 6.04882812 13.36132812 C6.0370068 15.24091871 6.01907078 17.12046899 6 19 C5.01 19 4.02 19 3 19 C2.92652344 17.31970703 2.92652344 17.31970703 2.8515625 15.60546875 C2.77652144 14.13278797 2.70097418 12.66013293 2.625 11.1875 C2.57859375 10.08051758 2.57859375 10.08051758 2.53125 8.95117188 C2.32653852 5.18106885 2.13566173 3.20349259 0 0 Z " fill="#0B5D0C" transform="translate(110,188)"/>
<path d="M0 0 C3.98299713 1.32766571 5.03302673 3.80855554 7.0625 7.25 C7.41376953 7.82363281 7.76503906 8.39726563 8.12695312 8.98828125 C10.08618751 12.24009181 11.62992883 15.46826099 13 19 C13.66 19.99 14.32 20.98 15 22 C14.34 22.66 13.68 23.32 13 24 C10.66636329 21.22186105 9.37325478 18.48721459 8.02734375 15.140625 C6.19645288 11.32568889 3.76824609 7.87159092 1.42578125 4.35546875 C0 2 0 2 0 0 Z " fill="#126013" transform="translate(66,69)"/>
<path d="M0 0 C0.33 0.99 0.66 1.98 1 3 C-2.96 6.96 -6.92 10.92 -11 15 C-11.99 14.34 -12.98 13.68 -14 13 C-9.99191229 7.69898077 -5.33731159 3.93030788 0 0 Z " fill="#106211" transform="translate(241,240)"/>
<path d="M0 0 C0.66 0.33 1.32 0.66 2 1 C0.71053695 2.79325326 -0.58164352 4.58455278 -1.875 6.375 C-2.59429687 7.37273437 -3.31359375 8.37046875 -4.0546875 9.3984375 C-6 12 -6 12 -8 14 C-8.33 13.34 -8.66 12.68 -9 12 C-9.99 11.34 -10.98 10.68 -12 10 C-8.05692685 6.59100304 -4.09529452 3.22659568 0 0 Z " fill="#175519" transform="translate(250,118)"/>
<path d="M0 0 C1.65 0 3.3 0 5 0 C5.66 1.32 6.32 2.64 7 4 C3.68629 6.20914 2.6553979 6.22481553 -1.1875 6.125 C-2.08855469 6.10695313 -2.98960938 6.08890625 -3.91796875 6.0703125 C-4.60503906 6.04710937 -5.29210937 6.02390625 -6 6 C-5.36578125 5.71382813 -4.7315625 5.42765625 -4.078125 5.1328125 C-1.58438799 3.77344458 -1.03567876 2.58919691 0 0 Z " fill="#ECECEC" transform="translate(71,414)"/>
<path d="M0 0 C-1 3 -1 3 -2.77734375 4.203125 C-3.49019531 4.54859375 -4.20304687 4.8940625 -4.9375 5.25 C-6.00291016 5.78367187 -6.00291016 5.78367187 -7.08984375 6.328125 C-8.03537109 6.66070312 -8.03537109 6.66070312 -9 7 C-9.66 6.67 -10.32 6.34 -11 6 C-10.875 4.1875 -10.875 4.1875 -10 2 C-6.45371784 -0.28538184 -4.05371308 -1.71503246 0 0 Z " fill="#F6F6F6" transform="translate(304,310)"/>
<path d="M0 0 C0.33 0.99 0.66 1.98 1 3 C-7.61546422 11.86162034 -7.61546422 11.86162034 -13 13 C-9.0580583 8.11950075 -4.88049925 3.9419417 0 0 Z " fill="#1D681F" transform="translate(184,163)"/>
<path d="M0 0 C2.82378673 3.29441785 3.99994594 6.49235858 5.25 10.625 C5.60578125 11.77226563 5.9615625 12.91953125 6.328125 14.1015625 C7 17 7 17 6 19 C3 17 3 17 2.25 15.0625 C2 13 2 13 3 10 C2.34 10 1.68 10 1 10 C-0.60725635 6.78548731 -0.05748185 3.56387464 0 0 Z " fill="#317934" transform="translate(144,49)"/>
<path d="M0 0 C4.23316828 0.48052181 7.55511023 2.12187012 11.3125 4.0625 C12.38113281 4.61035156 13.44976562 5.15820312 14.55078125 5.72265625 C15.35902344 6.14417969 16.16726563 6.56570313 17 7 C17 7.66 17 8.32 17 9 C13.33578183 8.42484053 10.63169385 7.43457535 7.4375 5.5625 C4.66022947 3.95004657 1.88731397 2.4076474 -1 1 C-0.67 0.67 -0.34 0.34 0 0 Z " fill="#FBFBFB" transform="translate(301,294)"/>
<path d="M0 0 C0 0.99 0 1.98 0 3 C-2.26461071 4.37494222 -3.45654694 5.07991957 -6.125 4.6875 C-8 4 -8 4 -10 3 C-10 2.34 -10 1.68 -10 1 C-6.42181037 -1.33958553 -4.07775191 -0.9267618 0 0 Z " fill="#F2F2F2" transform="translate(350,274)"/>
<path d="M0 0 C0.66 0.33 1.32 0.66 2 1 C0.51481201 5.04301175 -1.42877998 8.61146256 -3.625 12.3125 C-4.25664062 13.38113281 -4.88828125 14.44976562 -5.5390625 15.55078125 C-6.26222656 16.76314453 -6.26222656 16.76314453 -7 18 C-8.17482324 14.52545194 -8.06339535 14.1324858 -6.34765625 10.546875 C-5.59841315 9.27382478 -4.83617987 8.00834874 -4.0625 6.75 C-3.67642578 6.1003125 -3.29035156 5.450625 -2.89257812 4.78125 C-1.93941582 3.18087871 -0.97114076 1.5895258 0 0 Z " fill="#0B5C0C" transform="translate(250,52)"/>
<path d="M0 0 C-0.433125 0.8353125 -0.433125 0.8353125 -0.875 1.6875 C-2.05907564 4.01411753 -2.05907564 4.01411753 -2.9375 6.625 C-4 9 -4 9 -7 11 C-7 10.34 -7 9.68 -7 9 C-8.32 9.33 -9.64 9.66 -11 10 C-10.06409496 8.8944811 -9.12620142 7.79064547 -8.1875 6.6875 C-7.66542969 6.07261719 -7.14335937 5.45773438 -6.60546875 4.82421875 C-2.35974304 0 -2.35974304 0 0 0 Z " fill="#0F5611" transform="translate(261,38)"/>
<path d="M0 0 C2.42965185 1.02781636 4.7237552 2.10698548 7.0625 3.3125 C7.71283203 3.63412109 8.36316406 3.95574219 9.03320312 4.28710938 C13.86880989 6.73761977 13.86880989 6.73761977 15 9 C10.90087399 8.50313624 8.17137182 7.00940617 4.71484375 4.921875 C2.53498296 3.75001362 0.44579493 3.29645999 -2 3 C-2 2.34 -2 1.68 -2 1 C-1.34 0.67 -0.68 0.34 0 0 Z " fill="#FBFBFB" transform="translate(9,137)"/>
<path d="M0 0 C2.08163365 3.12245047 3.32575613 6.07034881 4.6875 9.5625 C5.14511719 10.71878906 5.60273438 11.87507813 6.07421875 13.06640625 C7 16 7 16 6 18 C2.75645973 15.37427693 1.11899975 11.94758244 0 8 C-0.22876781 5.27385027 -0.14439631 2.74352988 0 0 Z " fill="#317934" transform="translate(151,69)"/>
<path d="M0 0 C0.66 0.33 1.32 0.66 2 1 C1.67 1.33 1.34 1.66 1 2 C3.31 2.33 5.62 2.66 8 3 C5.09907498 4.93395001 4.10325263 5.30131941 0.8125 5.625 C-0.445625 5.74875 -1.70375 5.8725 -3 6 C-3 5.34 -3 4.68 -3 4 C-4.32 4.33 -5.64 4.66 -7 5 C-4.88437775 2.67281553 -2.94982021 1.14186589 0 0 Z " fill="#F4F4F4" transform="translate(289,299)"/>
<path d="M0 0 C-1 2 -1 2 -3.07421875 2.8515625 C-7.82947369 4.25894737 -11.98169339 5.3961821 -17 5 C-11.65467807 1.43645204 -6.50060481 -0.48754536 0 0 Z " fill="#216A23" transform="translate(302,239)"/>
<path d="M0 0 C-1.7873962 1.33905267 -3.58004953 2.67109066 -5.375 4 C-6.37273437 4.7425 -7.37046875 5.485 -8.3984375 6.25 C-11 8 -11 8 -13 8 C-13.33 7.01 -13.66 6.02 -14 5 C-12.23628182 3.96692229 -10.46374967 2.94887951 -8.6875 1.9375 C-7.70136719 1.36902344 -6.71523438 0.80054688 -5.69921875 0.21484375 C-3 -1 -3 -1 0 0 Z " fill="#4E6F51" transform="translate(344,221)"/>
<path d="M0 0 C3.51098025 4.01254885 5.76537994 8.20983041 8 13 C7.01 13 6.02 13 5 13 C3.359375 10.91796875 3.359375 10.91796875 1.75 8.1875 C1.20859375 7.29417969 0.6671875 6.40085938 0.109375 5.48046875 C-1 3 -1 3 0 0 Z " fill="#0D5C0D" transform="translate(102,142)"/>
<path d="M0 0 C-0.66 2.31 -1.32 4.62 -2 7 C-7.75 5.125 -7.75 5.125 -10 4 C-9.67 3.34 -9.34 2.68 -9 2 C-7.34385343 1.61781233 -5.67542976 1.28604898 -4 1 C-2 0 -2 0 0 0 Z " fill="#FBFBFB" transform="translate(23,134)"/>
<path d="M0 0 C4.28383762 1.3282086 5.9783526 2.82522516 8.3125 6.625 C8.82425781 7.44226563 9.33601563 8.25953125 9.86328125 9.1015625 C10.23839844 9.72804687 10.61351562 10.35453125 11 11 C10.01 11 9.02 11 8 11 C5.95703125 8.84765625 5.95703125 8.84765625 3.8125 6.0625 C3.09707031 5.14597656 2.38164063 4.22945312 1.64453125 3.28515625 C0 1 0 1 0 0 Z " fill="#166317" transform="translate(35,200)"/>
<path d="M0 0 C3.3520486 1.30357446 5.56383707 3.49408286 8.25 5.875 C7.59 6.535 6.93 7.195 6.25 7.875 C6.25 7.215 6.25 6.555 6.25 5.875 C3.91785852 4.66871992 1.75357861 3.7095262 -0.75 2.875 C-1.08 3.535 -1.41 4.195 -1.75 4.875 C-2.41 3.555 -3.07 2.235 -3.75 0.875 C-1.75 -0.125 -1.75 -0.125 0 0 Z " fill="#105D12" transform="translate(66.75,64.125)"/>
<path d="M0 0 C4.2742558 1.5830577 6.26531794 4.50568404 9 8 C8.01 8 7.02 8 6 8 C5.67 8.66 5.34 9.32 5 10 C4.16121545 8.71186658 3.32913217 7.41936744 2.5 6.125 C2.0359375 5.40570313 1.571875 4.68640625 1.09375 3.9453125 C0 2 0 2 0 0 Z " fill="#336935" transform="translate(26,87)"/>
<path d="M0 0 C-1.75 4.875 -1.75 4.875 -4 6 C-5.65 4.68 -7.3 3.36 -9 2 C-3.375 -1.125 -3.375 -1.125 0 0 Z " fill="#FBFBFB" transform="translate(317,292)"/>
<path d="M0 0 C3.73678306 4.71159603 4.11284843 8.01903338 4 14 C-1.2688172 6.09677419 -1.2688172 6.09677419 -0.6875 1.5625 C-0.460625 1.046875 -0.23375 0.53125 0 0 Z " fill="#156417" transform="translate(83,96)"/>
<path d="M0 0 C0 0.33 0 0.66 0 1 C-4.05979772 1.98419339 -7.82699392 2.23183367 -12 2 C-12.99 1.34 -13.98 0.68 -15 0 C-9.76528314 -0.75612577 -5.22745859 -1.2063366 0 0 Z " fill="#ACCBAF" transform="translate(217,246)"/>
<path d="M0 0 C4.67105792 1.55701931 8.08705685 4.08447373 12 7 C11.01 7.66 10.02 8.32 9 9 C9 8.34 9 7.68 9 7 C8.01 7 7.02 7 6 7 C6 6.34 6 5.68 6 5 C4.68 4.67 3.36 4.34 2 4 C2 3.34 2 2.68 2 2 C1.34 2 0.68 2 0 2 C0 1.34 0 0.68 0 0 Z " fill="#176219" transform="translate(48,194)"/>
<path d="M0 0 C-0.66 1.65 -1.32 3.3 -2 5 C-2.33 4.01 -2.66 3.02 -3 2 C-3.99 2.495 -3.99 2.495 -5 3 C-6.99960012 3.039992 -9.00047242 3.04346799 -11 3 C-4.33333333 -1.44444444 -4.33333333 -1.44444444 0 0 Z " fill="#246C26" transform="translate(324,231)"/>
<path d="M0 0 C3.22430866 4.83646298 3.09242903 7.26939984 3 13 C1.4375 11.3125 1.4375 11.3125 0 9 C0.3125 6.25 0.3125 6.25 1 4 C0.34 3.67 -0.32 3.34 -1 3 C-0.67 2.01 -0.34 1.02 0 0 Z " fill="#156416" transform="translate(141,40)"/>
<path d="M0 0 C0 0.66 0 1.32 0 2 C-1.98 2.99 -3.96 3.98 -6 5 C-6 4.34 -6 3.68 -6 3 C-6.66 2.34 -7.32 1.68 -8 1 C-4.93251126 -0.86240388 -3.40254489 -1.2151946 0 0 Z " fill="#F3F3F3" transform="translate(334,282)"/>
<path d="M0 0 C0 1.32 0 2.64 0 4 C-0.99 4.33 -1.98 4.66 -3 5 C-3.66 4.67 -4.32 4.34 -5 4 C-5 3.34 -5 2.68 -5 2 C-6.65 2 -8.3 2 -10 2 C-10 1.67 -10 1.34 -10 1 C-2.25 0 -2.25 0 0 0 Z " fill="#0B600B" transform="translate(321,233)"/>
<path d="M0 0 C4.37859255 0.50522222 6.81651224 3.17827222 10 6 C9.34 6.66 8.68 7.32 8 8 C6.66372225 6.85760183 5.33104612 5.71098945 4 4.5625 C3.2575 3.92441406 2.515 3.28632813 1.75 2.62890625 C1.1725 2.09136719 0.595 1.55382812 0 1 C0 0.67 0 0.34 0 0 Z " fill="#0E5C0F" transform="translate(76,216)"/>
<path d="M0 0 C-1.1858237 3.37503669 -2.27573689 5.64722731 -5 8 C-5.33 7.34 -5.66 6.68 -6 6 C-6.66 5.67 -7.32 5.34 -8 5 C-2.25 0 -2.25 0 0 0 Z " fill="#29642B" transform="translate(293,206)"/>
<path d="M0 0 C0.99 0.33 1.98 0.66 3 1 C3.33 2.65 3.66 4.3 4 6 C4.66 6 5.32 6 6 6 C6 6.99 6 7.98 6 9 C6.66 9.33 7.32 9.66 8 10 C7.01 10 6.02 10 5 10 C3.61328125 8.3203125 3.61328125 8.3203125 2.3125 6.125 C1.87550781 5.40570313 1.43851563 4.68640625 0.98828125 3.9453125 C0 2 0 2 0 0 Z " fill="#146215" transform="translate(52,130)"/>
<path d="M0 0 C0.33 1.32 0.66 2.64 1 4 C0.38125 4.2475 -0.2375 4.495 -0.875 4.75 C-3.35068687 6.20628639 -3.95125002 7.37812506 -5 10 C-5.33 9.34 -5.66 8.68 -6 8 C-4.02 5.36 -2.04 2.72 0 0 Z " fill="#246D26" transform="translate(226,254)"/>
<path d="M0 0 C0.33 0 0.66 0 1 0 C1.33 3.63 1.66 7.26 2 11 C1.34 11 0.68 11 0 11 C-0.84098656 6.98195309 -1.05404945 3.98196457 0 0 Z " fill="#236F24" transform="translate(131,150)"/>
<path d="M0 0 C0.66 0.66 1.32 1.32 2 2 C0.35 4.31 -1.3 6.62 -3 9 C-3.66 8.34 -4.32 7.68 -5 7 C-3.35 4.69 -1.7 2.38 0 0 Z " fill="#0E5D0F" transform="translate(240,131)"/>
<path d="M0 0 C0.99 0 1.98 0 3 0 C4.1577506 3.47325181 4.06866652 6.36067448 4 10 C1.04816899 7.04816899 0.91336012 4.04488053 0 0 Z " fill="#1C691E" transform="translate(125,110)"/>
<path d="M0 0 C1.14926266 0.95421808 2.29430541 1.91352045 3.4375 2.875 C4.07558594 3.40867187 4.71367188 3.94234375 5.37109375 4.4921875 C7 6 7 6 8 8 C4.21479387 7.45925627 2.40822445 5.92427254 0 3 C0 2.01 0 1.02 0 0 Z " fill="#1C661E" transform="translate(95,89)"/>
<path d="M0 0 C3 1 3 1 4.6875 4.0625 C5.120625 5.031875 5.55375 6.00125 6 7 C5.34 7.66 4.68 8.32 4 9 C0 2.25 0 2.25 0 0 Z " fill="#0C5C0D" transform="translate(23,179)"/>
<path d="M0 0 C2.62187494 1.04874998 3.79371361 1.64931313 5.25 4.125 C5.4975 4.74375 5.745 5.3625 6 6 C5.34 6.66 4.68 7.32 4 8 C0 2.25 0 2.25 0 0 Z " fill="#2C672D" transform="translate(14,164)"/>
<path d="M0 0 C0.99 0.495 0.99 0.495 2 1 C2 2.98 2 4.96 2 7 C2.66 7.33 3.32 7.66 4 8 C2.68 8.33 1.36 8.66 0 9 C0 6.03 0 3.06 0 0 Z " fill="#B4D1B7" transform="translate(164,111)"/>
<path d="M0 0 C1.32 0.33 2.64 0.66 4 1 C4.625 3.3125 4.625 3.3125 5 6 C4.01 7.485 4.01 7.485 3 9 C3 8.01 3 7.02 3 6 C2.34 6 1.68 6 1 6 C0.67 4.02 0.34 2.04 0 0 Z " fill="#317A33" transform="translate(138,152)"/>
<path d="M0 0 C2.64 1.98 5.28 3.96 8 6 C7.34 6.66 6.68 7.32 6 8 C1.125 4.5 1.125 4.5 0 0 Z " fill="#135F14" transform="translate(70,127)"/>
<path d="M0 0 C0.99 0.33 1.98 0.66 3 1 C4.1875 4.0625 4.1875 4.0625 5 7 C4.34 7.66 3.68 8.32 3 9 C0 3.375 0 3.375 0 0 Z " fill="#0E5E0E" transform="translate(94,129)"/>
<path d="M0 0 C3.24208567 0.35049575 4.61527704 0.56221181 6.8125 3.0625 C7.204375 3.701875 7.59625 4.34125 8 5 C4.62537285 4.45276317 2.91765 3.9451 0 2 C0 1.34 0 0.68 0 0 Z " fill="#1B661C" transform="translate(35,97)"/>
<path d="M0 0 C-0.28875 0.556875 -0.5775 1.11375 -0.875 1.6875 C-2.0413253 4.08494645 -3.0339881 6.51596939 -4 9 C-4.33 8.34 -4.66 7.68 -5 7 C-4.67 6.34 -4.34 5.68 -4 5 C-4.66 4.67 -5.32 4.34 -6 4 C-2.25 0 -2.25 0 0 0 Z " fill="#6C886F" transform="translate(261,38)"/>
<path d="M0 0 C0.33 0.66 0.66 1.32 1 2 C1.99 2.33 2.98 2.66 4 3 C-0.455 4.485 -0.455 4.485 -5 6 C-3.35 4.02 -1.7 2.04 0 0 Z " fill="#BFD8C2" transform="translate(262,248)"/>
<path d="M0 0 C2.29633824 3.44450737 2.54016485 5.93812283 3 10 C2.67 9.01 2.34 8.02 2 7 C1.01 6.67 0.02 6.34 -1 6 C-0.67 4.02 -0.34 2.04 0 0 Z " fill="#3D8140" transform="translate(128,139)"/>
<path d="M0 0 C0.556875 0.226875 1.11375 0.45375 1.6875 0.6875 C-0.6225 2.0075 -2.9325 3.3275 -5.3125 4.6875 C-5.9725 4.0275 -6.6325 3.3675 -7.3125 2.6875 C-2.88173077 -0.38942308 -2.88173077 -0.38942308 0 0 Z " fill="#15631D" transform="translate(51.3125,115.3125)"/>
<path d="M0 0 C-1.39332574 3.36720387 -2.9789286 4.9859524 -6 7 C-5.37162381 3.35541809 -4.14650034 0 0 0 Z " fill="#0E5D0F" transform="translate(216,166)"/>
<path d="M0 0 C2.0625 1.75 2.0625 1.75 4 4 C3.75 6.25 3.75 6.25 3 8 C1.5 6.8125 1.5 6.8125 0 5 C-0.1875 2.3125 -0.1875 2.3125 0 0 Z " fill="#438545" transform="translate(121,118)"/>
<path d="M0 0 C0.66 0 1.32 0 2 0 C3.06775224 1.96466413 4.06553465 3.96855359 5 6 C4.67 6.66 4.34 7.32 4 8 C2 6.25 2 6.25 0 4 C0 2.68 0 1.36 0 0 Z " fill="#2F7731" transform="translate(157,89)"/>
</svg>
