<?xml version="1.0" encoding="UTF-8"?>
<svg version="1.1" xmlns="http://www.w3.org/2000/svg" width="817" height="989">
<path d="M0 0 C269.61 0 539.22 0 817 0 C817 326.37 817 652.74 817 989 C547.39 989 277.78 989 0 989 C0 662.63 0 336.26 0 0 Z " fill="#006400" transform="translate(0,0)"/>
<path d="M0 0 C0.99 0.33 1.98 0.66 3 1 C3.13462646 1.91265625 3.13462646 1.91265625 3.27197266 2.84375 C4.19475505 9.09522721 5.1216295 15.3460872 6.05079651 21.59661865 C6.58153865 25.17006261 7.10976289 28.74385238 7.63330078 32.31835938 C14.82047456 81.38381851 22.63550575 130.37772415 32.65234375 178.953125 C32.87850876 180.05153717 33.10467377 181.14994934 33.33769226 182.28164673 C34.43767463 187.61482766 35.54742209 192.94564706 36.67553711 198.27294922 C40.37307096 215.88070685 42.22989796 233.11113726 43.125 251.0625 C43.21173652 252.71942745 43.29897405 254.37632876 43.38671875 256.03320312 C43.59688792 260.02185947 43.80039567 264.01080159 44 268 C50.56849003 259.139934 56.95015953 250.22663954 63 241 C63.57492187 240.15308594 64.14984375 239.30617187 64.7421875 238.43359375 C77.69634738 219.33593744 89.58838996 199.45435427 101.3984375 179.6328125 C102.73985341 177.42765562 104.10153974 175.23890961 105.4765625 173.0546875 C105.92249756 172.34586426 106.36843262 171.63704102 106.82788086 170.90673828 C107.71152085 169.50503678 108.59761755 168.10487993 109.48657227 166.70654297 C111.89225681 162.89238797 114.01185277 159.05339713 116 155 C117.10999551 153.07460495 118.23535844 151.15799718 119.375 149.25 C122.49913172 143.94361916 125.33559361 138.54982344 128 133 C128.66 133 129.32 133 130 133 C130.309375 131.824375 130.309375 131.824375 130.625 130.625 C132.7974824 124.8975464 136.14729839 119.90273414 139.43359375 114.75390625 C139.86800781 114.07199219 140.30242187 113.39007813 140.75 112.6875 C141.13671875 112.09324219 141.5234375 111.49898438 141.921875 110.88671875 C143.0831286 108.9570046 143.0831286 108.9570046 143.96875 106.5625 C145.01934134 103.95193971 146.27728828 101.707636 147.75 99.3125 C149.40793071 96.61278887 151.04873427 93.91474439 152.62109375 91.1640625 C153.39646484 89.81441406 153.39646484 89.81441406 154.1875 88.4375 C154.65542969 87.61121094 155.12335938 86.78492187 155.60546875 85.93359375 C157 84 157 84 160 83 C159.55883171 89.50723225 158.1653493 95.20480173 156.1328125 101.3984375 C155.23569761 104.25064414 154.42686004 107.08957851 153.65625 109.9765625 C151.74876579 117.0418073 149.56561875 124.01880263 147.375 131 C147.15890076 131.69098785 146.94280151 132.38197571 146.72015381 133.09390259 C143.28660957 144.06560423 139.72945215 154.99065542 136.04443359 165.88085938 C134.28008942 171.10325165 132.57946184 176.33374341 130.98046875 181.609375 C129.23378737 187.33608013 127.27453528 192.95221827 125.1875 198.5625 C122.88035107 204.82223547 120.60875323 211.08777801 118.45166016 217.40087891 C112.49923611 234.76592459 105.70655776 251.7695082 97.875 268.375 C97.40876221 269.37813232 96.94252441 270.38126465 96.4621582 271.41479492 C93.02218727 278.55430094 88.78024401 284.69849594 84 291 C82.97460905 292.42847999 81.95573961 293.8616778 80.9453125 295.30078125 C80.48108887 295.96037842 80.01686523 296.61997559 79.53857422 297.29956055 C79.07209473 297.96383057 78.60561523 298.62810059 78.125 299.3125 C74.39096187 304.6156852 70.64747282 309.9115759 66.875 315.1875 C66.46822021 315.75678223 66.06144043 316.32606445 65.64233398 316.91259766 C63.63772695 319.71624946 61.62863219 322.51656119 59.61328125 325.3125 C58.80438112 326.43727972 57.99578975 327.56228156 57.1875 328.6875 C56.78837402 329.24219971 56.38924805 329.79689941 55.97802734 330.3684082 C53.44549991 333.91047739 50.98170886 337.49283094 48.55078125 341.10546875 C47.66773315 342.41414917 47.66773315 342.41414917 46.7668457 343.74926758 C45.60176138 345.48071458 44.44259492 347.21616048 43.28979492 348.95581055 C42.7610376 349.74125244 42.23228027 350.52669434 41.6875 351.3359375 C41.21699219 352.04282715 40.74648438 352.7497168 40.26171875 353.47802734 C39.84535156 353.98027832 39.42898438 354.4825293 39 355 C38.34 355 37.68 355 37 355 C35.81683088 358.74336075 35.82724089 362.45239869 35.79467773 366.33886719 C35.78477814 367.07096909 35.77487854 367.80307098 35.76467896 368.55735779 C35.7331618 370.97049761 35.70834536 373.38365709 35.68359375 375.796875 C35.66301577 377.47268172 35.64201907 379.14848334 35.62062073 380.82427979 C35.56548726 385.23008087 35.51603958 389.63592812 35.46777344 394.04180908 C35.41749464 398.53963315 35.36184189 403.03739037 35.30664062 407.53515625 C35.1991658 416.35671369 35.0976972 425.17832924 35 434 C37.58694245 431.56011214 38.50742574 429.97029703 39.375 426.5 C40.71538826 421.68297969 42.56742111 417.33544731 44.69921875 412.8203125 C45.96411283 410.07780943 47.08023582 407.30924268 48.1875 404.5 C53.53490146 391.59247924 60.44130315 379.39061903 68.1875 367.78515625 C69.63656246 365.55847192 70.88706683 363.40555867 72 361 C72.66 361 73.32 361 74 361 C74.4021875 360.13375 74.4021875 360.13375 74.8125 359.25 C76.02929189 356.94449957 77.30333879 354.97943808 79 353 C79.66 353 80.32 353 81 353 C81.165 352.319375 81.33 351.63875 81.5 350.9375 C83.72164698 346.58677467 87.28998283 344.08797836 91 341 C92.35251497 339.68612831 93.68945377 338.35573748 95 337 C95.721875 336.29875 96.44375 335.5975 97.1875 334.875 C99.77997636 332.27439675 102.26815205 329.58104023 104.75 326.875 C105.91789062 325.60269531 105.91789062 325.60269531 107.109375 324.3046875 C109.17716215 322.06384899 109.17716215 322.06384899 110 319 C111.64429829 317.31126121 113.31384218 315.64694485 115 314 C117.15222399 311.46797177 118.96156166 309.0665279 120.625 306.1875 C121.07875 305.465625 121.5325 304.74375 122 304 C122.66 304 123.32 304 124 304 C124.41378906 303.15695312 124.41378906 303.15695312 124.8359375 302.296875 C126.04368028 299.91381206 127.32176809 297.5820992 128.625 295.25 C129.07101562 294.45078125 129.51703125 293.6515625 129.9765625 292.828125 C130.31429688 292.22484375 130.65203125 291.6215625 131 291 C131.66 291 132.32 291 133 291 C133.24105469 290.48824219 133.48210937 289.97648437 133.73046875 289.44921875 C135.44374006 286.14392303 137.35378573 282.97558073 139.3125 279.8125 C139.69083984 279.17119141 140.06917969 278.52988281 140.45898438 277.86914062 C142.32309152 274.88215337 143.38509456 273.2038218 146.79296875 272.07421875 C147.52128906 272.04972656 148.24960937 272.02523438 149 272 C146.1531289 281.7483768 143.08532131 291.36283788 139.28295898 300.78222656 C137.66893956 304.83032856 136.10012172 308.8951678 134.53125 312.9609375 C122.56730965 343.91923136 109.93588763 374.32938147 95 404 C94.34 404 93.68 404 93 404 C92.76152344 404.54785156 92.52304687 405.09570312 92.27734375 405.66015625 C90.687567 408.57231611 88.70276681 410.9036209 86.5625 413.4375 C84.24669534 416.18060305 82.14910138 418.74424728 80.33984375 421.84765625 C79.89769531 422.55792969 79.45554687 423.26820313 79 424 C78.34 424 77.68 424 77 424 C76.67 424.99 76.34 425.98 76 427 C74.6796875 428.296875 74.6796875 428.296875 72.875 429.75 C67.61859576 434.17190211 62.88249422 439.09402156 58.10498047 444.02050781 C57.47479004 444.66213867 56.84459961 445.30376953 56.1953125 445.96484375 C55.62828613 446.5487085 55.06125977 447.13257324 54.47705078 447.73413086 C53 449 53 449 51 449 C51 449.66 51 450.32 51 451 C49.28048026 452.53851766 47.49812503 454.00731759 45.6875 455.4375 C41.83532998 458.45235569 41.83532998 458.45235569 38.26953125 461.78515625 C37 463 37 463 35 463 C35.08701172 463.92232422 35.08701172 463.92232422 35.17578125 464.86328125 C35.31240268 467.31075657 35.32068978 469.56882475 35 472 C29.30118831 477.89532244 16.86378934 478.62874814 9 479 C7.32357422 479.07927734 7.32357422 479.07927734 5.61328125 479.16015625 C-4.17815067 479.40361888 -12.43741468 478.4372622 -20.49198914 472.57853699 C-22 471 -22 471 -22.69604492 467.21386719 C-22.6570177 465.74030065 -22.5830804 464.2673825 -22.48046875 462.796875 C-22.4371867 461.16828174 -22.39667752 459.53961292 -22.35864258 457.91088867 C-22.3283194 457.06674408 -22.29799622 456.22259949 -22.26675415 455.35287476 C-21.841385 441.38284756 -21.63927245 430.2303875 -31.59765625 419.53515625 C-32.1611377 418.96684082 -32.72461914 418.39852539 -33.30517578 417.81298828 C-36.35570243 414.54977726 -38.74537257 410.81203335 -41.25 407.125 C-42.24792333 405.70335145 -43.2491162 404.28399113 -44.25390625 402.8671875 C-44.72328613 402.20428711 -45.19266602 401.54138672 -45.67626953 400.85839844 C-48.10232168 397.45243958 -50.5768242 394.0821578 -53.05078125 390.7109375 C-54.53409325 388.64797451 -55.98567483 386.57455462 -57.41796875 384.4765625 C-57.82700439 383.87811523 -58.23604004 383.27966797 -58.6574707 382.66308594 C-59.45307656 381.49464453 -60.24475998 380.32352003 -61.03198242 379.14941406 C-63.04540034 376.07216538 -63.04540034 376.07216538 -66 374 C-67.25102083 371.81071354 -68.39337474 369.63685139 -69.5 367.375 C-70.02557495 366.30427246 -70.02557495 366.30427246 -70.56176758 365.21191406 C-85.17553252 335.06842171 -100.48697975 300.23474473 -106.38598633 267.0769043 C-106.93469226 264.88400121 -106.93469226 264.88400121 -108.39428711 262.75244141 C-110.42294154 259.27501248 -111.52504848 255.65615225 -112.671875 251.82421875 C-112.91538696 251.02959229 -113.15889893 250.23496582 -113.40979004 249.41625977 C-114.1966171 246.84200906 -114.97360128 244.26491317 -115.75 241.6875 C-116.28703468 239.92085811 -116.82447106 238.15433828 -117.36230469 236.38793945 C-118.91978219 231.26208318 -120.46303089 226.13203923 -122 221 C-122.21237305 220.29117676 -122.42474609 219.58235352 -122.64355469 218.85205078 C-123.85603994 214.80021385 -125.0579516 210.74539408 -126.25 206.6875 C-126.53713867 205.71192139 -126.82427734 204.73634277 -127.12011719 203.73120117 C-127.50151855 202.41599487 -127.50151855 202.41599487 -127.890625 201.07421875 C-128.21595215 199.95406372 -128.21595215 199.95406372 -128.54785156 198.8112793 C-129 197 -129 197 -129 195 C-125.08862724 196.47985028 -123.85704597 198.442509 -121.8984375 202.06640625 C-121.33084717 203.10104004 -120.76325684 204.13567383 -120.1784668 205.20166016 C-119.28575073 206.86527588 -119.28575073 206.86527588 -118.375 208.5625 C-117.11988389 210.85362896 -115.86336852 213.14399192 -114.60546875 215.43359375 C-113.99106934 216.55749512 -113.37666992 217.68139648 -112.74365234 218.83935547 C-110.46112515 222.97679555 -108.09704007 227.06053476 -105.6875 231.125 C-105.09751221 232.12333862 -105.09751221 232.12333862 -104.49560547 233.1418457 C-102.50153378 236.5045039 -100.48558107 239.85335213 -98.45703125 243.1953125 C-98.04428955 243.87706543 -97.63154785 244.55881836 -97.20629883 245.26123047 C-96.42993764 246.54118154 -95.65009834 247.81903275 -94.8659668 249.09423828 C-92.90643426 252.31940632 -91.38963202 255.50110509 -90 259 C-89.34 259.66 -88.68 260.32 -88 261 C-87.28591666 262.98356483 -86.61382258 264.98315437 -86 267 C-85.34 267 -84.68 267 -84 267 C-83.46375 268.134375 -82.9275 269.26875 -82.375 270.4375 C-80.8182128 273.56203769 -79.09902775 276.43457533 -77.125 279.3125 C-74.95944971 282.48002132 -73.04660544 285.67229538 -71.25 289.0625 C-67.59967562 295.8878461 -63.45231851 302.37916186 -59.31445312 308.91503906 C-58.02795133 310.95566412 -56.75386249 313.00344207 -55.484375 315.0546875 C-43.17681 336.12057337 -43.17681 336.12057337 -28 355 C-28 351.378621 -28.97243246 348.82989349 -30.16015625 345.40234375 C-30.62595536 344.04244976 -31.09135168 342.68241775 -31.55639648 341.32226562 C-31.80235565 340.60723877 -32.04831482 339.89221191 -32.30172729 339.15551758 C-37.52321166 323.93238453 -42.15074506 308.63384261 -46 293 C-46.15608734 292.37620453 -46.31217468 291.75240906 -46.47299194 291.10971069 C-48.99403143 280.99630065 -50.97012055 270.88494416 -52.5798645 260.58911133 C-54.70375813 247.06897612 -57.10939481 233.68886349 -60.40869141 220.39892578 C-60.99528847 218.01911459 -61.55304349 215.63404401 -62.10546875 213.24609375 C-67.0278648 192.32857995 -73.96782135 171.93605312 -80.75 151.5625 C-81.08937592 150.54260483 -81.08937592 150.54260483 -81.43560791 149.50210571 C-84.35725552 140.73477071 -84.35725552 140.73477071 -87.43945312 132.02294922 C-87.67222961 131.38284409 -87.9050061 130.74273895 -88.14483643 130.08323669 C-88.78852888 128.32311589 -89.43944028 126.56563993 -90.09082031 124.80834961 C-91 122 -91 122 -91 119 C-87.01533843 120.32822052 -86.54817457 121.97126873 -84.4375 125.5625 C-83.72098694 126.76618198 -83.00349699 127.96928286 -82.28515625 129.171875 C-81.9102002 129.80416016 -81.53524414 130.43644531 -81.14892578 131.08789062 C-79.66576421 133.55625473 -78.12349221 135.98435985 -76.57885742 138.41455078 C-66.05041809 155.01323002 -56.4168485 172.17850821 -46.703125 189.26171875 C-45.00107704 192.25354351 -43.2845563 195.23576686 -41.546875 198.20703125 C-41.1761084 198.84431152 -40.8053418 199.4815918 -40.42333984 200.13818359 C-39.46041257 201.79090228 -38.4921809 203.44052746 -37.5234375 205.08984375 C-36 208 -36 208 -34.9140625 211.31640625 C-34.30245644 214.14146768 -34.30245644 214.14146768 -32 215 C-31.09670814 216.69367223 -30.28042273 218.43381754 -29.5 220.1875 C-28.71302734 221.93933594 -28.71302734 221.93933594 -27.91015625 223.7265625 C-27.61254395 224.39461914 -27.31493164 225.06267578 -27.00830078 225.75097656 C-25.87194767 228.28562182 -24.71646628 230.81105143 -23.55859375 233.3359375 C-21.38714442 238.07234763 -19.23782546 242.81832735 -17.09960938 247.56982422 C-16.22063159 249.51239634 -15.32415389 251.44704674 -14.421875 253.37890625 C-7.39024574 269.02205616 -5.06856403 286.38165649 -2.9375 303.25 C-2.68692245 305.16759662 -2.43544463 307.0850758 -2.18310547 309.00244141 C-1.55913312 313.76665205 -0.94935054 318.53254833 -0.34429932 323.29919434 C0.08656144 326.67901854 0.52663785 330.05760349 0.96733093 333.43615723 C1.44186424 337.08176146 1.90895847 340.72830214 2.375 344.375 C2.62648804 346.33228027 2.62648804 346.33228027 2.88305664 348.32910156 C3.10723267 350.12686035 3.10723267 350.12686035 3.3359375 351.9609375 C3.53002197 353.50467041 3.53002197 353.50467041 3.72802734 355.07958984 C4.00656657 358.07051109 4.04750967 360.99794753 4 364 C6.97 363.34 9.94 362.68 13 362 C9.64814038 341.76334059 6.25329888 321.53423432 2.8125 301.3125 C2.56064941 299.83086868 2.56064941 299.83086868 2.30371094 298.31930542 C-0.37742005 282.55142846 -3.10951685 266.79591465 -6.0078125 251.06640625 C-6.35807475 249.16210971 -6.70833515 247.25781283 -7.05859375 245.35351562 C-7.59418534 242.44175987 -8.13098676 239.53025227 -8.67138672 236.61938477 C-9.20394065 233.74823484 -9.73130525 230.87617034 -10.2578125 228.00390625 C-10.41823029 227.14640274 -10.57864807 226.28889923 -10.743927 225.40541077 C-19.81889364 175.61097461 -10.3879217 120.04231978 -6.5 69.9375 C-6.42496624 68.9655154 -6.34993248 67.99353081 -6.27262497 66.99209213 C-4.54491384 44.61642459 -2.72561743 22.28033341 0 0 Z " fill="#FEFEFE" transform="translate(346,14)"/>
<path d="M0 0 C2.4769862 2.23574154 3.8444543 4.36836479 5.26171875 7.37890625 C5.85629883 8.63670898 5.85629883 8.63670898 6.46289062 9.91992188 C7.06907227 11.22799805 7.06907227 11.22799805 7.6875 12.5625 C8.10322266 13.43841797 8.51894531 14.31433594 8.94726562 15.21679688 C12 21.72829433 12 21.72829433 12 24 C12.66 24 13.32 24 14 24 C14.38671875 24.80824219 14.7734375 25.61648438 15.171875 26.44921875 C15.69265625 27.51785156 16.2134375 28.58648437 16.75 29.6875 C17.26046875 30.74324219 17.7709375 31.79898437 18.296875 32.88671875 C19.94832283 35.90553509 21.83888738 38.33640646 24 41 C24.9765625 42.984375 24.9765625 42.984375 25.625 44.75 C26.61915311 48.08019566 26.61915311 48.08019566 29 49 C29.66666667 50.66666667 30.33333333 52.33333333 31 54 C31.66 54.33 32.32 54.66 33 55 C33.33 55.99 33.66 56.98 34 58 C34.66 58.66 35.32 59.32 36 60 C38 62 38 62 39 65 C39.99 65.66 40.98 66.32 42 67 C42 67.99 42 68.98 42 70 C42.99 70.33 43.98 70.66 45 71 C46.03676108 72.74953432 47.06862825 74.50338441 48.02734375 76.296875 C49.11559705 78.20241089 50.420607 79.48927627 52 81 C52.515625 81.86625 53.03125 82.7325 53.5625 83.625 C54.77912906 86.11190375 54.77912906 86.11190375 57 87 C57 87.99 57 88.98 57 90 C57.66 90 58.32 90 59 90 C60.62109375 92.265625 60.62109375 92.265625 62.4375 95.25 C64.93749864 99.33995353 64.93749864 99.33995353 67.72265625 103.234375 C69 105 69 105 69 107 C69.66 107 70.32 107 71 107 C73.31663844 110.93828536 75.43358249 114.69235185 77 119 C77.66 119 78.32 119 79 119 C79.33 119.99 79.66 120.98 80 122 C80.66 122.33 81.32 122.66 82 123 C82.9296875 124.70703125 82.9296875 124.70703125 83.875 126.8125 C85.50517414 130.22435144 87.27524681 132.36314207 90 135 C93 140.35714286 93 140.35714286 93 143 C93.66 143 94.32 143 95 143 C95 143.99 95 144.98 95 146 C95.66 146 96.32 146 97 146 C97.83848804 147.45537568 98.67063934 148.91440373 99.5 150.375 C100.19609375 151.59316406 100.19609375 151.59316406 100.90625 152.8359375 C102 155 102 155 102 157 C102.66 157 103.32 157 104 157 C107 162.75 107 162.75 107 165 C107.66 165 108.32 165 109 165 C109 165.99 109 166.98 109 168 C109.66 168 110.32 168 111 168 C114 173.75 114 173.75 114 176 C114.66 176 115.32 176 116 176 C116.495 178.475 116.495 178.475 117 181 C117.99 181.33 118.98 181.66 120 182 C121.1875 184.5625 121.1875 184.5625 122 187 C122.33 187 122.66 187 123 187 C123 160.6 123 134.2 123 107 C128.61 108.32 134.22 109.64 140 111 C143.71111464 111.31953326 147.01880627 111.53752854 150.6875 111.4375 C151.56470703 111.4271875 152.44191406 111.416875 153.34570312 111.40625 C159.86339144 111.24390465 165.87495381 110.32721811 172.1875 108.65625 C174.91736793 108.01928082 177.21315088 107.95082031 180 108 C180.17748703 123.85405754 180.34311071 139.70822527 180.5 155.5625 C180.51187725 156.76210232 180.5237545 157.96170464 180.53599167 159.19765854 C180.92894228 199.23715824 181.09047887 239.27124306 181.0625 279.3125 C181.06164398 280.54651173 181.06078796 281.78052345 181.05990601 283.05192947 C181.04872189 298.03463516 181.02896708 313.0173184 181 328 C167.14999597 332.61666801 149.59717173 330.3686752 135.390625 328.484375 C133.73957764 328.27143799 133.73957764 328.27143799 132.05517578 328.05419922 C129.36951376 327.70719186 126.68452046 327.35571236 124 327 C124.0031424 326.42500259 124.00628481 325.85000519 124.00952244 325.25758362 C124.08300937 311.24302384 124.10658935 297.22911527 124.07515812 283.21438599 C124.06115136 276.43673797 124.06381022 269.65987353 124.10620117 262.88232422 C124.14707502 256.33975139 124.14084621 249.79819863 124.10607719 243.25558472 C124.10048455 240.76136835 124.11059428 238.26706506 124.13676643 235.77297974 C124.1707811 232.27421124 124.14862173 228.77991466 124.11352539 225.28125 C124.13653214 224.25337875 124.15953888 223.22550751 124.1832428 222.16648865 C124.08824546 217.77085958 123.88623176 215.06319954 121.01217461 211.61523438 C118.7538771 209.60076134 116.43600017 207.79208088 114 206 C112.33333333 204.33333333 110.66666667 202.66666667 109 201 C107.67326958 199.82582996 106.33934116 198.65976469 105 197.5 C96.68108451 190.26207352 96.68108451 190.26207352 94.77734375 186.734375 C92.4568771 183.16442631 89.5615577 180.66497738 86.375 177.875 C80.13337563 172.4001269 80.13337563 172.4001269 79 169 C77.3563186 167.31066078 75.6857124 165.64740076 74 164 C72.32932867 162.00334402 70.66247014 160.00348966 69 158 C68.38125 157.3915625 67.7625 156.783125 67.125 156.15625 C63.92137329 152.90551114 61.16458084 149.31536282 58.31640625 145.75390625 C56.04822731 142.96569451 56.04822731 142.96569451 53.45703125 140.51953125 C46.18340505 133.06088435 41.8112459 122.88460046 37.5859375 113.48046875 C36.28793931 110.63190621 34.90889861 107.88504389 33.4375 105.125 C30.82108189 99.98714926 28.98963391 94.60106002 27.14233398 89.15087891 C26.00910309 85.8113612 24.82091528 82.58213565 23.4296875 79.3359375 C22.14594442 76.34053697 21.15409464 73.43844987 20.25 70.3125 C18.82663276 65.55531443 17.26261911 60.88589689 15.57641602 56.21582031 C11.71731263 45.51080956 8.57075378 34.68286173 5.578125 23.70703125 C4.08304238 18.23312864 2.42571802 12.83604226 0.62890625 7.453125 C-0.03239413 4.87364277 -0.11922335 2.65152732 0 0 Z " fill="#FDFEFD" transform="translate(201,385)"/>
<path d="M0 0 C0.99 0 1.98 0 3 0 C2.76372793 1.31504059 2.50987576 2.62691966 2.25 3.9375 C2.11078125 4.66839844 1.9715625 5.39929688 1.828125 6.15234375 C1.14454811 8.5029454 0.3732538 10.46383109 -0.64453125 12.671875 C-4.15873634 20.37903882 -6.97265699 28.38261634 -9.9375 36.3125 C-13.7924041 46.61568144 -17.66254446 56.88725283 -22 67 C-22.44508911 68.04788696 -22.44508911 68.04788696 -22.89916992 69.11694336 C-23.6367603 70.85065397 -24.38061234 72.58169699 -25.125 74.3125 C-25.60195313 75.42238281 -26.07890625 76.53226563 -26.5703125 77.67578125 C-27.04210937 78.77277344 -27.51390625 79.86976563 -28 81 C-28.47953125 82.134375 -28.9590625 83.26875 -29.453125 84.4375 C-31.38872511 88.8952457 -33.4686467 93.27683785 -35.5703125 97.65820312 C-37.02303954 100.72959369 -38.37179147 103.64672474 -39 107 C-37.68397477 106.38245741 -36.37226444 105.75571258 -35.0625 105.125 C-34.33160156 104.77695312 -33.60070312 104.42890625 -32.84765625 104.0703125 C-30.83667541 103.1315023 -30.83667541 103.1315023 -30 101 C-29.01 100.67 -28.02 100.34 -27 100 C-26.57847656 99.57203125 -26.15695312 99.1440625 -25.72265625 98.703125 C-23.26020197 96.2685897 -20.35962348 94.57393599 -17.4375 92.75 C-12.16963794 89.42278522 -7.03225797 85.97468141 -1.98828125 82.3125 C0 81 0 81 3 80 C3.33 79.34 3.66 78.68 4 78 C5.45144288 77.21710051 6.93763631 76.49808512 8.4375 75.8125 C14.06808108 73.08130775 18.95063708 69.6708317 24 66 C25.68590825 64.83103434 27.37340347 63.66435402 29.0625 62.5 C35.94960477 57.65632192 42.341395 53.07637136 47.6640625 46.50390625 C49.50746846 44.42872702 51.53189476 43.23405262 54 42 C55.1446875 41.4121875 55.1446875 41.4121875 56.3125 40.8125 C56.869375 40.544375 57.42625 40.27625 58 40 C58.33 40.66 58.66 41.32 59 42 C57.16670992 44.52668347 55.33101341 47.05155901 53.4921875 49.57421875 C51.7183165 52.00845159 49.95504283 54.45005986 48.1953125 56.89453125 C47.23450734 58.22145 46.27357108 59.54827384 45.3125 60.875 C44.86156982 61.5047876 44.41063965 62.1345752 43.94604492 62.78344727 C41.22367367 66.52913887 38.32357816 69.75670151 35 73 C33.60127224 74.646804 32.22662592 76.31432205 30.875 78 C26.91864807 82.8907667 22.88608584 87.70804878 18.80615234 92.49609375 C16.78190715 94.87597981 14.78522662 97.26904824 12.8359375 99.7109375 C7.35093168 106.54968944 7.35093168 106.54968944 3 108 C2.67 108.99 2.34 109.98 2 111 C0.35360035 112.35827971 -1.31295807 113.69254251 -3 115 C-3.33 115.66 -3.66 116.32 -4 117 C-5.64821244 118.03013277 -7.32111559 119.02065076 -9 120 C-10.23087227 120.85170702 -11.4597911 121.70623938 -12.6875 122.5625 C-25.0661113 130.84917833 -38.59974981 137.53922404 -52 144 C-52.69915527 144.33725098 -53.39831055 144.67450195 -54.11865234 145.02197266 C-56.20089191 146.02158048 -58.28676476 147.01298551 -60.375 148 C-61.01203857 148.30317139 -61.64907715 148.60634277 -62.30541992 148.91870117 C-66.76325028 151 -66.76325028 151 -69 151 C-69 151.66 -69 152.32 -69 153 C-75.5 156 -75.5 156 -80 156 C-80 156.66 -80 157.32 -80 158 C-81.6232687 158.6708712 -83.24867578 159.33657029 -84.875 160 C-85.77992188 160.37125 -86.68484375 160.7425 -87.6171875 161.125 C-90 162 -90 162 -92 162 C-92 199.29 -92 236.58 -92 275 C-98.6639511 275.83299389 -104.88771467 276.21592324 -111.5625 276.25 C-113.03686523 276.2809375 -113.03686523 276.2809375 -114.54101562 276.3125 C-123.34401507 276.35796417 -129.93908678 274.81218264 -139 273 C-139 213.6 -139 154.2 -139 93 C-134.38 93.99 -129.76 94.98 -125 96 C-114.89414561 96.88328804 -105.60398708 95.88014401 -95.78125 93.55859375 C-94.8634375 93.37425781 -93.945625 93.18992187 -93 93 C-91.45769023 94.54230977 -91.83752513 96.0040971 -91.79467773 98.15258789 C-91.7647599 99.47384422 -91.7647599 99.47384422 -91.73423767 100.8217926 C-91.71752518 101.77907761 -91.70081268 102.73636261 -91.68359375 103.72265625 C-91.66281265 104.69786728 -91.64203156 105.67307831 -91.62062073 106.67784119 C-91.55501588 109.8059863 -91.49618972 112.93421822 -91.4375 116.0625 C-91.39432517 118.1777435 -91.35071123 120.29297809 -91.30664062 122.40820312 C-91.19932345 127.60537587 -91.0975778 132.80263577 -91 138 C-90.59225342 136.83952148 -90.18450684 135.67904297 -89.7644043 134.48339844 C-89.22188036 132.94204395 -88.67931639 131.40070355 -88.13671875 129.859375 C-87.86887573 129.0967334 -87.60103271 128.3340918 -87.32507324 127.54833984 C-83.73665373 117.36150492 -79.47300083 107.77539939 -74.5 98.1875 C-74.03698486 97.2912793 -73.57396973 96.39505859 -73.09692383 95.47167969 C-70.39044922 90.33393266 -67.45991603 85.66152736 -64 81 C-63.29325371 79.68747118 -62.60036728 78.36447109 -62 77 C-61.34 77 -60.68 77 -60 77 C-59.90976562 76.40703125 -59.81953125 75.8140625 -59.7265625 75.203125 C-58.81478762 72.43838827 -57.63906677 71.55076353 -55.375 69.75 C-51.70750763 66.6992237 -48.6757663 63.42845411 -45.60546875 59.7890625 C-43.6165094 57.57265525 -41.32698366 55.84789879 -39 54 C-38.67 53.01 -38.34 52.02 -38 51 C-36.58841796 49.85729073 -35.17540545 48.71628627 -33.75390625 47.5859375 C-28.91636548 43.21168015 -25.26605035 37.59894346 -22 32 C-20.66773349 30.33248043 -19.33419404 28.66597774 -18 27 C-16.3990949 24.84367885 -14.81478818 22.6820731 -13.25 20.5 C-12.81679443 19.89849121 -12.38358887 19.29698242 -11.93725586 18.67724609 C-8.19487486 13.41527318 -4.89438523 7.95510401 -1.69140625 2.3515625 C-1.13324219 1.57554687 -0.57507813 0.79953125 0 0 Z " fill="#FDFEFD" transform="translate(547,485)"/>
<path d="M0 0 C18.81 0 37.62 0 57 0 C57 81.84 57 163.68 57 248 C37.42721914 257.78639043 22.29946631 255.22994663 0 253 C0 169.51 0 86.02 0 0 Z " fill="#FEFEFE" transform="translate(324,717)"/>
<path d="M0 0 C15.51 0 31.02 0 47 0 C47 67.32 47 134.64 47 204 C38.47843618 207.65209878 32.01344319 209.34117367 22.8125 209.25 C22.05130859 209.25773438 21.29011719 209.26546875 20.50585938 209.2734375 C13.37780444 209.24985419 7.25754709 208.11654571 0 207 C0 138.69 0 70.38 0 0 Z " fill="#FDFEFD" transform="translate(408,763)"/>
<path d="M0 0 C8.415 1.485 8.415 1.485 17 3 C27.5108665 3.65692916 35.0666604 1.92941287 46 0 C46 31.02 46 62.04 46 94 C32.23716882 98.58761039 18.86420409 101.8011449 5 96 C3.35 95.34 1.7 94.68 0 94 C0 62.98 0 31.96 0 0 Z " fill="#FEFEFE" transform="translate(408,480)"/>
<path d="M0 0 C-2.31 0.66 -4.62 1.32 -7 2 C-6.01 2.66 -5.02 3.32 -4 4 C-8.78370669 4.94167455 -13.45112253 5.19182555 -18.3125 5.1875 C-19.43483032 5.1884668 -19.43483032 5.1884668 -20.57983398 5.18945312 C-25.97300301 5.13791671 -30.80020801 4.51266676 -36 3 C-35.34 2.01 -34.68 1.02 -34 0 C-33.0925 0.165 -32.185 0.33 -31.25 0.5 C-22.8037878 1.6749771 -14.672041 1.22890219 -6.375 -0.66015625 C-3.90695677 -1.01331375 -2.34674793 -0.77681702 0 0 Z " fill="#076307" transform="translate(449,577)"/>
<path d="M0 0 C2.28198242 0.10742188 2.28198242 0.10742188 4.09448242 1.60742188 C4.48635742 2.10242188 4.87823242 2.59742188 5.28198242 3.10742188 C-4.7741195 3.24883581 -14.69364072 2.83646746 -24.71801758 2.10742188 C-24.71801758 1.77742187 -24.71801758 1.44742188 -24.71801758 1.10742188 C-21.15560408 0.9388718 -17.59307433 0.77291415 -14.03051758 0.60742188 C-13.02311523 0.55972656 -12.01571289 0.51203125 -10.9777832 0.46289062 C-9.51308594 0.39521484 -9.51308594 0.39521484 -8.01879883 0.32617188 C-7.12330322 0.28427734 -6.22780762 0.24238281 -5.30517578 0.19921875 C-3.53665035 0.13646839 -1.76825785 0.06988534 0 0 Z " fill="#526B52" transform="translate(449.718017578125,759.892578125)"/>
<path d="M0 0 C-2.31 0.66 -4.62 1.32 -7 2 C-6.01 2.66 -5.02 3.32 -4 4 C-9.01608525 5.0176403 -13.78608306 5.11856434 -18.875 5.0625 C-19.65875 5.05798828 -20.4425 5.05347656 -21.25 5.04882812 C-23.16670014 5.03714093 -25.08336048 5.01920908 -27 5 C-27 4.67 -27 4.34 -27 4 C-19.08 3.505 -19.08 3.505 -11 3 C-12.32 2.34 -13.64 1.68 -15 1 C-13.25215171 0.63536268 -11.50159498 0.2836922 -9.75 -0.0625 C-8.28820312 -0.35833984 -8.28820312 -0.35833984 -6.796875 -0.66015625 C-4.131881 -0.98397535 -2.51128277 -0.85503199 0 0 Z " fill="#468046" transform="translate(449,577)"/>
<path d="M0 0 C2.18975773 3.28463659 2.99806563 6.20696275 4 10 C2.125 9.8125 2.125 9.8125 0 9 C-1.25 6.4375 -1.25 6.4375 -2 4 C-1.34 4 -0.68 4 0 4 C0 2.68 0 1.36 0 0 Z " fill="#5F8761" transform="translate(316,360)"/>
<path d="M0 0 C2.31 0.33 4.62 0.66 7 1 C6.01 2.485 6.01 2.485 5 4 C2.69 3.67 0.38 3.34 -2 3 C-1.34 2.01 -0.68 1.02 0 0 Z " fill="#448245" transform="translate(415,577)"/>
<path d="M0 0 C-1.39332574 3.36720387 -2.9789286 4.9859524 -6 7 C-5.37162381 3.35541809 -4.14650034 0 0 0 Z " fill="#F0F4F1" transform="translate(248,270)"/>
</svg>
