<?xml version="1.0" encoding="UTF-8"?>
<svg version="1.1" xmlns="http://www.w3.org/2000/svg" width="225" height="225">
<path d="M0 0 C74.25 0 148.5 0 225 0 C225 74.25 225 148.5 225 225 C150.75 225 76.5 225 0 225 C0 150.75 0 76.5 0 0 Z " fill="#FCFDFC" transform="translate(0,0)"/>
<path d="M0 0 C1.29873047 0.00644531 2.59746094 0.01289062 3.93554688 0.01953125 C5.30729432 0.0362419 6.67903911 0.05317179 8.05078125 0.0703125 C9.43423843 0.08034576 10.81770252 0.08947101 12.20117188 0.09765625 C15.58871577 0.12126283 18.97591197 0.15419213 22.36328125 0.1953125 C22.3772998 1.18543335 22.3772998 1.18543335 22.39160156 2.19555664 C22.44563698 5.21703715 22.52921818 8.23702426 22.61328125 11.2578125 C22.62746094 12.29615234 22.64164063 13.33449219 22.65625 14.40429688 C22.86083892 20.84884779 23.55190548 24.93947537 27.36328125 30.1953125 C31.26640149 33.74360363 34.6768599 34.32075005 39.84106445 34.35644531 C41.52344963 34.37085663 41.52344963 34.37085663 43.23982239 34.38555908 C44.45232162 34.38980896 45.66482086 34.39405884 46.9140625 34.3984375 C48.78411201 34.40698761 48.78411201 34.40698761 50.69194031 34.41571045 C53.33234304 34.42516416 55.97263201 34.43205903 58.61303711 34.43554688 C61.31629906 34.43993687 64.01924278 34.45384816 66.72241211 34.4765625 C70.61972758 34.50702329 74.51664125 34.51759507 78.4140625 34.5234375 C79.62048904 34.5357843 80.82691559 34.5481311 82.06990051 34.56085205 C90.14906599 34.58726971 90.14906599 34.58726971 97.36328125 31.1953125 C103.41488203 24.9756117 103.70624468 18.05813076 103.98828125 9.8203125 C104.02695313 8.89347656 104.065625 7.96664062 104.10546875 7.01171875 C104.19915716 4.7397748 104.28487473 2.46782654 104.36328125 0.1953125 C108.9254459 0.04999215 113.48701487 -0.03877227 118.05078125 -0.1171875 C119.99114258 -0.1800293 119.99114258 -0.1800293 121.97070312 -0.24414062 C123.84145508 -0.26831055 123.84145508 -0.26831055 125.75 -0.29296875 C127.47029419 -0.33224487 127.47029419 -0.33224487 129.2253418 -0.37231445 C133.31398238 0.36728637 134.75455735 2.04605556 137.36328125 5.1953125 C142.14657358 14.76189716 140.09632388 33.8736848 138.36328125 44.1953125 C135.99571466 51.24333644 131.45330364 56.35492475 126.48632812 61.74804688 C122.41638577 66.43952596 119.08337048 71.67929298 115.61328125 76.8203125 C114.26884192 78.7739509 112.92023467 80.72473127 111.56640625 82.671875 C110.99567383 83.49768066 110.42494141 84.32348633 109.83691406 85.17431641 C108.36328125 87.1953125 108.36328125 87.1953125 106.36328125 89.1953125 C103.61388207 89.39199642 100.96384953 89.46486155 98.21337891 89.45068359 C97.37095139 89.45430405 96.52852386 89.4579245 95.66056824 89.46165466 C93.82773549 89.46855836 91.99488215 89.47105228 90.1620369 89.46970749 C87.26220972 89.46874498 84.36275602 89.48165171 81.46298218 89.49868774 C73.21721302 89.54504423 64.97148082 89.56957014 56.72558594 89.57617188 C51.68513328 89.58118113 46.64506901 89.60540296 41.60474777 89.64149857 C39.68222763 89.65131202 37.75965415 89.65362012 35.83711624 89.64832687 C33.14831181 89.64127193 30.46066742 89.65850609 27.77197266 89.68115234 C26.9759816 89.67297989 26.17999054 89.66480743 25.35987854 89.65638733 C21.83069206 89.70933904 19.74194125 89.92501728 16.83383179 92.00088501 C15.01930799 94.25707995 15.01930799 94.25707995 15.42578125 97.8203125 C16.03836575 101.45048174 16.03836575 101.45048174 19.36328125 103.1953125 C21.83797545 103.40761428 24.20408524 103.50651682 26.68041992 103.51416016 C27.42212936 103.52420578 28.16383881 103.5342514 28.92802429 103.54460144 C31.37909166 103.57548674 33.83004954 103.59248323 36.28125 103.609375 C37.9809107 103.62808237 39.68056208 103.64765546 41.38020325 103.6680603 C45.85340887 103.71943314 50.32664463 103.75903122 54.79998779 103.79620361 C59.36478154 103.83621101 63.9294494 103.88731822 68.49414062 103.9375 C77.45043247 104.03432025 86.40679531 104.11870548 95.36328125 104.1953125 C95.06251175 104.94360825 94.76174225 105.69190399 94.45185852 106.46287537 C93.59803608 108.60605453 92.76756593 110.75853928 91.94604492 112.91430664 C89.63208777 117.73080458 87.0431644 121.46025059 82.36328125 124.1953125 C72.2475292 126.76155435 61.36539277 125.97997238 51.01287842 125.68884277 C47.10464651 125.59514564 43.19629516 125.58754734 39.28710938 125.57226562 C31.64319597 125.52991036 24.00492 125.39321434 16.36328125 125.1953125 C16.11578125 126.4328125 15.86828125 127.6703125 15.61328125 128.9453125 C15.4740625 129.64140625 15.33484375 130.3375 15.19140625 131.0546875 C15.18692889 133.36981119 15.18692889 133.36981119 17.02093506 135.42681885 C19.80115722 137.52591302 21.14207164 137.70772794 24.59082031 137.74121094 C25.63159729 137.76092957 26.67237427 137.78064819 27.74468994 137.80096436 C28.86148132 137.80219299 29.97827271 137.80342163 31.12890625 137.8046875 C32.2774408 137.82122375 33.42597534 137.83776001 34.60931396 137.85479736 C38.27735691 137.90337865 41.94498495 137.92467173 45.61328125 137.9453125 C48.10028141 137.97346356 50.58726215 138.00338975 53.07421875 138.03515625 C59.17049734 138.10914047 65.26665876 138.16072363 71.36328125 138.1953125 C71.1997113 138.80815094 71.03614136 139.42098938 70.86761475 140.05239868 C69.90179096 144.15618548 70.42415169 148.38653741 70.61328125 152.5703125 C70.64035156 153.50359375 70.66742188 154.436875 70.6953125 155.3984375 C70.97008888 161.65624806 71.65842474 166.57498276 76.36328125 171.1328125 C84.72280362 174.09347667 95.58584568 170.71071338 103.36328125 167.1953125 C106.38154968 164.95232479 108.26458499 162.29513739 110.36328125 159.1953125 C111.17606242 158.03444079 111.98995858 156.87434931 112.8046875 155.71484375 C114.68381159 153.01828027 116.54012478 150.30751809 118.3828125 147.5859375 C121.46579044 143.03482597 124.58815722 138.51268102 127.73828125 134.0078125 C128.22578857 133.30148682 128.7132959 132.59516113 129.21557617 131.86743164 C129.68455322 131.19832764 130.15353027 130.52922363 130.63671875 129.83984375 C131.04325684 129.25565674 131.44979492 128.67146973 131.86865234 128.06958008 C133.8503181 125.58456733 136.09005524 123.41255358 138.36328125 121.1953125 C138.43286285 129.3231057 138.48613367 137.45077397 138.51871777 145.57879162 C138.53435836 149.35317206 138.55556686 153.12734836 138.58959961 156.90161133 C138.62225101 160.54558118 138.64014635 164.18935497 138.64791298 167.83345985 C138.65344617 169.22211098 138.66425128 170.61075166 138.68047142 171.99931908 C138.70231981 173.94759995 138.70350729 175.89607908 138.70385742 177.84448242 C138.71385017 179.50661018 138.71385017 179.50661018 138.7240448 181.20231628 C138.21516714 185.42410896 136.71687563 187.94667838 133.60826302 190.81424332 C130.78812933 192.54913479 129.01459246 192.57497538 125.71485901 192.58299255 C124.56384705 192.59289719 123.41283508 192.60280182 122.22694397 192.61300659 C120.33872169 192.60625412 120.33872169 192.60625412 118.41235352 192.59936523 C117.07013378 192.60506895 115.7279189 192.61203322 114.38571167 192.62016296 C110.74309709 192.63810999 107.10072319 192.63692313 103.45807767 192.63122058 C100.41628882 192.62813081 97.37454634 192.63421884 94.33276409 192.64025933 C87.15629245 192.65430812 79.97993983 192.65274048 72.8034668 192.64135742 C65.40182099 192.62987658 58.00053753 192.64395024 50.59893948 192.6707539 C44.24211945 192.69291148 37.88541315 192.69954814 31.52855724 192.69367748 C27.73278721 192.69030671 23.93724945 192.69273067 20.14151192 192.70992851 C16.57170328 192.72539667 13.00243131 192.72144428 9.43264389 192.70262337 C7.50013648 192.6971807 5.56760499 192.71145276 3.63514709 192.72631836 C1.90439941 192.71156715 1.90439941 192.71156715 0.13868713 192.69651794 C-1.36203417 192.69620402 -1.36203417 192.69620402 -2.89307308 192.69588375 C-6.41596243 192.05314145 -8.06667589 190.64291427 -10.63671875 188.1953125 C-13.12162548 184.46795241 -12.89039804 182.56581728 -12.89741516 178.11062622 C-12.90124071 177.38471846 -12.90506626 176.65881069 -12.90900773 175.91090572 C-12.91934871 173.47194348 -12.91534353 171.03321618 -12.91137695 168.59423828 C-12.91572286 166.84823386 -12.9209056 165.10223135 -12.92686462 163.35623169 C-12.94027987 158.60826974 -12.94083042 153.86038728 -12.93830132 149.11241007 C-12.93723318 145.15111105 -12.94211103 141.18982823 -12.94690675 137.22853267 C-12.95801096 127.88362541 -12.95843439 118.53875833 -12.95239258 109.19384766 C-12.94635283 99.54912346 -12.95866174 89.90454515 -12.97996265 80.25984585 C-12.99756972 71.98375776 -13.00358136 63.70771613 -13.0003249 55.43160999 C-12.99851026 50.48674676 -13.00116618 45.54198756 -13.01503944 40.59714127 C-13.02759839 35.94649303 -13.02569203 31.29607237 -13.01262856 26.6454277 C-13.01025889 24.93821384 -13.0130114 23.23098407 -13.02125168 21.52378845 C-13.03168823 19.19358242 -13.02364387 16.86414431 -13.01094055 14.53396606 C-13.01110829 13.22983828 -13.01127604 11.92571049 -13.01144886 10.58206367 C-12.6078966 6.93482248 -11.85655546 5.0850883 -9.63671875 2.1953125 C-6.00365817 -0.22672788 -4.31852852 -0.03771641 0 0 Z " fill="#016401" transform="translate(18.63671875,32.8046875)"/>
<path d="M0 0 C5.65440723 0.19167482 8.92151407 1.86220969 13.375 5.25 C14.93347656 6.40242188 14.93347656 6.40242188 16.5234375 7.578125 C19 10 19 10 20.16796875 12.32421875 C19.89944292 16.60189762 17.47854815 19.22494594 14.9375 22.5625 C13.81553897 24.09181203 12.6944807 25.62178666 11.57421875 27.15234375 C10.68935791 28.34706299 10.68935791 28.34706299 9.78662109 29.56591797 C6.8717211 33.53716052 4.06430967 37.58216761 1.25 41.625 C0.06526521 43.31912305 -1.11963396 45.01313115 -2.3046875 46.70703125 C-8.88504901 56.12739379 -15.44173114 65.56425145 -22 75 C-24.70795971 78.89609323 -27.41626151 82.79194817 -30.125 86.6875 C-31.12140503 88.12077637 -31.12140503 88.12077637 -32.13793945 89.58300781 C-35.85941767 94.93317466 -39.59333909 100.27431424 -43.33886719 105.60766602 C-51.33591274 116.99722594 -59.1869484 128.48359497 -67 140 C-70.96320674 138.48722106 -74.07148888 136.70591477 -77.5 134.1875 C-78.87671875 133.18783203 -78.87671875 133.18783203 -80.28125 132.16796875 C-83.06588698 129.94746081 -85.53077937 127.56315837 -88 125 C-87.319375 124.03964844 -86.63875 123.07929688 -85.9375 122.08984375 C-77.92128771 110.76405681 -69.98868176 99.38123381 -62.07324219 87.98486328 C-53.16755631 75.16327643 -44.25288066 62.3482176 -35.29296875 49.56445312 C-30.80480291 43.15787626 -26.33826203 36.7364433 -21.875 30.3125 C-16.97219794 23.26109964 -12.06432497 16.21338191 -7.125 9.1875 C-6.63112793 8.48214111 -6.13725586 7.77678223 -5.62841797 7.05004883 C-3.86216319 4.5441316 -2.17237895 2.17237895 0 0 Z " fill="#026402" transform="translate(199,33)"/>
<path d="M0 0 C4.08180808 2.81191223 7.95431822 6.04884893 9.41015625 10.94921875 C9.6875 12.875 9.6875 12.875 9.8125 15.9375 C10.48796875 15.89109375 11.1634375 15.8446875 11.859375 15.796875 C13.19742188 15.74273438 13.19742188 15.74273438 14.5625 15.6875 C15.44421875 15.64109375 16.3259375 15.5946875 17.234375 15.546875 C20.73318037 16.07699703 21.66678973 17.14391212 23.8125 19.9375 C24.22312939 22.55782291 24.39785053 24.75280193 24.37890625 27.37109375 C24.38820412 28.44352074 24.38820412 28.44352074 24.39768982 29.53761292 C24.40477779 31.0463017 24.40163163 32.55506886 24.38891602 34.0637207 C24.3750607 36.36491831 24.40911089 38.66203715 24.44726562 40.96289062 C24.44821704 42.43229266 24.44635677 43.90169975 24.44140625 45.37109375 C24.45466446 46.05457382 24.46792267 46.73805389 24.48158264 47.44224548 C24.41498282 50.88245138 23.8178782 52.92870037 22.01953125 55.87109375 C17.12615991 59.02406992 12.57673243 58.63389023 6.87109375 58.56640625 C5.13135033 58.57002419 5.13135033 58.57002419 3.35646057 58.57371521 C0.90793432 58.57273687 -1.54061407 58.55934679 -3.98901367 58.53442383 C-7.74018291 58.50008985 -11.4890002 58.51377432 -15.24023438 58.53320312 C-17.61980171 58.52630554 -19.99936296 58.51663396 -22.37890625 58.50390625 C-24.06337608 58.51134605 -24.06337608 58.51134605 -25.78187561 58.51893616 C-27.34886452 58.49518166 -27.34886452 58.49518166 -28.94750977 58.47094727 C-30.32387352 58.4616494 -30.32387352 58.4616494 -31.7280426 58.4521637 C-34.93430717 57.78122385 -36.1252846 56.42363891 -38.1875 53.9375 C-40.32489323 49.66271354 -39.41447829 43.99012781 -39.42773438 39.24389648 C-39.43741561 37.14331089 -39.46842684 35.04371425 -39.5 32.94335938 C-39.50653286 31.6015683 -39.51178222 30.25977023 -39.515625 28.91796875 C-39.5249707 27.70004639 -39.53431641 26.48212402 -39.54394531 25.22729492 C-39.15683233 21.6544542 -38.33708783 19.78606367 -36.1875 16.9375 C-33.66274538 15.67512269 -31.87549534 15.83893596 -29.0625 15.875 C-28.15242188 15.88402344 -27.24234375 15.89304687 -26.3046875 15.90234375 C-25.60601562 15.91394531 -24.90734375 15.92554687 -24.1875 15.9375 C-24.31125 14.638125 -24.31125 14.638125 -24.4375 13.3125 C-24.04435726 8.00507302 -21.4914638 5.11424782 -17.625 1.625 C-12.26944327 -2.08269312 -6.03557005 -2.01185668 0 0 Z " fill="#026502" transform="translate(89.1875,1.0625)"/>
<path d="M0 0 C1.26166992 -0.01029488 1.26166992 -0.01029488 2.54882812 -0.02079773 C5.32772733 -0.03909089 8.1060633 -0.03522462 10.88500977 -0.02954102 C12.81787805 -0.03410169 14.75074471 -0.03940693 16.68360901 -0.04542542 C20.73461494 -0.05436152 24.78542379 -0.05192779 28.83642578 -0.04199219 C34.02631832 -0.03050338 39.21553039 -0.05071015 44.40533352 -0.07990932 C48.3970827 -0.09826092 52.38866852 -0.09798091 56.3804493 -0.0922718 C58.29380307 -0.09211845 60.20716782 -0.0981741 62.12048149 -0.11056328 C64.7969002 -0.12545141 67.47205808 -0.11481253 70.1484375 -0.09765625 C71.33231804 -0.1121582 71.33231804 -0.1121582 72.54011536 -0.12695312 C76.22755882 -0.07748971 78.45051228 0.28989885 81.63050842 2.21665955 C83.63891602 4.40405273 83.63891602 4.40405273 84.26391602 7.90405273 C83.63891602 11.40405273 83.63891602 11.40405273 81.6295166 13.58946228 C77.78530325 15.92199471 74.5292326 15.97366301 70.16430664 15.9375 C68.90241768 15.95042336 68.90241768 15.95042336 67.61503601 15.96360779 C64.84143074 15.98626262 62.06883616 15.9795304 59.29516602 15.97045898 C57.36372579 15.97569451 55.43228813 15.98197073 53.50085449 15.98924255 C49.45576941 15.99964565 45.41103613 15.99508615 41.3659668 15.98046875 C36.18379607 15.96327454 31.00273343 15.98678452 25.82068634 16.02195835 C21.83319765 16.04392379 17.8459745 16.04249305 13.85844421 16.03419304 C11.94787887 16.03337318 10.03729409 16.04024325 8.12678528 16.05496407 C5.45500644 16.07239595 2.78522409 16.0578803 0.11352539 16.03515625 C-1.06799858 16.05269455 -1.06799858 16.05269455 -2.27339172 16.07058716 C-6.27562279 16.0013709 -8.1708446 15.54947127 -11.38684082 13.09117126 C-13.36108398 10.40405273 -13.36108398 10.40405273 -13.42358398 6.77905273 C-11.23016145 -0.18828943 -6.57503568 -0.03740594 0 0 Z " fill="#F4F7F4" transform="translate(46.361083984375,87.595947265625)"/>
<path d="M0 0 C7.17130684 3.68304154 13.56764761 8.1546953 20 13 C18.42511532 17.04197871 17.23312824 20.00344212 14 23 C8.10570711 25.34836114 2.31716244 26.42114416 -4 26 C-6.4836752 21.03264959 -6.58052423 13.50516453 -6 8 C-4.51441214 4.69160496 -2.71199033 2.38969583 0 0 Z " fill="#046504" transform="translate(103,170)"/>
<path d="M0 0 C0 0.99 0 1.98 0 3 C-1.08106018 3.00364563 -2.16212036 3.00729126 -3.27593994 3.01104736 C-13.45844646 3.04797094 -23.64064982 3.10571464 -33.82292557 3.18390274 C-39.05790724 3.22343056 -44.29271937 3.255593 -49.52783203 3.27099609 C-54.57899787 3.28612774 -59.62969775 3.32051105 -64.68065643 3.36830902 C-66.60874128 3.38315891 -68.53689264 3.39104308 -70.46503448 3.39188385 C-73.16371987 3.39424443 -75.86110798 3.42124988 -78.55957031 3.45410156 C-79.35870346 3.4490712 -80.15783661 3.44404083 -80.98118591 3.43885803 C-84.55026196 3.5061853 -86.58344191 3.67798257 -89.44940186 5.89349365 C-90.9045855 7.87037825 -92.03397561 9.74594308 -93 12 C-92.51529773 5.5776949 -92.51529773 5.5776949 -90.47966003 3.29556274 C-86.91728363 1.43430673 -83.50138864 1.56869859 -79.57543945 1.58349609 C-78.727901 1.57491074 -77.88036255 1.56632538 -77.00714111 1.55747986 C-74.20910342 1.53240911 -71.41142101 1.52804069 -68.61328125 1.5234375 C-66.67082126 1.5091308 -64.72837144 1.49337439 -62.78593445 1.47622681 C-57.67522194 1.43435961 -52.56457255 1.40936926 -47.45373535 1.38873291 C-39.2620368 1.35292029 -31.0704937 1.29208971 -22.87895775 1.23024368 C-20.01104653 1.21108954 -17.14317695 1.19940626 -14.27522278 1.18881226 C-12.5289399 1.17860599 -10.78265789 1.16824857 -9.03637695 1.15771484 C-8.23274216 1.15667252 -7.42910736 1.15563019 -6.60112 1.15455627 C-3.00312418 1.46360114 -3.00312418 1.46360114 0 0 Z " fill="#BCD0BC" transform="translate(126,120)"/>
<path d="M0 0 C3.625 0.375 3.625 0.375 6.0625 2.1875 C7.625 4.375 7.625 4.375 7.625 7.375 C2.675 7.375 -2.275 7.375 -7.375 7.375 C-4.63081395 0.51453488 -4.63081395 0.51453488 0 0 Z " fill="#F3F6F3" transform="translate(81.375,9.625)"/>
<path d="M0 0 C0.99 0.33 1.98 0.66 3 1 C2.38125 1.5775 1.7625 2.155 1.125 2.75 C-0.81347053 4.80249821 -1.90014249 6.43366582 -3 9 C-2.25 2.25 -2.25 2.25 0 0 Z " fill="#C8D9C8" transform="translate(36,123)"/>
</svg>
