<?xml version="1.0" encoding="UTF-8"?>
<svg version="1.1" xmlns="http://www.w3.org/2000/svg" width="500" height="500">
<path d="M0 0 C165 0 330 0 500 0 C500 165 500 330 500 500 C335 500 170 500 0 500 C0 335 0 170 0 0 Z " fill="#FEFEFE" transform="translate(0,0)"/>
<path d="M0 0 C165 0 330 0 500 0 C500 165 500 330 500 500 C335 500 170 500 0 500 C0 335 0 170 0 0 Z M82 74 C82 203.03 82 332.06 82 465 C192.88 465 303.76 465 418 465 C418 335.97 418 206.94 418 74 C396.22 74 374.44 74 352 74 C351.67 78.95 351.34 83.9 351 89 C284.67 89 218.34 89 150 89 C147.74414342 84.48828685 148.38687621 79.02939074 148 74 C126.22 74 104.44 74 82 74 Z " fill="#006300" transform="translate(0,0)"/>
<path d="M0 0 C81.18 0 162.36 0 246 0 C242 2 242 2 240.0703125 2.89453125 C233.8858669 5.81289413 229.01199348 8.82695167 225.9206543 15.1159668 C224.43088309 17.53452958 223.66652883 18.76350717 220.96353149 19.7225647 C218.43012565 19.97356228 216.00156004 19.97756634 213.45703125 19.89453125 C212.53339279 19.89829269 211.60975433 19.90205414 210.65812683 19.90592957 C207.70807343 19.91222808 204.76203814 19.86527791 201.8125 19.8125 C198.88162551 19.78616103 195.95142537 19.77147194 193.02043152 19.77262878 C191.20042809 19.77062497 189.38033234 19.75182244 187.56074524 19.71284485 C176.86640797 19.63647176 168.00479018 22.85237215 160 30 C156.54615332 34.05008968 154.26052097 38.18489067 152.42163086 43.15649414 C152.1545079 43.8764003 151.88738495 44.59630646 151.61216736 45.33802795 C151.41015213 45.88647873 151.2081369 46.4349295 151 47 C149.98237579 47.00364563 148.96475159 47.00729126 147.91629028 47.01104736 C138.29485827 47.04809565 128.6737434 47.10597526 119.05255318 47.18390274 C114.10696267 47.2232998 109.16154814 47.25552629 104.21582031 47.27099609 C99.43693975 47.286214 94.65854325 47.32075012 89.879879 47.36830902 C88.06281635 47.38307005 86.24568457 47.39103797 84.42856216 47.39188385 C70.85947849 47.40454536 60.51391765 48.59157257 50 58 C43.51197439 64.78293586 39.87985412 72.12039588 39.86577892 81.50727844 C39.86342669 82.17435202 39.86107446 82.8414256 39.85865095 83.52871352 C39.85195615 85.77998209 39.85241932 88.03119301 39.85282898 90.2824707 C39.84953064 91.90651729 39.84580513 93.53056306 39.8416875 95.15460777 C39.83165572 99.63021586 39.8279488 104.10581055 39.82529819 108.58142829 C39.82139854 113.4037227 39.81181987 118.22600645 39.80308533 123.04829407 C39.78330972 134.70162801 39.77325262 146.35496283 39.76435754 158.00830936 C39.75997581 163.49494038 39.75460865 168.98157043 39.74936867 174.46820068 C39.73235413 192.70588989 39.71786028 210.94357849 39.71061993 229.18127441 C39.70871 233.91560873 39.70678967 238.64994304 39.70483398 243.38427734 C39.70410837 245.14934372 39.70410837 245.14934372 39.7033681 246.950068 C39.69506908 266.00902938 39.66973531 285.06792797 39.63725331 304.12686193 C39.60418215 323.69091598 39.58617105 343.25493812 39.58297569 362.81902027 C39.58081048 373.80481164 39.57206039 384.79051149 39.54651451 395.77627563 C39.52480664 405.13324489 39.51675749 414.4901004 39.52648129 423.84709197 C39.53102592 428.62009254 39.52913027 433.39285842 39.50971985 438.1658268 C39.49208684 442.5395827 39.49308702 446.91293275 39.50861714 451.28669298 C39.51099302 452.86485542 39.50667067 454.44304599 39.49478849 456.02116549 C39.40591921 468.6089405 41.03501525 479.55771282 50 489 C55.32840742 493.94944741 61.18143043 496.62467863 68 499 C68 499.33 68 499.66 68 500 C45.56 500 23.12 500 0 500 C0 335 0 170 0 0 Z " fill="#FEFEFE" transform="translate(0,0)"/>
<path d="M0 0 C79.86 0 159.72 0 242 0 C242 165 242 330 242 500 C219.89 500 197.78 500 175 500 C177.79398401 498.60300799 180.5005813 497.37256736 183.375 496.1875 C192.55091419 492.05758772 197.43052053 485.58585815 201.06497538 476.27035111 C202.08163153 472.71448478 202.25293368 469.77171757 202.25726891 466.07672596 C202.26252802 465.06332561 202.26252802 465.06332561 202.26789337 464.02945253 C202.27719211 461.76717717 202.27228807 459.50516011 202.26742554 457.24287415 C202.27116258 455.60386276 202.27576432 453.96485315 202.28115618 452.32584637 C202.29339512 447.82279241 202.29312465 443.31981268 202.29076743 438.81674588 C202.29035949 433.95973319 202.30139635 429.10274438 202.31088257 424.2457428 C202.32749891 414.7297791 202.33299242 405.21384019 202.33410732 395.6978632 C202.33505758 387.9621124 202.33916678 380.22636978 202.34550858 372.49062157 C202.36312343 350.5574523 202.37234717 328.6243026 202.37084763 306.69112621 C202.37072776 304.91731341 202.37072776 304.91731341 202.37060547 303.10766602 C202.37048283 301.33168663 202.37048283 301.33168663 202.37035771 299.51982888 C202.36954494 280.33495727 202.3886796 261.15016421 202.4168822 241.96531532 C202.44561314 222.26556047 202.45942235 202.56584392 202.45769465 182.86606759 C202.45703078 171.80655011 202.46252179 160.74711495 202.48405075 149.68761635 C202.50226537 140.27032738 202.50660761 130.85315802 202.4930319 121.43585906 C202.48650345 116.63246383 202.48638065 111.82929806 202.5037384 107.02592468 C202.5194797 102.6245256 202.5165947 98.22353771 202.49917014 93.82214858 C202.49610255 92.23398476 202.49972353 90.64579017 202.51089029 89.05766264 C202.59176 76.73559289 201.01044323 66.61876395 192.92578125 56.94140625 C186.84985456 50.81618198 179.61841017 47.82407329 170.9861908 47.68769836 C170.23165115 47.68553818 169.47711151 47.68337799 168.69970703 47.68115234 C167.48407326 47.66608391 167.48407326 47.66608391 166.24388123 47.65071106 C163.58186512 47.61997483 160.91994914 47.60287067 158.2578125 47.5859375 C156.4054987 47.56721815 154.55319336 47.54764417 152.70089722 47.5272522 C147.83810419 47.47600603 142.97528355 47.43634012 138.11236572 47.39910889 C133.1451539 47.35902208 128.17805624 47.30795109 123.2109375 47.2578125 C113.47403862 47.16114221 103.73707517 47.076709 94 47 C93.67169189 46.17943115 93.34338379 45.3588623 93.00512695 44.51342773 C92.56644287 43.43520752 92.12775879 42.3569873 91.67578125 41.24609375 C91.24434814 40.1780249 90.81291504 39.10995605 90.3684082 38.00952148 C86.7988636 30.15907076 80.770444 25.42016977 72.921875 22.12841797 C66.55480585 20.07414214 60.57367206 19.78320992 53.94921875 19.8046875 C53.04105911 19.80597656 52.13289948 19.80726562 51.19721985 19.80859375 C47.39478332 19.82450379 43.59425975 19.8541989 39.79272461 19.94140625 C23.63814145 20.2708955 23.63814145 20.2708955 19.47021484 17.03735352 C17.94973608 14.72864251 16.99099129 12.56830256 16 10 C11.34077842 5.23488702 6.16963591 3.18253918 0 1 C0 0.67 0 0.34 0 0 Z " fill="#FEFEFE" transform="translate(258,0)"/>
<path d="M0 0 C0.98835269 -0.00724325 0.98835269 -0.00724325 1.99667209 -0.01463282 C4.19715844 -0.0258746 6.39647503 -0.00860864 8.59690857 0.00863647 C10.17734593 0.00648988 11.75778174 0.0026111 13.33821106 -0.00286865 C17.62539269 -0.01255595 21.91215739 0.00273294 26.19928861 0.02303743 C30.68574116 0.04061347 35.17218093 0.03708326 39.65866089 0.03631592 C47.19169587 0.03818846 54.72456964 0.05554691 62.2575531 0.08285522 C70.96847005 0.11431693 79.67921051 0.12485099 88.39018017 0.12338412 C96.76925898 0.12216366 105.1482803 0.13237285 113.52734184 0.14896774 C117.09384039 0.15603091 120.6603186 0.15969388 124.22682381 0.16075516 C128.42523665 0.16276346 132.62350118 0.17496832 136.82186508 0.19508743 C138.36339726 0.20093132 139.90494651 0.2033894 141.44648933 0.20223236 C143.54911953 0.20125135 145.65133397 0.21255757 147.75390625 0.22705078 C148.93099435 0.23040247 150.10808245 0.23375416 151.32083988 0.23720741 C154.26418695 0.49024031 155.89315791 0.84222492 158.3134613 2.49447632 C160.65514894 6.00700778 160.80969808 7.35916987 160.3134613 11.49447632 C158.70753479 14.150527 158.70753479 14.150527 156.3134613 16.49447632 C153.27119446 17.12088871 153.27119446 17.12088871 149.63328552 17.12266541 C148.9629875 17.12975979 148.29268948 17.13685418 147.60207939 17.14416355 C145.35685187 17.16176087 143.11335172 17.14363272 140.8681488 17.12557983 C139.25829784 17.13071806 137.6484525 17.13799861 136.03862 17.14726257 C131.66661553 17.16579738 127.29521989 17.15282517 122.92324066 17.13317227 C118.35001908 17.11680149 113.77683655 17.12559647 109.20359802 17.13069153 C101.52332317 17.13521425 93.84329172 17.11933164 86.16307068 17.09140015 C77.28110069 17.05934738 68.39956975 17.05936336 59.51756859 17.07661492 C50.97667811 17.09247353 42.43594873 17.08575075 33.89506531 17.0686779 C30.25875058 17.06180164 26.62256477 17.06284573 22.98625183 17.07022285 C18.70482446 17.07787876 14.42389728 17.06578266 10.14255524 17.03837395 C8.57039118 17.03148167 6.99818049 17.03140119 5.42601776 17.03858948 C3.28133093 17.04726621 1.13819415 17.0313616 -1.00636292 17.00914001 C-2.20687286 17.00633309 -3.40738281 17.00352617 -4.64427185 17.00063419 C-8.28524189 16.39486693 -9.45784386 15.377422 -11.6865387 12.49447632 C-12.25294495 10.49447632 -12.25294495 10.49447632 -12.2490387 8.49447632 C-12.27095276 7.83447632 -12.29286682 7.17447632 -12.31544495 6.49447632 C-10.51354411 0.76420783 -5.28537267 -0.00489067 0 0 Z " fill="#066406" transform="translate(228.68653869628906,307.5055236816406)"/>
<path d="M0 0 C0.98729434 -0.0083016 0.98729434 -0.0083016 1.99453402 -0.0167709 C4.19266686 -0.03034796 6.38965837 -0.01542578 8.58776855 -0.00050354 C10.1665851 -0.00428782 11.74539832 -0.00978877 13.32420349 -0.01687622 C17.60730568 -0.03083399 21.89000629 -0.01965893 26.17308617 -0.00316501 C30.65640958 0.01068944 35.13970978 0.00422496 39.62304688 0.0007019 C47.15188058 -0.00199991 54.68055483 0.01147286 62.20935059 0.03465271 C70.91233381 0.06126229 79.61505043 0.06300945 88.3180604 0.05126435 C96.69180619 0.04048319 105.06545559 0.04667628 113.43919373 0.06081963 C117.0020933 0.0665765 120.56492227 0.06649909 124.12782288 0.06175423 C128.3238265 0.05698007 132.51953839 0.0671042 136.71548653 0.08870888 C138.25498534 0.09427095 139.79451222 0.09474734 141.33401299 0.08975601 C143.43645876 0.08379462 145.53801516 0.09632327 147.64038086 0.11352539 C149.40463032 0.11717023 149.40463032 0.11717023 151.20452118 0.12088871 C154.65796782 0.54243652 156.54851145 1.43276911 159.32019043 3.50120544 C160.76449898 6.38982254 160.69707549 8.29768246 160.32019043 11.50120544 C157.76738169 14.73350511 156.26039324 16.31421773 152.17049313 17.12761784 C150.97827931 17.12820415 149.7860655 17.12879045 148.557724 17.12939453 C147.8906551 17.13648892 147.22358621 17.14358331 146.5363031 17.15089267 C144.30799357 17.16845172 142.08143337 17.15038154 139.85314941 17.13230896 C138.253003 17.1374486 136.65286224 17.14473022 135.05273438 17.1539917 C130.711778 17.17250698 126.37143576 17.1595672 122.03050494 17.1399014 C117.48798579 17.12351735 112.94550561 17.13232732 108.40296936 17.13742065 C100.77574856 17.14194143 93.14877302 17.12607168 85.52160645 17.09812927 C76.70153073 17.0660659 67.88189708 17.06609756 59.06178993 17.08334404 C50.57802816 17.09920221 42.09442857 17.09248091 33.6106739 17.07540703 C29.99947865 17.0685316 26.38841322 17.06957396 22.77721977 17.07695198 C18.52614646 17.08460771 14.27557691 17.07251241 10.02458954 17.04510307 C8.46371265 17.03821104 6.90278878 17.03813005 5.34191322 17.0453186 C3.21260265 17.05399581 1.08485311 17.03809015 -1.04432678 17.01586914 C-2.23616357 17.01306222 -3.42800035 17.0102553 -4.65595341 17.00736332 C-8.28377278 16.40010912 -9.45637431 15.3723904 -11.67980957 12.50120544 C-12.24621582 10.50120544 -12.24621582 10.50120544 -12.24230957 8.50120544 C-12.26422363 7.84120544 -12.2861377 7.18120544 -12.30871582 6.50120544 C-10.50845696 0.77615864 -5.2819015 0.00093985 0 0 Z " fill="#056405" transform="translate(228.6798095703125,182.49879455566406)"/>
<path d="M0 0 C3.2123314 2.0591868 3.85494318 3.44208914 4.8125 7.125 C2.72120068 17.09888905 -10.35132178 26.50576003 -17.47705078 33.60742188 C-19.39604535 35.52098579 -21.30954521 37.43993077 -23.22265625 39.359375 C-24.44759559 40.58365467 -25.67284449 41.8076247 -26.8984375 43.03125 C-27.46718597 43.60202271 -28.03593445 44.17279541 -28.62191772 44.76086426 C-34.60445656 50.70790951 -34.60445656 50.70790951 -38.6875 51.5625 C-42.29323486 50.9502054 -43.06149075 50.34257058 -45.67578125 47.9609375 C-46.37678955 47.32518799 -47.07779785 46.68943848 -47.80004883 46.03442383 C-48.52603271 45.36306396 -49.2520166 44.6917041 -50 44 C-50.70858154 43.35764404 -51.41716309 42.71528809 -52.1472168 42.0534668 C-54.29437636 40.08562613 -56.39919581 38.07966106 -58.5 36.0625 C-59.22703125 35.39798828 -59.9540625 34.73347656 -60.703125 34.04882812 C-66.46194237 28.46862069 -66.46194237 28.46862069 -66.56640625 23.65234375 C-66 20 -66 20 -64.4375 17.5 C-60.78266663 15.25087178 -59.2567785 15.10744967 -55 16 C-51.35068135 18.69137251 -48.18577976 21.78193193 -45 25 C-44.4225 25.56460937 -43.845 26.12921875 -43.25 26.7109375 C-42.15080896 27.79139233 -41.07185257 28.89241901 -40 30 C-35.72761834 28.35333941 -32.90455258 25.13947497 -29.7734375 21.93359375 C-29.18454742 21.33950211 -28.59565735 20.74541046 -27.98892212 20.13331604 C-26.11279192 18.23940726 -24.24349895 16.33893569 -22.375 14.4375 C-20.49849536 12.53338558 -18.62055424 10.63074561 -16.73965454 8.73097229 C-15.57052276 7.54957451 -14.40407442 6.36551399 -13.24057007 5.17857361 C-8.67933052 0.56086173 -6.60380456 -0.5692935 0 0 Z " fill="#046304" transform="translate(193,347)"/>
<path d="M0 0 C3.27269748 2.04543593 3.84566918 3.40641993 4.8125 7.125 C2.72717787 17.07038249 -10.32124023 26.5074684 -17.42211914 33.60742188 C-19.33182988 35.51935235 -21.23335135 37.43919757 -23.13476562 39.359375 C-24.35628243 40.58382076 -25.57827033 41.80779678 -26.80078125 43.03125 C-27.36436844 43.60202271 -27.92795563 44.17279541 -28.50862122 44.76086426 C-33.93538644 50.15620025 -33.93538644 50.15620025 -37 51 C-42.7252588 50.85582705 -45.29876455 49.44041168 -49.2421875 45.37890625 C-50.16257813 44.44369141 -51.08296875 43.50847656 -52.03125 42.54492188 C-52.97928434 41.55089347 -53.92719971 40.55675157 -54.875 39.5625 C-55.84500807 38.57094699 -56.81635123 37.58069819 -57.7890625 36.59179688 C-65.88067081 28.2887553 -65.88067081 28.2887553 -66.3125 23.625 C-66 20 -66 20 -64.4375 17.5625 C-60.79798729 15.22947903 -59.28254141 15.10204777 -55 16 C-51.35068135 18.69137251 -48.18577976 21.78193193 -45 25 C-44.4225 25.56460938 -43.845 26.12921875 -43.25 26.7109375 C-42.15080896 27.79139233 -41.07185257 28.89241901 -40 30 C-35.60422681 28.34858612 -32.90646746 25.01682563 -29.765625 21.6796875 C-28.53998051 20.40926995 -27.3133881 19.13976635 -26.0859375 17.87109375 C-24.16300762 15.87397827 -22.24693562 13.87174458 -20.34667969 11.85302734 C-18.50460054 9.90172082 -16.63787586 7.97700442 -14.765625 6.0546875 C-14.20699768 5.44849579 -13.64837036 4.84230408 -13.07281494 4.21774292 C-8.76388687 -0.14678985 -6.10230672 -0.77815185 0 0 Z " fill="#046304" transform="translate(193,222)"/>
<path d="M0 0 C3.21142855 2.37366458 4.71584605 3.93442268 5.75 7.8125 C4.00331529 15.23591 -4.10372686 21.25338705 -9.39453125 26.52734375 C-10.40467537 27.53892296 -10.40467537 27.53892296 -11.43522644 28.57093811 C-12.8432044 29.97959068 -14.25242224 31.38700499 -15.6628418 32.79321289 C-17.82783604 34.95279773 -19.98737256 37.11773882 -22.14648438 39.28320312 C-23.52051237 40.6565712 -24.89485006 42.02962951 -26.26953125 43.40234375 C-26.91533646 44.05017319 -27.56114166 44.69800262 -28.22651672 45.36546326 C-29.12336433 46.25758263 -29.12336433 46.25758263 -30.03833008 47.16772461 C-30.56348709 47.69208603 -31.0886441 48.21644745 -31.62971497 48.75669861 C-33.77672173 50.70474331 -35.22294628 51.04013033 -38.125 51.5625 C-43.14602416 50.83364165 -44.6368891 48.86616332 -47.9609375 45.21484375 C-49.88889664 43.12068124 -51.88112377 41.3234284 -54.0625 39.5 C-64.31899751 30.54333584 -64.31899751 30.54333584 -65.57421875 25.85546875 C-65.75530259 22.489807 -65.20403887 20.31390595 -63.375 17.5 C-60.11833428 15.44315849 -58.80396469 15.19531516 -55 16 C-49.63201377 19.6863142 -45.1785154 24.74009766 -40.6640625 29.3984375 C-39.07577267 31.08628724 -39.07577267 31.08628724 -37 32 C-36.78915771 31.46391113 -36.57831543 30.92782227 -36.36108398 30.37548828 C-34.47976821 27.09204388 -31.89477148 24.6293281 -29.22265625 21.9921875 C-28.655504 21.42549347 -28.08835175 20.85879944 -27.50401306 20.27493286 C-26.30688027 19.08081453 -25.10732457 17.88912094 -23.90551758 16.69970703 C-22.06728981 14.87974223 -20.23719694 13.05189586 -18.40820312 11.22265625 C-17.24265836 10.06202695 -16.07665797 8.901855 -14.91015625 7.7421875 C-14.36319595 7.19634003 -13.81623566 6.65049255 -13.25270081 6.08810425 C-6.20801094 -0.86912153 -6.20801094 -0.86912153 0 0 Z " fill="#046304" transform="translate(192,284)"/>
<path d="M0 0 C3.15330139 2.38249438 4.72463062 3.96736482 5.75 7.8125 C4.95014947 11.21186477 4.19745418 12.18835482 1.91577148 14.71289062 C0.96273636 15.76984131 0.96273636 15.76984131 -0.009552 16.84814453 C-5.16308575 22.41958362 -10.43908184 27.86439233 -15.76049805 33.27539062 C-17.21813806 34.76490681 -18.66765441 36.26241418 -20.10913086 37.76757812 C-22.20870834 39.95827608 -24.33327191 42.12172616 -26.46484375 44.28125 C-27.10155502 44.9561145 -27.7382663 45.630979 -28.39427185 46.32629395 C-31.59408485 49.51251182 -33.70318122 51.40676644 -38.34350586 51.48486328 C-41.91048759 51.01186964 -43.1581971 50.8418029 -45.625 48.375 C-46.26953125 47.74722656 -46.9140625 47.11945313 -47.578125 46.47265625 C-48.37734375 45.65667969 -49.1765625 44.84070313 -50 44 C-51.18029954 42.85081496 -52.36277662 41.70386414 -53.546875 40.55859375 C-54.82426894 39.31127922 -56.10030031 38.06256781 -57.375 36.8125 C-57.99455566 36.20647949 -58.61411133 35.60045898 -59.25244141 34.97607422 C-59.83687012 34.39229004 -60.42129883 33.80850586 -61.0234375 33.20703125 C-61.54856934 32.6860083 -62.07370117 32.16498535 -62.61474609 31.62817383 C-65.04955483 28.76639387 -66.01629751 26.78228047 -65.9375 23 C-64.72940536 19.13409716 -63.54971764 17.92919437 -60 16 C-55.22103368 15.94193237 -52.65104744 16.95978984 -49.25390625 20.16015625 C-48.00772819 21.44589551 -46.77747796 22.74723814 -45.5625 24.0625 C-44.92634766 24.72572266 -44.29019531 25.38894531 -43.63476562 26.07226562 C-42.07532388 27.70205813 -40.53165061 29.34413568 -39 31 C-36.19923613 29.72370463 -34.16415401 28.40867105 -32.00732422 26.21850586 C-31.45350067 25.66130356 -30.89967712 25.10410126 -30.32907104 24.53001404 C-29.74352448 23.93100784 -29.15797791 23.33200165 -28.5546875 22.71484375 C-27.94360138 22.09855606 -27.33251526 21.48226837 -26.70291138 20.8473053 C-24.75545618 18.88206676 -22.81483091 16.91026236 -20.875 14.9375 C-18.92716399 12.96205725 -16.97789254 10.98808649 -15.02566528 9.01698303 C-13.81202071 7.79106939 -12.60105915 6.56249271 -11.39303589 5.33103943 C-5.38262573 -0.75106406 -5.38262573 -0.75106406 0 0 Z " fill="#036203" transform="translate(192,159)"/>
<path d="M0 0 C0.78259186 -0.00846954 1.56518372 -0.01693909 2.37149048 -0.02566528 C4.9555898 -0.04904307 7.53909399 -0.0500573 10.12329102 -0.04882812 C11.92163837 -0.05592917 13.71998345 -0.06362808 15.51832581 -0.07189941 C19.2868581 -0.08534594 23.0551809 -0.0869122 26.82373047 -0.08105469 C31.65056147 -0.07515789 36.47638687 -0.10574804 41.30302334 -0.14617157 C45.01684474 -0.17203421 48.73042354 -0.17492732 52.44432259 -0.17127991 C54.2237202 -0.17297246 56.00312886 -0.18262802 57.78243828 -0.20042419 C60.27230813 -0.22258702 62.76013651 -0.21292757 65.25 -0.1953125 C66.34972389 -0.21520737 66.34972389 -0.21520737 67.47166443 -0.23550415 C71.37276191 -0.17144889 73.05491449 0.31276943 76.14686584 2.77087402 C78.18969727 5.41992188 78.18969727 5.41992188 78.81469727 8.41992188 C77.96211419 12.51232065 76.44280396 13.82955658 73.18969727 16.41992188 C70.34799141 16.92047721 68.10228645 17.11591348 65.26586914 17.08276367 C64.09176231 17.09831551 64.09176231 17.09831551 62.89393616 17.11418152 C60.31490158 17.14121473 57.73757184 17.13159935 55.15844727 17.11914062 C53.36152676 17.12505064 51.5646102 17.13229782 49.7677002 17.14082336 C46.00499936 17.15269725 42.2428903 17.14600635 38.48022461 17.12670898 C33.66102401 17.10381613 28.84358581 17.13060805 24.02455902 17.17177105 C20.31496218 17.19735918 16.60578653 17.19476665 12.89613342 17.18387794 C11.11953633 17.18239214 9.34290682 17.19007119 7.56639099 17.20712852 C5.08101826 17.22711969 2.59875526 17.20870205 0.11352539 17.18041992 C-0.61805283 17.19413635 -1.34963104 17.20785278 -2.1033783 17.22198486 C-4.91732753 17.15806409 -7.15519572 16.93521735 -9.40809631 15.16312599 C-12.03199447 12.22529711 -12.80530242 10.71494035 -12.87280273 6.73242188 C-10.73037569 0.05309052 -6.35907929 -0.02534903 0 0 Z " fill="#046404" transform="translate(310.810302734375,245.580078125)"/>
<path d="M0 0 C1.19092758 -0.01051392 1.19092758 -0.01051392 2.40591431 -0.02124023 C5.02747689 -0.03882973 7.6479579 -0.02719461 10.26953125 -0.01367188 C12.09269416 -0.01636653 13.91585568 -0.02024872 15.73901367 -0.02526855 C19.55889578 -0.03116488 23.3784036 -0.02259641 27.19824219 -0.00390625 C32.09457694 0.01888349 36.9900347 0.00576111 41.88633728 -0.01819611 C45.65074267 -0.03265052 49.41494015 -0.02804976 53.17935181 -0.01768494 C54.98467106 -0.01501666 56.79000919 -0.01829097 58.5953064 -0.02760315 C61.11873367 -0.03776305 63.64074099 -0.02227675 66.1640625 0 C67.28320541 -0.01214539 67.28320541 -0.01214539 68.42495728 -0.02453613 C71.84469837 0.03139176 73.76115783 0.28174077 76.54956055 2.33117676 C78.77863314 5.5114316 78.55593178 7.72637389 78.08203125 11.51757812 C76.32187994 14.70261382 75.58312209 15.35054785 72.08203125 16.51757812 C69.53309094 16.62886113 67.01074589 16.68520164 64.46118164 16.69458008 C63.29973381 16.70443687 63.29973381 16.70443687 62.11482239 16.7144928 C59.55310977 16.73420072 56.99145561 16.74588074 54.4296875 16.75585938 C53.11739575 16.76197267 53.11739575 16.76197267 51.77859306 16.76820946 C47.15098177 16.7890562 42.52340003 16.80336581 37.89575195 16.81274414 C33.1127038 16.82382566 28.33011868 16.85824935 23.54723454 16.89791584 C19.8712425 16.92403136 16.19536186 16.93243128 12.5192852 16.93602562 C10.75580137 16.94090212 8.99232287 16.95254629 7.22892952 16.97106361 C4.76300134 16.99535551 2.29828603 16.99450913 -0.16772461 16.98754883 C-1.26117188 17.00676392 -1.26117188 17.00676392 -2.37670898 17.02636719 C-5.82852628 16.99082077 -7.6063487 16.75968158 -10.36915588 14.61320496 C-12.04840924 12.34108515 -12.46155679 11.30721251 -12.41796875 8.51757812 C-12.4334375 7.52757812 -12.4334375 7.52757812 -12.44921875 6.51757812 C-10.7613623 0.16329503 -5.66333522 -0.06146078 0 0 Z " fill="#036303" transform="translate(228.91796875,370.482421875)"/>
<path d="M0 0 C1.04465927 -0.01583633 2.08931854 -0.03167267 3.16563416 -0.04798889 C4.28861404 -0.04302902 5.41159393 -0.03806915 6.56860352 -0.03295898 C7.72747574 -0.03915756 8.88634796 -0.04535614 10.08033752 -0.05174255 C12.53060058 -0.05884506 14.98091186 -0.0556593 17.43115234 -0.04296875 C21.18034755 -0.02911615 24.92704153 -0.06315638 28.67602539 -0.10131836 C31.05688538 -0.10226966 33.43774849 -0.10041016 35.81860352 -0.09545898 C36.93955917 -0.10871719 38.06051483 -0.1219754 39.21543884 -0.13563538 C46.97083017 -0.04287137 46.97083017 -0.04287137 50.97509766 2.88134766 C53.15563587 6.12128564 53.41224926 7.70154025 52.76000977 11.53344727 C50.98016572 14.66936297 50.2369277 15.37447462 46.76000977 16.53344727 C45.11480459 16.64042786 43.46571627 16.69209623 41.81713867 16.71044922 C40.81244537 16.72328445 39.80775208 16.73611969 38.77261353 16.74934387 C37.68821991 16.7567308 36.60382629 16.76411774 35.48657227 16.77172852 C34.37067719 16.77980026 33.2547821 16.78787201 32.10507202 16.79618835 C29.74299675 16.81002344 27.38090153 16.82074817 25.01879883 16.82861328 C21.40611008 16.84584661 17.79433155 16.8897416 14.18188477 16.93383789 C11.88762066 16.94396309 9.59334878 16.95247973 7.29907227 16.95922852 C6.21872711 16.9767366 5.13838196 16.99424469 4.02529907 17.01228333 C-3.47509109 16.99057912 -3.47509109 16.99057912 -7.421875 14.63183594 C-9.38336494 12.36797049 -9.90053724 11.48639251 -9.80249023 8.53344727 C-9.8037793 7.87344727 -9.80506836 7.21344727 -9.80639648 6.53344727 C-8.38334549 1.50860512 -4.86742954 0.03288136 0 0 Z " fill="#036303" transform="translate(336.239990234375,370.466552734375)"/>
<path d="M0 0 C1.04465927 -0.01583633 2.08931854 -0.03167267 3.16563416 -0.04798889 C4.28861404 -0.04302902 5.41159393 -0.03806915 6.56860352 -0.03295898 C7.72747574 -0.03915756 8.88634796 -0.04535614 10.08033752 -0.05174255 C12.53060058 -0.05884506 14.98091186 -0.0556593 17.43115234 -0.04296875 C21.18034755 -0.02911615 24.92704153 -0.06315638 28.67602539 -0.10131836 C31.05688538 -0.10226966 33.43774849 -0.10041016 35.81860352 -0.09545898 C36.93955917 -0.10871719 38.06051483 -0.1219754 39.21543884 -0.13563538 C46.97410893 -0.04283215 46.97410893 -0.04283215 50.96728516 2.88525391 C52.76000977 5.53344727 52.76000977 5.53344727 53.38500977 8.53344727 C52.50389597 12.76279348 51.25161163 13.96042089 47.76000977 16.53344727 C43.86623001 17.27522444 40.02621441 17.21018352 36.07250977 17.16235352 C34.36961792 17.16597145 34.36961792 17.16597145 32.63232422 17.16966248 C30.23507184 17.16868415 27.83779684 17.15529423 25.44067383 17.13037109 C21.77290031 17.09606783 18.10753666 17.10971389 14.43969727 17.12915039 C12.10895785 17.12225181 9.77822465 17.11257932 7.44750977 17.09985352 C6.35156494 17.10481339 5.25562012 17.10977325 4.12646484 17.11488342 C-3.46474837 16.99754853 -3.46474837 16.99754853 -7.43115234 14.62304688 C-9.38616461 12.3645842 -9.90029829 11.47919565 -9.80249023 8.53344727 C-9.8037793 7.87344727 -9.80506836 7.21344727 -9.80639648 6.53344727 C-8.38334549 1.50860512 -4.86742954 0.03288136 0 0 Z " fill="#046304" transform="translate(226.239990234375,245.466552734375)"/>
<path d="M0 0 C4.42332017 4.90151694 5.37236971 7.91570851 5.26953125 14.39453125 C4.85920627 18.36100604 3.74455128 21.09355103 1 24 C-4.06258534 27.77453818 -8.80184101 28.79976245 -15 28 C-19.95520521 25.42710499 -23.49116963 22.01766074 -26 17 C-26.81197272 10.4642852 -25.83631462 6.32821475 -22 1 C-15.84586985 -4.76949701 -6.81089155 -4.4889967 0 0 Z " fill="#FAFCFA" transform="translate(262,19)"/>
<path d="M0 0 C3.68069887 1.53643852 5.98775204 3.78150945 8.75 6.625 C9.54921875 7.44226563 10.3484375 8.25953125 11.171875 9.1015625 C12.07679688 10.04128906 12.07679688 10.04128906 13 11 C12.34 11.66 11.68 12.32 11 13 C9.16052663 11.21427748 7.32842259 9.42197551 5.5 7.625 C4.71302734 6.86316406 4.71302734 6.86316406 3.91015625 6.0859375 C2.56846819 4.76167396 1.28004185 3.38394135 0 2 C0 1.34 0 0.68 0 0 Z " fill="#266D26" transform="translate(139,365)"/>
<path d="M0 0 C3.68069887 1.53643852 5.98775204 3.78150945 8.75 6.625 C9.54921875 7.44226563 10.3484375 8.25953125 11.171875 9.1015625 C12.07679688 10.04128906 12.07679688 10.04128906 13 11 C12.34 11.66 11.68 12.32 11 13 C9.16052663 11.21427748 7.32842259 9.42197551 5.5 7.625 C4.71302734 6.86316406 4.71302734 6.86316406 3.91015625 6.0859375 C2.56846819 4.76167396 1.28004185 3.38394135 0 2 C0 1.34 0 0.68 0 0 Z " fill="#256C25" transform="translate(129,313)"/>
<path d="M0 0 C-1.5830577 4.2742558 -4.50568404 6.26531794 -8 9 C-8 6 -8 6 -6.7578125 4.39453125 C-5.94957031 3.61142578 -5.94957031 3.61142578 -5.125 2.8125 C-4.59132813 2.28269531 -4.05765625 1.75289062 -3.5078125 1.20703125 C-2 0 -2 0 0 0 Z " fill="#085C08" transform="translate(55,54)"/>
</svg>
