<?xml version="1.0" encoding="UTF-8"?>
<svg version="1.1" xmlns="http://www.w3.org/2000/svg" width="88" height="88">
<path d="M0 0 C29.04 0 58.08 0 88 0 C88 29.04 88 58.08 88 88 C58.96 88 29.92 88 0 88 C0 58.96 0 29.92 0 0 Z " fill="#006400" transform="translate(0,0)"/>
<path d="M0 0 C29.04 0 58.08 0 88 0 C88 29.04 88 58.08 88 88 C58.96 88 29.92 88 0 88 C0 58.96 0 29.92 0 0 Z M41.20297241 3.54978943 C40.47905304 4.27513382 39.75513367 5.00047821 39.00927734 5.74780273 C38.18857758 6.56542587 37.36787781 7.38304901 36.52230835 8.22544861 C35.63580597 9.11913651 34.74930359 10.0128244 33.8359375 10.93359375 C32.92872955 11.84125992 32.02152161 12.74892609 31.08682251 13.68409729 C29.16544395 15.60704159 27.24747763 17.53330512 25.33203125 19.4621582 C22.871028 21.94016337 20.40348096 24.41152255 17.93358421 26.88066006 C15.58573218 29.22884864 13.24214559 31.5812688 10.8984375 33.93359375 C10.00788666 34.82525742 9.11733582 35.71692108 8.19979858 36.63560486 C7.38540314 37.45638016 6.57100769 38.27715546 5.73193359 39.12280273 C5.00960541 39.84894272 4.28727722 40.5750827 3.5430603 41.32322693 C1.88714025 42.74285147 1.88714025 42.74285147 2 44 C5.96 44 9.92 44 14 44 C14 57.86 14 71.72 14 86 C21.26 86 28.52 86 36 86 C36 77.75 36 69.5 36 61 C41.28 61 46.56 61 52 61 C52 69.25 52 77.5 52 86 C59.26 86 66.52 86 74 86 C74 72.14 74 58.28 74 44 C77.96 44 81.92 44 86 44 C81.51102138 38.62828285 76.77309006 33.61267667 71.828125 28.66015625 C71.06449646 27.89319931 70.30086792 27.12624237 69.51409912 26.33604431 C67.91191366 24.72882627 66.30839777 23.12293349 64.70361328 21.51831055 C62.23832532 19.05081486 59.7811677 16.57540522 57.32421875 14.09960938 C55.76350983 12.5359701 54.2023288 10.97280188 52.640625 9.41015625 C51.90418762 8.66653336 51.16775024 7.92291046 50.40899658 7.15675354 C49.72778748 6.47862106 49.04657837 5.80048859 48.34472656 5.10180664 C47.74549377 4.50114883 47.14626099 3.90049103 46.52886963 3.28163147 C44.21728537 1.34386054 43.45389021 1.60855679 41.20297241 3.54978943 Z " fill="#FFFFFF" transform="translate(0,0)"/>
</svg>
