<?xml version="1.0" encoding="UTF-8"?>
<svg version="1.1" xmlns="http://www.w3.org/2000/svg" width="225" height="225">
<path d="M0 0 C74.25 0 148.5 0 225 0 C225 74.25 225 148.5 225 225 C150.75 225 76.5 225 0 225 C0 150.75 0 76.5 0 0 Z " fill="#006400" transform="translate(0,0)"/>
<path d="M0 0 C74.25 0 148.5 0 225 0 C225 74.25 225 148.5 225 225 C150.75 225 76.5 225 0 225 C0 150.75 0 76.5 0 0 Z M49 13 C47.84484866 15.02944774 46.97303257 17.03861348 46.0859375 19.1953125 C44.38577206 22.0207673 41.92311092 22.64355294 38.96875 23.8671875 C34.82840958 26.24952623 33.06660907 30.86678187 31 35 C29.75362528 35.65313458 28.47737191 36.25012542 27.1875 36.8125 C23.41316816 38.64902641 21.21814767 40.33152501 19 44 C17.45370431 48.64150547 16.74837128 52.68273761 16.73930359 57.56518555 C16.73221878 58.84364349 16.72513397 60.12210144 16.71783447 61.43930054 C16.72012781 62.8384403 16.72263744 64.23757972 16.7253418 65.63671875 C16.7209902 67.12391413 16.71580555 68.61110728 16.70985413 70.09829712 C16.69650285 74.12304306 16.695881 78.14769488 16.69841743 82.17245865 C16.6994895 85.53729217 16.69459785 88.90210683 16.689812 92.2669363 C16.67873078 100.20629229 16.67827198 108.14560096 16.68432617 116.08496094 C16.69036916 124.26647502 16.67804356 132.44781726 16.6567561 140.62930202 C16.639128 147.66390037 16.63314054 154.69844408 16.63639385 161.7330637 C16.6382045 165.9301121 16.63559206 170.12703783 16.62167931 174.32406616 C16.60908542 178.27056151 16.61105968 182.21678915 16.62409019 186.16328049 C16.62645192 187.60842353 16.62373576 189.0535855 16.61546707 190.49870682 C16.56335409 200.31714542 16.84576212 207.64135532 24 215 C29.86132501 219.07795095 36.18510199 218.42898236 43.03857422 218.40405273 C44.35308563 218.41091599 45.66759705 218.41777924 47.02194214 218.42485046 C50.61712174 218.44275536 54.21205691 218.44161838 57.80726767 218.43590808 C60.81407961 218.43281175 63.8208449 218.43891374 66.82765019 218.44494683 C73.92469058 218.45898223 81.02161058 218.45743955 88.11865234 218.44604492 C95.42712392 218.43456972 102.73522828 218.4486313 110.04365146 218.4754414 C116.33007122 218.49763438 122.61637602 218.50422755 128.90283215 218.49836498 C132.65227943 218.49500215 136.40149147 218.49736505 140.15090561 218.51461601 C144.33505056 218.53302766 148.5184864 218.5188612 152.70263672 218.50170898 C153.93614868 218.51137695 155.16966064 218.52104492 156.44055176 218.53100586 C163.43077001 218.47105497 168.06719249 217.79038182 174 214 C175.88023721 212.04663332 175.88023721 212.04663332 176.9375 209.875 C177.31777344 209.19179687 177.69804687 208.50859375 178.08984375 207.8046875 C178.72886435 206.5376166 179.36536373 205.26927254 180 204 C181.23199517 203.41854434 182.48610752 202.88340788 183.75 202.375 C189.31903677 199.73545654 191.34761854 195.30476292 194 190 C195.24637472 189.34686542 196.52262809 188.74987458 197.8125 188.1875 C202.63998464 185.83852715 205.09450178 183.30458834 207.08439636 178.24009705 C208.73058973 172.14703421 208.2868554 165.73161191 208.2746582 159.47094727 C208.27900991 157.99522647 208.28419459 156.51950793 208.29014587 155.04379272 C208.30349714 151.04997019 208.30411892 147.0562425 208.30158257 143.06240201 C208.30051032 139.72251598 208.30540267 136.38264894 208.310188 133.04276699 C208.32126959 125.16090237 208.32172805 117.27908543 208.31567383 109.3972168 C208.30963317 101.27820616 208.32195043 93.15936878 208.3432439 85.04038769 C208.36088112 78.05757787 208.36685795 71.0748231 208.36360615 64.09199184 C208.36179668 59.92676925 208.36439592 55.7616703 208.37832069 51.59646797 C208.39092918 47.67869609 208.38892658 43.76119367 208.37590981 39.84342575 C208.37355111 38.40999064 208.37625329 36.97653638 208.38453293 35.54312325 C208.43241662 26.60520322 208.12161858 19.8438909 203.1875 12.1875 C197.91607214 6.91607214 192.79068667 6.6395733 185.65925598 6.56008911 C183.7912458 6.56212845 183.7912458 6.56212845 181.88549805 6.56420898 C180.54947061 6.55522397 179.21345094 6.54501402 177.87744141 6.53367615 C174.25949726 6.50724572 170.64176617 6.50014562 167.02373481 6.49822879 C164.75988363 6.49609202 162.49608612 6.48967913 160.23224831 6.48173714 C152.32447514 6.45400561 144.41685338 6.44172872 136.5090332 6.4440918 C129.153865 6.44589306 121.79935766 6.414253 114.44435662 6.36686081 C108.1163028 6.32754826 101.78846421 6.3115437 95.4602893 6.31345803 C91.68662969 6.31422055 87.91355763 6.30580416 84.14002037 6.27392387 C80.58804869 6.2447331 77.0372202 6.24473987 73.4852066 6.26647377 C71.57252418 6.27107233 69.65984071 6.24617088 67.74732971 6.22015381 C60.1195287 6.3031535 54.54825087 7.47056764 49 13 Z " fill="#F9FBF9" transform="translate(0,0)"/>
<path d="M0 0 C2.97672584 1.77280561 5.42804007 3.85608015 7 7 C8.20140928 7.71547947 9.43819437 8.37188331 10.6875 9 C15.73478102 11.69295824 20.23900713 14.96640326 24.77416992 18.43359375 C31.13108638 23.15582234 37.91947465 26.17370759 46 25 C49.07037811 24.16654323 52.03574917 23.15276421 55 22 C58 25.75 58 25.75 58 28 C56.56570999 28.67354499 55.12742943 29.33859701 53.6875 30 C52.48673828 30.556875 52.48673828 30.556875 51.26171875 31.125 C49 32 49 32 46 32 C46.27263672 32.77714355 46.54527344 33.55428711 46.82617188 34.35498047 C48.05398401 37.86054151 49.27704968 41.36774007 50.5 44.875 C51.14388672 46.70998047 51.14388672 46.70998047 51.80078125 48.58203125 C52.20683594 49.74863281 52.61289063 50.91523437 53.03125 52.1171875 C53.40830078 53.19597168 53.78535156 54.27475586 54.17382812 55.38623047 C55 58 55 58 55 60 C56.65 60 58.3 60 60 60 C59.72980587 66.07936783 59.03723846 70.17774296 55 75 C49.72028149 79.65118059 46.67705009 80.30126697 39.7578125 80.2109375 C34.58005944 79.8149054 31.52194685 77.79730208 28.1875 74 C24.65820592 69.15982526 24.90572625 65.75069872 25 60 C25.61133789 59.95883057 26.22267578 59.91766113 26.85253906 59.87524414 C29.27503389 59.16467431 29.27503389 59.16467431 30.28027344 56.40795898 C30.63637695 55.28204346 30.99248047 54.15612793 31.359375 52.99609375 C31.75253906 51.78115234 32.14570313 50.56621094 32.55078125 49.31445312 C32.95087879 48.0222462 33.35061372 46.72992694 33.75 45.4375 C34.16384684 44.14079067 34.5791936 42.84455902 34.99609375 41.54882812 C36.01228158 38.37028713 37.01277275 35.18763163 38 32 C36.51113281 31.89751953 36.51113281 31.89751953 34.9921875 31.79296875 C30.32985389 31.12139581 26.99067567 28.88371484 23.125 26.3125 C22.42826172 25.86277832 21.73152344 25.41305664 21.01367188 24.94970703 C19.00045556 23.64579833 16.99883303 22.32582004 15 21 C13.99710937 20.34128906 12.99421875 19.68257812 11.9609375 19.00390625 C9.96448823 17.68244697 7.97669992 16.35074494 6 15 C2.89657444 17.61824508 1.17372764 19.13499449 0.36076355 23.18281555 C0.35410172 24.37972519 0.34743988 25.57663483 0.34057617 26.80981445 C0.33009247 27.47378738 0.31960876 28.13776031 0.30880737 28.82185364 C0.28014955 31.00281032 0.28633683 33.18217074 0.29296875 35.36328125 C0.27984787 36.88073202 0.26454243 38.39816534 0.24714661 39.91557312 C0.20732833 43.89898915 0.19710831 47.88194799 0.19311523 51.86553955 C0.18377766 55.93458904 0.14636032 60.00337058 0.11132812 64.07226562 C0.04678478 72.04818206 0.0135182 80.02383463 0 88 C0.81404297 87.97607178 1.62808594 87.95214355 2.46679688 87.92749023 C4.07651367 87.89957397 4.07651367 87.89957397 5.71875 87.87109375 C6.78029297 87.84716553 7.84183594 87.8232373 8.93554688 87.79858398 C13.61019645 88.1058327 16.64311918 89.81257711 20 93 C24.50581976 98.1586516 24 101.80921804 24 109 C5.85 109 -12.3 109 -31 109 C-32.27371726 103.90513096 -31.63361944 99.74521762 -28.9609375 95.25390625 C-26.1233671 91.58337164 -23.38046081 89.43360535 -19 88 C-16.92967771 87.92317597 -14.85675041 87.90450945 -12.78515625 87.9296875 C-11.70242432 87.93983887 -10.61969238 87.94999023 -9.50415039 87.96044922 C-8.67778076 87.97350098 -7.85141113 87.98655273 -7 88 C-6.99169203 79.21989568 -7.01555025 70.44063557 -7.0802784 61.66076374 C-7.1093296 57.58366472 -7.12737146 53.50714054 -7.12011719 49.42993164 C-7.11352117 45.49375178 -7.13602212 41.55870753 -7.17855453 37.62276268 C-7.18968128 36.1225406 -7.1903896 34.62220328 -7.18042374 33.12197304 C-6.80197124 25.16212515 -6.80197124 25.16212515 -9.38909912 17.94052124 C-11.15321657 16.34989373 -11.15321657 16.34989373 -14 15 C-14.56920166 15.40839111 -15.13840332 15.81678223 -15.72485352 16.23754883 C-18.33258379 18.10271023 -20.94742956 19.95764571 -23.5625 21.8125 C-24.45775391 22.45509766 -25.35300781 23.09769531 -26.27539062 23.75976562 C-37.93126619 32 -37.93126619 32 -45 32 C-43.81264249 35.83382691 -42.60378607 39.66011276 -41.37451172 43.48071289 C-40.95934678 44.78155221 -40.55012449 46.08430363 -40.14697266 47.38891602 C-39.56674658 49.26288942 -38.96337134 51.12964604 -38.359375 52.99609375 C-38.00327148 54.12200928 -37.64716797 55.2479248 -37.28027344 56.40795898 C-36.27503389 59.16467431 -36.27503389 59.16467431 -33.85253906 59.87524414 C-32.93553223 59.93699829 -32.93553223 59.93699829 -32 60 C-31.47696543 65.8579872 -32.0400391 69.38813333 -35.46484375 74.234375 C-38.73140566 77.9913368 -41.73397994 79.68335091 -46.68359375 80.375 C-52.62328725 80.63289714 -56.43401845 80.12051994 -61 76 C-64.92079677 71.86138119 -66.87563004 67.86050899 -67.125 62.125 C-67.08375 61.42375 -67.0425 60.7225 -67 60 C-65.35 60 -63.7 60 -62 60 C-61.85304688 59.40316406 -61.70609375 58.80632812 -61.5546875 58.19140625 C-59.2469316 49.26543084 -56.13700951 40.65977059 -53 32 C-53.92039062 31.86722656 -54.84078125 31.73445313 -55.7890625 31.59765625 C-59.28555737 30.94684881 -61.89459328 29.70057987 -65 28 C-64.1875 25.5625 -64.1875 25.5625 -63 23 C-59.3102137 21.77007123 -58.33048497 22.74547744 -54.953125 24.28515625 C-49.42236297 26.30941515 -44.47355719 25.09529382 -39.1784668 23.02978516 C-35.24593671 21.17083504 -31.85272941 18.58953233 -28.375 16 C-23.69234475 12.55049951 -19.21742228 9.60101582 -14 7 C-12.38229045 5.50741029 -12.38229045 5.50741029 -11.25 3.875 C-7.81505163 -0.51410069 -5.48722891 -0.54872289 0 0 Z " fill="#E8F0E8" transform="translate(102,53)"/>
<path d="M0 0 C1.65285255 -0.01268921 1.65285255 -0.01268921 3.33909607 -0.02563477 C4.53821121 -0.01956207 5.73732635 -0.01348938 6.97277832 -0.00723267 C8.24319473 -0.01248962 9.51361115 -0.01774658 10.82252502 -0.02316284 C14.29981416 -0.03681796 17.77683571 -0.03154542 21.25412941 -0.02202559 C24.89664037 -0.01441957 28.53912874 -0.02147721 32.18164062 -0.02618408 C38.29809677 -0.0316389 44.41444416 -0.02445726 50.53088379 -0.01016235 C57.59792849 0.00616371 64.66471351 0.000875 71.73175192 -0.01564157 C77.80409003 -0.02926429 83.87635006 -0.03117228 89.94869852 -0.02332556 C93.57338116 -0.01865334 97.19794182 -0.01801171 100.82261658 -0.02793503 C104.86371184 -0.03822599 108.90436085 -0.02395455 112.94543457 -0.00723267 C114.74410728 -0.01634171 114.74410728 -0.01634171 116.57911682 -0.02563477 C117.68101852 -0.01717529 118.78292023 -0.00871582 119.91821289 0 C121.35061687 0.00169662 121.35061687 0.00169662 122.81195831 0.00342751 C126.87052493 0.58224058 129.38372928 2.30296605 132.24695587 5.17313576 C133.87317352 8.1351341 133.84239658 10.33172512 133.85351562 13.70599365 C133.86486542 15.00701523 133.87621521 16.3080368 133.88790894 17.64848328 C133.88526564 19.08844056 133.88229442 20.52839727 133.87902832 21.96835327 C133.88636852 23.48628871 133.8949546 25.00421856 133.9046936 26.5221405 C133.92692504 30.64412523 133.92983944 34.76591015 133.92794609 38.88794661 C133.92782645 42.32977946 133.93638803 45.77156989 133.94472361 49.21339095 C133.96396399 57.33437719 133.96683939 65.45526064 133.96008301 73.57626343 C133.9534432 81.95154508 133.97630247 90.3263862 134.01339674 98.7015785 C134.04409585 105.89407591 134.0554535 113.08643163 134.05155993 120.27899325 C134.04949243 124.57395162 134.05497132 128.8685673 134.07945251 133.16346359 C134.10172051 137.20363143 134.09984201 141.24308348 134.07952499 145.28325462 C134.07611484 146.76429615 134.08120446 148.24538585 134.09550858 149.72636223 C134.20861275 162.3067696 134.20861275 162.3067696 131.0456543 166.30883789 C128.45910645 168.38095093 128.45910645 168.38095093 126.45910645 168.38095093 C126.47331037 167.68393979 126.48751429 166.98692865 126.50214863 166.26879597 C126.84234777 149.21240477 127.06335397 132.15848951 127.15601063 115.09895802 C127.20361971 106.84820066 127.28973968 98.6013885 127.47058105 90.35238647 C127.62833645 83.15178148 127.70970656 75.95478433 127.70399779 68.75239009 C127.70352768 64.94596085 127.73810582 61.14801656 127.86463356 57.3435154 C128.29905499 43.57512277 128.25481796 31.05741328 119.19408989 19.78211784 C111.0791007 11.24181219 103.14698454 6.72163814 91.33483887 5.90512085 C86.48247701 5.78425577 81.66388282 5.93585068 76.8145752 6.11141968 C74.22146343 6.12819511 71.62827611 6.13561825 69.03511047 6.13420105 C62.96545609 6.15302921 56.90432578 6.26426685 50.83694297 6.42316848 C43.91561685 6.59906629 36.99489019 6.65261735 30.07166898 6.69739759 C15.8643341 6.79195639 1.66244607 7.03528083 -12.54089355 7.38095093 C-10.31230913 1.505592 -5.95479056 0.00705317 0 0 Z " fill="#E6EFE6" transform="translate(52.5408935546875,27.619049072265625)"/>
<path d="M0 0 C1.65285255 -0.01268921 1.65285255 -0.01268921 3.33909607 -0.02563477 C4.53821121 -0.01956207 5.73732635 -0.01348938 6.97277832 -0.00723267 C8.24319473 -0.01248962 9.51361115 -0.01774658 10.82252502 -0.02316284 C14.29981416 -0.03681796 17.77683571 -0.03154542 21.25412941 -0.02202559 C24.89664037 -0.01441957 28.53912874 -0.02147721 32.18164062 -0.02618408 C38.29809677 -0.0316389 44.41444416 -0.02445726 50.53088379 -0.01016235 C57.59792849 0.00616371 64.66471351 0.000875 71.73175192 -0.01564157 C77.80409003 -0.02926429 83.87635006 -0.03117228 89.94869852 -0.02332556 C93.57338116 -0.01865334 97.19794182 -0.01801171 100.82261658 -0.02793503 C104.86371184 -0.03822599 108.90436085 -0.02395455 112.94543457 -0.00723267 C114.74410728 -0.01634171 114.74410728 -0.01634171 116.57911682 -0.02563477 C117.68101852 -0.01717529 118.78292023 -0.00871582 119.91821289 0 C121.35061687 0.00169662 121.35061687 0.00169662 122.81195831 0.00342751 C126.87052493 0.58224058 129.38372928 2.30296605 132.24695587 5.17313576 C133.87317352 8.1351341 133.84239658 10.33172512 133.85351562 13.70599365 C133.86486542 15.00701523 133.87621521 16.3080368 133.88790894 17.64848328 C133.88526564 19.08844056 133.88229442 20.52839727 133.87902832 21.96835327 C133.88636852 23.48628871 133.8949546 25.00421856 133.9046936 26.5221405 C133.92692504 30.64412523 133.92983944 34.76591015 133.92794609 38.88794661 C133.92782645 42.32977946 133.93638803 45.77156989 133.94472361 49.21339095 C133.96396399 57.33437719 133.96683939 65.45526064 133.96008301 73.57626343 C133.9534432 81.95154508 133.97630247 90.3263862 134.01339674 98.7015785 C134.04409585 105.89407591 134.0554535 113.08643163 134.05155993 120.27899325 C134.04949243 124.57395162 134.05497132 128.8685673 134.07945251 133.16346359 C134.10172051 137.20363143 134.09984201 141.24308348 134.07952499 145.28325462 C134.07611484 146.76429615 134.08120446 148.24538585 134.09550858 149.72636223 C134.20861275 162.3067696 134.20861275 162.3067696 131.0456543 166.30883789 C128.45910645 168.38095093 128.45910645 168.38095093 126.45910645 168.38095093 C126.46095003 167.67656545 126.46279362 166.97217997 126.46469307 166.24644947 C126.5089786 149.05912985 126.54201462 131.87182484 126.56273079 114.68446064 C126.5730168 106.37257645 126.58702562 98.06073049 126.60998535 89.74887085 C126.63000153 82.499141 126.64284229 75.24943885 126.64728343 67.99968213 C126.64987696 64.16564481 126.65591626 60.33168672 126.67056656 56.49767494 C126.68428093 52.87880467 126.68830153 49.26004522 126.68532181 45.64115143 C126.68612254 43.7005979 126.69681089 41.76005605 126.70794678 39.8195343 C127.04655203 25.84076625 127.04655203 25.84076625 122.20910645 13.25595093 C115.04339605 8.37023929 109.72554543 7.93801406 101.21154785 7.94857788 C99.9817218 7.93838623 98.75189575 7.92819458 97.48480225 7.91769409 C94.12563322 7.89273428 90.76690098 7.88084881 87.40767717 7.87484002 C83.89223088 7.86543897 80.37691017 7.83923424 76.86154175 7.81483459 C70.21064789 7.77121334 63.55977847 7.7426396 56.90878522 7.71951121 C49.3343526 7.69243601 41.76004659 7.64852598 34.18570447 7.60322249 C18.61023694 7.51043892 3.03474555 7.4387295 -12.54089355 7.38095093 C-10.31230913 1.505592 -5.95479056 0.00705317 0 0 Z " fill="#EAF2EA" transform="translate(66.5408935546875,13.619049072265625)"/>
<path d="M0 0 C17.16 0 34.32 0 52 0 C52 2.31 52 4.62 52 7 C34.84 7 17.68 7 0 7 C0 4.69 0 2.38 0 0 Z " fill="#DEE9DE" transform="translate(106,186)"/>
<path d="M0 0 C17.16 0 34.32 0 52 0 C52 2.31 52 4.62 52 7 C34.84 7 17.68 7 0 7 C0 4.69 0 2.38 0 0 Z " fill="#DEE9DE" transform="translate(39,186)"/>
<path d="M0 0 C17.16 0 34.32 0 52 0 C52 2.31 52 4.62 52 7 C34.84 7 17.68 7 0 7 C0 4.69 0 2.38 0 0 Z " fill="#E0EAE0" transform="translate(106,172)"/>
<path d="M0 0 C17.16 0 34.32 0 52 0 C52 2.31 52 4.62 52 7 C34.84 7 17.68 7 0 7 C0 4.69 0 2.38 0 0 Z " fill="#E0EAE0" transform="translate(39,172)"/>
<path d="M0 0 C2.08153061 -0.01186678 4.16006456 -0.06102303 6.2409668 -0.11157227 C17.38738934 -0.24690355 17.38738934 -0.24690355 21.23510742 2.82788086 C23.28588867 5.42553711 23.28588867 5.42553711 23.28588867 7.42553711 C9.75588867 7.42553711 -3.77411133 7.42553711 -17.71411133 7.42553711 C-14.13893224 -1.51241061 -8.60054687 0.02322562 0 0 Z " fill="#076507" transform="translate(95.714111328125,147.574462890625)"/>
<path d="M0 0 C5.27002208 4.39168507 10.35302051 8.9426379 15 14 C15 14.33 15 14.66 15 15 C10.05 15 5.1 15 0 15 C0 10.05 0 5.1 0 0 Z " fill="#D9E7D9" transform="translate(155,45)"/>
<path d="M0 0 C6.6 0 13.2 0 20 0 C17.59340659 6.01648352 17.59340659 6.01648352 13 8 C9.70739223 8.64420587 7.89088099 8.58733484 5.0625 6.72265625 C3.24388702 5.22303385 1.55334682 3.77394045 0 2 C0 1.34 0 0.68 0 0 Z " fill="#196E19" transform="translate(134,119)"/>
<path d="M0 0 C6.6 0 13.2 0 20 0 C17.95841971 4.08316058 16.77758738 5.59608076 13 8 C8.99328195 8.68199456 7.30199813 8.15954618 3.6875 6.25 C1 4 1 4 0 0 Z " fill="#186E18" transform="translate(43,119)"/>
<path d="M0 0 C0.66 0 1.32 0 2 0 C2.83719383 2.29032311 3.6698929 4.58210957 4.5 6.875 C4.73847656 7.52597656 4.97695312 8.17695312 5.22265625 8.84765625 C7 13.7734375 7 13.7734375 7 16 C3.04 16 -0.92 16 -5 16 C-3.40615011 10.63886855 -1.8106711 5.29273092 0 0 Z " fill="#136B13" transform="translate(143,97)"/>
<path d="M0 0 C2 1 2 1 3.0703125 3.58203125 C3.59238281 5.18111328 3.59238281 5.18111328 4.125 6.8125 C4.47820313 7.87082031 4.83140625 8.92914063 5.1953125 10.01953125 C6 13 6 13 6 17 C2.37 17 -1.26 17 -5 17 C-3.63172347 11.21113776 -1.95088223 5.61854082 0 0 Z " fill="#116A11" transform="translate(52,96)"/>
<path d="M0 0 C1.2065625 0.0309375 1.2065625 0.0309375 2.4375 0.0625 C3.0625 2.4375 3.0625 2.4375 3.4375 5.0625 C2.7775 5.7225 2.1175 6.3825 1.4375 7.0625 C-0.6875 6.6875 -0.6875 6.6875 -2.5625 6.0625 C-2.94468767 4.40635343 -3.27645102 2.73792976 -3.5625 1.0625 C-2.5625 0.0625 -2.5625 0.0625 0 0 Z " fill="#086508" transform="translate(98.5625,59.9375)"/>
</svg>
