<?xml version="1.0" encoding="UTF-8"?>
<svg version="1.1" xmlns="http://www.w3.org/2000/svg" width="440" height="512">
<path d="M0 0 C145.2 0 290.4 0 440 0 C440 168.96 440 337.92 440 512 C294.8 512 149.6 512 0 512 C0 343.04 0 174.08 0 0 Z " fill="#006400" transform="translate(0,0)"/>
<path d="M0 0 C4.95 0 9.9 0 15 0 C15 144.87 15 289.74 15 439 C4.77 439 -5.46 439 -16 439 C-16 452.53 -16 466.06 -16 480 C-60.25624908 480.11307389 -104.51246344 480.20257075 -148.76882838 480.25532665 C-153.99578817 480.26158005 -159.22274767 480.26805167 -164.44970703 480.2746582 C-165.49028386 480.27596976 -166.53086069 480.27728131 -167.60297015 480.2786326 C-184.44344344 480.30037868 -201.28383124 480.33979583 -218.12425384 480.38576398 C-235.40897613 480.43255079 -252.6936537 480.46030011 -269.97843671 480.47044247 C-280.64083358 480.477297 -291.30298879 480.4989326 -301.96531126 480.53958233 C-309.28064779 480.56604814 -316.5958597 480.5739923 -323.91124061 480.56750689 C-328.12949795 480.56430997 -332.34733351 480.5691493 -336.56551552 480.59602737 C-340.43375034 480.62049462 -344.30128277 480.62150143 -348.16955104 480.60449447 C-349.56277091 480.60239495 -350.95603597 480.60862363 -352.34916791 480.62441591 C-365.36760062 480.76330972 -375.35920517 477.59142715 -384.8046875 468.46484375 C-392.49893387 459.82593013 -395.54246015 450.97821076 -395.3046875 439.47265625 C-394.37289021 428.85255639 -390.63354549 420.45790639 -383 413 C-375.15879341 406.54092581 -366.18960868 402.87955202 -356.01163673 402.86971474 C-354.77773409 402.86609039 -353.54383146 402.86246604 -352.27253783 402.85873187 C-350.90106235 402.85972848 -349.52958693 402.86081061 -348.15811157 402.86196899 C-346.7028802 402.85955106 -345.2476495 402.85668883 -343.79241979 402.85341966 C-339.78828182 402.84566109 -335.78416098 402.84404696 -331.78001642 402.84336853 C-327.46363458 402.8415298 -323.14726279 402.83392354 -318.83088684 402.82688904 C-311.34936269 402.81535971 -303.8678408 402.80711737 -296.38631058 402.80076981 C-284.56378949 402.79044906 -272.74129655 402.76988729 -260.91879272 402.74765015 C-256.87515459 402.74017037 -252.83151633 402.73275666 -248.78787804 402.72536278 C-247.77731661 402.72351221 -246.76675519 402.72166165 -245.72557069 402.719755 C-234.22037017 402.69882491 -222.71516655 402.6799976 -211.20996094 402.66210938 C-210.15810979 402.66047119 -209.10625865 402.65883301 -208.02253322 402.65714519 C-190.97138201 402.63085188 -173.92022863 402.61221293 -156.86906572 402.59551747 C-139.36951254 402.57810597 -121.87000196 402.54927147 -104.3704828 402.5106281 C-93.57277199 402.48721159 -82.77513061 402.47323205 -71.97739421 402.47130047 C-64.57990249 402.4691935 -57.18247988 402.45628448 -49.78501917 402.43482114 C-45.51494584 402.42277612 -41.24500972 402.41565144 -36.97492027 402.42153358 C-33.06656376 402.42682115 -29.15848737 402.41837935 -25.25017767 402.39897721 C-23.83567144 402.39439492 -22.42113791 402.39488138 -21.00663717 402.40092559 C-19.08444413 402.40840664 -17.16220423 402.39568018 -15.24004555 402.38196754 C-14.17216195 402.38061102 -13.10427835 402.37925449 -12.00403464 402.37785685 C-8.44171112 401.92977668 -6.05864071 400.86049091 -3 399 C-0.58989197 395.38483796 -0.74644314 393.74875641 -0.73828697 389.44637775 C-0.73229288 388.43829149 -0.73229288 388.43829149 -0.72617769 387.40983984 C-0.71514612 385.14166822 -0.71841269 382.87373823 -0.7215271 380.60554504 C-0.71652748 378.96953211 -0.71065267 377.33352165 -0.70397437 375.69751471 C-0.68811992 371.18925697 -0.6847407 366.68106146 -0.68332577 362.1727792 C-0.67964119 357.31591766 -0.66449048 352.45909064 -0.65071106 347.60224915 C-0.6284047 339.18324454 -0.61341175 330.76425217 -0.60334396 322.34522438 C-0.58877702 310.17263029 -0.56324582 298.00007877 -0.53501268 285.8275096 C-0.48950853 266.0797605 -0.45290873 246.33200527 -0.421875 226.58422852 C-0.39170428 207.39769415 -0.35736082 188.21117475 -0.31738281 169.0246582 C-0.31492126 167.84259612 -0.31245972 166.66053405 -0.30992357 165.44265191 C-0.29754926 159.51277145 -0.28509267 153.58289116 -0.27259517 147.65301096 C-0.16897314 98.43536143 -0.07993561 49.21769326 0 0 Z " fill="#FCFDFC" transform="translate(425,0)"/>
<path d="M0 0 C0.66 0 1.32 0 2 0 C2 0.66 2 1.32 2 2 C2.55171875 2.22429687 3.1034375 2.44859375 3.671875 2.6796875 C6.71211744 4.40385183 8.81425673 6.62515822 11.25 9.125 C12.14203125 10.03507812 13.0340625 10.94515625 13.953125 11.8828125 C14.62859375 12.58148438 15.3040625 13.28015625 16 14 C17.2375 13.01 17.2375 13.01 18.5 12 C22.4781731 9.36669393 25.29401891 9.4024151 30 10 C33.39890142 12.06889652 35.88937011 14.11279537 37 18 C36.75336704 22.60381523 36.15224178 25.57365024 33 29 C34.3584202 32.04332765 35.88463024 34.12309151 38.2578125 36.453125 C39.19560547 37.38125 39.19560547 37.38125 40.15234375 38.328125 C41.12880859 39.27945313 41.12880859 39.27945313 42.125 40.25 C42.78371094 40.8996875 43.44242188 41.549375 44.12109375 42.21875 C45.74296643 43.81711727 47.3693281 45.41061897 49 47 C45.21295108 51.52105089 41.31156156 55.84675325 37.125 60 C36.40763672 60.72316406 36.40763672 60.72316406 35.67578125 61.4609375 C32.93081398 64.19866212 30.10819364 66.7897894 27.1640625 69.3125 C24.17672255 71.89768435 21.38395987 74.59464063 18.640625 77.4375 C17.91746094 78.18644531 17.19429688 78.93539062 16.44921875 79.70703125 C14.95995772 81.25977765 13.47838324 82.81992667 12.00390625 84.38671875 C11.28589844 85.12535156 10.56789063 85.86398438 9.828125 86.625 C9.1877832 87.29789062 8.54744141 87.97078125 7.88769531 88.6640625 C6 90 6 90 3.8972168 89.8269043 C1.20571957 88.65381189 -0.40304701 86.91747129 -2.4375 84.8125 C-3.21867187 84.00554687 -3.99984375 83.19859375 -4.8046875 82.3671875 C-7.31975243 79.65521358 -9.69894404 76.89487686 -12 74 C-15.92637147 75.5895622 -18.55505654 78.29244239 -21.47119141 81.26000977 C-22.27191826 82.06270798 -22.27191826 82.06270798 -23.08882141 82.88162231 C-24.84771544 84.6469942 -26.59952715 86.41922965 -28.3515625 88.19140625 C-29.57365797 89.41977327 -30.79627078 90.64762579 -32.01937866 91.87498474 C-35.23518542 95.10408522 -38.44537517 98.33870769 -41.6539917 101.57495117 C-46.79574171 106.7598503 -51.94425326 111.93801422 -57.09598923 117.11298943 C-58.89651702 118.92376094 -60.69360551 120.73789542 -62.49038696 122.55238342 C-63.58934241 123.65816462 -64.68840669 124.76383768 -65.78759766 125.86938477 C-66.53882149 126.63071465 -66.53882149 126.63071465 -67.30522156 127.40742493 C-70.38298397 130.49533385 -71.83475625 131.88795733 -76.25 132.3125 C-80.63436813 131.94713599 -82.61562477 130.73973233 -86 128 C-87.79765915 124.4046817 -87.67366563 120.90928235 -87 117 C-85.83616638 115.19360352 -85.83616638 115.19360352 -84.20874023 113.44140625 C-83.56967743 112.75046875 -82.93061462 112.05953125 -82.27218628 111.34765625 C-77.61581509 106.53662511 -72.90588646 101.78507487 -68.16015625 97.0625 C-67.02650857 95.93072136 -65.89308441 94.7987188 -64.75987244 93.66650391 C-61.80136149 90.71177989 -58.83985819 87.76007347 -55.87768555 84.809021 C-52.84565275 81.78728529 -49.81650933 78.76265606 -46.78710938 75.73828125 C-40.86087033 69.82271195 -34.93146158 63.91033271 -29 58 C-29.41110016 57.52038315 -29.82220032 57.0407663 -30.24575806 56.5466156 C-33.83050537 52.3644104 -37.41525269 48.1822052 -41 44 C-39.62021768 40.8944624 -38.03579033 38.79488747 -35.62353516 36.41235352 C-34.93587067 35.72806778 -34.24820618 35.04378204 -33.53970337 34.33876038 C-32.79699188 33.60950851 -32.0542804 32.88025665 -31.2890625 32.12890625 C-30.52451752 31.36956284 -29.75997253 30.61021942 -28.97225952 29.8278656 C-26.52787003 27.401283 -24.07691202 24.98147948 -21.625 22.5625 C-19.18108353 20.14625686 -16.73865577 17.72855645 -14.29916382 15.30784607 C-12.78161443 13.8024898 -11.2613994 12.29981473 -9.7381897 10.80018616 C-6.8618773 7.95094263 -4.14177553 5.17920998 -1.62646484 1.99975586 C-1.08973145 1.33983643 -0.55299805 0.67991699 0 0 Z " fill="#FCFDFC" transform="translate(249,80)"/>
<path d="M0 0 C0.87011719 0.00451172 1.74023438 0.00902344 2.63671875 0.01367188 C4.75784293 0.0253264 6.8789311 0.04325643 9 0.0625 C10.67772051 3.41794102 10.74168366 7.21153268 11.19140625 10.90234375 C11.35575417 12.21918907 11.35575417 12.21918907 11.52342224 13.56263733 C11.75458593 15.42101756 11.98395298 17.27962201 12.21166992 19.13842773 C12.56071062 21.98540477 12.91562553 24.83160239 13.27148438 27.67773438 C13.49513977 29.48172771 13.7184583 31.28576285 13.94140625 33.08984375 C14.04763809 33.94303696 14.15386993 34.79623016 14.26332092 35.67527771 C14.36019699 36.46942581 14.45707306 37.26357391 14.55688477 38.08178711 C14.64269302 38.77968857 14.72850128 39.47759003 14.81690979 40.19664001 C15 42.0625 15 42.0625 15 45.0625 C15.66 45.0625 16.32 45.0625 17 45.0625 C17.10812012 44.31911377 17.21624023 43.57572754 17.32763672 42.80981445 C18.70543981 33.5776876 20.38181905 24.41880015 22.125 15.25 C22.40514834 13.76761599 22.68509738 12.2851943 22.96484375 10.80273438 C23.64057757 7.2221448 24.32036109 3.64235904 25 0.0625 C34.9 0.0625 44.8 0.0625 55 0.0625 C56.21141503 3.6967451 56.49928214 7.27394457 56.875 11.0625 C57.67024927 18.71226463 58.75602738 26.28373629 60.03466797 33.8671875 C60.6113179 37.3345086 61 40.53612342 61 44.0625 C61.66 43.7325 62.32 43.4025 63 43.0625 C63.60573353 41.23746338 63.60573353 41.23746338 63.96142578 39.00170898 C64.20144821 37.71048378 64.20144821 37.71048378 64.44631958 36.39317322 C64.61098724 35.45776199 64.77565491 34.52235077 64.9453125 33.55859375 C65.2074202 32.12907127 65.2074202 32.12907127 65.474823 30.67066956 C66.03309683 27.61520802 66.57916097 24.55770495 67.125 21.5 C67.50050221 19.43279725 67.87679394 17.36573775 68.25390625 15.29882812 C69.17995481 10.22187907 70.08947982 5.14235558 71 0.0625 C79.25 0.0625 87.5 0.0625 96 0.0625 C94.87586658 9.05556736 94.87586658 9.05556736 93.5390625 13.4140625 C93.08672241 14.91175171 93.08672241 14.91175171 92.62524414 16.43969727 C92.13012329 18.04735962 92.13012329 18.04735962 91.625 19.6875 C90.90608954 22.06336002 90.18873868 24.43969233 89.47265625 26.81640625 C89.28039963 27.45265427 89.08814301 28.08890228 88.89006042 28.74443054 C87.23937262 34.22306716 85.64280872 39.71665583 84.05859375 45.21484375 C83.81012695 46.07698486 83.56166016 46.93912598 83.30566406 47.82739258 C82.30915456 51.28798064 81.31380489 54.74889709 80.32086182 58.21051025 C79.62309469 60.64211588 78.92303419 63.07305158 78.22265625 65.50390625 C78.01257431 66.23915024 77.80249237 66.97439423 77.58604431 67.73191833 C76.11332428 72.83585143 76.11332428 72.83585143 75 75.0625 C65.43 75.0625 55.86 75.0625 46 75.0625 C45.14124872 70.59750452 44.28533916 66.13215188 43.43652344 61.6652832 C43.14715403 60.14706487 42.8561569 58.6291558 42.56347656 57.11157227 C42.14215763 54.92544293 41.72677767 52.73825444 41.3125 50.55078125 C41.11563599 49.53954948 41.11563599 49.53954948 40.91479492 48.50788879 C40.25257198 44.97811505 39.85499505 41.65439352 40 38.0625 C39.01 38.0625 38.02 38.0625 37 38.0625 C36.91363281 38.73410156 36.82726562 39.40570313 36.73828125 40.09765625 C35.63887411 47.91454185 34.10408669 55.59849928 32.4375 63.3125 C32.21553955 64.34898682 31.9935791 65.38547363 31.76489258 66.45336914 C31.55243896 67.42266357 31.33998535 68.39195801 31.12109375 69.390625 C30.83383423 70.70401855 30.83383423 70.70401855 30.54077148 72.04394531 C30 74.0625 30 74.0625 29 75.0625 C26.78144736 75.15033542 24.56011504 75.16944609 22.33984375 75.16015625 C21.34314415 75.15803383 21.34314415 75.15803383 20.3263092 75.15586853 C18.19666101 75.15025518 16.06711661 75.13770054 13.9375 75.125 C12.49674631 75.11998671 11.05599097 75.11542351 9.61523438 75.11132812 C6.07678898 75.10028145 2.53840461 75.08300792 -1 75.0625 C-11.91566086 30.6830246 -11.91566086 30.6830246 -15.6875 14.4375 C-16.05222412 12.87926514 -16.05222412 12.87926514 -16.42431641 11.28955078 C-16.63878418 10.3561084 -16.85325195 9.42266602 -17.07421875 8.4609375 C-17.25557373 7.67380371 -17.43692871 6.88666992 -17.6237793 6.07568359 C-18 4.0625 -18 4.0625 -18 1.0625 C-11.95180188 0.17347088 -6.10776514 -0.06098383 0 0 Z " fill="#FBFCFB" transform="translate(266,250.9375)"/>
<path d="M0 0 C5.27227108 5.33117914 7.22805965 9.9774918 7.22659302 17.36018372 C7.21627045 18.1655809 7.20594788 18.97097809 7.1953125 19.80078125 C7.1924826 20.63715622 7.18965271 21.47353119 7.18673706 22.33525085 C7.1755832 24.99448226 7.15048763 27.65337118 7.125 30.3125 C7.11496399 32.12043783 7.10583923 33.92838096 7.09765625 35.73632812 C7.07565959 40.15768312 7.04116294 44.57878358 7 49 C8.65 49.33 10.3 49.66 12 50 C11.77207519 52.72539885 11.52985277 55.44692647 11.25390625 58.16796875 C10.94884026 61.09672948 10.94884026 61.09672948 11 64.4375 C9.78809941 67.54299527 8.97506656 67.89568236 6.0625 69.375 C1.03990633 71.27846703 -3.68635412 71.90368127 -9 71 C-12.92779624 69.00039464 -15.77167243 66.83767526 -18 63 C-18 62.01 -18 61.02 -18 60 C-18.91523438 60.71027344 -19.83046875 61.42054688 -20.7734375 62.15234375 C-21.97388942 63.08081828 -23.17441403 64.00919882 -24.375 64.9375 C-24.97828125 65.40607422 -25.5815625 65.87464844 -26.203125 66.35742188 C-32.35066048 71.10468538 -36.25875396 71.88014167 -44 71 C-50.51315512 68.87175777 -55.32919 65.78430666 -59 60 C-62.1603533 53.31957839 -63.56910055 45.90133021 -61.2734375 38.73046875 C-59.30699502 34.42188137 -57.19586536 31.36017426 -53 29 C-43.03425185 25.63062801 -31.53296417 23.74017356 -21 24 C-22.12697043 19.03088634 -22.12697043 19.03088634 -25 15 C-34.54410132 13.9395443 -43.45623117 18.11646871 -52 22 C-54.32024234 19.67975766 -54.38753273 18.81227685 -54.8515625 15.6484375 C-54.98046875 14.79765625 -55.109375 13.946875 -55.2421875 13.0703125 C-55.43167969 11.73613281 -55.43167969 11.73613281 -55.625 10.375 C-55.82609375 9.02921875 -55.82609375 9.02921875 -56.03125 7.65625 C-56.3615559 5.43848183 -56.6841425 3.21986425 -57 1 C-40.06766806 -6.39378495 -16.01206762 -13.34338969 0 0 Z " fill="#FBFCFB" transform="translate(233,256)"/>
<path d="M0 0 C10.56 0 21.12 0 32 0 C32.15176259 25.34435229 31.56731903 50.6631268 31 76 C41.23 76 51.46 76 62 76 C63.70092986 84.50464931 61.82228633 93.36599355 61 102 C40.87 102 20.74 102 0 102 C0.33 93.75 0.66 85.5 1 77 C1.1376305 59.65855679 0.8557731 42.33737258 0.5 25 C0.45160705 22.55599385 0.40342899 20.11198343 0.35546875 17.66796875 C0.23983421 11.77858224 0.11984058 5.88930829 0 0 Z " fill="#FCFDFC" transform="translate(103,224)"/>
<path d="M0 0 C2.78227332 2.49691195 3.80269892 4.19285922 4.6875 7.8125 C2.84647169 16.3481767 -7.46156268 23.60883345 -13.45703125 29.58984375 C-14.45129212 30.58477978 -15.44540463 31.57986409 -16.43937683 32.5750885 C-18.5060628 34.64323732 -20.57451793 36.70959516 -22.64428711 38.7746582 C-25.29853564 41.42316516 -27.94820835 44.0761978 -30.59660816 46.73055172 C-32.64079149 48.77834081 -34.68734072 50.823752 -36.73462486 52.86844063 C-37.71339005 53.84653891 -38.69141341 54.8253801 -39.66868019 55.80497551 C-41.02776205 57.16658894 -42.390382 58.52466812 -43.75317383 59.88256836 C-44.52703934 60.65563828 -45.30090485 61.42870819 -46.09822083 62.22520447 C-49.24828839 65.16493896 -51.72378253 65.35552435 -56.0234375 65.26953125 C-58 65 -58 65 -60.5 63.5 C-62.56640794 60.05598676 -62.65759865 56.8784824 -62 53 C-60.00137329 50.03260803 -60.00137329 50.03260803 -57.16650391 47.24243164 C-56.65277725 46.72593048 -56.1390506 46.20942932 -55.60975647 45.67727661 C-53.91711743 43.98511028 -52.19788081 42.3230984 -50.4765625 40.66015625 C-49.29141079 39.48739779 -48.10795158 38.31292669 -46.92611694 37.13682556 C-43.81754327 34.05306451 -40.68526776 30.99449593 -37.54779053 27.94018555 C-34.98542999 25.43793308 -32.43996751 22.91887321 -29.89528847 20.39865971 C-24.64489158 15.1988576 -19.38350833 10.01007829 -14.09228516 4.85180664 C-13.15518707 3.93661758 -12.21808899 3.02142853 -11.25259399 2.07850647 C-7.33671886 -1.53473756 -5.15506594 -1.24432626 0 0 Z " fill="#F8FBF8" transform="translate(317,128)"/>
<path d="M0 0 C3.48022461 0.71875 3.48022461 0.71875 5.98022461 2.21875 C7.67519877 5.04370693 8.23363138 7.29851777 8.04753113 10.60289001 C7.36109896 13.16304807 6.37747645 14.37171946 4.59082031 16.32250977 C3.95391266 17.01861359 3.317005 17.71471741 2.66079712 18.43191528 C-1.4906782 22.78569753 -5.71802439 27.06008169 -9.97680664 31.30859375 C-10.97106751 32.30352978 -11.96518002 33.29861409 -12.95915222 34.2938385 C-15.02583819 36.36198732 -17.09429332 38.42834516 -19.1640625 40.4934082 C-21.81831103 43.14191516 -24.46798374 45.7949478 -27.11638355 48.44930172 C-29.16056688 50.49709081 -31.20711611 52.542502 -33.25440025 54.58719063 C-34.23316544 55.56528891 -35.2111888 56.5441301 -36.18845558 57.52372551 C-37.54753744 58.88533894 -38.91015739 60.24341812 -40.27294922 61.60131836 C-41.04681473 62.37438828 -41.82068024 63.14745819 -42.61799622 63.94395447 C-45.00513679 66.17170335 -46.06624883 66.66835816 -49.33227539 67.03125 C-53.37189395 66.63520896 -54.81706694 65.73033942 -57.51977539 62.71875 C-58.76977539 59.46875 -58.76977539 59.46875 -58.51977539 55.71875 C-57.33970642 53.99145508 -57.33970642 53.99145508 -55.671875 52.17578125 C-55.03079803 51.47501465 -54.38972107 50.77424805 -53.72921753 50.05224609 C-46.89992858 42.8395118 -39.95927864 35.74005651 -32.97523594 28.67758179 C-30.24469725 25.91634722 -27.52276866 23.14766433 -24.81933594 20.35986328 C-22.1834818 17.64203329 -19.52847387 14.94437774 -16.858778 12.25979614 C-15.85077417 11.23957801 -14.84965683 10.21250557 -13.85586739 9.17843628 C-5.13889638 0.12558178 -5.13889638 0.12558178 0 0 Z " fill="#F9FBF9" transform="translate(242.519775390625,56.28125)"/>
<path d="M0 0 C0.33 0 0.66 0 1 0 C1 5.94 1 11.88 1 18 C-124.4 18 -249.8 18 -379 18 C-374.25148877 15.62574438 -371.30352862 14.87471196 -366.0778017 14.86971474 C-364.83318993 14.86609039 -363.58857815 14.86246604 -362.30625087 14.85873187 C-360.91749014 14.85972855 -359.52872947 14.86081068 -358.13996887 14.86196899 C-356.67052674 14.85955178 -355.20108529 14.85668978 -353.73164481 14.85341966 C-349.68350246 14.84565201 -345.63537706 14.84404647 -341.58722818 14.84336853 C-337.22511869 14.84153137 -332.86301918 14.83392589 -328.50091553 14.82688904 C-320.9380741 14.81535409 -313.37523492 14.80711459 -305.81238747 14.80076981 C-293.85917818 14.79045184 -281.90599677 14.76989014 -269.95280457 14.74765015 C-265.86470136 14.74017009 -261.77659804 14.7327564 -257.68849468 14.72536278 C-256.15590596 14.72258693 -256.15590596 14.72258693 -254.59235585 14.719755 C-242.95699971 14.69882011 -231.32164049 14.67999586 -219.6862793 14.66210938 C-218.62242481 14.66047119 -217.55857033 14.65883301 -216.46247783 14.65714519 C-199.22508484 14.63086421 -181.98768972 14.61221904 -164.75028519 14.59551747 C-147.05865221 14.57809878 -129.36706131 14.54925522 -111.67546195 14.5106281 C-100.76035982 14.48722351 -89.84532629 14.47323311 -78.93019887 14.47130047 C-71.44905162 14.4691916 -63.96797259 14.45626658 -56.48685596 14.43482114 C-52.16996117 14.42278973 -47.8532018 14.41564239 -43.53629112 14.42153358 C-39.58276464 14.42683228 -35.62951433 14.41834156 -31.67603394 14.39897721 C-30.24733033 14.39440572 -28.81859969 14.39486662 -27.38990162 14.40092559 C-15.67802492 14.73157265 -15.67802492 14.73157265 -5.49070293 9.65436327 C-2.8809579 6.7318769 -1.2006626 3.71113895 0 0 Z " fill="#FDFDFD" transform="translate(439,494)"/>
<path d="M0 0 C20.79 0 41.58 0 63 0 C59.56806925 1.71596538 56.66088354 2.72710607 53 3.75 C33.16008523 9.79306474 18.43739725 22.3230706 8.72265625 40.546875 C4.60230998 48.80625392 2.3399199 56.88501861 1 66 C0.67 66 0.34 66 0 66 C0 44.22 0 22.44 0 0 Z " fill="#FBFCFB" transform="translate(0,0)"/>
<path d="M0 0 C0.33 0 0.66 0 1 0 C1.1959375 0.969375 1.391875 1.93875 1.59375 2.9375 C5.32453458 20.14417313 11.95945302 34.57027564 26.875 44.875 C31.88736189 47.77309401 37.47886344 49.35286093 43 51 C43 51.33 43 51.66 43 52 C28.81 52 14.62 52 0 52 C0 34.84 0 17.68 0 0 Z " fill="#F9FBF9" transform="translate(0,460)"/>
<path d="M0 0 C0 3.63 0 7.26 0 11 C-3.31599474 12.9738064 -5.34709242 14.02511183 -9.25 13.875 C-12 13 -12 13 -14 10 C-14.375 7 -14.375 7 -14 4 C-10.2852493 -0.14337578 -5.24812614 0 0 0 Z " fill="#0B680B" transform="translate(212,293)"/>
<path d="M0 0 C0.66 0.33 1.32 0.66 2 1 C-2.88058099 6.72939076 -8.00032255 12.13575887 -13.33984375 17.4375 C-14.10680069 18.20304199 -14.87375763 18.96858398 -15.66395569 19.75732422 C-18.08610881 22.17393197 -20.51173612 24.58701726 -22.9375 27 C-24.59202893 28.64950686 -26.24632802 30.29924429 -27.90039062 31.94921875 C-31.93094202 35.96881371 -35.96434272 39.98553169 -40 44 C-40 41 -40 41 -38.66021729 39.30618286 C-38.03274597 38.68838959 -37.40527466 38.07059631 -36.75878906 37.43408203 C-35.69703461 36.377509 -35.69703461 36.377509 -34.61383057 35.29959106 C-33.83892273 34.54330414 -33.06401489 33.78701721 -32.265625 33.0078125 C-31.47605408 32.22485809 -30.68648315 31.44190369 -29.87298584 30.63522339 C-27.33895157 28.12465876 -24.79502226 25.62442115 -22.25 23.125 C-19.72095936 20.63107156 -17.1940706 18.13501781 -14.66986084 15.63619995 C-13.09708503 14.08033335 -11.52123392 12.5275678 -9.94195557 10.978302 C-6.38744033 7.47193356 -2.99831479 4.00992528 0 0 Z " fill="#E0EBE0" transform="translate(249,80)"/>
<path d="M0 0 C0.66 0.33 1.32 0.66 2 1 C-1.96 4.96 -5.92 8.92 -10 13 C-10 8.41771462 -7.08388033 6.1816619 -4 3 C-1.625 1.0625 -1.625 1.0625 0 0 Z " fill="#DBE7DB" transform="translate(47,409)"/>
<path d="M0 0 C0.66 0.33 1.32 0.66 2 1 C-0.64 3.64 -3.28 6.28 -6 9 C-6 6 -6 6 -3.5625 3.375 C-2.716875 2.59125 -1.87125 1.8075 -1 1 C-0.67 0.67 -0.34 0.34 0 0 Z " fill="#DAE6DA" transform="translate(180,285)"/>
</svg>
