<?xml version="1.0" encoding="UTF-8"?>
<svg version="1.1" xmlns="http://www.w3.org/2000/svg" width="860" height="1022">
<path d="M0 0 C283.8 0 567.6 0 860 0 C860 337.26 860 674.52 860 1022 C576.2 1022 292.4 1022 0 1022 C0 684.74 0 347.48 0 0 Z " fill="#F9F9F9" transform="translate(0,0)"/>
<path d="M0 0 C1.5696536 0.46212599 3.1386082 0.92662653 4.70727539 1.39208984 C5.58106339 1.65049652 6.45485138 1.9089032 7.3551178 2.17514038 C35.62619235 10.99204261 62.88348407 26.02150279 87 43 C87.94488281 43.66257812 88.88976562 44.32515625 89.86328125 45.0078125 C105.12622536 55.9193818 120.09728586 67.71168563 133.18359375 81.18359375 C135.05678014 83.12891885 135.05678014 83.12891885 137.625 85.0625 C140.51363042 87.41901429 142.77290704 90.1065979 145.1875 92.9375 C146.84681749 94.82568887 148.56541186 96.56993365 150.375 98.3125 C154.46620555 102.35854875 158.05039364 106.76371064 161.62353516 111.26855469 C162.59786628 112.49415886 163.57721459 113.71578223 164.56005859 114.93457031 C177.98752038 131.60016597 189.48220791 149.37642441 200 168 C200.54769043 168.9576123 200.54769043 168.9576123 201.10644531 169.93457031 C236.72625074 232.64459547 252.07699026 311.54599266 242 383 C241.8202929 384.32728652 241.64078255 385.65459969 241.46142578 386.98193359 C233.12234426 447.82305671 210.82695967 505.58999999 174 555 C173.60103516 555.53786133 173.20207031 556.07572266 172.79101562 556.62988281 C157.64605283 576.95730067 140.37280904 596.60762312 121 613 C119.65615234 614.17755859 119.65615234 614.17755859 118.28515625 615.37890625 C97.8115122 633.20832825 75.01271595 648.38164957 51 661 C50.15743652 661.44585449 49.31487305 661.89170898 48.44677734 662.35107422 C-2.49071983 689.12723419 -58.67566199 702.21718686 -116.0625 702.25 C-117.1255838 702.25067474 -118.1886676 702.25134949 -119.28396606 702.25204468 C-144.10436538 702.22708783 -167.86205903 700.06878089 -192.13769531 694.63964844 C-194.84581919 694.03445528 -197.55858162 693.45689247 -200.2734375 692.8828125 C-256.90678211 680.54373408 -310.91706121 651.5578754 -354 613 C-354.94359375 612.16726563 -355.8871875 611.33453125 -356.859375 610.4765625 C-370.11995936 598.57134173 -383.05320423 586.08385348 -394 572 C-395.57988537 570.14289454 -397.1634403 568.28890671 -398.75 566.4375 C-450.70873207 503.83083054 -478.3589772 420.60486588 -478.25 339.625 C-478.24931519 338.90718353 -478.24863037 338.18936707 -478.2479248 337.44979858 C-478.20128476 322.70242993 -477.40224809 308.10598159 -475.25 293.5 C-475.0744458 292.30149414 -474.8988916 291.10298828 -474.71801758 289.86816406 C-471.68780838 269.79054165 -467.13573286 250.35348888 -461 231 C-460.72961914 230.14486816 -460.45923828 229.28973633 -460.18066406 228.40869141 C-448.60480446 192.38467301 -430.58578262 158.30289575 -408 128 C-407.60103516 127.46213867 -407.20207031 126.92427734 -406.79101562 126.37011719 C-392.56493033 107.27600753 -376.42441429 88.41987819 -358.28515625 72.94921875 C-356.52699229 71.44951992 -354.7884375 69.92680984 -353.05859375 68.39453125 C-325.06347622 43.7233393 -271.59937053 1 -233 1 C-233 40.6 -233 80.2 -233 121 C-237.95 123.64 -242.9 126.28 -248 129 C-250.76351601 130.73051614 -253.41858102 132.43004138 -256.0625 134.3125 C-256.71895508 134.77269531 -257.37541016 135.23289062 -258.05175781 135.70703125 C-269.37567114 143.72473227 -279.98892145 152.39136119 -290 162 C-290.56219238 162.53496094 -291.12438477 163.06992187 -291.70361328 163.62109375 C-300.30403813 171.84407792 -307.93732515 180.42871017 -315 190 C-315.42764648 190.57218262 -315.85529297 191.14436523 -316.29589844 191.73388672 C-322.80903775 200.47312929 -328.615004 209.5270546 -334 219 C-334.3697998 219.64243652 -334.73959961 220.28487305 -335.12060547 220.94677734 C-355.62321994 256.85526091 -365.18333527 298.26461793 -365.3125 339.375 C-365.31511841 340.17836792 -365.31773682 340.98173584 -365.32043457 341.80944824 C-365.32596749 357.80828363 -363.80850695 373.22954539 -361 389 C-360.79165527 390.20946289 -360.79165527 390.20946289 -360.57910156 391.44335938 C-359.68886728 396.39514598 -358.43918442 401.18120046 -357 406 C-356.69384766 407.03962891 -356.38769531 408.07925781 -356.07226562 409.15039062 C-346.46513238 441.16824874 -332.24099181 470.97894347 -311 497 C-309.79537109 498.51013672 -309.79537109 498.51013672 -308.56640625 500.05078125 C-297.57397448 513.6070517 -284.99893654 526.54746072 -271 537 C-270.38286133 537.47179687 -269.76572266 537.94359375 -269.12988281 538.4296875 C-226.03637093 571.28619158 -174.32027984 589.19006955 -120.15966797 589.18530273 C-117.40185863 589.18747881 -114.64445715 589.20566007 -111.88671875 589.22460938 C-100.76884594 589.26063493 -89.99793652 588.62488843 -79 587 C-77.91976563 586.84426514 -76.83953125 586.68853027 -75.7265625 586.52807617 C-17.40231773 577.53516424 39.55801125 545.76184397 76 499 C77.20076172 497.48986328 77.20076172 497.48986328 78.42578125 495.94921875 C113.24604832 451.86215788 131.54313862 397.41828782 131.3125 341.375 C131.31067719 340.45279663 131.30885437 339.53059326 131.30697632 338.58044434 C131.26028019 324.5265824 130.72474149 310.82484485 128 297 C127.83371094 296.11650879 127.66742187 295.23301758 127.49609375 294.32275391 C118.38938889 246.99318504 95.30689417 203.67895984 62 169 C61.5138623 168.49194824 61.02772461 167.98389648 60.52685547 167.46044922 C53.76152013 160.43075691 46.75710558 153.93938245 39 148 C38.00468262 147.23067139 38.00468262 147.23067139 36.98925781 146.44580078 C34.69102529 144.67851811 32.37893303 142.93084659 30.0625 141.1875 C29.36697021 140.65527832 28.67144043 140.12305664 27.95483398 139.57470703 C26.84990601 138.75462158 26.84990601 138.75462158 25.72265625 137.91796875 C24.55390457 137.03634819 24.55390457 137.03634819 23.36154175 136.13691711 C20.57173261 134.36344787 18.16603598 133.19851683 15.1348114 131.97181702 C1.67498445 126.07798141 1.67498445 126.07798141 -1.12513542 119.26070213 C-2.86122082 110.97965263 -2.29250287 102.54060013 -1.953125 94.140625 C-1.90458573 91.42261516 -1.88634735 88.7046229 -1.86737061 85.98626709 C-1.80550227 79.58721817 -1.64186276 73.19510482 -1.44038081 66.79909492 C-1.21584342 59.51094512 -1.10663422 52.22244094 -1.00647211 44.93168688 C-0.798106 29.95061007 -0.44697788 14.97600228 0 0 Z " fill="#006400" transform="translate(547,213)"/>
<path d="M0 0 C1.25782979 1.03219846 2.50796638 2.07384733 3.75 3.125 C4.39324219 3.60195312 5.03648437 4.07890625 5.69921875 4.5703125 C17.12709638 13.50605965 24.03931013 27.95507954 26.03937438 42.18362164 C26.47041219 47.13431708 26.4235287 52.08598666 26.38491821 57.05102539 C26.39069494 58.69511047 26.39864637 60.33918906 26.40855443 61.98325443 C26.42923832 66.45422117 26.41919773 70.92464758 26.40362334 75.3956151 C26.39223732 80.23552969 26.40980825 85.07535605 26.42352295 89.91525269 C26.44568298 99.37810912 26.44098652 108.84076656 26.42645974 118.30363059 C26.41513892 125.99858967 26.41364887 133.69349322 26.41907883 141.38845825 C26.41984499 142.48626462 26.42061116 143.58407099 26.42140054 144.71514422 C26.42299927 146.94575399 26.42462034 149.17636374 26.4262635 151.40697348 C26.44049981 172.29262387 26.42416154 193.17816429 26.39726166 214.06379664 C26.37492484 231.96022936 26.37880556 249.85649989 26.40185547 267.75292969 C26.42865093 288.56704469 26.43912671 309.38106345 26.42379415 330.19519329 C26.42220151 332.41730943 26.42062965 334.63942558 26.41907883 336.86154175 C26.41830745 337.95468644 26.41753607 339.04783113 26.41674132 340.17410141 C26.41243556 347.85421989 26.41968658 355.53427701 26.43147659 363.21438599 C26.44554179 372.5819237 26.44161738 381.9492521 26.41507287 391.31676602 C26.40198867 396.09050459 26.39668957 400.86389496 26.41331863 405.63763046 C26.42834391 410.0174058 26.4198255 414.39651396 26.39343087 418.77622974 C26.38789869 420.35071629 26.39056616 421.92526058 26.40280981 423.49970925 C26.53727295 442.24571444 21.16643582 457.93259021 8.1640625 471.8046875 C-4.31672883 483.80078791 -19.04475981 488.55355881 -36.00390625 488.49072266 C-50.41554058 488.18534394 -63.66724213 482.24994002 -74.125 472.37109375 C-84.77148378 461.11791697 -91.35677521 447.80787912 -91.38701439 432.18445778 C-91.38966622 431.50697878 -91.39231804 430.82949979 -91.39505023 430.13149112 C-91.40270567 427.86284395 -91.40330096 425.59425124 -91.40390015 423.32559204 C-91.40791725 421.6818956 -91.41235589 420.03820013 -91.4171797 418.39450586 C-91.42912348 413.87832296 -91.43478856 409.36215072 -91.43936086 404.84595513 C-91.44532532 399.97453632 -91.45693308 395.1031302 -91.46765137 390.23171997 C-91.49215654 378.46689637 -91.50680002 366.70206857 -91.51971143 354.93722731 C-91.52342483 351.61290829 -91.52739794 348.28858968 -91.5314641 344.96427107 C-91.55670275 324.30972999 -91.57875046 303.65518824 -91.59119225 283.00063515 C-91.59412182 278.21803408 -91.5970835 273.43543304 -91.60009766 268.65283203 C-91.60084371 267.4641761 -91.60158976 266.27552017 -91.60235842 265.05084436 C-91.61500618 245.80467382 -91.64822264 226.5585958 -91.68989949 207.31246848 C-91.73236098 187.5415037 -91.75589217 167.77058622 -91.76111281 147.99957597 C-91.76452219 136.9035403 -91.77622166 125.80764918 -91.80921555 114.71165848 C-91.83727515 105.25973584 -91.84818946 95.80798741 -91.83702008 86.35602637 C-91.83184854 81.53777924 -91.83462204 76.71989658 -91.85948563 71.90170288 C-91.88210721 67.48085758 -91.8811391 63.06063583 -91.86228175 58.63977866 C-91.85949971 57.05017319 -91.86497901 55.46052424 -91.88009469 53.87098821 C-92.04276524 35.63289686 -87.23446275 20.31149049 -74.4375 6.8125 C-69.78588107 2.36527039 -64.97013125 -0.95525403 -59.25 -3.875 C-58.49847656 -4.26429687 -57.74695313 -4.65359375 -56.97265625 -5.0546875 C-39.21907882 -13.60386187 -15.96626639 -11.70859535 0 0 Z " fill="#006400" transform="translate(463.25,88.875)"/>
</svg>
