<?xml version="1.0" encoding="UTF-8"?>
<svg version="1.1" xmlns="http://www.w3.org/2000/svg" width="860" height="1022">
<path d="M0 0 C283.8 0 567.6 0 860 0 C860 337.26 860 674.52 860 1022 C576.2 1022 292.4 1022 0 1022 C0 684.74 0 347.48 0 0 Z " fill="#006400" transform="translate(0,0)"/>
<path d="M0 0 C0.30410733 15.3767757 0.53312924 30.75341261 0.67355824 46.13252258 C0.74050691 53.27410584 0.8317136 60.41381765 0.98071289 67.55419922 C1.11057083 73.78026913 1.19421886 80.00498389 1.22315043 86.23237038 C1.24005958 89.52879103 1.28644264 92.82044666 1.37449074 96.11584473 C1.88991082 116.2075835 1.88991082 116.2075835 -1.25694656 120.85718727 C-4.6840176 124.09499238 -8.56390283 125.48620598 -13 127 C-14.70826375 128.02664067 -16.39346993 129.0947608 -18.03125 130.23046875 C-19.15273438 130.97006836 -19.15273438 130.97006836 -20.296875 131.72460938 C-21.02390625 132.20736328 -21.7509375 132.69011719 -22.5 133.1875 C-23.63695312 133.9290332 -23.63695312 133.9290332 -24.796875 134.68554688 C-29.65983723 137.91193528 -33.56790639 141.25067679 -37.4375 145.625 C-39 147 -39 147 -41.63671875 148.16796875 C-45.85093552 150.46351772 -48.93933176 153.3728183 -52.375 156.6875 C-53.03838379 157.31889893 -53.70176758 157.95029785 -54.38525391 158.60083008 C-56.26359701 160.39366824 -58.13228682 162.1961039 -60 164 C-60.804375 164.763125 -61.60875 165.52625 -62.4375 166.3125 C-67.77786988 171.48059988 -72.39335042 177.17824085 -77 183 C-77.78246094 183.96550781 -78.56492188 184.93101562 -79.37109375 185.92578125 C-95.3991647 206.1083282 -112.04307382 231.38921475 -117 257 C-117.33 257.66 -117.66 258.32 -118 259 C-118.66 259 -119.32 259 -120 259 C-120.33 262.3 -120.66 265.6 -121 269 C-121.66 269 -122.32 269 -123 269 C-122.979375 270.0725 -122.95875 271.145 -122.9375 272.25 C-122.9857984 275.14790424 -123.13155885 277.28612141 -124 280 C-124.66 280 -125.32 280 -126 280 C-126.99 289.405 -126.99 289.405 -128 299 C-128.66 299 -129.32 299 -130 299 C-132.5997617 340.86381059 -132.5997617 340.86381059 -128.40234375 382.38671875 C-127.95523305 385.29076785 -127.93556885 388.06623482 -128 391 C-127.34 391 -126.68 391 -126 391 C-125.76216797 392.4540625 -125.76216797 392.4540625 -125.51953125 393.9375 C-124.11430311 402.13277401 -122.27348451 409.9693103 -119.6262207 417.85742188 C-118.67356941 420.71282367 -118 422.96428969 -118 426 C-117.34 426 -116.68 426 -116 426 C-115.73445313 426.86882812 -115.46890625 427.73765625 -115.1953125 428.6328125 C-114.84210938 429.78523438 -114.48890625 430.93765625 -114.125 432.125 C-113.60292969 433.83042969 -113.60292969 433.83042969 -113.0703125 435.5703125 C-112.08503467 438.72751664 -111.05727464 441.86627606 -110 445 C-109.34 445 -108.68 445 -108 445 C-107.01070539 446.86967605 -106.03399531 448.74601378 -105.0625 450.625 C-104.51722656 451.66914062 -103.97195312 452.71328125 -103.41015625 453.7890625 C-102.03330283 456.92416918 -101.40157784 459.61454632 -101 463 C-100.01 463.33 -99.02 463.66 -98 464 C-97.078125 465.6796875 -97.078125 465.6796875 -96.25 467.875 C-93.20364129 475.18626091 -89.4865299 482.30380744 -83 487 C-82.690625 487.804375 -82.38125 488.60875 -82.0625 489.4375 C-81.15665283 492.20408118 -81.15665283 492.20408118 -78.5 494 C-76 496 -76 496 -75.25 498.17578125 C-73.44607066 502.25153411 -70.57124105 505.00427609 -67.5 508.1875 C-66.86924561 508.85023926 -66.23849121 509.51297852 -65.58862305 510.19580078 C-63.73361958 512.13828439 -61.8680184 514.07004123 -60 516 C-58.63294922 517.42892578 -58.63294922 517.42892578 -57.23828125 518.88671875 C-51.52463825 524.74757316 -45.42094971 529.93280835 -39 535 C-38.19175781 535.66386719 -37.38351562 536.32773437 -36.55078125 537.01171875 C-32.18470742 540.54757141 -28.23624362 542.86671556 -23 545 C-19.77248915 546.99928262 -16.83451379 549.10345997 -14.24267578 551.88793945 C-10.03091491 555.85440399 -4.67438601 558.1225756 0.4375 560.75 C1.03958282 561.0605835 1.64166565 561.37116699 2.26199341 561.69116211 C22.92524842 572.31025905 47.13849287 582.64550644 70.5625 584.625 C71.40941406 584.69976563 72.25632812 584.77453125 73.12890625 584.8515625 C73.74636719 584.90054688 74.36382812 584.94953125 75 585 C75 585.66 75 586.32 75 587 C75.85980469 587.06058594 76.71960938 587.12117187 77.60546875 587.18359375 C78.78753906 587.26738281 79.96960938 587.35117187 81.1875 587.4375 C83.01625357 587.56680581 84.84501323 587.69602737 86.67382812 587.82446289 C88.40263656 587.95492188 90.13038584 588.09957517 91.85742188 588.25170898 C100.28922667 588.97094555 108.66411307 589.19329152 117.125 589.1875 C117.80020691 589.18722809 118.47541382 589.18695618 119.17108154 589.18667603 C133.76772357 589.15975925 147.78631962 588.31417267 161.96875 584.71484375 C165.097727 583.97695356 168.19084687 583.49916178 171.375 583.0625 C177.71985239 582.15719789 183.73043542 580.55702775 189.8828125 578.8046875 C193 578 193 578 196 578 C196 577.34 196 576.68 196 576 C196.92296875 575.74347656 197.8459375 575.48695313 198.796875 575.22265625 C224.57723119 567.77574424 253.10018999 554.43639768 272 535 C273.86106359 533.21452583 275.73620456 531.44361146 277.625 529.6875 C278.56601562 528.80449219 279.50703125 527.92148437 280.4765625 527.01171875 C283 525 283 525 286 525 C286.20625 524.46761719 286.4125 523.93523438 286.625 523.38671875 C288.57506132 520.00181118 291.21999548 517.53021668 294 514.8125 C294.5465625 514.26658203 295.093125 513.72066406 295.65625 513.15820312 C299.71851504 509.14074248 299.71851504 509.14074248 302 508 C302.5878125 506.9790625 302.5878125 506.9790625 303.1875 505.9375 C306.24294775 500.98556744 310.1843241 496.72963897 314.390625 492.72265625 C317.4632288 489.51666097 319.89637995 486.11001723 322.375 482.4375 C323.09345093 481.37958252 323.09345093 481.37958252 323.82641602 480.30029297 C329.41512405 471.99669345 334.57375194 463.74262467 338.08984375 454.3359375 C339.48351186 450.7590554 341.23389134 447.40606669 343 444 C343.66 444 344.32 444 345 444 C345.20496094 443.15695312 345.40992188 442.31390625 345.62109375 441.4453125 C346.02521484 439.80175781 346.02521484 439.80175781 346.4375 438.125 C346.83775391 436.48917969 346.83775391 436.48917969 347.24609375 434.8203125 C348 432 348 432 349 430 C349.66 430 350.32 430 351 430 C351.103125 428.700625 351.20625 427.40125 351.3125 426.0625 C351.848308 421.09839647 353.24930225 416.65751666 355 412 C355.66 412 356.32 412 357 412 C357.09796875 411.42636719 357.1959375 410.85273437 357.296875 410.26171875 C358.08822738 405.76601859 358.91700772 401.29381833 359.953125 396.84765625 C362.67684598 384.98745168 363.98692356 373.29016178 364.76635742 361.15039062 C365 359 365 359 366 356 C366.09590176 353.59395142 366.13074266 351.18530194 366.1328125 348.77734375 C366.13376923 348.0760585 366.13472595 347.37477325 366.13571167 346.65223694 C366.13639133 345.17204702 366.13455195 343.69185409 366.13037109 342.21166992 C366.12501176 339.94247781 366.13032737 337.6734829 366.13671875 335.40429688 C366.13605809 333.9661454 366.13477717 332.52799404 366.1328125 331.08984375 C366.13168457 329.77878662 366.13055664 328.46772949 366.12939453 327.11694336 C366.21706557 324.0926894 366.21706557 324.0926894 365 322 C364.65831632 319.54857287 364.36181734 317.10837971 364.09765625 314.6484375 C363.92780521 313.1419191 363.75788093 311.63540895 363.58789062 310.12890625 C363.32513562 307.75946717 363.06412427 305.38985094 362.80493164 303.02001953 C362.55295734 300.72895102 362.29432975 298.43870119 362.03515625 296.1484375 C361.96112076 295.4522934 361.88708527 294.75614929 361.81080627 294.03890991 C361.41013622 290.52007313 360.83493088 287.16886276 359.93530273 283.74072266 C359 280 359 280 359 276 C358.34 276 357.68 276 357 276 C356.88825439 275.38181396 356.77650879 274.76362793 356.66137695 274.12670898 C351.62866109 247.51075215 338.19273412 222.16213499 323 200 C322.39816895 199.11078857 322.39816895 199.11078857 321.78417969 198.20361328 C317.72635221 192.09570778 317.72635221 192.09570778 312.46484375 187.08984375 C310 185 310 185 308.5625 182.10546875 C306.67692827 178.35789494 304.11356514 176.01611013 301 173.3125 C299.83821111 172.27135019 298.67808787 171.22833912 297.51953125 170.18359375 C296.93510254 169.65878418 296.35067383 169.13397461 295.74853516 168.59326172 C292.99646602 166.08558186 290.33154777 163.49578507 287.6875 160.875 C286.78386719 159.98554688 285.88023437 159.09609375 284.94921875 158.1796875 C283 156 283 156 283 154 C282.39671875 153.90074219 281.7934375 153.80148437 281.171875 153.69921875 C278.56870346 152.86114734 277.87282236 151.97467215 276.25 149.8125 C272.44366937 145.12926788 267.97139616 141.17473802 262.3125 138.9375 C260 138 260 138 257.9609375 135.80078125 C254.32916233 132.06706151 249.82317062 129.7721685 245.3125 127.25 C244.44560547 126.75628906 243.57871094 126.26257813 242.68554688 125.75390625 C238.38416219 123.29983931 238.38416219 123.29983931 234 121 C234 81.07 234 41.14 234 0 C244.11716768 2.24825949 244.11716768 2.24825949 248.375 4.05859375 C249.75945312 4.63770508 249.75945312 4.63770508 251.171875 5.22851562 C252.57179688 5.82696289 252.57179688 5.82696289 254 6.4375 C259.97222743 8.96579794 265.89989937 11.40525438 272.08837891 13.35766602 C275.41859463 14.47666954 278.83349562 15.690042 281.20703125 18.35546875 C283.88275873 20.80967631 287.09097895 22.20173947 290.3125 23.8125 C311.07847831 34.53887783 329.67370935 48.18102546 347.5859375 63.08984375 C349.86102976 64.89003811 352.17289694 66.45374257 354.625 68 C361.22039163 72.26344959 366.37872266 78.05267863 371.4375 84 C374.07351162 87.08144877 376.89269825 89.75937407 379.9375 92.4375 C386.61880514 98.34475149 392.00330981 104.00661962 396 112 C397.99665598 113.67067133 399.99651034 115.33752986 402 117 C402.70710678 118.64991582 403.37943989 120.31562256 404 122 C404.66 122.495 405.32 122.99 406 123.5 C408.53275643 125.39956732 408.85137382 127.07699954 410 130 C410.90192575 131.4753333 411.84999938 132.92318518 412.8359375 134.34375 C413.39966064 135.16705811 413.96338379 135.99036621 414.54418945 136.83862305 C415.45044067 138.15600464 415.45044067 138.15600464 416.375 139.5 C445 181.81859107 445 181.81859107 445 192 C445.66 192 446.32 192 447 192 C447.33 194.31 447.66 196.62 448 199 C448.66 199 449.32 199 450 199 C450.42838542 200.28515625 450.85677083 201.5703125 451.28515625 202.85546875 C451.70498779 204.11447998 451.70498779 204.11447998 452.13330078 205.39892578 C452.76135805 207.28375766 453.38861578 209.16885611 454.01513672 211.05419922 C455.60780832 215.84331279 457.21058402 220.62820878 458.84765625 225.40234375 C461.79618196 234.03823009 464.58275003 242.68123051 466.9375 251.5 C467.14906738 252.2832666 467.36063477 253.0665332 467.57861328 253.87353516 C468.55489943 257.65155483 469.25595691 261.09083997 469 265 C469.66 265 470.32 265 471 265 C471.72270855 270.04819608 472.43428734 275.09780036 473.13623047 280.14892578 C473.37579682 281.86190557 473.6182372 283.57448626 473.86376953 285.28662109 C475.24032519 294.90003632 476.43951757 304.25736047 476 314 C476.66 314 477.32 314 478 314 C478.05112915 321.1675305 478.08591196 328.33501316 478.10986328 335.50268555 C478.11985889 337.93597165 478.13345985 340.36924594 478.15087891 342.80249023 C478.17541253 346.3201796 478.18654785 349.83770879 478.1953125 353.35546875 C478.20563507 354.42580856 478.21595764 355.49614838 478.22659302 356.59892273 C478.22770174 364.23271197 477.31657619 371.48879454 476 379 C475.73558831 380.68166838 475.47436467 382.363847 475.21875 384.046875 C475.04061768 385.20799805 475.04061768 385.20799805 474.85888672 386.39257812 C473.63166758 394.45382165 472.52037903 402.51231682 471.64648438 410.62011719 C471.29521597 413.81792552 470.89979262 416.90597627 470 420 C469.34 420 468.68 420 468 420 C467.67 423.96 467.34 427.92 467 432 C466.34 432 465.68 432 465 432 C464.79310547 433.52367187 464.79310547 433.52367187 464.58203125 435.078125 C463.09538437 445.09553079 460.77975038 454.59859043 457 464 C456.34 464 455.68 464 455 464 C454.80796997 465.08933838 454.80796997 465.08933838 454.61206055 466.20068359 C451.48690475 480.49387719 443.50850983 494.38369807 436.8125 507.3125 C436.24313721 508.41352051 435.67377441 509.51454102 435.0871582 510.64892578 C431.83546025 516.82400948 428.35588457 522.74193349 424.48706055 528.55151367 C422.92823158 530.95545972 422.92823158 530.95545972 421.98754883 533.6262207 C420.95366858 536.11136722 419.95145259 537.20166897 418 539 C417.05896075 540.2470203 416.14633092 541.51581063 415.2578125 542.80078125 C414.49404297 543.89616211 414.49404297 543.89616211 413.71484375 545.01367188 C413.19019531 545.77228516 412.66554688 546.53089844 412.125 547.3125 C406.32113379 555.69988272 406.32113379 555.69988272 403.171875 559.39453125 C400.92533245 561.79355577 400.92533245 561.79355577 400.125 564.375 C398.3375981 568.54560444 395.2767473 571.88554443 392 575 C391.34 575 390.68 575 390 575 C389.89526367 575.59820557 389.79052734 576.19641113 389.68261719 576.81274414 C388.89366209 579.34073009 388.03607423 580.24684066 386.078125 581.99609375 C385.16728149 582.82451782 385.16728149 582.82451782 384.23803711 583.66967773 C383.58198486 584.25305908 382.92593262 584.83644043 382.25 585.4375 C380.87978991 586.68561379 379.51133484 587.93565668 378.14453125 589.1875 C377.45182129 589.82042969 376.75911133 590.45335937 376.04541016 591.10546875 C372.94062471 593.98123087 369.92796003 596.94352694 366.9375 599.9375 C366.12998291 600.74405029 366.12998291 600.74405029 365.30615234 601.56689453 C362.51959529 604.37799502 359.87936475 607.24819129 357.375 610.3125 C356.59125 611.199375 355.8075 612.08625 355 613 C354.01 613 353.02 613 352 613 C351.773125 613.598125 351.54625 614.19625 351.3125 614.8125 C349.62618676 617.62302206 347.82757944 618.32196854 345 620 C342.58611474 621.74039692 340.23588894 623.56361311 337.875 625.375 C330.90062214 630.67680808 323.75124303 635.67246834 316.47216797 640.54638672 C313.12942232 642.79695519 309.90232816 645.01814701 306.8828125 647.69140625 C304.33241811 649.73379526 302.19138799 650.89114166 299.17919922 652.06982422 C296.30242459 653.29775513 293.57939677 654.75667149 290.81640625 656.22265625 C270.34985303 667.07107887 249.72753106 676.23760845 227.75 683.625 C227.08944611 683.84781647 226.42889221 684.07063293 225.74832153 684.30020142 C214.7124446 688 214.7124446 688 210 688 C210 688.66 210 689.32 210 690 C206.04 690.33 202.08 690.66 198 691 C198 691.66 198 692.32 198 693 C187.50566107 695.40601917 177.00482005 696.81912775 166.30688477 697.99731445 C165.26072998 698.11421631 164.2145752 698.23111816 163.13671875 698.3515625 C162.19530029 698.45291504 161.25388184 698.55426758 160.28393555 698.65869141 C157.97566458 698.88295607 157.97566458 698.88295607 156 700 C148.69214253 701.05225672 141.46847094 701.17623786 134.09375 701.203125 C132.85620972 701.20882507 131.61866943 701.21452515 130.34362793 701.22039795 C127.72469934 701.22981619 125.10575908 701.23636925 122.48681641 701.24023438 C118.56780902 701.2498339 114.64935097 701.28084426 110.73046875 701.3125 C71.80986104 701.47620781 71.80986104 701.47620781 57 696 C54.22436168 695.66122584 51.47448226 695.50209828 48.68359375 695.34375 C46 695 46 695 43.71875 694.08203125 C40.78234247 692.9133748 37.8797764 692.1192516 34.81640625 691.34375 C33.64142578 691.04339844 32.46644531 690.74304688 31.25585938 690.43359375 C30.03705078 690.12550781 28.81824219 689.81742188 27.5625 689.5 C25.14663594 688.88738301 22.73125347 688.27286304 20.31640625 687.65625 C19.24849854 687.38619141 18.18059082 687.11613281 17.08032227 686.83789062 C14.00884628 686.00240631 11.01596712 685.01525499 8 684 C6.31885625 683.63596286 4.63113482 683.30061347 2.9375 683 C-0.57588986 682.33229695 -3.7397162 681.52146577 -7 680 C-7 679.34 -7 678.68 -7 678 C-7.66386719 677.88785156 -8.32773437 677.77570312 -9.01171875 677.66015625 C-12.70424235 676.84442228 -16.23932148 675.65819352 -19.8125 674.4375 C-20.50537109 674.20353516 -21.19824219 673.96957031 -21.91210938 673.72851562 C-23.60900114 673.15508324 -25.30463078 672.57791831 -27 672 C-27 671.34 -27 670.68 -27 670 C-28.24007812 669.62746094 -29.48015625 669.25492188 -30.7578125 668.87109375 C-36.77059944 666.86017926 -42.27386569 664.00784572 -47.875 661.0625 C-48.96981689 660.48910889 -50.06463379 659.91571777 -51.19262695 659.32495117 C-64.59870085 652.21014857 -77.39756246 644.21591328 -89.55151367 635.12036133 C-91.80672515 633.45031622 -93.86267549 632.05376384 -96.484375 631.02734375 C-99.8882003 629.63727224 -102.53873118 627.474541 -105.375 625.1875 C-105.982229 624.70249023 -106.58945801 624.21748047 -107.21508789 623.71777344 C-117.31585428 615.58747806 -127.03678222 607.12918624 -136.25 598 C-137.19830688 597.06559082 -137.19830688 597.06559082 -138.16577148 596.11230469 C-140.62867853 593.63224039 -142.75208564 591.41632083 -144.546875 588.40234375 C-146.837785 584.61495222 -150.27317631 582.02446064 -153.6171875 579.19335938 C-157.17504453 576.07359668 -158.99989588 573.24065791 -161 569 C-162.5681914 566.93477166 -164.19666567 564.91426156 -165.875 562.9375 C-167.13957031 561.43509766 -167.13957031 561.43509766 -168.4296875 559.90234375 C-170.96091232 556.97389041 -170.96091232 556.97389041 -173.73828125 554.32421875 C-176.02345907 551.97589267 -176.86191794 550.04354248 -178.0234375 547.03125 C-179.21914367 544.54418116 -180.7545357 542.56354616 -182.4375 540.375 C-193.13086856 526.03883556 -215 496.43867342 -215 478 C-215.66 478 -216.32 478 -217 478 C-217.31453125 476.97261719 -217.6290625 475.94523437 -217.953125 474.88671875 C-220.21299658 467.55565633 -222.52749022 460.29465962 -225.30078125 453.13671875 C-226 451 -226 451 -226 448 C-226.66 448 -227.32 448 -228 448 C-228.19335938 447.0821875 -228.38671875 446.164375 -228.5859375 445.21875 C-230.25669907 437.2664846 -230.25669907 437.2664846 -232.1875 429.375 C-233 426 -233 426 -233 422 C-233.66 422 -234.32 422 -235 422 C-235 419.03 -235 416.06 -235 413 C-235.66 413 -236.32 413 -237 413 C-238.70648834 404.54052241 -239.71225213 396.08345464 -240.5625 387.5 C-240.81072543 385.01010802 -241.06188381 382.52050616 -241.31640625 380.03125 C-241.42412354 378.94392578 -241.53184082 377.85660156 -241.64282227 376.73632812 C-241.92277698 373.91370897 -241.92277698 373.91370897 -243 371 C-243.09902913 368.98818185 -243.13826541 366.97322618 -243.14526367 364.95898438 C-243.15164352 363.71338745 -243.15802338 362.46779053 -243.16459656 361.18444824 C-243.16612639 359.82088256 -243.16723973 358.45731635 -243.16796875 357.09375 C-243.17118457 355.68949347 -243.17454889 354.28523728 -243.17805481 352.88098145 C-243.1840464 349.93203965 -243.18589496 346.98312714 -243.18530273 344.03417969 C-243.18520175 340.28327409 -243.19878766 336.53256049 -243.21607494 332.78170013 C-243.22728655 329.87661913 -243.22921907 326.97158296 -243.22869301 324.06648254 C-243.22986193 322.68560634 -243.23422147 321.30472855 -243.24202538 319.9238739 C-243.28417606 311.68673149 -242.72961868 304.04954303 -241 296 C-240.64197576 293.78420245 -240.29273524 291.56694509 -239.95703125 289.34765625 C-236.93086264 269.93761125 -233.27040467 250.66667475 -227 232 C-226.59901675 230.38121576 -226.22105643 228.75640888 -225.875 227.125 C-225.70742187 226.34382812 -225.53984375 225.56265625 -225.3671875 224.7578125 C-225.24601562 224.17773438 -225.12484375 223.59765625 -225 223 C-224.34 223 -223.68 223 -223 223 C-222.92652344 222.23816406 -222.85304688 221.47632813 -222.77734375 220.69140625 C-221.68211301 215.49043615 -219.63460826 210.81917414 -217.5625 205.9375 C-216.89577271 204.35533691 -216.89577271 204.35533691 -216.21557617 202.74121094 C-210.33778393 188.92741661 -204.2136428 175.22324615 -196.39453125 162.38671875 C-195.15646344 160.26778477 -194.16372397 158.21009553 -193.25 155.9375 C-192.0262065 153.06158528 -191.15267566 152.1122143 -189 150 C-188.03166406 148.68226974 -187.09609681 147.34007875 -186.1875 145.98046875 C-185.66929687 145.20509766 -185.15109375 144.42972656 -184.6171875 143.63085938 C-183.81667969 142.42139648 -183.81667969 142.42139648 -183 141.1875 C-182.46632812 140.39279297 -181.93265625 139.59808594 -181.3828125 138.77929688 C-179.21351138 135.51725079 -177.17192575 132.34771019 -175.43359375 128.83203125 C-173.69243766 125.39241771 -171.46777929 122.48842912 -169.0625 119.5 C-168.58087402 118.89687988 -168.09924805 118.29375977 -167.60302734 117.67236328 C-166.07775554 115.77401758 -164.54085801 113.88570974 -163 112 C-162.51289551 111.40026367 -162.02579102 110.80052734 -161.52392578 110.18261719 C-154.72044699 101.85433862 -147.43749265 94.4630975 -139.43066406 87.29589844 C-134.93106143 83.22014916 -130.74437964 78.92390411 -126.875 74.25 C-123.51554785 70.34619217 -119.75903918 66.99150226 -115.875 63.625 C-114.9775708 62.83851074 -114.9775708 62.83851074 -114.06201172 62.03613281 C-110.81544945 59.27037568 -108.05355043 57.45729736 -104 56 C-101.31232422 53.56249975 -101.31232422 53.56249975 -99 51 C-96.74417924 48.74417924 -94.94065576 48.16820571 -92 47 C-90.57122315 46.12172442 -89.17008612 45.19721584 -87.796875 44.234375 C-86.9932251 43.68048096 -86.1895752 43.12658691 -85.36157227 42.5559082 C-84.49975342 41.9599585 -83.63793457 41.36400879 -82.75 40.75 C-46.35981125 16 -46.35981125 16 -38 16 C-38 15.34 -38 14.68 -38 14 C-34.56258162 12.10037405 -31.22929452 10.71472453 -27.46484375 9.65625 C-21.83472789 8.00212031 -16.40123961 5.94478511 -10.9375 3.8125 C-9.07216288 3.08842964 -7.20630652 2.365695 -5.33984375 1.64453125 C-4.52894287 1.32846924 -3.71804199 1.01240723 -2.88256836 0.68676758 C-1 0 -1 0 0 0 Z " fill="#FEFEFE" transform="translate(313,214)"/>
<path d="M0 0 C0 0.66 0 1.32 0 2 C0.87785156 2.0825 1.75570312 2.165 2.66015625 2.25 C11.65888318 4.27076675 19.20890771 13.45402965 24 21 C29.88072645 31.53630155 33.11875919 40.86413778 33.13142776 53.02791119 C33.1334804 53.70267729 33.13553303 54.3774434 33.13764787 55.07265696 C33.14328699 57.32601908 33.14186446 59.57931948 33.14044189 61.83268738 C33.1430273 63.46772291 33.14604095 65.10275781 33.1494453 66.73779184 C33.15749785 71.22523701 33.15930389 75.71266617 33.16004276 80.20011771 C33.16189634 85.0421279 33.16944516 89.88412984 33.17617798 94.72613525 C33.189749 105.3108985 33.19578398 115.89565796 33.20018864 126.48042846 C33.2029529 133.0913315 33.20719057 139.70223309 33.21169281 146.31313515 C33.22388342 164.62218604 33.23418344 182.93123577 33.2375679 201.24029064 C33.23789725 202.99735626 33.23789725 202.99735626 33.23823325 204.78991814 C33.23856067 206.55114635 33.23856067 206.55114635 33.2388947 208.34795493 C33.23933816 210.72716852 33.23978473 213.10638211 33.24023438 215.4855957 C33.2404558 216.66576353 33.24067723 217.84593136 33.24090537 219.06186185 C33.24485336 238.18454617 33.26230833 257.30719238 33.2855939 276.42986199 C33.309316 296.06975858 33.32177013 315.70963606 33.32293582 335.34954721 C33.32385205 346.37385752 33.32959132 357.39811816 33.34775543 368.42241478 C33.36316792 377.80962243 33.36827005 387.19676506 33.36001733 396.58398297 C33.35611504 401.37127217 33.35701993 406.15843047 33.37107468 410.94570351 C33.38383851 415.33348125 33.38259434 419.72103006 33.37048396 424.1088076 C33.36853128 425.69090319 33.37158549 427.27301514 33.38032833 428.85508778 C33.4755228 447.25516091 29.38719304 463.32789282 16.25 476.88671875 C4.53549028 487.8894093 -9.23288079 493.60718442 -25.3125 493.4375 C-26.3221582 493.42992676 -27.33181641 493.42235352 -28.37207031 493.41455078 C-43.49681245 493.08152448 -56.84232891 487.63275476 -67.9375 477.19140625 C-83.42882778 460.73187048 -85.16127368 441.68633153 -85.12698364 420.1730957 C-85.12813759 418.58751801 -85.12972695 417.00194059 -85.13171089 415.41636372 C-85.13586659 411.08424165 -85.13383057 406.75214175 -85.13072467 402.42001963 C-85.12845543 397.73829406 -85.13195776 393.05657223 -85.13470459 388.37484741 C-85.13914496 379.21316957 -85.13819352 370.05149993 -85.13529195 360.88982177 C-85.13303111 353.44214164 -85.13272835 345.99446382 -85.13381577 338.54678345 C-85.133969 337.48571107 -85.13412223 336.4246387 -85.13428011 335.33141261 C-85.13459984 333.17568453 -85.13492406 331.01995645 -85.1352527 328.86422837 C-85.13810242 308.66265705 -85.13482843 288.46109027 -85.12945233 268.2595197 C-85.12498476 250.93570617 -85.12576083 233.61189934 -85.13037109 216.28808594 C-85.13572582 196.15747435 -85.13782777 176.02686674 -85.13475883 155.89625454 C-85.13444029 153.74857521 -85.13412592 151.60089588 -85.13381577 149.45321655 C-85.13366149 148.39659091 -85.13350721 147.33996526 -85.13334826 146.25132066 C-85.13248581 138.81489517 -85.13394015 131.37847221 -85.13629532 123.94204712 C-85.13910348 114.87625158 -85.13833359 105.8104647 -85.13301457 96.74467015 C-85.1303913 92.12156781 -85.1293492 87.49847988 -85.13266373 82.87537766 C-85.135655 78.63899603 -85.1339869 74.40264212 -85.12868617 70.16626298 C-85.12757404 68.63814266 -85.12812629 67.11001998 -85.13056196 65.58190119 C-85.16354677 43.15811211 -85.16354677 43.15811211 -81.9375 34.3125 C-81.57527344 33.29800781 -81.21304687 32.28351563 -80.83984375 31.23828125 C-80.56269531 30.49964844 -80.28554688 29.76101562 -80 29 C-79.34 29 -78.68 29 -78 29 C-77.979375 28.195625 -77.95875 27.39125 -77.9375 26.5625 C-75.42173339 17.00258686 -65.57599344 8.11532986 -57.5 2.8125 C-39.175695 -7.35219806 -19.24302682 -7.80581335 0 0 Z " fill="#FCFDFC" transform="translate(456,84)"/>
<path d="M0 0 C0.66 0.33 1.32 0.66 2 1 C-8.56 11.56 -19.12 22.12 -30 33 C-30 29.48421611 -29.57937105 29.18270422 -27.25390625 26.7421875 C-26.66810791 26.12077881 -26.08230957 25.49937012 -25.47875977 24.85913086 C-24.84639404 24.20436768 -24.21402832 23.54960449 -23.5625 22.875 C-22.92304443 22.20283447 -22.28358887 21.53066895 -21.62475586 20.83813477 C-19.7587625 18.88325098 -17.88191087 16.93955218 -16 15 C-15.113125 14.08347656 -14.22625 13.16695313 -13.3125 12.22265625 C-9.05936279 7.90306377 -4.66495475 3.8709199 0 0 Z " fill="#579557" transform="translate(269,362)"/>
<path d="M0 0 C-1.53218685 3.63061667 -3.7183144 5.9863773 -6.5 8.75 C-7.69109375 9.94882813 -7.69109375 9.94882813 -8.90625 11.171875 C-11 13 -11 13 -13 13 C-11.46781315 9.36938333 -9.2816856 7.0136227 -6.5 4.25 C-5.7059375 3.45078125 -4.911875 2.6515625 -4.09375 1.828125 C-2 0 -2 0 0 0 Z " fill="#BAD1BA" transform="translate(396,90)"/>
</svg>
