<?xml version="1.0" encoding="UTF-8"?>
<svg version="1.1" xmlns="http://www.w3.org/2000/svg" width="512" height="512">
<path d="M0 0 C168.96 0 337.92 0 512 0 C512 168.96 512 337.92 512 512 C343.04 512 174.08 512 0 512 C0 343.04 0 174.08 0 0 Z " fill="#FDFEFD" transform="translate(0,0)"/>
<path d="M0 0 C3.3543091 1.53799533 6.36362898 3.53043162 9.4375 5.5625 C11.3176047 6.76578694 13.19781717 7.96890551 15.078125 9.171875 C16.05201172 9.80287109 17.02589844 10.43386719 18.02929688 11.08398438 C22.88187197 14.21375174 27.78676433 17.25893362 32.6875 20.3125 C34.17467529 21.24328369 34.17467529 21.24328369 35.69189453 22.19287109 C43.20855518 26.896349 50.75562085 31.54897954 58.3125 36.1875 C66.49222909 41.20866635 74.63803245 46.27627985 82.73950195 51.42260742 C89.4544226 55.67818033 96.2242059 59.84220414 103 64 C113.06602015 70.1779585 123.08507371 76.42330439 133.05078125 82.76171875 C134.85437868 83.90749106 136.66083539 85.04855614 138.46875 86.1875 C139.93828125 87.115625 139.93828125 87.115625 141.4375 88.0625 C142.64212891 88.82240234 142.64212891 88.82240234 143.87109375 89.59765625 C144.57363281 90.06042969 145.27617187 90.52320312 146 91 C147.09828125 91.69029297 147.09828125 91.69029297 148.21875 92.39453125 C150.48797187 94.43981676 150.79858149 95.60193342 151.0625 98.625 C150.85773833 102.10095412 150.42433233 103.55490777 148.00390625 106.09375 C145.20672567 108.06733739 142.3773899 109.84667284 139.42382812 111.57275391 C136.59379823 113.23918771 133.80542328 114.9662812 131.015625 116.69921875 C126.51782341 119.48940322 122.00995135 122.26188594 117.4921875 125.01953125 C112.13005757 128.29829082 106.80315478 131.62690495 101.5 135 C92.92515715 140.44795462 84.27212473 145.76497076 75.61328125 151.078125 C69.21420069 155.00909594 62.839096 158.97306991 56.5 163 C47.94231096 168.4362981 39.30789591 173.74397744 30.66601562 179.04516602 C22.94154961 183.78929466 15.25689224 188.5918145 7.609375 193.45898438 C6.89265625 193.91466797 6.1759375 194.37035156 5.4375 194.83984375 C4.81746094 195.23550537 4.19742188 195.63116699 3.55859375 196.03881836 C-0.09798995 198.2938262 -2.68793813 198.35933849 -7 198 C-12.53846154 194.92307692 -12.53846154 194.92307692 -14 192 C-14.11902812 190.30536742 -14.17714687 188.60628878 -14.20532227 186.90771484 C-14.22526749 185.84676605 -14.24521271 184.78581726 -14.26576233 183.69271851 C-14.29083107 181.96923691 -14.29083107 181.96923691 -14.31640625 180.2109375 C-14.33718735 179.03737701 -14.35796844 177.86381653 -14.37937927 176.6546936 C-14.44491983 172.89485696 -14.50378076 169.13494878 -14.5625 165.375 C-14.60568092 162.83072168 -14.64929507 160.28645067 -14.69335938 157.7421875 C-14.80060582 151.49486793 -14.9023638 145.24747674 -15 139 C-23.30583735 138.8391221 -31.30647988 138.72447892 -39.4375 140.625 C-40.23188477 140.80321289 -41.02626953 140.98142578 -41.84472656 141.16503906 C-61.11308819 145.70736125 -77.79121833 154.45431553 -93 167 C-93.72574219 167.56074219 -94.45148438 168.12148437 -95.19921875 168.69921875 C-116.25874496 185.65790416 -127.79762489 213.4188831 -132.6171875 239.31640625 C-133.91998088 251.85246908 -133.96513166 265.05623725 -131.5 277.4375 C-131.3652124 278.11780273 -131.2304248 278.79810547 -131.09155273 279.49902344 C-130.96208252 280.14516602 -130.8326123 280.79130859 -130.69921875 281.45703125 C-128.88547724 290.64733039 -128.88547724 290.64733039 -130 295 C-134.65366221 300.4933348 -141.14437938 304.14407251 -147.3125 307.6875 C-149.07536717 308.72200382 -150.83705558 309.75851855 -152.59765625 310.796875 C-153.48984863 311.32216797 -154.38204102 311.84746094 -155.30126953 312.38867188 C-159.66616275 314.99481402 -163.95985208 317.71058459 -168.25 320.4375 C-169.39142456 321.16296021 -169.39142456 321.16296021 -170.5559082 321.90307617 C-171.28511475 322.36689697 -172.01432129 322.83071777 -172.765625 323.30859375 C-173.8184668 323.97737549 -173.8184668 323.97737549 -174.89257812 324.65966797 C-176.3358694 325.57760925 -177.77718368 326.49866433 -179.21679688 327.42236328 C-179.92384766 327.87208496 -180.63089844 328.32180664 -181.359375 328.78515625 C-181.98811523 329.18742432 -182.61685547 329.58969238 -183.26464844 330.00415039 C-187.17397695 332.24755937 -190.58411107 332.60908813 -195 332 C-203.33719871 323.86130602 -205.25904872 309.47862351 -207.6875 298.5 C-207.88988281 297.58798828 -208.09226563 296.67597656 -208.30078125 295.73632812 C-211.06739593 282.66868478 -212.36978491 269.79224899 -212.3125 256.4375 C-212.31034485 255.74512238 -212.3081897 255.05274475 -212.30596924 254.33938599 C-212.05468276 203.64560721 -192.06425603 157.0549474 -157.8125 120.0625 C-156.97561646 119.15830322 -156.97561646 119.15830322 -156.12182617 118.23583984 C-127.01886791 87.41290912 -84.62223663 66.30849843 -42.5546875 61.359375 C-40.01553556 61.14037548 -40.01553556 61.14037548 -38 60 C-36.02596804 59.76451165 -34.04497373 59.58600873 -32.0625 59.4375 C-31.00160156 59.35371094 -29.94070312 59.26992188 -28.84765625 59.18359375 C-23.90368415 58.94768848 -18.9495971 59 -14 59 C-14 41.51 -14 24.02 -14 6 C-13.34 6 -12.68 6 -12 6 C-11.731875 5.38125 -11.46375 4.7625 -11.1875 4.125 C-8.5202089 -0.64804723 -4.97450111 -0.60251715 0 0 Z " fill="#006400" transform="translate(272,0)"/>
<path d="M0 0 C2.95480051 1.03074436 4.45129722 2.0185804 5.9909668 4.77246094 C8.68545957 10.81636268 10.51593407 16.90115428 12.125 23.3125 C12.51401489 24.83870972 12.51401489 24.83870972 12.91088867 26.39575195 C25.37531805 76.09035373 16.7613373 130.09768997 -9.24707031 174.11035156 C-11.98207282 178.53979566 -14.92434037 182.8013315 -18 187 C-18.42361816 187.57911133 -18.84723633 188.15822266 -19.28369141 188.75488281 C-30.15718782 203.43553423 -42.63302006 216.70292024 -57 228 C-57.90830566 228.72002197 -57.90830566 228.72002197 -58.83496094 229.45458984 C-89.44812356 253.33476901 -130.65773752 269.11978813 -169.75830078 269.01416016 C-170.74194611 269.01211578 -171.72559143 269.01007141 -172.73904419 269.00796509 C-173.85821732 269.00402237 -173.85821732 269.00402237 -175 269 C-174.99000725 269.96053535 -174.99000725 269.96053535 -174.97981262 270.94047546 C-174.91342208 277.60764544 -174.8681838 284.27472144 -174.83520508 290.94213867 C-174.82012239 293.4301332 -174.79965346 295.91810117 -174.77368164 298.40600586 C-174.73727663 301.98297688 -174.72026816 305.55959622 -174.70703125 309.13671875 C-174.69154739 310.24834885 -174.67606354 311.35997894 -174.66011047 312.5052948 C-174.65977058 314.06634697 -174.65977058 314.06634697 -174.65942383 315.65893555 C-174.64943108 317.02794258 -174.64943108 317.02794258 -174.63923645 318.42460632 C-175.18973925 322.3544973 -177.02951634 324.99485621 -179.75 327.8125 C-183.07503603 329.56738013 -185.25451569 329.37643058 -189 329 C-192.02839958 327.63040422 -194.69567985 325.80573969 -197.4375 323.9375 C-199.13207646 322.82570025 -200.82742558 321.71507752 -202.5234375 320.60546875 C-203.41514648 320.01556152 -204.30685547 319.4256543 -205.22558594 318.81787109 C-209.95625406 315.71820946 -214.76115748 312.7385345 -219.5625 309.75 C-220.56168457 309.12561035 -221.56086914 308.5012207 -222.59033203 307.85791016 C-231.2467439 302.45228202 -239.94140778 297.10966076 -248.63891602 291.77050781 C-255.70719953 287.42617697 -262.73648737 283.02594441 -269.73950195 278.57739258 C-276.45442349 274.3218191 -283.22424003 270.15785271 -290 266 C-300.01494991 259.85234584 -309.98923696 253.64740754 -319.89990234 247.33300781 C-321.99675145 246.00206197 -324.10098829 244.68352616 -326.20703125 243.3671875 C-327.4923048 242.55747783 -328.77746778 241.74759261 -330.0625 240.9375 C-331.16722656 240.24527344 -332.27195312 239.55304688 -333.41015625 238.83984375 C-336 237 -336 237 -338 234 C-338.66736246 227.10392128 -338.66736246 227.10392128 -336.54296875 223.58984375 C-333.08514915 220.06828554 -329.2022231 217.87523779 -324.9375 215.4375 C-323.11737396 214.37169458 -321.298389 213.30393844 -319.48046875 212.234375 C-318.56056152 211.69490234 -317.6406543 211.15542969 -316.69287109 210.59960938 C-312.66263656 208.20558429 -308.7035629 205.70552285 -304.75 203.1875 C-303.17326669 202.18605682 -301.59644158 201.18475817 -300.01953125 200.18359375 C-299.2095166 199.66909668 -298.39950195 199.15459961 -297.56494141 198.62451172 C-283.23936724 189.55137537 -268.81226306 180.64167565 -254.36108398 171.77050781 C-247.29869132 167.42979763 -240.27500097 163.03362879 -233.27807617 158.58837891 C-225.3167454 153.54247706 -217.28185121 148.6162763 -209.24414062 143.69335938 C-208.20451172 143.05591797 -207.16488281 142.41847656 -206.09375 141.76171875 C-205.08070801 141.14135742 -204.06766602 140.52099609 -203.02392578 139.88183594 C-199.08556756 137.4309345 -195.20969008 134.88763772 -191.34521484 132.32202148 C-188.03009354 130.45325385 -185.70793882 130.25841224 -182 131 C-179.0625 132.375 -179.0625 132.375 -177 134 C-177 134.66 -177 135.32 -177 136 C-176.34 136 -175.68 136 -175 136 C-175 154.15 -175 172.3 -175 191 C-143.99822933 186.77248582 -119.75023606 179.81992901 -97 158 C-96.154375 157.195625 -95.30875 156.39125 -94.4375 155.5625 C-93.633125 154.716875 -92.82875 153.87125 -92 153 C-91.01966797 152.01193359 -91.01966797 152.01193359 -90.01953125 151.00390625 C-75.89072782 136.19419663 -67.33975596 116.82330739 -63 97 C-62.77441406 96.00355469 -62.54882812 95.00710938 -62.31640625 93.98046875 C-59.43239686 78.80461244 -60.06638579 62.72783186 -63.34375 47.69140625 C-64.109071 43.38647563 -64.60210144 40.356381 -64 36 C-61.60936114 33.78800942 -59.78491981 32.48731678 -57 30.9375 C-55.43866503 30.00022828 -53.87747555 29.06271415 -52.31640625 28.125 C-51.46449707 27.62742188 -50.61258789 27.12984375 -49.73486328 26.6171875 C-45.78495562 24.28151634 -41.9108566 21.82997974 -38.02905273 19.38330078 C-34.95443026 17.44815578 -31.86887539 15.53150044 -28.78125 13.6171875 C-25.20867197 11.39547587 -21.66597102 9.13997265 -18.15625 6.8203125 C-17.07355835 6.11370483 -17.07355835 6.11370483 -15.96899414 5.39282227 C-14.66531334 4.53910796 -13.36938941 3.67335958 -12.08374023 2.79272461 C-7.91518944 0.08547175 -4.92497842 -0.47584333 0 0 Z " fill="#006400" transform="translate(434,183)"/>
<path d="M0 0 C0.66 0.33 1.32 0.66 2 1 C-3.94 6.94 -9.88 12.88 -16 19 C-16 13.77719767 -11.50919035 10.58625028 -8 7 C-5.39703481 4.58610154 -2.73530762 2.26244859 0 0 Z " fill="#B5D2B4" transform="translate(181,164)"/>
</svg>
