<?xml version="1.0" encoding="UTF-8"?>
<svg version="1.1" xmlns="http://www.w3.org/2000/svg" width="384" height="384">
<path d="M0 0 C126.72 0 253.44 0 384 0 C384 126.72 384 253.44 384 384 C257.28 384 130.56 384 0 384 C0 257.28 0 130.56 0 0 Z " fill="#006400" transform="translate(0,0)"/>
<path d="M0 0 C9.90152739 1.28633589 19.6082619 3.04633578 29.375 5.125 C30.70824702 5.40535872 32.04158013 5.68530832 33.375 5.96484375 C36.58419728 6.63924028 39.79248146 7.31767216 43 8 C43.34462554 21.9953314 43.33337527 35.35587377 40 49 C39.76651855 50.00474365 39.76651855 50.00474365 39.52832031 51.02978516 C35.43845173 68.18519199 27.63474348 84.92584544 17 99 C16.3503125 99.87011719 15.700625 100.74023438 15.03125 101.63671875 C-8.72925368 132.00228781 -42.61105405 151.94886555 -80.94384766 157.05249023 C-117.92687118 161.33833572 -155.5534433 152.78290235 -186 131 C-189.93214301 132.58939426 -192.33020346 135.16342502 -195.25 138.1875 C-199.05091145 142.07955737 -202.93574478 145.77466876 -207.08203125 149.296875 C-209.9884851 151.87775866 -212.65612913 154.68282879 -215.3359375 157.49609375 C-217 159 -217 159 -219 159 C-220.37053531 153.15648338 -221.48601258 147.33588259 -222.32861328 141.39428711 C-222.44594818 140.58652328 -222.56328308 139.77875946 -222.68417358 138.94651794 C-223.06648293 136.30729759 -223.44367156 133.66737856 -223.8203125 131.02734375 C-224.08635487 129.17605074 -224.35254178 127.32477849 -224.61886597 125.473526 C-225.17425547 121.60663214 -225.72692156 117.73936058 -226.27783203 113.87182617 C-226.98221243 108.92945422 -227.69489408 103.98831942 -228.40980721 99.04746151 C-228.96104244 95.22948759 -229.5070976 91.41078597 -230.05169296 87.59185982 C-230.31226509 85.77005316 -230.57460205 83.94849797 -230.83877945 82.12721062 C-231.20795479 79.57764711 -231.56992956 77.02715677 -231.93017578 74.47631836 C-232.03924255 73.73375793 -232.14830933 72.99119751 -232.26068115 72.22613525 C-232.92675958 67.43982929 -233.09312254 62.83304304 -233 58 C-221.94229504 58.64093513 -211.05307682 60.13769131 -200.09375 61.6875 C-198.19621 61.95302562 -196.29862616 62.21823812 -194.40100098 62.4831543 C-190.45058005 63.03547733 -186.50053759 63.59040553 -182.55078125 64.14746094 C-177.49308858 64.86072529 -172.43473318 65.56914949 -167.37612152 66.27586365 C-163.46917938 66.82191364 -159.56246829 67.3696009 -155.65583801 67.9178772 C-153.78998467 68.17971405 -151.92408943 68.44125258 -150.05815125 68.70248413 C-147.45716934 69.06705431 -144.85647535 69.433611 -142.25585938 69.80078125 C-141.49009583 69.90782379 -140.72433228 70.01486633 -139.93536377 70.12515259 C-136.26425617 70.64561144 -132.62608614 71.22315684 -129 72 C-134.07523905 78.15257006 -139.63533256 83.71672564 -145.3125 89.3125 C-147.12337021 91.09795449 -148.93208208 92.88560159 -150.73828125 94.67578125 C-151.92997925 95.8500769 -151.92997925 95.8500769 -153.14575195 97.0480957 C-155.05600947 98.86885984 -155.05600947 98.86885984 -156 101 C-155.32710938 101.26039063 -154.65421875 101.52078125 -153.9609375 101.7890625 C-151.14719608 102.93980107 -148.39394933 104.19297415 -145.63232422 105.46240234 C-119.66273416 117.26905859 -90.90927855 118.77579395 -64.03466797 108.92871094 C-52.36714581 104.40012525 -42.53335211 98.0133029 -33 90 C-32.16855469 89.36191406 -31.33710938 88.72382813 -30.48046875 88.06640625 C-17.97987736 77.65252775 -8.90960136 61.31931897 -4 46 C-3.78972168 45.3517627 -3.57944336 44.70352539 -3.36279297 44.03564453 C1.07652153 29.63511286 0.414502 14.91888336 0 0 Z " fill="#FFFFFF" transform="translate(293,177)"/>
<path d="M0 0 C2.13869374 11.72249962 4.01422288 23.46206793 5.69921875 35.2578125 C5.94145573 36.94311915 6.18379283 38.62841142 6.42622375 40.31369019 C6.92808349 43.80748686 7.42776909 47.30158614 7.92602539 50.79589844 C8.56295442 55.26045104 9.20698172 59.7239488 9.85277081 64.18722725 C10.35287161 67.65093165 10.84847706 71.11526831 11.34281349 74.57979965 C11.57847406 76.22656457 11.81569037 77.87310769 12.05454063 79.51941299 C12.38699784 81.81454653 12.71317736 84.11049121 13.0378418 86.40673828 C13.224207 87.70781525 13.4105722 89.00889221 13.60258484 90.34939575 C13.99264687 93.93245513 14.07157419 97.39906094 14 101 C2.94229504 100.35906487 -7.94692318 98.86230869 -18.90625 97.3125 C-20.80379 97.04697438 -22.70137384 96.78176188 -24.59899902 96.5168457 C-28.54941995 95.96452267 -32.49946241 95.40959447 -36.44921875 94.85253906 C-41.50691142 94.13927471 -46.56526682 93.43085051 -51.62387848 92.72413635 C-55.53082062 92.17808636 -59.43753171 91.6303991 -63.34416199 91.0821228 C-65.21001533 90.82028595 -67.07591057 90.55874742 -68.94184875 90.29751587 C-71.54283066 89.93294569 -74.14352465 89.566389 -76.74414062 89.19921875 C-77.50990417 89.09217621 -78.27566772 88.98513367 -79.06463623 88.87484741 C-82.73574383 88.35438856 -86.37391386 87.77684316 -90 87 C-84.75541414 80.63409696 -78.97902678 74.86429388 -73.125 69.0625 C-72.14039081 68.08291763 -71.156014 67.10310163 -70.171875 66.12304688 C-67.78351797 63.74639748 -65.39284788 61.37212644 -63 59 C-89.21232103 45.11883657 -117.75389308 38.51801831 -146.99462891 47.35400391 C-174.22795849 56.12675653 -195.7142347 73.4239023 -208.96875 98.6953125 C-215.05887572 110.80277989 -219.16021826 124.07242007 -219.09765625 137.7109375 C-219.09443359 138.95488281 -219.09121094 140.19882813 -219.08789062 141.48046875 C-219.07951172 142.76566406 -219.07113281 144.05085937 -219.0625 145.375 C-219.05798828 146.68339844 -219.05347656 147.99179688 -219.04882812 149.33984375 C-219.03707594 152.55994281 -219.02064543 155.7799477 -219 159 C-224.54577012 158.3640923 -229.96995986 157.4879787 -235.4375 156.37109375 C-236.20304199 156.21713638 -236.96858398 156.06317902 -237.75732422 155.90455627 C-240.1721113 155.41827414 -242.5860584 154.92796005 -245 154.4375 C-246.64968544 154.10454934 -248.29942457 153.77186458 -249.94921875 153.43945312 C-253.96677248 152.62937185 -257.98357872 151.81567669 -262 151 C-262.34462554 137.0046686 -262.33337527 123.64412623 -259 110 C-258.8443457 109.3301709 -258.68869141 108.6603418 -258.52832031 107.97021484 C-254.43895965 90.81693852 -246.6370734 74.07042581 -236 60 C-235.33871094 59.11828125 -234.67742187 58.2365625 -233.99609375 57.328125 C-209.2711592 25.81863198 -174.51706254 6.70021597 -134.84375 1.59375 C-100.00421407 -1.77781799 -63.81585444 6.26368297 -35.234375 26.9453125 C-33.08644786 28.25214183 -33.08644786 28.25214183 -31 27.47265625 C-28.48889439 25.62365857 -26.4122679 23.56084544 -24.25 21.3125 C-20.63562757 17.61874896 -16.95179727 14.15231926 -13.01953125 10.8046875 C-9.81214175 7.93850965 -6.8577525 4.82716681 -3.8828125 1.72265625 C-2 0 -2 0 0 0 Z " fill="#FFFFFF" transform="translate(310,48)"/>
</svg>
