<?xml version="1.0" encoding="UTF-8"?>
<svg version="1.1" xmlns="http://www.w3.org/2000/svg" width="512" height="372">
<path d="M0 0 C168.96 0 337.92 0 512 0 C512 122.76 512 245.52 512 372 C343.04 372 174.08 372 0 372 C0 249.24 0 126.48 0 0 Z " fill="#006400" transform="translate(0,0)"/>
<path d="M0 0 C74.91 0 149.82 0 227 0 C227 0.33 227 0.66 227 1 C226.4330542 1.06469482 225.8661084 1.12938965 225.28198242 1.19604492 C192.39143499 5.05131082 161.72011546 14.95069957 135 35 C134.17886719 35.598125 133.35773438 36.19625 132.51171875 36.8125 C109.41948485 54.34899187 93.4630737 77.33793012 87.40625 105.7890625 C86.85558046 110.14146986 86.85536259 114.43008411 86.875 118.8125 C86.87113281 119.66392578 86.86726563 120.51535156 86.86328125 121.39257812 C86.87182731 127.00306814 87.29092104 132.43429296 88 138 C87.319375 138.27972656 86.63875 138.55945313 85.9375 138.84765625 C83.84635373 139.71247871 81.7581076 140.58432803 79.671875 141.4609375 C77.18714813 142.50240812 74.69972826 143.52744191 72.203125 144.5390625 C44.87589736 155.80468397 20.79853174 175.31729632 9 203 C5.28964728 212.38875203 2.28280895 221.95870233 1 232 C0.67 232 0.34 232 0 232 C0 155.44 0 78.88 0 0 Z " fill="#FFFFFF" transform="translate(0,0)"/>
<path d="M0 0 C87.12 0 174.24 0 264 0 C264 84.15 264 168.3 264 255 C263.67 255 263.34 255 263 255 C262.70609375 253.5459375 262.70609375 253.5459375 262.40625 252.0625 C256.82189686 226.32845246 241.42900954 206.70035119 219.72900391 192.10644531 C216.88361409 190.28558868 213.95141642 188.64259262 211 187 C212.21466272 183.35601185 213.45096495 182.69133918 216.5 180.4375 C230.54326983 169.44798842 237.62710886 156.60600477 240 139 C241.20039376 119.19350299 237.07782565 102.51828086 223.94921875 87.1640625 C222.98435547 86.09285156 222.98435547 86.09285156 222 85 C221.47019531 84.38898438 220.94039062 83.77796875 220.39453125 83.1484375 C206.4290288 68.04500523 183.2987028 57.1185604 162.73144531 55.86132812 C144.52317458 55.15488324 130.39020004 57.62730355 114.328125 66.29296875 C111.70764706 67.63704018 109.80330602 68.38472398 107 69 C106.68885254 68.51233154 106.37770508 68.02466309 106.05712891 67.5222168 C99.69283569 57.60676473 93.34417603 48.37309865 85 40 C84.16726563 39.16339844 83.33453125 38.32679687 82.4765625 37.46484375 C81.65929687 36.65144531 80.84203125 35.83804688 80 35 C79.32582031 34.31679688 78.65164063 33.63359375 77.95703125 32.9296875 C56.66459212 12.52928134 28.53732592 4.37438856 0 1 C0 0.67 0 0.34 0 0 Z " fill="#FFFFFF" transform="translate(248,0)"/>
<path d="M0 0 C10.10446017 1.41876495 20.04035166 3.37287094 30.01953125 5.4765625 C31.61514637 5.81030705 33.21082528 6.14374673 34.80656433 6.47689819 C38.96138229 7.34516118 43.11533346 8.21750119 47.269104 9.09075928 C51.52588155 9.98489606 55.78348487 10.87508296 60.04101562 11.765625 C68.36147986 13.50660124 76.68103054 15.25189524 85 17 C82.9564171 27.64121537 80.90551225 38.28099054 78.84520149 48.9189806 C77.88878749 53.85846568 76.93491952 58.79841434 75.98681641 63.73950195 C75.07205707 68.50631493 74.15068035 73.27180474 73.2246666 78.03644371 C72.87223321 79.85607884 72.52220226 81.67618095 72.17459488 83.49674416 C71.68798163 86.04312765 71.1929163 88.5877292 70.69580078 91.13208008 C70.55337952 91.88805481 70.41095825 92.64402954 70.26422119 93.4229126 C69.58666154 96.84625031 68.96289482 99.05565777 67 102 C61.72 94.08 56.44 86.16 51 78 C26.18188353 87.92724659 6.81970568 101.93506265 -4.17919922 126.98779297 C-7.57357424 135.30916087 -9.45395141 144.17124882 -11 153 C-24.84184256 136.63380925 -26.62420193 110.20165265 -25 90 C-21.78639244 65.75749676 -7.08308608 43.92882391 11.9375 29.0625 C13.28792308 28.03671953 14.64074457 27.0140477 16 26 C12.40245791 19.05302216 8.14588678 12.71479157 3.65893555 6.32226562 C0 1.09432148 0 1.09432148 0 0 Z " fill="#FFFFFF" transform="translate(189,96)"/>
<path d="M0 0 C13.98920681 15.52648228 15.02432498 40.32429298 14.20263672 59.98632812 C12.59609087 83.87934254 -2.38915902 104.6992938 -19.33740234 120.56689453 C-21.74895449 122.64557457 -24.29666127 124.32220707 -27 126 C-23.40245791 132.94697784 -19.14588678 139.28520843 -14.65893555 145.67773438 C-11 150.90567852 -11 150.90567852 -11 152 C-20.05715748 151.33422967 -28.79098234 149.52631056 -37.65625 147.65625 C-39.2513462 147.32339739 -40.84652179 146.990925 -42.44177246 146.65881348 C-45.7639503 145.96603779 -49.08537396 145.2697895 -52.40625 144.57080078 C-56.66667312 143.67418747 -60.92854874 142.78471741 -65.19095612 141.89759064 C-68.47528238 141.2135208 -71.75900272 140.52658053 -75.04252625 139.83866882 C-76.6148991 139.50944384 -78.18741871 139.18091896 -79.76008606 138.85310364 C-81.94807804 138.39640235 -84.13526871 137.93604885 -86.32226562 137.47460938 C-88.18896912 137.08275452 -88.18896912 137.08275452 -90.09338379 136.6829834 C-93 136 -93 136 -95 135 C-94.30205333 125.99110199 -92.63601692 117.23276548 -90.91015625 108.37890625 C-90.60229542 106.78616596 -90.29463592 105.19338674 -89.98716736 103.60057068 C-89.34552248 100.28266711 -88.70040731 96.96546122 -88.05297852 93.64868164 C-87.22364074 89.39767354 -86.40474065 85.14472844 -85.58857059 80.89117527 C-84.9576334 77.6106286 -84.32041718 74.3313254 -83.68136406 71.052351 C-83.37662355 69.48386777 -83.07403236 67.91496535 -82.77363777 66.345644 C-82.35437335 64.15952265 -81.92648824 61.97526138 -81.49633789 59.79125977 C-81.25508682 58.54901138 -81.01383575 57.306763 -80.76527405 56.02687073 C-80 53 -80 53 -78 50 C-77.65219482 50.55461914 -77.30438965 51.10923828 -76.94604492 51.68066406 C-75.36166115 54.20490967 -73.77460892 56.72746702 -72.1875 59.25 C-71.64029297 60.12269531 -71.09308594 60.99539062 -70.52929688 61.89453125 C-69.99755859 62.73886719 -69.46582031 63.58320313 -68.91796875 64.453125 C-68.43094482 65.22817383 -67.9439209 66.00322266 -67.44213867 66.80175781 C-66.01907175 69.03580196 -66.01907175 69.03580196 -64.31762695 71.15917969 C-63 73 -63 73 -63 75 C-47.84180927 68.87766582 -34.69352134 61.67245194 -23 50 C-22.37738281 49.38898438 -21.75476563 48.77796875 -21.11328125 48.1484375 C-8.65945535 34.99495846 -3.25263396 17.4002695 0 0 Z " fill="#FFFFFF" transform="translate(344,167)"/>
<path d="M0 0 C0.33 0 0.66 0 1 0 C1.1959375 1.13953125 1.391875 2.2790625 1.59375 3.453125 C7.77368389 37.02335751 25.63112126 66.67875534 53.85546875 86.296875 C73.9880193 99.72826612 95.97001877 106.85446596 120 109 C120 109.33 120 109.66 120 110 C80.4 110 40.8 110 0 110 C0 73.7 0 37.4 0 0 Z " fill="#FFFFFF" transform="translate(0,262)"/>
<path d="M0 0 C0.33 0 0.66 0 1 0 C1 29.7 1 59.4 1 90 C-27.05 90 -55.1 90 -84 90 C-80.80371027 88.40185513 -77.79752251 87.24388717 -74.41650391 86.14916992 C-59.77939071 81.34105802 -47.55946105 74.20958978 -36 64 C-35.319375 63.46246094 -34.63875 62.92492187 -33.9375 62.37109375 C-15.48487763 47.52714955 -3.65853799 23.04878934 0 0 Z " fill="#FFFFFF" transform="translate(511,282)"/>
</svg>
