<?xml version="1.0" encoding="UTF-8"?>
<svg version="1.1" xmlns="http://www.w3.org/2000/svg" width="225" height="225">
<path d="M0 0 C74.25 0 148.5 0 225 0 C225 74.25 225 148.5 225 225 C150.75 225 76.5 225 0 225 C0 150.75 0 76.5 0 0 Z " fill="#FBFCFB" transform="translate(0,0)"/>
<path d="M0 0 C11.422144 8.06387279 20.6443027 18.50596332 23.21875 32.56640625 C24.68541206 47.74972839 22.92679193 60.38100092 13.21875 72.56640625 C10.57836869 75.55687007 7.87846262 78.4827635 5.15625 81.3984375 C-7.30552605 94.77578952 -16.37395467 108.83054836 -23.78125 125.56640625 C-27.19133694 122.78781689 -28.6913579 118.94722485 -30.53125 115.06640625 C-37.58157785 100.67057552 -46.68292806 89.12279046 -57.53125 77.44140625 C-68.1663192 65.66482694 -73.82580772 53.602327 -73.16015625 37.71875 C-72.2562866 25.29408407 -65.80728397 13.5404266 -56.703125 5.12109375 C-40.62624447 -7.88418765 -18.05108361 -10.95491487 0 0 Z " fill="#006400" transform="translate(192.78125,8.43359375)"/>
<path d="M0 0 C0.72538467 -0.0065712 1.45076935 -0.0131424 2.19813538 -0.01991272 C4.60295714 -0.03965286 7.00771648 -0.05130906 9.41259766 -0.0612793 C10.23321308 -0.06535482 11.05382851 -0.06943035 11.89931107 -0.07362938 C16.241628 -0.09449191 20.58391331 -0.10879353 24.92626953 -0.11816406 C29.41453688 -0.12923667 33.90230955 -0.16364545 38.39040184 -0.20333576 C41.83906995 -0.22945995 45.28761936 -0.23785207 48.73637772 -0.24144554 C50.39101126 -0.24632141 52.04563916 -0.25796384 53.70017624 -0.27648354 C56.0153622 -0.30078975 58.32925721 -0.29992642 60.64453125 -0.29296875 C61.96198334 -0.29883499 63.27943542 -0.30470123 64.6368103 -0.31074524 C67.95166016 0.17700195 67.95166016 0.17700195 70.41226196 2.04621887 C71.95166016 4.17700195 71.95166016 4.17700195 71.88916016 6.73950195 C70.95166016 9.17700195 70.95166016 9.17700195 67.95166016 12.17700195 C44.85166016 12.17700195 21.75166016 12.17700195 -2.04833984 12.17700195 C-2.04833984 60.68700195 -2.04833984 109.19700195 -2.04833984 159.17700195 C38.21166016 159.17700195 78.47166016 159.17700195 119.95166016 159.17700195 C119.95166016 148.94700195 119.95166016 138.71700195 119.95166016 128.17700195 C124.90014963 130.65124669 129.33814457 132.89829815 132.95166016 137.17700195 C134.14178375 141.41254978 133.99054336 145.37208674 133.76416016 149.73950195 C133.75707031 150.8500293 133.74998047 151.96055664 133.74267578 153.10473633 C133.58653541 159.17242367 133.28153356 163.56295724 128.95166016 168.17700195 C125.31575485 170.75361233 122.8490572 171.55338849 118.4107666 171.56468201 C117.3088649 171.57458664 116.2069632 171.58449127 115.07167053 171.59469604 C113.87255539 171.5901944 112.67344025 171.58569275 111.43798828 171.58105469 C110.16757187 171.58791794 108.89715546 171.59478119 107.58824158 171.60185242 C104.11096671 171.61977259 100.63394434 171.61861788 97.15663719 171.61291003 C94.25149043 171.60981697 91.34639209 171.61591181 88.44125223 171.62194878 C81.58742135 171.63598818 74.73371513 171.6344372 67.87988281 171.62304688 C60.81278368 171.61156156 53.74606385 171.62564929 46.67901468 171.65244335 C40.60667198 171.67460272 34.53444834 171.68123736 28.46206808 171.67536694 C24.8373363 171.67199723 21.21284775 171.6744132 17.58815002 171.69161797 C13.54696634 171.70996324 9.50652073 171.69589781 5.46533203 171.67871094 C3.66665932 171.69321289 3.66665932 171.69321289 1.83164978 171.70800781 C-6.26282908 171.63576705 -6.26282908 171.63576705 -10.20544434 169.33314514 C-13.65749424 165.29433021 -14.30122252 163.14378263 -14.32249451 157.89628601 C-14.33246964 156.57981079 -14.34244476 155.26333557 -14.35272217 153.90696716 C-14.353618 152.44448865 -14.35428155 150.98200997 -14.35473633 149.51953125 C-14.36235639 147.98204139 -14.37078362 146.44455534 -14.37995911 144.90707397 C-14.40192782 140.72722268 -14.41070632 136.54744454 -14.41578555 132.36754203 C-14.4194267 129.75616126 -14.42566554 127.14479973 -14.43278694 124.53342628 C-14.45729089 115.42315452 -14.47033511 106.31293975 -14.47387695 97.20263672 C-14.47751169 88.71094757 -14.50740007 80.21961999 -14.54928154 71.72804135 C-14.58397659 64.43791358 -14.59942527 57.14790566 -14.60012299 49.85769588 C-14.60091616 45.50346159 -14.60967259 41.14959538 -14.63812065 36.7954464 C-14.66428769 32.69868639 -14.66651457 28.60259992 -14.65046501 24.50579453 C-14.64864933 23.00378133 -14.65535221 21.50172953 -14.67128372 19.99979973 C-14.79839484 7.23633965 -14.79839484 7.23633965 -11.63587952 3.29914856 C-7.53520366 -0.06398262 -5.28568935 0.03954326 0 0 Z " fill="#016401" transform="translate(41.04833984375,14.822998046875)"/>
<path d="M0 0 C6.15973792 3.49112743 9.48709697 7.22579178 12.3203125 13.7421875 C13.93219419 20.4583612 13.47016572 25.52180436 10.47265625 31.6875 C7.01296959 37.06495169 2.14445639 40.90689561 -3.9296875 42.8671875 C-10.99093668 43.77491161 -17.15858303 43.22595417 -22.9296875 38.8671875 C-28.70520876 33.50257289 -31.81006857 28.57006023 -32.3671875 20.6171875 C-32.20959456 14.39751954 -29.56126479 8.8156563 -25.4375 4.1953125 C-18.42406461 -1.98232489 -8.68708789 -3.35900732 0 0 Z " fill="#F6F9F6" transform="translate(177.9296875,29.1328125)"/>
<path d="M0 0 C19.29722424 1.89248547 38.46384209 4.38046476 57.65689087 7.10778809 C67.42642796 8.49215935 77.2123507 9.75116093 87 11 C87 11.66 87 12.32 87 13 C86.21010178 13.20631546 85.42020355 13.41263092 84.60636902 13.62519836 C77.1191225 15.58092305 69.63202557 17.53721899 62.14509106 19.49413776 C58.29708476 20.49990036 54.44902338 21.50545114 50.60083008 22.51049805 C46.87891173 23.48257393 43.15714597 24.45523207 39.43548012 25.42827415 C38.0239624 25.79721499 36.61239217 26.16595496 35.20076561 26.53447914 C33.20555789 27.05539377 31.21053635 27.57701518 29.21557617 28.09887695 C27.98769379 28.41998444 26.7598114 28.74109192 25.49472046 29.07192993 C21.37143128 30.16692489 17.26371286 31.31316867 13.16157532 32.48478699 C11 33 11 33 8 33 C6.85588819 28.7837502 5.7166931 24.56621222 4.58203125 20.34741211 C4.19535961 18.91247755 3.80734788 17.4779034 3.41796875 16.04370117 C2.8584468 13.98189132 2.30376041 11.91883244 1.75 9.85546875 C1.41484375 8.61434326 1.0796875 7.37321777 0.734375 6.09448242 C0 3 0 3 0 0 Z " fill="#036403" transform="translate(44,190)"/>
<path d="M0 0 C0.98807396 -0.0076664 0.98807396 -0.0076664 1.99610901 -0.01548767 C4.17856881 -0.02941374 6.36071388 -0.02842466 8.54321289 -0.02612305 C10.05774555 -0.03000846 11.57227711 -0.03434281 13.08680725 -0.03910828 C16.26363657 -0.04657705 19.44035478 -0.04627459 22.6171875 -0.04101562 C26.69073572 -0.03522139 30.76382919 -0.05214727 34.83730221 -0.0753603 C37.96597458 -0.09008419 41.09453711 -0.09097118 44.22323799 -0.08785057 C45.7251634 -0.08836451 47.22709484 -0.09361584 48.72898674 -0.10366249 C50.8287405 -0.11598353 52.9276045 -0.10926233 55.02734375 -0.09765625 C56.2226622 -0.09828568 57.41798065 -0.0989151 58.64952087 -0.0995636 C61.57836914 0.2746582 61.57836914 0.2746582 63.46437073 1.61042786 C65.20858593 4.21615498 64.95904016 6.22929008 64.57836914 9.2746582 C63.45664978 10.93690491 63.45664978 10.93690491 61.57836914 12.2746582 C58.70094299 12.66233826 58.70094299 12.66233826 55.15087891 12.67871094 C54.50337677 12.68557419 53.85587463 12.69243744 53.18875122 12.69950867 C51.04886937 12.71780624 48.90971867 12.71393521 46.76977539 12.70825195 C45.28148662 12.71281259 43.79319997 12.71811781 42.30491638 12.72413635 C39.18528693 12.73307338 36.06591339 12.73063806 32.94628906 12.72070312 C28.95006061 12.7092162 24.95471615 12.72941653 20.95860386 12.75862026 C17.88476456 12.77697509 14.81113735 12.77669126 11.737257 12.77098274 C10.26406553 12.77082942 8.79085978 12.77688312 7.31772041 12.78927422 C5.25633604 12.80416914 3.1965874 12.79352125 1.13525391 12.77636719 C-0.03706284 12.77620102 -1.20937958 12.77603485 -2.41722107 12.77586365 C-6.04596521 12.17050471 -7.26890438 11.21857701 -9.42163086 8.2746582 C-9.1325593 1.04786931 -6.79645731 0.0262146 0 0 Z " fill="#016401" transform="translate(72.421630859375,112.725341796875)"/>
<path d="M0 0 C1.08792847 -0.01268417 2.17585693 -0.02536835 3.29675293 -0.03843689 C5.05154968 -0.03403343 5.05154968 -0.03403343 6.84179688 -0.02954102 C8.04743286 -0.03478287 9.25306885 -0.04002472 10.49523926 -0.04542542 C13.0438561 -0.05184788 15.59250257 -0.05050576 18.14111328 -0.04199219 C22.04578254 -0.03347945 25.94899082 -0.06224804 29.85351562 -0.09399414 C32.3287756 -0.09560611 34.80403818 -0.09502871 37.27929688 -0.09204102 C38.44916138 -0.10327499 39.61902588 -0.11450897 40.82434082 -0.12608337 C41.91226929 -0.11670242 43.00019775 -0.10732147 44.12109375 -0.09765625 C45.07721558 -0.09749008 46.0333374 -0.09732391 47.01843262 -0.09715271 C50.31868494 0.55352789 51.5103978 1.78567351 53.56054688 4.40405273 C54.06054688 7.46655273 54.06054688 7.46655273 53.56054688 10.40405273 C50.5404141 13.36185212 48.28940667 13.7872943 44.13696289 13.82397461 C43.05226212 13.83988647 41.96756134 13.85579834 40.84999084 13.87219238 C39.6832634 13.8723938 38.51653595 13.87259521 37.31445312 13.87280273 C36.11118881 13.88041626 34.9079245 13.88802979 33.66819763 13.89587402 C31.12379023 13.90667852 28.57933847 13.90952674 26.03491211 13.9050293 C22.14101235 13.90405722 18.24908385 13.94567467 14.35546875 13.98999023 C11.88346765 13.99519729 9.4114597 13.99788543 6.93945312 13.99780273 C5.77474991 14.014198 4.61004669 14.03059326 3.41004944 14.04748535 C-5.58215106 13.97056668 -5.58215106 13.97056668 -8.70922852 11.03100586 C-10.43945312 8.40405273 -10.43945312 8.40405273 -10.50195312 5.77905273 C-8.32946728 0.92290791 -5.0566105 0.02857459 0 0 Z " fill="#076507" transform="translate(73.439453125,142.595947265625)"/>
<path d="M0 0 C1.4217881 -0.01902626 1.4217881 -0.01902626 2.87229919 -0.03843689 C3.89420853 -0.03550125 4.91611786 -0.03256561 5.96899414 -0.02954102 C7.54651207 -0.03740379 7.54651207 -0.03740379 9.15589905 -0.04542542 C11.38094194 -0.05185138 13.60601878 -0.05050124 15.83105469 -0.04199219 C19.23767574 -0.03348839 22.64261723 -0.06222716 26.04907227 -0.09399414 C28.20987905 -0.09560635 30.37068882 -0.09502825 32.53149414 -0.09204102 C33.55137924 -0.10327499 34.57126434 -0.11450897 35.62205505 -0.12608337 C42.64676131 -0.05679035 42.64676131 -0.05679035 45.99072266 2.24365234 C47.31665039 4.40405273 47.31665039 4.40405273 47.31665039 7.46655273 C46.15915294 10.8667015 45.33393387 11.5831744 42.31665039 13.40405273 C40.12294006 13.79846191 40.12294006 13.79846191 37.71923828 13.82397461 C36.36246727 13.84784241 36.36246727 13.84784241 34.97828674 13.87219238 C34.00842331 13.8723938 33.03855988 13.87259521 32.03930664 13.87280273 C30.53405678 13.88422302 30.53405678 13.88422302 28.99839783 13.89587402 C26.87770067 13.90667167 24.75695034 13.9095295 22.63623047 13.9050293 C19.39403481 13.9040572 16.15420736 13.94567907 12.91235352 13.98999023 C10.85050949 13.99519749 8.78865724 13.99788542 6.72680664 13.99780273 C5.75896744 14.014198 4.79112823 14.03059326 3.79396057 14.04748535 C-0.87687655 13.99959979 -3.00528459 13.91476889 -6.83398438 11.03100586 C-8.68334961 8.40405273 -8.68334961 8.40405273 -8.68334961 5.77905273 C-6.79414031 1.29218064 -4.82983374 0.03129003 0 0 Z " fill="#096709" transform="translate(71.683349609375,81.595947265625)"/>
<path d="M0 0 C0.73951904 -0.00287018 1.47903809 -0.00574036 2.2409668 -0.00869751 C3.80095182 -0.01073453 5.3609626 -0.00522995 6.92089844 0.00732422 C9.30461908 0.0233844 11.6866444 0.00746471 14.0703125 -0.01171875 C15.5885454 -0.00973625 17.10677724 -0.00589244 18.625 0 C19.69077271 -0.00910904 19.69077271 -0.00910904 20.77807617 -0.0184021 C23.84954712 0.02511195 26.03425355 0.25028677 28.765625 1.70458984 C30.3125 3.3984375 30.3125 3.3984375 30.75 6.8984375 C30.3125 10.3984375 30.3125 10.3984375 29.28686523 12.09008789 C26.17898786 14.14958027 22.89256135 13.84597608 19.28515625 13.83203125 C18.49983017 13.8372731 17.71450409 13.84251495 16.90538025 13.84791565 C15.2452818 13.85433572 13.58513785 13.852999 11.92504883 13.84448242 C9.38735725 13.83597891 6.85192186 13.86471985 4.31445312 13.89648438 C2.70052151 13.89809669 1.08658591 13.89751827 -0.52734375 13.89453125 C-1.2847435 13.90576523 -2.04214325 13.91699921 -2.82249451 13.92857361 C-6.33201484 13.8822534 -8.3318116 13.65912344 -11.19750977 11.55883789 C-12.6875 9.3984375 -12.6875 9.3984375 -12.6875 6.3359375 C-10.53362079 0.00891732 -6.02199956 -0.05146935 0 0 Z " fill="#086608" transform="translate(75.6875,50.6015625)"/>
<path d="M0 0 C13.95371188 -0.13587602 27.81724152 0.25578741 41.75 1 C43.6340907 1.09681997 45.51820531 1.19317593 47.40234375 1.2890625 C51.9351875 1.52072784 56.46766738 1.75854958 61 2 C60.52372025 3.95903745 60.04388577 5.91721097 59.5625 7.875 C59.29566406 8.96554688 59.02882812 10.05609375 58.75390625 11.1796875 C58 14 58 14 57 16 C45.48519966 13.34882924 34.02260081 10.52954834 22.59204102 7.53564453 C20.01416041 6.86237507 17.43387583 6.19885059 14.85351562 5.53515625 C13.20557408 5.10476005 11.55778147 4.67379305 9.91015625 4.2421875 C9.14260513 4.0463205 8.37505402 3.85045349 7.58424377 3.64865112 C2.2284828 2.2284828 2.2284828 2.2284828 0 0 Z " fill="#076607" transform="translate(109,190)"/>
<path d="M0 0 C0.82838473 8.07852988 1.28208325 16.13518843 1.5625 24.25 C1.6049585 25.42989502 1.64741699 26.60979004 1.69116211 27.82543945 C1.97785477 36.2214388 2.1266367 44.5997654 2 53 C0.23113011 50.34669517 -0.53899091 48.64859309 -1.42041016 45.66796875 C-1.68052887 44.79696533 -1.94064758 43.92596191 -2.20864868 43.02856445 C-2.48268524 42.09101318 -2.7567218 41.15346191 -3.0390625 40.1875 C-3.32478119 39.22223389 -3.61049988 38.25696777 -3.90487671 37.26245117 C-4.5074259 35.22224833 -5.10742978 33.18129229 -5.70507812 31.13964844 C-6.62198679 28.01028392 -7.54866436 24.88393382 -8.4765625 21.7578125 C-9.06048203 19.77621431 -9.64383461 17.79444894 -10.2265625 15.8125 C-10.50464752 14.87494873 -10.78273254 13.93739746 -11.06924438 12.97143555 C-11.32305878 12.10043213 -11.57687317 11.22942871 -11.83837891 10.33203125 C-12.0632901 9.56608643 -12.28820129 8.8001416 -12.51992798 8.01098633 C-13 6 -13 6 -13 3 C-11.58603098 2.49242138 -10.16868271 1.99425075 -8.75 1.5 C-7.96109375 1.2215625 -7.1721875 0.943125 -6.359375 0.65625 C-4 0 -4 0 0 0 Z " fill="#026502" transform="translate(22,68)"/>
<path d="M0 0 C2.42770824 4.85541647 3.74859732 9.72020816 5.1875 14.9375 C5.47302734 15.92685547 5.75855469 16.91621094 6.05273438 17.93554688 C6.31763672 18.89396484 6.58253906 19.85238281 6.85546875 20.83984375 C7.09934326 21.70988037 7.34321777 22.57991699 7.59448242 23.47631836 C8.04343692 26.27032354 7.713865 28.28023841 7 31 C4.69 31.33 2.38 31.66 0 32 C0 21.44 0 10.88 0 0 Z " fill="#0B640B" transform="translate(182,156)"/>
</svg>
