<?xml version="1.0" encoding="UTF-8"?>
<svg version="1.1" xmlns="http://www.w3.org/2000/svg" width="300" height="250">
<path d="M0 0 C99 0 198 0 300 0 C300 82.5 300 165 300 250 C201 250 102 250 0 250 C0 167.5 0 85 0 0 Z " fill="#FDFDFD" transform="translate(0,0)"/>
<path d="M0 0 C5.82086707 0.1179265 11.6415519 0.24215042 17.4621582 0.37231445 C19.44389146 0.41573144 21.42566378 0.45740137 23.4074707 0.49731445 C26.2496317 0.55485383 29.09159483 0.61859445 31.93359375 0.68359375 C32.82525742 0.70030624 33.71692108 0.71701874 34.63560486 0.73423767 C40.88612829 0.88612829 40.88612829 0.88612829 42 2 C42.09886353 3.62252492 42.12971167 5.24947273 42.125 6.875 C42.12886719 8.20144531 42.12886719 8.20144531 42.1328125 9.5546875 C42 12 42 12 41 15 C27.47 15 13.94 15 0 15 C0 15.66 0 16.32 0 17 C0.79513504 16.98525131 1.59027008 16.97050262 2.40950012 16.95530701 C9.89900078 16.81731656 17.38856571 16.68434846 24.87825489 16.5570364 C28.72886994 16.49140484 32.57943032 16.42382439 36.42993164 16.35180664 C40.14512521 16.28239106 43.86037511 16.21807311 47.57571983 16.15730476 C48.99393613 16.13320925 50.41212233 16.10726985 51.83027077 16.07946587 C53.8148998 16.04086902 55.7996637 16.00940586 57.78442383 15.97827148 C58.91471512 15.95828598 60.04500641 15.93830048 61.20954895 15.91770935 C64 16 64 16 67 17 C67.19397476 18.97854258 67.38001321 20.9578648 67.5625 22.9375 C67.71912109 24.59072266 67.71912109 24.59072266 67.87890625 26.27734375 C67.93884766 27.62505859 67.93884766 27.62505859 68 29 C67 30 67 30 64.37413025 30.12025452 C63.20386795 30.11803391 62.03360565 30.11581329 60.82788086 30.11352539 C59.86205833 30.11374443 59.86205833 30.11374443 58.87672424 30.1139679 C56.73939697 30.11326885 54.60215587 30.10547691 52.46484375 30.09765625 C50.98653715 30.09579204 49.50822993 30.09436815 48.02992249 30.09336853 C44.13201198 30.08954359 40.23413851 30.07971352 36.33624268 30.06866455 C32.36153667 30.05844992 28.38682471 30.0538708 24.41210938 30.04882812 C16.608056 30.03809122 8.80403318 30.02101509 1 30 C0.87882812 29.28972656 0.75765625 28.57945313 0.6328125 27.84765625 C0.46523438 26.92855469 0.29765625 26.00945312 0.125 25.0625 C-0.03742187 24.14597656 -0.19984375 23.22945312 -0.3671875 22.28515625 C-0.57601562 21.53105469 -0.78484375 20.77695313 -1 20 C-1.66 19.67 -2.32 19.34 -3 19 C-3.125 15.625 -3.125 15.625 -3 12 C-2.34 11.34 -1.68 10.68 -1 10 C-1.2475 8.576875 -1.2475 8.576875 -1.5 7.125 C-2.04958537 3.69009142 -1.65502162 2.89628783 0 0 Z " fill="#FEF5E7" transform="translate(61,76)"/>
<path d="M0 0 C3.14148693 1.35996331 5.29310176 3.53688117 7.84481812 5.79862976 C6.27324513 9.6561271 3.7953128 11.90566561 0.84481812 14.79862976 C-0.1716516 15.83428751 -1.18591086 16.87211858 -2.19815063 17.91191101 C-3.24628221 18.97836199 -4.29445974 20.0447678 -5.34268188 21.11112976 C-6.1422229 21.9358075 -6.1422229 21.9358075 -6.95791626 22.77714539 C-8.31943144 24.15578654 -9.73358691 25.48202703 -11.15518188 26.79862976 C-11.81518188 26.79862976 -12.47518188 26.79862976 -13.15518188 26.79862976 C-13.48518188 27.78862976 -13.81518188 28.77862976 -14.15518188 29.79862976 C-14.81518188 29.79862976 -15.47518188 29.79862976 -16.15518188 29.79862976 C-16.35498657 30.33745789 -16.55479126 30.87628601 -16.76065063 31.43144226 C-18.75801291 34.82192276 -21.53378112 37.08815007 -24.46768188 39.67362976 C-28.7612461 43.47608414 -32.58015217 47.30468997 -36.15518188 51.79862976 C-39.97202415 50.24361995 -42.34713921 47.76267481 -45.15518188 44.79862976 C-43.6871636 41.42230645 -41.80417941 39.17973687 -39.22793579 36.56498718 C-38.42014679 35.74121078 -37.61235779 34.91743439 -36.78009033 34.06869507 C-35.90613617 33.1893782 -35.03218201 32.31006134 -34.13174438 31.40409851 C-32.78516251 30.04397392 -32.78516251 30.04397392 -31.41137695 28.65637207 C-29.51258432 26.74307673 -27.61153136 24.83234152 -25.7069397 22.92485046 C-23.2647931 20.47730021 -20.83924145 18.01397333 -18.41729164 15.54645824 C-16.10399424 13.19633466 -13.7730004 10.86388946 -11.44424438 8.52909851 C-10.57433868 7.63966049 -9.70443298 6.75022247 -8.8081665 5.83383179 C-7.99407318 5.02581619 -7.17997986 4.2178006 -6.34121704 3.38529968 C-5.6277713 2.66678329 -4.91432556 1.94826691 -4.17926025 1.20797729 C-2.15518188 -0.20137024 -2.15518188 -0.20137024 0 0 Z " fill="#F8701B" transform="translate(135.15518188476563,111.20137023925781)"/>
<path d="M0 0 C3.63 0 7.26 0 11 0 C11 21.12 11 42.24 11 64 C7.37 64 3.74 64 0 64 C0 42.88 0 21.76 0 0 Z " fill="#F6711E" transform="translate(152,115)"/>
<path d="M0 0 C17.74285714 0 17.74285714 0 23.375 5.1875 C25.4995545 8.86461356 25.75329628 11.90734907 25 16 C23.53327821 20.36545005 21.76676954 22.5339244 17.8125 24.9375 C14 26 14 26 5 26 C5 32.27 5 38.54 5 45 C3.35 45 1.7 45 0 45 C0 30.15 0 15.3 0 0 Z " fill="#767676" transform="translate(27,185)"/>
<path d="M0 0 C21.12 0 42.24 0 64 0 C64 3.3 64 6.6 64 10 C42.88 10 21.76 10 0 10 C0 6.7 0 3.4 0 0 Z " fill="#FA7019" transform="translate(62,95)"/>
<path d="M0 0 C3.72050535 2.62623907 5.2084963 4.60614604 6 9 C6.08026745 10.87877624 6.10765872 12.7601615 6.09765625 14.640625 C6.09443359 15.71054688 6.09121094 16.78046875 6.08789062 17.8828125 C6.07951172 18.99398437 6.07113281 20.10515625 6.0625 21.25 C6.05798828 22.37664062 6.05347656 23.50328125 6.04882812 24.6640625 C6.03705397 27.44276217 6.0206084 30.22135409 6 33 C4.68 33 3.36 33 2 33 C1.67 32.01 1.34 31.02 1 30 C0.401875 30.474375 -0.19625 30.94875 -0.8125 31.4375 C-4.77407078 34.26719342 -8.23917041 34.41041634 -13 34 C-15.75329021 32.20437595 -17.52627461 30.94745078 -19 28 C-19.68940754 20.99102334 -19.68940754 20.99102334 -17 17.125 C-11.39112748 13.15204863 -5.72129041 12.71994623 1 13 C0.73606499 9.56769552 0.73606499 9.56769552 0 6 C-3.71524288 3.52317141 -6.69638294 3.56461462 -11 4 C-13.88214887 4.88214887 -13.88214887 4.88214887 -16 6 C-15.67 4.35 -15.34 2.7 -15 1 C-10.08796943 -0.63734352 -5.12018801 -0.62188518 0 0 Z " fill="#6B6B6B" transform="translate(164,197)"/>
<path d="M0 0 C3.09665553 3.50954293 2.99422188 5.61151852 2.97265625 10.2265625 C2.96943359 11.43828125 2.96621094 12.65 2.96289062 13.8984375 C2.95451172 15.16945312 2.94613281 16.44046875 2.9375 17.75 C2.93298828 19.02875 2.92847656 20.3075 2.92382812 21.625 C2.91201203 24.79171292 2.89553815 27.95833356 2.875 31.125 C1.555 31.125 0.235 31.125 -1.125 31.125 C-1.455 30.135 -1.785 29.145 -2.125 28.125 C-2.95 28.785 -3.775 29.445 -4.625 30.125 C-8.6031731 32.75830607 -11.41901891 32.7225849 -16.125 32.125 C-18.9350346 30.33136089 -20.63440468 29.10619065 -22.125 26.125 C-22.29648275 22.33001215 -22.20518946 18.58925683 -19.89453125 15.45703125 C-14.18096849 10.44848395 -8.26520952 10.98499589 -1.125 11.125 C-2.25197043 6.15588634 -2.25197043 6.15588634 -5.125 2.125 C-9.60025292 1.86681233 -13.73354301 2.26813034 -18.125 3.125 C-18.125 1.805 -18.125 0.485 -18.125 -0.875 C-12.12066676 -2.61272468 -5.45125025 -3.27075015 0 0 Z " fill="#686868" transform="translate(78.125,198.875)"/>
<path d="M0 0 C2.60502642 2.2219343 3.82983047 3.60865959 5.125 6.8125 C5.125 10.1125 5.125 13.4125 5.125 16.8125 C-2.135 16.8125 -9.395 16.8125 -16.875 16.8125 C-13.84424351 25.08257587 -13.84424351 25.08257587 -10.875 27.8125 C-7.51755888 28.05627883 -7.51755888 28.05627883 -3.75 27.9375 C-2.46867187 27.91945312 -1.18734375 27.90140625 0.1328125 27.8828125 C1.61394531 27.84800781 1.61394531 27.84800781 3.125 27.8125 C2.8125 29.75 2.8125 29.75 2.125 31.8125 C-3.0814736 33.5479912 -8.02434089 33.47594383 -13.1875 31.625 C-16.70270834 29.2542781 -18.98140381 26.59969238 -20.875 22.8125 C-21.57285323 15.21586915 -21.86464133 8.66199077 -17.359375 2.265625 C-12.60986546 -2.38389486 -5.89812173 -2.43618071 0 0 Z " fill="#626262" transform="translate(211.875,198.1875)"/>
<path d="M0 0 C3.44677 1.48343 5.67343301 3.43050188 8.30957031 6.08251953 C9.15013977 6.92324005 9.99070923 7.76396057 10.85675049 8.63015747 C11.75480408 9.53853363 12.65285767 10.44690979 13.578125 11.3828125 C14.5046991 12.31221649 15.43127319 13.24162048 16.38592529 14.19918823 C18.84315789 16.6640385 21.29432361 19.13483666 23.7442627 21.60693359 C26.24773809 24.13090765 28.75692063 26.64919388 31.265625 29.16796875 C36.18267525 34.10643597 41.09333788 39.051212 46 44 C44.38405168 46.04119788 42.7143618 48.04072937 41 50 C40.34 50 39.68 50 39 50 C37.5546875 48.53125 37.5546875 48.53125 35.875 46.5 C32.13273075 42.09503724 28.1193124 38.04934531 24 34 C23.154375 33.13375 22.30875 32.2675 21.4375 31.375 C19.50769778 29.49467989 17.56651493 27.78237372 15.5 26.0625 C12.22681225 23.29941943 9.69117688 20.32856088 7 17 C3.54142755 13.36406486 -0.11531 10.16195698 -4 7 C-3.43628586 3.73045798 -2.50037734 2.17424117 0 0 Z " fill="#F17528" transform="translate(84,34)"/>
<path d="M0 0 C5.63568661 4.68820934 10.83103966 9.69985408 15.99609375 14.8984375 C16.82963882 15.73339752 17.6631839 16.56835754 18.52198792 17.42861938 C21.16286524 20.07505848 23.80022896 22.72496759 26.4375 25.375 C28.23609649 27.17861643 30.03492227 28.98200425 31.83398438 30.78515625 C36.22531248 35.18746261 40.61376729 39.59261714 45 44 C43.48601545 47.78496138 42.9855604 48.0072198 39 50 C24.48 35.48 9.96 20.96 -5 6 C-3.35 4.02 -1.7 2.04 0 0 Z " fill="#F27323" transform="translate(174,100)"/>
<path d="M0 0 C7 6 7 6 8 10 C6.95532227 11.62817383 6.95532227 11.62817383 5.31640625 13.20703125 C4.72190674 13.79049316 4.12740723 14.37395508 3.51489258 14.97509766 C2.87060303 15.58144043 2.22631348 16.1877832 1.5625 16.8125 C0.91885498 17.43688965 0.27520996 18.0612793 -0.38793945 18.70458984 C-4.28892474 22.4637122 -8.25941781 26.13300352 -12.44921875 29.5703125 C-14.23680025 31.21830955 -15.59469152 33.02152945 -17 35 C-21 34 -21 34 -27 27 C-18.09 18.09 -9.18 9.18 0 0 Z " fill="#F9701B" transform="translate(105,116)"/>
<path d="M0 0 C13.2 0 26.4 0 40 0 C40 3.3 40 6.6 40 10 C26.8 10 13.6 10 0 10 C0 6.7 0 3.4 0 0 Z " fill="#FB7019" transform="translate(62,79)"/>
<path d="M0 0 C3.3 0 6.6 0 10 0 C10 12.87 10 25.74 10 39 C6.7 39 3.4 39 0 39 C0 26.13 0 13.26 0 0 Z " fill="#F2772A" transform="translate(136,140)"/>
<path d="M0 0 C4.87010775 2.30223275 7.7638768 5.0977299 10 10 C10.99003605 17.09680048 10.97025828 23.58700161 6.546875 29.4765625 C2.94911241 33.01981353 -1.1606058 34.12879292 -6.0625 34.4375 C-11.39072278 33.84547525 -14.30671605 31.92684035 -17.8125 27.9375 C-21.26002248 22.3125949 -20.52546597 15.34938041 -20 9 C-18.81742258 5.46512184 -16.67686467 3.61533152 -13.9375 1.125 C-9.3098552 -0.6472895 -4.8864149 -0.63954548 0 0 Z M-14 7 C-16.88715059 11.68022305 -16.64762391 16.67252239 -16 22 C-14.63283422 25.26958986 -12.49769227 27.50230773 -10 30 C-6.94436062 30.57030597 -4.05858124 30.53881742 -1 30 C2.02409364 27.72872666 2.02409364 27.72872666 4 25 C4.33 24.67 4.66 24.34 5 24 C5.8799779 15.69671669 5.8799779 15.69671669 3.953125 7.7734375 C1.13196358 4.40463887 -0.99162766 3.09512947 -5.3125 2.6875 C-9.61926041 3.0524797 -11.02483986 3.93983528 -14 7 Z " fill="#636363" transform="translate(243,197)"/>
<path d="M0 0 C0.97396729 -0.00451172 1.94793457 -0.00902344 2.95141602 -0.01367188 C8.43592965 -0.00240908 13.69943985 0.31693785 19.125 1.125 C18.465 3.765 17.805 6.405 17.125 9.125 C3.265 9.125 -10.595 9.125 -24.875 9.125 C-25.205 6.485 -25.535 3.845 -25.875 1.125 C-17.24174315 0.28711025 -8.66897348 0.01662714 0 0 Z " fill="#FEEEDB" transform="translate(220.875,94.875)"/>
<path d="M0 0 C1.32 0 2.64 0 4 0 C4.33 1.32 4.66 2.64 5 4 C5.6496875 3.01 5.6496875 3.01 6.3125 2 C10.00120893 -0.74508571 12.85524255 -0.61531233 17.36328125 -0.46484375 C21.17255562 0.20671721 22.79377913 1.91129078 25 5 C26.35700647 7.71401294 26.1123861 9.84846316 26.09765625 12.8828125 C26.09443359 14.04941406 26.09121094 15.21601563 26.08789062 16.41796875 C26.07951172 17.64128906 26.07113281 18.86460937 26.0625 20.125 C26.05798828 21.35605469 26.05347656 22.58710938 26.04882812 23.85546875 C26.0370133 26.90369392 26.02054028 29.95182314 26 33 C24.68 33 23.36 33 22 33 C21.98018066 32.29391602 21.96036133 31.58783203 21.93994141 30.86035156 C21.84459585 27.65653006 21.73495487 24.45335199 21.625 21.25 C21.5940625 20.13882813 21.563125 19.02765625 21.53125 17.8828125 C21.49257812 16.81289062 21.45390625 15.74296875 21.4140625 14.640625 C21.36693115 13.16384277 21.36693115 13.16384277 21.31884766 11.65722656 C20.99498701 8.9582225 20.4631862 7.27635632 19 5 C16.11138291 3.55569145 14.20352299 3.62311494 11 4 C8.48757967 5.66382998 7.43812291 6.4467408 6 9 C5.23924051 13.0990007 5.20938616 17.15169871 5.1875 21.3125 C5.16236328 22.43462891 5.13722656 23.55675781 5.11132812 24.71289062 C5.0525468 27.47561286 5.0162002 30.23675392 5 33 C3.35 33 1.7 33 0 33 C0 22.11 0 11.22 0 0 Z " fill="#6F6F6F" transform="translate(90,197)"/>
<path d="M0 0 C1.32 0 2.64 0 4 0 C4.33 1.32 4.66 2.64 5 4 C5.61875 3.34 6.2375 2.68 6.875 2 C11.21569465 -0.77804457 14.96987401 -0.98289818 20 0 C22.82424288 2.19022918 24.41508603 3.83017207 26 7 C26.08510205 8.9593604 26.10717656 10.92162794 26.09765625 12.8828125 C26.09443359 14.04941406 26.09121094 15.21601563 26.08789062 16.41796875 C26.07951172 17.64128906 26.07113281 18.86460937 26.0625 20.125 C26.05798828 21.35605469 26.05347656 22.58710938 26.04882812 23.85546875 C26.0370133 26.90369392 26.02054028 29.95182314 26 33 C24.68 33 23.36 33 22 33 C21.98598145 31.89543457 21.98598145 31.89543457 21.97167969 30.76855469 C21.91795845 27.42835782 21.83431378 24.08955881 21.75 20.75 C21.73582031 19.59113281 21.72164063 18.43226563 21.70703125 17.23828125 C21.67480469 16.12324219 21.64257812 15.00820312 21.609375 13.859375 C21.58842773 12.83295898 21.56748047 11.80654297 21.54589844 10.74902344 C20.86565011 7.32344374 19.72775926 6.12186644 17 4 C13.17125182 3.26683546 11.60557495 3.59508894 8.359375 5.765625 C4.39746067 9.93578712 5.21588526 15.91614646 5.1875 21.3125 C5.16236328 22.43462891 5.13722656 23.55675781 5.11132812 24.71289062 C5.0525468 27.47561286 5.0162002 30.23675392 5 33 C3.35 33 1.7 33 0 33 C0 22.11 0 11.22 0 0 Z " fill="#5B5B5B" transform="translate(260,197)"/>
<path d="M0 0 C4.10108886 1.62156024 6.83148167 4.5767703 9.859375 7.6640625 C10.40861633 8.21613373 10.95785767 8.76820496 11.52374268 9.33700562 C13.27059293 11.09501815 15.01034601 12.8598689 16.75 14.625 C17.93573591 15.8207708 19.1219288 17.01608865 20.30859375 18.2109375 C23.21105085 21.13540253 26.1071641 24.06601874 29 27 C27.35 28.98 25.7 30.96 24 33 C20.46401975 31.69037769 18.76336163 29.58994981 16.4609375 26.6875 C14.88595409 24.86826782 13.20899576 23.36952497 11.375 21.8125 C5.94095786 17.19044117 0.99886619 12.08156802 -4 7 C-2.79618552 4.50638429 -1.54571278 2.31856917 0 0 Z " fill="#F0782F" transform="translate(95,22)"/>
<path d="M0 0 C1.65 0 3.3 0 5 0 C5 21.12 5 42.24 5 64 C3.35 64 1.7 64 0 64 C0 42.88 0 21.76 0 0 Z " fill="#EB7F3B" transform="translate(139,5)"/>
<path d="M0 0 C0.33 0 0.66 0 1 0 C1 21.12 1 42.24 1 64 C-3.06809308 66.03404654 -4.77951129 66.24655953 -9.1875 66.1875 C-10.25355469 66.18105469 -11.31960937 66.17460937 -12.41796875 66.16796875 C-15 66 -15 66 -16 65 C-16.08868299 62.04294679 -16.11520296 59.10934944 -16.09765625 56.15234375 C-16.0962413 55.2659169 -16.09482635 54.37949005 -16.09336853 53.46620178 C-16.08775215 50.62326746 -16.07519691 47.78041069 -16.0625 44.9375 C-16.05748711 43.01497509 -16.05292384 41.09244896 -16.04882812 39.16992188 C-16.03777741 34.44658451 -16.02050183 29.72330542 -16 25 C-15.67 25 -15.34 25 -15 25 C-15 37.87 -15 50.74 -15 64 C-11.7 64 -8.4 64 -5 64 C-5 51.13 -5 38.26 -5 25 C-4.34 25 -3.68 25 -3 25 C-2.67 25.99 -2.34 26.98 -2 28 C-0.65893595 25.3178719 -0.78549581 23.11601968 -0.68359375 20.1171875 C-0.64169922 18.95058594 -0.59980469 17.78398437 -0.55664062 16.58203125 C-0.49766602 14.74705078 -0.49766602 14.74705078 -0.4375 12.875 C-0.39431641 11.64394531 -0.35113281 10.41289063 -0.30664062 9.14453125 C-0.20031296 6.09647147 -0.09828219 3.0483281 0 0 Z " fill="#FEFAEF" transform="translate(151,115)"/>
<path d="M0 0 C6.03518337 4.98558626 11.50757503 10.42810265 17 16 C19.68781869 18.72419518 22.34349278 21.39586622 25.3125 23.8125 C26.6428125 24.8953125 26.6428125 24.8953125 28 26 C26.46126823 29.71860179 25.52488612 30.35633541 22 33 C13.09 24.09 4.18 15.18 -5 6 C-3.35 4.02 -1.7 2.04 0 0 Z " fill="#E77830" transform="translate(180,129)"/>
<path d="M0 0 C0.99 0.66 1.98 1.32 3 2 C2.01 2.99 1.02 3.98 0 5 C1.33106131 7.95594626 2.785078 10.03288866 5.08203125 12.3125 C5.68466797 12.91320313 6.28730469 13.51390625 6.90820312 14.1328125 C7.53662109 14.74898437 8.16503906 15.36515625 8.8125 16 C9.42931641 16.61617187 10.04613281 17.23234375 10.68164062 17.8671875 C13.98187788 21.13586031 17.36783364 24.09958877 21 27 C22.3125 29.25 22.3125 29.25 23 31 C22.01 31.99 21.02 32.98 20 34 C20.66 34 21.32 34 22 34 C21.67 35.32 21.34 36.64 21 38 C21.61875 38.103125 22.2375 38.20625 22.875 38.3125 C25 39 25 39 27 42 C29.05925139 42.72382467 29.05925139 42.72382467 31 43 C30.67 44.65 30.34 46.3 30 48 C25.24914133 44.03627475 20.76386888 39.90205218 16.41015625 35.5078125 C15.52607338 34.62160721 15.52607338 34.62160721 14.62413025 33.71749878 C12.76786273 31.85569596 10.91512915 29.99042255 9.0625 28.125 C7.79385328 26.85132989 6.5249751 25.57789029 5.25585938 24.3046875 C2.16789446 21.20577957 -0.91690929 18.10375699 -4 15 C-3.01 14.67 -2.02 14.34 -1 14 C-0.67 12.35 -0.34 10.7 0 9 C-0.99 8.67 -1.98 8.34 -3 8 C-3 6.35 -3 4.7 -3 3 C-2.01 3 -1.02 3 0 3 C0 2.01 0 1.02 0 0 Z " fill="#FBFAF5" transform="translate(92,22)"/>
<path d="M0 0 C0 2.97 0 5.94 0 9 C2.31 9 4.62 9 7 9 C7 10.32 7 11.64 7 13 C4.69 13 2.38 13 0 13 C0.33 21.25 0.66 29.5 1 38 C3.31 38.33 5.62 38.66 8 39 C8 39.99 8 40.98 8 42 C4.95016004 43.52491998 2.3576631 43.23562548 -1 43 C-3.61593153 41.16884793 -3.96989455 40.09031634 -5 37 C-5.08239169 35.15389468 -5.10743359 33.30494836 -5.09765625 31.45703125 C-5.09443359 30.38388672 -5.09121094 29.31074219 -5.08789062 28.20507812 C-5.07951172 27.08552734 -5.07113281 25.96597656 -5.0625 24.8125 C-5.05798828 23.68134766 -5.05347656 22.55019531 -5.04882812 21.38476562 C-5.03703498 18.58979073 -5.0205765 15.7949218 -5 13 C-6.98 13 -8.96 13 -11 13 C-11 11.68 -11 10.36 -11 9 C-9.02 9 -7.04 9 -5 9 C-5 6.36 -5 3.72 -5 1 C-2 0 -2 0 0 0 Z " fill="#818181" transform="translate(133,188)"/>
<path d="M0 0 C21.12 0 42.24 0 64 0 C64 3.3 64 6.6 64 10 C42.88 10 21.76 10 0 10 C0 6.7 0 3.4 0 0 Z M2 2 C2 3.65 2 5.3 2 7 C3.04756586 8.27116763 3.04756586 8.27116763 5.39808655 8.12025452 C6.99359596 8.1169236 6.99359596 8.1169236 8.62133789 8.11352539 C9.82250748 8.11344986 11.02367706 8.11337433 12.26124573 8.11329651 C14.22214394 8.10555458 14.22214394 8.10555458 16.22265625 8.09765625 C17.56644132 8.09579198 18.91022707 8.09436812 20.25401306 8.09336853 C23.79682277 8.08954402 27.3395917 8.07971432 30.88238525 8.06866455 C34.49515227 8.05844899 38.10792584 8.0538706 41.72070312 8.04882812 C48.8138188 8.03809198 55.90690674 8.02101636 63 8 C63 6.02 63 4.04 63 2 C42.87 2 22.74 2 2 2 Z " fill="#E18140" transform="translate(62,95)"/>
<path d="M0 0 C21.12 0 42.24 0 64 0 C64 1.32 64 2.64 64 4 C42.88 4 21.76 4 0 4 C0 2.68 0 1.36 0 0 Z " fill="#E87833" transform="translate(173,82)"/>
<path d="M0 0 C5.62303757 4.67466337 10.79741554 9.67765667 15.9375 14.875 C16.71673828 15.65875 17.49597656 16.4425 18.29882812 17.25 C20.20154085 19.16438581 22.10186171 21.08108034 24 23 C21 24 21 24 17 24 C18.32 25.65 19.64 27.3 21 29 C20.34 29.66 19.68 30.32 19 31 C18.505 30.319375 18.01 29.63875 17.5 28.9375 C14.96227014 25.95566741 12.27391644 23.57912307 9.3046875 21.046875 C5.00969597 17.23234015 1.02311348 13.09731024 -3 9 C-3.99 9.33 -4.98 9.66 -6 10 C-6 8.68 -6 7.36 -6 6 C-3.525 6.495 -3.525 6.495 -1 7 C-0.25042843 3.52852158 -0.25042843 3.52852158 0 0 Z " fill="#FDEDDD" transform="translate(184,121)"/>
<path d="M0 0 C9 0 9 0 12.5625 1.4375 C15.20975541 4.2205121 15.43822457 4.8428166 15.625 8.5 C15.41013721 11.76591444 15.14247367 12.8100351 13.125 15.5 C8.10928347 19.04050578 7.9256787 18 0 18 C0 12.06 0 6.12 0 0 Z " fill="#F9F9F9" transform="translate(32,189)"/>
<path d="M0 0 C2.475 0.495 2.475 0.495 5 1 C5 1.66 5 2.32 5 3 C3.34473699 4.01876502 1.67584835 5.01546454 0 6 C-1.45019534 7.28051859 -2.85704138 8.61132536 -4.22363281 9.98071289 C-5.02085754 10.77486099 -5.81808228 11.56900909 -6.63946533 12.38722229 C-7.48547302 13.2404155 -8.33148071 14.0936087 -9.203125 14.97265625 C-10.08152039 15.85150986 -10.95991577 16.73036346 -11.8649292 17.635849 C-14.18950311 19.96420975 -16.50941031 22.29709909 -18.82751465 24.63189697 C-21.19244104 27.01031925 -23.56571404 29.38037192 -25.9375 31.75195312 C-27.7348485 33.55421542 -29.53173948 35.35693412 -31.328125 37.16015625 C-32.18222961 38.01537369 -33.03633423 38.87059113 -33.9163208 39.75172424 C-34.70093689 40.54272018 -35.48555298 41.33371613 -36.29394531 42.14868164 C-36.98723938 42.84578751 -37.68053345 43.54289337 -38.39483643 44.26112366 C-40.07639685 45.92106696 -40.07639685 45.92106696 -41 48 C-41.66 48 -42.32 48 -43 48 C-43 47.01 -43 46.02 -43 45 C-44.32 44.67 -45.64 44.34 -47 44 C-46.67 43.34 -46.34 42.68 -46 42 C-45.01 42 -44.02 42 -43 42 C-41.64843325 40.34808509 -40.320238 38.67705908 -39 37 C-37.85367685 35.95637408 -36.68426062 34.93786922 -35.5 33.9375 C-31.70937822 30.6975912 -28.15289999 27.26995904 -24.625 23.75 C-24.10099609 23.23042725 -23.57699219 22.71085449 -23.03710938 22.17553711 C-20.74612221 19.87596247 -18.80714435 17.71071653 -17 15 C-15.68 15.66 -14.36 16.32 -13 17 C-12.7525 15.88625 -12.505 14.7725 -12.25 13.625 C-11 10 -11 10 -9.0625 8.5625 C-7 8 -7 8 -4 8 C-4 7.01 -4 6.02 -4 5 C-3.01 5 -2.02 5 -1 5 C-0.67 3.35 -0.34 1.7 0 0 Z " fill="#FDEAD3" transform="translate(131,108)"/>
<path d="M0 0 C22.44 0 44.88 0 68 0 C68 2.31 68 4.62 68 7 C67 8 67 8 64.41209412 8.12025452 C63.25959671 8.11803391 62.1070993 8.11581329 60.91967773 8.11352539 C58.96776772 8.11341209 58.96776772 8.11341209 56.97642517 8.11329651 C55.54548098 8.10818909 54.11453718 8.10297308 52.68359375 8.09765625 C51.2277074 8.09579203 49.77182043 8.09436815 48.31593323 8.09336853 C44.47720621 8.08954365 40.63851681 8.07971364 36.79980469 8.06866455 C32.88542184 8.05844978 28.97103294 8.05387077 25.05664062 8.04882812 C17.37107657 8.03809134 9.68554355 8.02101529 2 8 C2 7.34 2 6.68 2 6 C1.34 6 0.68 6 0 6 C0 4.02 0 2.04 0 0 Z M2 2 C2 3.32 2 4.64 2 6 C23.12 6 44.24 6 66 6 C66 4.68 66 3.36 66 2 C44.88 2 23.76 2 2 2 Z " fill="#FEDDC2" transform="translate(171,80)"/>
<path d="M0 0 C-0.55681653 3.90113217 -2.30524832 5.66992545 -5.06079102 8.40136719 C-5.92160782 9.2619574 -6.78242462 10.12254761 -7.66932678 11.00921631 C-8.60473801 11.92914368 -9.54014923 12.84907104 -10.50390625 13.796875 C-11.46720076 14.7545722 -12.42983349 15.71293547 -13.39183044 16.67193604 C-15.92192483 19.19059231 -18.46089928 21.70010838 -21.00183105 24.20782471 C-23.59453677 26.76980732 -26.17873956 29.34033501 -28.76367188 31.91015625 C-33.8341599 36.94849841 -38.9140788 41.97723334 -44 47 C-44.99 46.67 -45.98 46.34 -47 46 C-45.59957012 42.82613059 -43.94785382 40.71139186 -41.48046875 38.28515625 C-40.78759766 37.59873047 -40.09472656 36.91230469 -39.38085938 36.20507812 C-38.65705078 35.49802734 -37.93324219 34.79097656 -37.1875 34.0625 C-36.47529297 33.35931641 -35.76308594 32.65613281 -35.02929688 31.93164062 C-33.64204531 30.56235532 -32.25301822 29.19486608 -30.86206055 27.8293457 C-27.74478457 24.76683766 -24.65810909 21.67749692 -21.61328125 18.54296875 C-20.47439453 17.37701172 -20.47439453 17.37701172 -19.3125 16.1875 C-18.54550781 15.39730469 -17.77851563 14.60710938 -16.98828125 13.79296875 C-15 12 -15 12 -13 12 C-12.773125 11.443125 -12.54625 10.88625 -12.3125 10.3125 C-10.63281165 7.3530491 -8.45866715 5.33873216 -6 3 C-5.46375 2.401875 -4.9275 1.80375 -4.375 1.1875 C-3 0 -3 0 0 0 Z " fill="#E0884E" transform="translate(206,24)"/>
<path d="M0 0 C3.63 0 7.26 0 11 0 C11 21.12 11 42.24 11 64 C7.37 64 3.74 64 0 64 C0 42.88 0 21.76 0 0 Z M2 1 C1.97687236 8.93613787 1.95908277 16.87226176 1.94818783 24.80842495 C1.94295992 28.49314498 1.93586395 32.17784203 1.92456055 35.86254883 C1.91372838 39.41570831 1.90772247 42.96884563 1.90512276 46.52202034 C1.9032691 47.88045666 1.89964962 49.23889171 1.89426994 50.59731865 C1.88705525 52.49382223 1.88659191 54.39034793 1.88647461 56.28686523 C1.884254 57.36830307 1.88203339 58.44974091 1.87974548 59.56394958 C1.7241803 61.94797472 1.7241803 61.94797472 3 63 C5.31 63 7.62 63 10 63 C10 42.54 10 22.08 10 1 C7.36 1 4.72 1 2 1 Z " fill="#EEA06D" transform="translate(152,115)"/>
<path d="M0 0 C0.66 0 1.32 0 2 0 C2 21.12 2 42.24 2 64 C3.65 64 5.3 64 7 64 C7 43.21 7 22.42 7 1 C7.33 1 7.66 1 8 1 C8 22.12 8 43.24 8 65 C2.375 66.125 2.375 66.125 -1 64 C-1.0231271 55.80309439 -1.04091696 47.60620232 -1.05181217 39.40927219 C-1.0570402 35.60348423 -1.06413638 31.79771852 -1.07543945 27.99194336 C-1.0862712 24.32207456 -1.09227744 20.65222722 -1.09487724 16.98234367 C-1.09673097 15.57925008 -1.1003506 14.17615771 -1.10573006 12.7730732 C-1.11294419 10.8143032 -1.11340809 8.8555118 -1.11352539 6.89672852 C-1.115746 5.77976089 -1.11796661 4.66279327 -1.12025452 3.51197815 C-1 1 -1 1 0 0 Z " fill="#FEE7CF" transform="translate(137,5)"/>
<path d="M0 0 C1.65 0 3.3 0 5 0 C5 12.87 5 25.74 5 39 C3.35 39 1.7 39 0 39 C0 26.13 0 13.26 0 0 Z " fill="#E67C38" transform="translate(155,5)"/>
<path d="M0 0 C1.32 0 2.64 0 4 0 C4 15.84 4 31.68 4 48 C2.68 48 1.36 48 0 48 C0 32.16 0 16.32 0 0 Z " fill="#626262" transform="translate(179,182)"/>
<path d="M0 0 C7 6 7 6 8 10 C6.82836914 11.73925781 6.82836914 11.73925781 5.03515625 13.453125 C4.40029297 14.071875 3.76542969 14.690625 3.11132812 15.328125 C2.43521484 15.96234375 1.75910156 16.5965625 1.0625 17.25 C0.39025391 17.8996875 -0.28199219 18.549375 -0.97460938 19.21875 C-2.63912593 20.82424114 -4.31415428 22.41696904 -6 24 C-6.33 23.01 -6.66 22.02 -7 21 C-7.99 20.34 -8.98 19.68 -10 19 C-9.07038578 17.84775972 -8.1309875 16.70340824 -7.1875 15.5625 C-6.66542969 14.92441406 -6.14335938 14.28632813 -5.60546875 13.62890625 C-4 12 -4 12 -1 11 C0.39712274 9.04402816 1.73779907 7.04563599 3 5 C1.35 5 -0.3 5 -2 5 C-2.226875 5.804375 -2.45375 6.60875 -2.6875 7.4375 C-3.3371875 8.7059375 -3.3371875 8.7059375 -4 10 C-6.625 10.8125 -6.625 10.8125 -9 11 C-9.33 11.99 -9.66 12.98 -10 14 C-11.62332967 15.38576923 -13.28724465 16.72641268 -15 18 C-15.66 17.67 -16.32 17.34 -17 17 C-11.39 11.39 -5.78 5.78 0 0 Z " fill="#F67526" transform="translate(105,116)"/>
<path d="M0 0 C13.2 0 26.4 0 40 0 C40 3.3 40 6.6 40 10 C26.8 10 13.6 10 0 10 C0 6.7 0 3.4 0 0 Z M28.3671875 1.21875 C27.61535187 1.24094604 26.86351624 1.26314209 26.08889771 1.28601074 C23.6842569 1.35706511 21.27962842 1.4285279 18.875 1.5 C17.24609454 1.54820395 15.6171883 1.59638137 13.98828125 1.64453125 C9.99217832 1.76271275 5.99608639 1.88126059 2 2 C2 3.98 2 5.96 2 8 C13.88 8 25.76 8 38 8 C38 5.69 38 3.38 38 1 C34.78765668 1 31.57786873 1.12298905 28.3671875 1.21875 Z " fill="#E28446" transform="translate(62,79)"/>
<path d="M0 0 C0.29692135 4.37958988 0.4694272 7.02032585 -1.4375 11 C-4.71349512 13.55687424 -6.8269933 13.52341324 -10.87890625 13.46875 C-13.49013065 12.89168383 -14.43856065 12.15508562 -16 10 C-16 6.5 -16 6.5 -15 3 C-10.87434882 -1.12565118 -5.44293618 -0.28535782 0 0 Z " fill="#F7F7F7" transform="translate(165,214)"/>
<path d="M0 0 C0.4359501 4.35950104 0.23867835 6.57653841 -1.9375 10.4375 C-5.60992418 13.51034472 -7.39528244 13.5924592 -12.01171875 13.40625 C-14 13 -14 13 -16 11 C-16.52140959 6.97769747 -16.64520699 4.86769216 -14.1875 1.5625 C-9.50676177 -0.73197952 -5.12149648 -0.32289645 0 0 Z " fill="#F8F8F8" transform="translate(77,214)"/>
<path d="M0 0 C3.2531522 1.16184007 5.40806605 2.94729237 7.23046875 5.90234375 C9.26305298 11.44294137 9.05812679 17.98480685 7.1171875 23.515625 C5.08769728 27.14451479 3.28163248 28.82995775 -0.3125 31 C-4.49301063 32.1336978 -7.69417155 32.22662255 -12 32 C-12 31.67 -12 31.34 -12 31 C-10.35 30.67 -8.7 30.34 -7 30 C-7.99 29.34 -8.98 28.68 -10 28 C-9.38511719 27.90203125 -8.77023438 27.8040625 -8.13671875 27.703125 C-7.32847656 27.55359375 -6.52023438 27.4040625 -5.6875 27.25 C-4.88699219 27.11078125 -4.08648437 26.9715625 -3.26171875 26.828125 C-0.298357 25.74309444 0.54155253 24.79651516 2 22 C2.47536811 18.6333541 2.47536811 18.6333541 2.375 15 C2.38273438 13.783125 2.39046875 12.56625 2.3984375 11.3125 C1.97609125 7.80122925 1.23899033 6.6171576 -1 4 C-0.6875 1.75 -0.6875 1.75 0 0 Z " fill="#6A6A6A" transform="translate(245,199)"/>
<path d="M0 0 C0.19397476 1.97854258 0.38001321 3.9578648 0.5625 5.9375 C0.71912109 7.59072266 0.71912109 7.59072266 0.87890625 9.27734375 C0.93884766 10.62505859 0.93884766 10.62505859 1 12 C0 13 0 13 -2.62586975 13.12025452 C-3.79613205 13.11803391 -4.96639435 13.11581329 -6.17211914 13.11352539 C-7.13794167 13.11374443 -7.13794167 13.11374443 -8.12327576 13.1139679 C-10.26060303 13.11326885 -12.39784413 13.10547691 -14.53515625 13.09765625 C-16.01346285 13.09579204 -17.49177007 13.09436815 -18.97007751 13.09336853 C-22.86798802 13.08954359 -26.76586149 13.07971352 -30.66375732 13.06866455 C-34.63846333 13.05844992 -38.61317529 13.0538708 -42.58789062 13.04882812 C-50.391944 13.03809122 -58.19596682 13.02101509 -66 13 C-66 12.67 -66 12.34 -66 12 C-44.88 12 -23.76 12 -2 12 C-2 8.7 -2 5.4 -2 2 C-23.12 2 -44.24 2 -66 2 C-66 4.97 -66 7.94 -66 11 C-66.33 11 -66.66 11 -67 11 C-67 7.7 -67 4.4 -67 1 C-58.41194065 0.86952749 -49.82388007 0.73913581 -41.23581791 0.60884857 C-37.24843854 0.54835452 -33.26105961 0.48783216 -29.27368164 0.42724609 C-25.42875199 0.36882548 -21.58382124 0.31047794 -17.73888969 0.25218201 C-16.26881305 0.22988003 -14.7987368 0.2075513 -13.32866096 0.18519592 C-11.27648141 0.153993 -9.22430046 0.12288348 -7.17211914 0.09179688 C-6.00185684 0.07403198 -4.83159454 0.05626709 -3.62586975 0.03796387 C-1 0 -1 0 0 0 Z " fill="#FEDFBE" transform="translate(128,93)"/>
<path d="M0 0 C1.32 0 2.64 0 4 0 C4 1.98 4 3.96 4 6 C4.66 6 5.32 6 6 6 C5.67 14.91 5.34 23.82 5 33 C3.35 33 1.7 33 0 33 C0 22.11 0 11.22 0 0 Z " fill="#747474" transform="translate(260,197)"/>
<path d="M0 0 C12.87 0 25.74 0 39 0 C39 1.32 39 2.64 39 4 C26.13 4 13.26 4 0 4 C0 2.68 0 1.36 0 0 Z " fill="#E87A34" transform="translate(198,98)"/>
<path d="M0 0 C2.3125 1.5625 2.3125 1.5625 4 4 C4.33 6.31 4.66 8.62 5 11 C-0.61 11 -6.22 11 -12 11 C-11 4 -11 4 -8.8125 1.5625 C-5.47784863 -0.29008409 -3.7555677 -0.63924557 0 0 Z " fill="#F8F8F8" transform="translate(208,200)"/>
<path d="M0 0 C1.485 0.99 1.485 0.99 3 2 C3.19489857 4.9057605 3.23434499 7.60473492 3.125 10.5 C2.69388445 15.90875318 2.69388445 15.90875318 4 21 C4.01605041 22.52388763 3.9655743 24.04880674 3.87890625 25.5703125 C3.83056641 26.46621094 3.78222656 27.36210937 3.73242188 28.28515625 C3.67634766 29.22230469 3.62027344 30.15945312 3.5625 31.125 C3.48418945 32.54232422 3.48418945 32.54232422 3.40429688 33.98828125 C3.27443239 36.3258419 3.1394613 38.66299545 3 41 C1.68 41 0.36 41 -1 41 C-1.0250466 36.92896481 -1.04302089 32.85796054 -1.05493164 28.78686523 C-1.05990624 27.40697446 -1.06668832 26.02708879 -1.07543945 24.6472168 C-1.12655771 16.36906676 -0.96057715 8.22717546 0 0 Z " fill="#5E5E5E" transform="translate(28,189)"/>
<path d="M0 0 C0.33 0 0.66 0 1 0 C1 12.87 1 25.74 1 39 C4.3 39 7.6 39 11 39 C11 26.13 11 13.26 11 0 C11.66 0 12.32 0 13 0 C13.16721596 5.67813837 13.32781538 11.35640975 13.48217773 17.03491211 C13.5356778 18.96823209 13.59101308 20.90150216 13.64819336 22.8347168 C13.72988175 25.60714959 13.80505352 28.37969258 13.87890625 31.15234375 C13.90594131 32.02213364 13.93297638 32.89192352 13.96083069 33.78807068 C14.01278164 35.85810315 14.01188571 37.92934984 14 40 C13 41 13 41 10.3125 41.1328125 C9.219375 41.13023437 8.12625 41.12765625 7 41.125 C5.906875 41.12757813 4.81375 41.13015625 3.6875 41.1328125 C1 41 1 41 0 40 C-0.08868299 37.04294679 -0.11520296 34.10934944 -0.09765625 31.15234375 C-0.0962413 30.2659169 -0.09482635 29.37949005 -0.09336853 28.46620178 C-0.08775215 25.62326746 -0.07519691 22.78041069 -0.0625 19.9375 C-0.05748711 18.01497509 -0.05292384 16.09244896 -0.04882812 14.16992188 C-0.03777741 9.44658451 -0.02050183 4.72330542 0 0 Z " fill="#FEE9D3" transform="translate(135,140)"/>
<path d="M0 0 C0.99 0.33 1.98 0.66 3 1 C1.37843976 5.10108886 -1.5767703 7.83148167 -4.6640625 10.859375 C-5.21613373 11.40861633 -5.76820496 11.95785767 -6.33700562 12.52374268 C-8.09501815 14.27059293 -9.8598689 16.01034601 -11.625 17.75 C-12.8207708 18.93573591 -14.01608865 20.1219288 -15.2109375 21.30859375 C-18.13540253 24.21105085 -21.06601874 27.1071641 -24 30 C-24.99 29.67 -25.98 29.34 -27 29 C-25.37843976 24.89891114 -22.4232297 22.16851833 -19.3359375 19.140625 C-18.78386627 18.59138367 -18.23179504 18.04214233 -17.66299438 17.47625732 C-15.90498185 15.72940707 -14.1401311 13.98965399 -12.375 12.25 C-11.1792292 11.06426409 -9.98391135 9.8780712 -8.7890625 8.69140625 C-5.86459747 5.78894915 -2.93398126 2.8928359 0 0 Z " fill="#E18B54" transform="translate(215,35)"/>
<path d="M0 0 C1.32 0.33 2.64 0.66 4 1 C3.01 1 2.02 1 1 1 C1.33 3.64 1.66 6.28 2 9 C2.99 8.67 3.98 8.34 5 8 C5 16.25 5 24.5 5 33 C3.35 33 1.7 33 0 33 C0 22.11 0 11.22 0 0 Z " fill="#787878" transform="translate(90,197)"/>
<path d="M0 0 C4.21150519 1.73953475 6.01796458 3.9316115 8 8 C8 8.66 8 9.32 8 10 C6.68 9.67 5.36 9.34 4 9 C3.67 9.66 3.34 10.32 3 11 C2.71125 10.21625 2.4225 9.4325 2.125 8.625 C1.15087746 5.90328368 1.15087746 5.90328368 -1 4 C-3.87237733 3.41557037 -3.87237733 3.41557037 -7 4 C-11.21705211 7.27992942 -11.92248735 8.61243673 -13 14 C-7.39 14 -1.78 14 4 14 C4 14.33 4 14.66 4 15 C-1.94 15 -7.88 15 -14 15 C-14 13.35 -14 11.7 -14 10 C-14.99 10 -15.98 10 -17 10 C-15.68745073 6.0623522 -14.1247232 3.7341328 -11 1 C-7.54820431 -0.72589785 -3.78133961 -0.36043965 0 0 Z " fill="#696969" transform="translate(209,197)"/>
<path d="M0 0 C1.39025391 -0.05607422 1.39025391 -0.05607422 2.80859375 -0.11328125 C6.51288649 0.45943919 8.06126875 1.52887167 10.5625 4.3125 C11.12109375 7.6953125 11.12109375 7.6953125 11 11.4375 C10.97808594 12.67757812 10.95617187 13.91765625 10.93359375 15.1953125 C10.5625 18.3125 10.5625 18.3125 8.5625 20.3125 C8.2325 18.9925 7.9025 17.6725 7.5625 16.3125 C5.2525 16.3125 2.9425 16.3125 0.5625 16.3125 C0.5625 15.6525 0.5625 14.9925 0.5625 14.3125 C2.8725 14.3125 5.1825 14.3125 7.5625 14.3125 C7.17650037 9.64676218 7.17650037 9.64676218 5.4375 5.375 C0.99892523 2.85980763 -4.65939689 4.3801872 -9.4375 5.3125 C-9.4375 3.9925 -9.4375 2.6725 -9.4375 1.3125 C-6.2628303 0.39371324 -3.30173294 0.08700822 0 0 Z " fill="#616161" transform="translate(69.4375,196.6875)"/>
<path d="M0 0 C0.03758423 1.02939697 0.03758423 1.02939697 0.07592773 2.07958984 C0.19171427 5.17825817 0.31451885 8.27660923 0.4375 11.375 C0.47681641 12.45523438 0.51613281 13.53546875 0.55664062 14.6484375 C0.59853516 15.6796875 0.64042969 16.7109375 0.68359375 17.7734375 C0.72025146 18.72653809 0.75690918 19.67963867 0.79467773 20.66162109 C0.85763465 23.02132349 0.85763465 23.02132349 2 25 C4.32156597 25.40729228 6.6568787 25.74438677 9 26 C9 26.99 9 27.98 9 29 C5.95016004 30.52491998 3.3576631 30.23562548 0 30 C-1.7043457 28.8581543 -1.7043457 28.8581543 -3 27 C-3.34057617 24.27270508 -3.34057617 24.27270508 -3.29296875 21.01953125 C-3.28330078 19.85615234 -3.27363281 18.69277344 -3.26367188 17.49414062 C-3.2259668 15.67172852 -3.2259668 15.67172852 -3.1875 13.8125 C-3.17396484 12.58595703 -3.16042969 11.35941406 -3.14648438 10.09570312 C-3.11108741 7.06336336 -3.0617076 4.03190004 -3 1 C-1 0 -1 0 0 0 Z " fill="#585858" transform="translate(132,201)"/>
<path d="M0 0 C4.41832494 1.35004373 6.64842388 2.99361106 9 7 C9.8185985 13.34413835 8.79846117 16.86694437 5 22 C2.25 23.4375 2.25 23.4375 0 24 C0 23.34 0 22.68 0 22 C-0.66 22 -1.32 22 -2 22 C-2 21.34 -2 20.68 -2 20 C-1.360625 19.71125 -0.72125 19.4225 -0.0625 19.125 C2.15206079 18.17176549 2.15206079 18.17176549 3 16 C3.41305603 12.94338538 3.50878409 10.04729197 3 7 C0.6816144 4.39089037 0.6816144 4.39089037 -2 3 C-1.34 2.01 -0.68 1.02 0 0 Z " fill="#6B6B6B" transform="translate(43,186)"/>
<path d="M0 0 C0.99 0.33 1.98 0.66 3 1 C1.25 4.875 1.25 4.875 -1 6 C-1.33 27.12 -1.66 48.24 -2 70 C-5.63 70 -9.26 70 -13 70 C-13 69.67 -13 69.34 -13 69 C-9.7 69 -6.4 69 -3 69 C-3 47.88 -3 26.76 -3 5 C-6.3 5 -9.6 5 -13 5 C-13 4.34 -13 3.68 -13 3 C-8.71 3 -4.42 3 0 3 C0 2.01 0 1.02 0 0 Z " fill="#FEF0D9" transform="translate(166,110)"/>
<path d="M0 0 C2.5 1.3125 2.5 1.3125 5 3 C5 3.99 5 4.98 5 6 C4.01 6.33 3.02 6.66 2 7 C1.26676204 9.01508358 1.26676204 9.01508358 1 11 C0.34 11 -0.32 11 -1 11 C-1 11.99 -1 12.98 -1 14 C-1.66 14 -2.32 14 -3 14 C-3 14.99 -3 15.98 -3 17 C-3.99 16.67 -4.98 16.34 -6 16 C-6 15.01 -6 14.02 -6 13 C-6.99 13.33 -7.98 13.66 -9 14 C-9.80859375 12.328125 -9.80859375 12.328125 -10 10 C-7.91015625 7.421875 -7.91015625 7.421875 -5.0625 4.75 C-4.12535156 3.85796875 -3.18820313 2.9659375 -2.22265625 2.046875 C-1.48917969 1.37140625 -0.75570312 0.6959375 0 0 Z " fill="#FA7019" transform="translate(117,129)"/>
<path d="M0 0 C5.82086707 0.1179265 11.6415519 0.24215042 17.4621582 0.37231445 C19.44389146 0.41573144 21.42566378 0.45740137 23.4074707 0.49731445 C26.2496317 0.55485383 29.09159483 0.61859445 31.93359375 0.68359375 C32.82525742 0.70030624 33.71692108 0.71701874 34.63560486 0.73423767 C40.88612829 0.88612829 40.88612829 0.88612829 42 2 C42.07205511 3.68608966 42.08386068 5.37500659 42.0625 7.0625 C42.05347656 7.98160156 42.04445312 8.90070313 42.03515625 9.84765625 C42.02355469 10.55792969 42.01195312 11.26820312 42 12 C41.67 12 41.34 12 41 12 C41 9.03 41 6.06 41 3 C27.8 3 14.6 3 1 3 C1 5.97 1 8.94 1 12 C0.67 12 0.34 12 0 12 C-2.24242788 4.52524038 -2.24242788 4.52524038 -1.01513672 1.86621094 C-0.6801416 1.25036133 -0.34514648 0.63451172 0 0 Z " fill="#FEE8D0" transform="translate(61,76)"/>
<path d="M0 0 C0.99 0.33 1.98 0.66 3 1 C3.66 0.67 4.32 0.34 5 0 C5.45375 0.94875 5.9075 1.8975 6.375 2.875 C7.80238254 6.00313679 7.80238254 6.00313679 10 8 C13.35744112 8.24377883 13.35744112 8.24377883 17.125 8.125 C18.40632813 8.10695312 19.68765625 8.08890625 21.0078125 8.0703125 C21.99523437 8.04710937 22.98265625 8.02390625 24 8 C23.6875 9.9375 23.6875 9.9375 23 12 C17.7935264 13.7354912 12.85065911 13.66344383 7.6875 11.8125 C3.80450164 9.19373366 1.47026645 6.76349917 0.25 2.1875 C0.1675 1.465625 0.085 0.74375 0 0 Z " fill="#676767" transform="translate(191,218)"/>
<path d="M0 0 C4.77379752 1.19344938 6.38574709 2.79645765 10 6 C8.4462183 9.81382782 5.91468251 12.21023246 3 15 C1.39313952 16.60146833 -0.21085362 18.205817 -1.8125 19.8125 C-3.20833333 21.20833333 -4.60416667 22.60416667 -6 24 C-6.33 23.01 -6.66 22.02 -7 21 C-6.67 20.34 -6.34 19.68 -6 19 C-5.01 19 -4.02 19 -3 19 C-3 17.68 -3 16.36 -3 15 C-1.68 15 -0.36 15 1 15 C1.33 11.37 1.66 7.74 2 4 C-2.10846523 4.87345723 -2.10846523 4.87345723 -6 7 C-4.02 4.69 -2.04 2.38 0 0 Z " fill="#EC792E" transform="translate(133,111)"/>
<path d="M0 0 C5.9793432 1.04638506 8.52660441 4.51504489 12.16796875 9.00390625 C13.92798868 11.24549672 13.92798868 11.24549672 17 12 C17.33 10.35 17.66 8.7 18 7 C19.17539996 7.92652701 20.34010577 8.86663387 21.5 9.8125 C22.1496875 10.33457031 22.799375 10.85664062 23.46875 11.39453125 C25 13 25 13 25 16 C23.125 18.1875 23.125 18.1875 21 20 C20.34 20 19.68 20 19 20 C17.5546875 18.53125 17.5546875 18.53125 15.875 16.5 C12.13404976 12.09520682 8.12182216 8.04533474 4 4 C2.66550269 2.66783166 1.33185596 1.33480907 0 0 Z " fill="#F37628" transform="translate(104,64)"/>
<path d="M0 0 C0.66 0 1.32 0 2 0 C2 1.32 2 2.64 2 4 C14.87 4 27.74 4 41 4 C41.33 2.68 41.66 1.36 42 0 C42 1.98 42 3.96 42 6 C28.14 6 14.28 6 0 6 C0 4.02 0 2.04 0 0 Z " fill="#FDDFC3" transform="translate(196,98)"/>
<path d="M0 0 C5.41830727 2.3840552 10.65671672 5.41217065 13 11 C15.46054616 13.78861899 17.65297544 15.43805521 21 17 C21.66 17.66 22.32 18.32 23 19 C23.33 17.35 23.66 15.7 24 14 C25.65 15.32 27.3 16.64 29 18 C27.60840337 21.47899158 26.36748512 22.48052501 23 24 C19.72128157 20.74592504 16.44580355 17.48863647 13.17333984 14.22827148 C12.05867476 13.11864792 10.94311557 12.0099218 9.82666016 10.90209961 C8.22585196 9.31336495 6.62824388 7.72147383 5.03125 6.12890625 C4.52815308 5.63097061 4.02505615 5.13303497 3.50671387 4.62001038 C2.31867898 3.43217036 1.15643985 2.21862122 0 1 C0 0.67 0 0.34 0 0 Z " fill="#E37D36" transform="translate(190,126)"/>
<path d="M0 0 C3.05887297 2.24733524 4.55717008 3.73963792 5.8125 7.3125 C5.874375 7.869375 5.93625 8.42625 6 9 C5.01 9.33 4.02 9.66 3 10 C2.38125 9.195625 1.7625 8.39125 1.125 7.5625 C-0.74164041 4.96125481 -0.74164041 4.96125481 -3 4 C-7.67181016 3.58472799 -10.17508513 4.30006009 -14 7 C-14.66 6.34 -15.32 5.68 -16 5 C-11.16551932 -0.08892703 -6.9939988 -1.46873975 0 0 Z " fill="#636363" transform="translate(280,197)"/>
<path d="M0 0 C1.32 0.33 2.64 0.66 4 1 C-1.28 6.28 -6.56 11.56 -12 17 C-13.1832439 13.45026831 -12.90010116 11.60040463 -12 8 C-10.03976712 5.29301174 -8.26171623 4.52608326 -5 4 C-4.34 4 -3.68 4 -3 4 C-1.36323743 2.0399719 -1.36323743 2.0399719 0 0 Z " fill="#FCF2E4" transform="translate(93,124)"/>
<path d="M0 0 C4.91935902 4.11619836 9.52647956 8.40410362 14 13 C13.01 13.495 13.01 13.495 12 14 C11.01 13.67 10.02 13.34 9 13 C9 12.34 9 11.68 9 11 C8.34 11 7.68 11 7 11 C5.98133771 9.34467377 4.98189187 7.67739862 4 6 C3.34 5.67 2.68 5.34 2 5 C1.34 6.65 0.68 8.3 0 10 C1.65 9.67 3.3 9.34 5 9 C5 10.32 5 11.64 5 13 C4.34 13.66 3.68 14.32 3 15 C0.69 13.02 -1.62 11.04 -4 9 C-4.99 9.495 -4.99 9.495 -6 10 C-6 8.68 -6 7.36 -6 6 C-3.525 6.495 -3.525 6.495 -1 7 C-0.25042843 3.52852158 -0.25042843 3.52852158 0 0 Z " fill="#FDE8D3" transform="translate(184,121)"/>
<path d="M0 0 C0 4.31618166 -2.13270348 5.92789659 -5 9 C-5.66 9 -6.32 9 -7 9 C-7.12375 10.299375 -7.2475 11.59875 -7.375 12.9375 C-7.5859375 15.15234375 -7.5859375 15.15234375 -8 17 C-8.66 17.33 -9.32 17.66 -10 18 C-12.625 17.0625 -12.625 17.0625 -15 16 C-15 16.66 -15 17.32 -15 18 C-15.66 18.33 -16.32 18.66 -17 19 C-17.268125 19.66 -17.53625 20.32 -17.8125 21 C-19 23 -19 23 -21.625 23.75 C-22.40875 23.8325 -23.1925 23.915 -24 24 C-20.02117359 19.10298287 -15.80526399 14.98014506 -11.0390625 10.8515625 C-8.73551906 8.75983915 -6.90719024 6.45210173 -5 4 C-3.36643049 2.62631655 -1.7074998 1.28062485 0 0 Z " fill="#FBF7E9" transform="translate(127,134)"/>
<path d="M0 0 C4.03384128 2.07143201 5.92856799 3.96615872 8 8 C7.01 8.33 6.02 8.66 5 9 C4.731875 8.401875 4.46375 7.80375 4.1875 7.1875 C3.1106021 4.95672092 3.1106021 4.95672092 1.375 3.375 C0.92125 2.92125 0.4675 2.4675 0 2 C0 1.34 0 0.68 0 0 Z M-1 9 C0.98 9 2.96 9 5 9 C5 9.66 5 10.32 5 11 C5.66 11 6.32 11 7 11 C6.67 12.32 6.34 13.64 6 15 C6.61875 15.103125 7.2375 15.20625 7.875 15.3125 C10 16 10 16 12 19 C14.05925139 19.72382467 14.05925139 19.72382467 16 20 C15.67 21.65 15.34 23.3 15 25 C9.35573231 20.31645873 3.9941954 15.3792354 -1 10 C-1 9.67 -1 9.34 -1 9 Z " fill="#FDE9D3" transform="translate(107,45)"/>
<path d="M0 0 C0.99 0.33 1.98 0.66 3 1 C-5.25 9.25 -13.5 17.5 -22 26 C-22.66 25.34 -23.32 24.68 -24 24 C-23.195625 23.2575 -22.39125 22.515 -21.5625 21.75 C-19.23011409 19.24695171 -18.36465606 18.2819045 -18 15 C-15.69 14.34 -13.38 13.68 -11 13 C-11 12.34 -11 11.68 -11 11 C-10.34 11 -9.68 11 -9 11 C-8.67 10.01 -8.34 9.02 -8 8 C-7.34 8 -6.68 8 -6 8 C-5.731875 7.360625 -5.46375 6.72125 -5.1875 6.0625 C-4 4 -4 4 -1 3 C-0.67 2.01 -0.34 1.02 0 0 Z " fill="#FEF5E4" transform="translate(212,35)"/>
<path d="M0 0 C1.65 0.33 3.3 0.66 5 1 C4.2575 2.0828125 4.2575 2.0828125 3.5 3.1875 C1.88362626 6.21820077 1.56860853 7.63514653 2 11 C2.65129797 12.34090759 3.31513275 13.67592331 4 15 C3.67 15.66 3.34 16.32 3 17 C-0.16115776 15.63016497 -0.9927092 15.0109362 -3 12 C-3.56074766 4.93457944 -3.56074766 4.93457944 -1.5 1.5 C-1.005 1.005 -0.51 0.51 0 0 Z " fill="#616161" transform="translate(148,213)"/>
<path d="M0 0 C-0.66 2.64 -1.32 5.28 -2 8 C-5.63 8 -9.26 8 -13 8 C-13.33 9.32 -13.66 10.64 -14 12 C-15.65 12.33 -17.3 12.66 -19 13 C-8.38100559 -0.59553073 -8.38100559 -0.59553073 0 0 Z " fill="#F8701C" transform="translate(137,114)"/>
<path d="M0 0 C0.66 0 1.32 0 2 0 C3.27861615 2.55723229 3.11336609 4.36737102 3.09765625 7.2265625 C3.09282227 8.7734375 3.09282227 8.7734375 3.08789062 10.3515625 C3.07951172 11.43179688 3.07113281 12.51203125 3.0625 13.625 C3.05798828 14.71296875 3.05347656 15.8009375 3.04882812 16.921875 C3.03701776 19.61463789 3.02054778 22.30729188 3 25 C2.01 25 1.02 25 0 25 C0 16.75 0 8.5 0 0 Z " fill="#5A5A5A" transform="translate(112,205)"/>
<path d="M0 0 C1.485 0.99 1.485 0.99 3 2 C3.19489857 4.9057605 3.23434499 7.60473492 3.125 10.5 C2.69388445 15.90875318 2.69388445 15.90875318 4 21 C3.0625 23.125 3.0625 23.125 2 25 C-1.59068685 21.40931315 -0.87416153 15.87910086 -1 11 C-0.81308662 7.31068593 -0.46877292 3.66364065 0 0 Z " fill="#585858" transform="translate(28,189)"/>
<path d="M0 0 C0.99 0.33 1.98 0.66 3 1 C4.1875 3.5625 4.1875 3.5625 5 6 C5.66 6 6.32 6 7 6 C7 6.66 7 7.32 7 8 C8.65 8.33 10.3 8.66 12 9 C12.33 10.65 12.66 12.3 13 14 C11.68 14.33 10.36 14.66 9 15 C9 14.34 9 13.68 9 13 C8.21625 12.690625 7.4325 12.38125 6.625 12.0625 C4 11 4 11 2 10 C2.33 8.35 2.66 6.7 3 5 C1.35 5 -0.3 5 -2 5 C-1.34 3.35 -0.68 1.7 0 0 Z " fill="#FBFCF8" transform="translate(186,126)"/>
<path d="M0 0 C0.33 1.32 0.66 2.64 1 4 C-1.25 6.5625 -1.25 6.5625 -4 9 C-4.53625 9.5775 -5.0725 10.155 -5.625 10.75 C-7 12 -7 12 -10 13 C-12.57406215 15.88797217 -14.85416616 18.78124924 -17 22 C-18.32 21.67 -19.64 21.34 -21 21 C-14.07 14.07 -7.14 7.14 0 0 Z " fill="#FEEFDB" transform="translate(215,40)"/>
<path d="M0 0 C0.99 0.66 1.98 1.32 3 2 C2.01 2.99 1.02 3.98 0 5 C1.66751148 8.94139078 4.22710649 11.7892812 7 15 C5.35 14.67 3.7 14.34 2 14 C2.66 15.98 3.32 17.96 4 20 C1 20 1 20 -0.38671875 18.6875 C-1.59114583 17.125 -2.79557292 15.5625 -4 14 C-3.01 14 -2.02 14 -1 14 C-0.67 12.35 -0.34 10.7 0 9 C-0.99 8.67 -1.98 8.34 -3 8 C-3 6.35 -3 4.7 -3 3 C-2.01 3 -1.02 3 0 3 C0 2.01 0 1.02 0 0 Z " fill="#FDF0DA" transform="translate(92,22)"/>
<path d="M0 0 C1.17539996 0.92652701 2.34010577 1.86663387 3.5 2.8125 C4.1496875 3.33457031 4.799375 3.85664062 5.46875 4.39453125 C7 6 7 6 7 9 C5 11.1875 5 11.1875 3 13 C-1.20626034 11.49776416 -2.73900021 8.71449966 -5 5 C-3.35 5 -1.7 5 0 5 C0.33 5.66 0.66 6.32 1 7 C1.21081851 3.10540926 1.21081851 3.10540926 0 0 Z " fill="#EC792F" transform="translate(116,42)"/>
<path d="M0 0 C0.556875 0.309375 1.11375 0.61875 1.6875 0.9375 C3.97019863 2.0942205 3.97019863 2.0942205 6.5 2.5 C8.97517916 2.99503583 10.80504887 3.78058271 13 5 C12.67 5.99 12.34 6.98 12 8 C12.99 8.33 13.98 8.66 15 9 C15 7.68 15 6.36 15 5 C15.99 5.33 16.98 5.66 18 6 C16.59284684 9.40062014 14.97131772 10.89229698 12 13 C9.99698146 11.0238076 7.99750133 9.04425526 6 7.0625 C5.42765625 6.49853516 4.8553125 5.93457031 4.265625 5.35351562 C2.82474495 3.92121224 1.41012857 2.46258871 0 1 C0 0.67 0 0.34 0 0 Z " fill="#E67C36" transform="translate(190,149)"/>
<path d="M0 0 C0.68835938 0.59748047 0.68835938 0.59748047 1.390625 1.20703125 C4.52271585 3.91142062 7.63877459 6.57991771 11 9 C12.65 7.02 14.3 5.04 16 3 C16.99 3.99 17.98 4.98 19 6 C17.375 9 17.375 9 15 12 C11.75 12.375 11.75 12.375 9 12 C8.67 11.01 8.34 10.02 8 9 C5.03 8.505 5.03 8.505 2 8 C1.34 5.36 0.68 2.72 0 0 Z " fill="#FDEEDE" transform="translate(192,152)"/>
<path d="M0 0 C2.16874252 0.50603992 3.99967627 0.99983813 6 2 C6 2.66 6 3.32 6 4 C6.61875 4.12375 7.2375 4.2475 7.875 4.375 C10 5 10 5 12 7 C12.125 9.625 12.125 9.625 12 12 C10.68 11.67 9.36 11.34 8 11 C8.33 10.01 8.66 9.02 9 8 C8.01 8 7.02 8 6 8 C5.67 7.34 5.34 6.68 5 6 C4.01 6.33 3.02 6.66 2 7 C0.5393715 4.35261084 0 3.10551666 0 0 Z " fill="#F7721B" transform="translate(193,146)"/>
<path d="M0 0 C1.32 1.32 2.64 2.64 4 4 C2.68 3.67 1.36 3.34 0 3 C0 3.66 0 4.32 0 5 C-0.66 5 -1.32 5 -2 5 C-2.226875 5.804375 -2.45375 6.60875 -2.6875 7.4375 C-3.3371875 8.7059375 -3.3371875 8.7059375 -4 10 C-6.625 10.8125 -6.625 10.8125 -9 11 C-9.33 11.99 -9.66 12.98 -10 14 C-11.62332967 15.38576923 -13.28724465 16.72641268 -15 18 C-15.66 17.67 -16.32 17.34 -17 17 C-11.39 11.39 -5.78 5.78 0 0 Z " fill="#E77A39" transform="translate(105,116)"/>
<path d="M0 0 C0.66 0 1.32 0 2 0 C2.43494462 4.43643516 2.54001196 6.32863378 -0.3125 9.875 C-3 12 -3 12 -6 13 C-6 12.34 -6 11.68 -6 11 C-6.66 11 -7.32 11 -8 11 C-8 10.34 -8 9.68 -8 9 C-7.4225 8.814375 -6.845 8.62875 -6.25 8.4375 C-2.89572157 6.29448878 -1.82092004 3.51177437 0 0 Z " fill="#5F5F5F" transform="translate(49,197)"/>
<path d="M0 0 C0 3 0 3 -1.8984375 5.05078125 C-3.54274995 6.5524483 -5.1885725 8.05246356 -6.8359375 9.55078125 C-9.26741623 12.30265339 -10.05959288 14.4805976 -11 18 C-11.33 18.99 -11.66 19.98 -12 21 C-12.66 21 -13.32 21 -14 21 C-14.33 20.01 -14.66 19.02 -15 18 C-16.98 18.99 -16.98 18.99 -19 20 C-13.17371096 12.84198775 -6.5617015 6.47408234 0 0 Z " fill="#E87933" transform="translate(117,127)"/>
<path d="M0 0 C2.31 0 4.62 0 7 0 C6.01 1.485 6.01 1.485 5 3 C4.34 3 3.68 3 3 3 C2.67 3.99 2.34 4.98 2 6 C1.34 6 0.68 6 0 6 C-0.226875 6.5775 -0.45375 7.155 -0.6875 7.75 C-2.33038023 10.5663661 -4.39533227 12.08077114 -7 14 C-7 13.01 -7 12.02 -7 11 C-6.34 11 -5.68 11 -5 11 C-5 10.01 -5 9.02 -5 8 C-4.34 8 -3.68 8 -3 8 C-3 7.01 -3 6.02 -3 5 C-2.34 5 -1.68 5 -1 5 C-0.67 3.35 -0.34 1.7 0 0 Z " fill="#F07C34" transform="translate(119,135)"/>
<path d="M0 0 C0.66 0.33 1.32 0.66 2 1 C2.33 1.99 2.66 2.98 3 4 C2.01 5.485 2.01 5.485 1 7 C0.67 8.65 0.34 10.3 0 12 C5.61 12 11.22 12 17 12 C17 12.33 17 12.66 17 13 C11.06 13 5.12 13 -1 13 C-1 11.35 -1 9.7 -1 8 C-1.99 8 -2.98 8 -4 8 C-2.87548273 5.0280615 -1.77706209 2.66559313 0 0 Z " fill="#7F7F7F" transform="translate(196,199)"/>
<path d="M0 0 C0.66 0.33 1.32 0.66 2 1 C2 1.99 2 2.98 2 4 C-1.55654669 7.39488548 -3.16563466 8.79140866 -8 10 C-8 7.03 -8 4.06 -8 1 C-7.01 1 -6.02 1 -5 1 C-4.67 1.99 -4.34 2.98 -4 4 C-2.68 2.68 -1.36 1.36 0 0 Z " fill="#6C6C6C" transform="translate(99,197)"/>
<path d="M0 0 C0.05389087 1.95803507 0.09274217 3.91648909 0.125 5.875 C0.14820312 6.96554688 0.17140625 8.05609375 0.1953125 9.1796875 C0 12 0 12 -2 14 C-2.33 12.68 -2.66 11.36 -3 10 C-5.31 10 -7.62 10 -10 10 C-10 9.34 -10 8.68 -10 8 C-7.69 8 -5.38 8 -3 8 C-3 5.69 -3 3.38 -3 1 C-1 0 -1 0 0 0 Z " fill="#585858" transform="translate(80,203)"/>
<path d="M0 0 C1.2065625 0.0309375 1.2065625 0.0309375 2.4375 0.0625 C2.1075 2.7025 1.7775 5.3425 1.4375 8.0625 C2.4275 8.3925 3.4175 8.7225 4.4375 9.0625 C3.7775 9.7225 3.1175 10.3825 2.4375 11.0625 C0.1275 9.0825 -2.1825 7.1025 -4.5625 5.0625 C-5.5525 5.7225 -6.5425 6.3825 -7.5625 7.0625 C-7.5625 5.7425 -7.5625 4.4225 -7.5625 3.0625 C-6.923125 2.753125 -6.28375 2.44375 -5.625 2.125 C-1.57454819 0.03840361 -1.57454819 0.03840361 0 0 Z " fill="#FBF0E3" transform="translate(109.5625,111.9375)"/>
<path d="M0 0 C2.625 -0.1875 2.625 -0.1875 5 0 C2.6638133 4.83924389 0.64900019 7.27863403 -4 10 C-5.75149165 11.58245275 -5.75149165 11.58245275 -7 13 C-7.3125 10.8125 -7.3125 10.8125 -7 8 C-4.625 5.375 -4.625 5.375 -2 3 C-1.34 2.01 -0.68 1.02 0 0 Z " fill="#FA6F15" transform="translate(103,121)"/>
<path d="M0 0 C3.875 1.75 3.875 1.75 5 4 C3.35 3.67 1.7 3.34 0 3 C0 3.66 0 4.32 0 5 C1.62626404 6.38232443 3.2925002 7.71937515 5 9 C4.34 9 3.68 9 3 9 C2.67 10.32 2.34 11.64 2 13 C0.02 11.02 -1.96 9.04 -4 7 C-2.79618552 4.50638429 -1.54571278 2.31856917 0 0 Z " fill="#E7813F" transform="translate(95,22)"/>
<path d="M0 0 C0.66 0.66 1.32 1.32 2 2 C4.32275177 2.40047444 6.65739357 2.7397104 9 3 C9 3.99 9 4.98 9 6 C5.95016004 7.52491998 3.3576631 7.23562548 0 7 C-1.9375 5.625 -1.9375 5.625 -3 4 C-3 3.34 -3 2.68 -3 2 C-2.01 1.34 -1.02 0.68 0 0 Z " fill="#6B6B6B" transform="translate(132,224)"/>
<path d="M0 0 C4.97055123 1.27486761 7.34166168 2.96515897 10.625 6.875 C15.97630287 13.47750569 15.97630287 13.47750569 23 18 C21.02 18.99 21.02 18.99 19 20 C18.5875 19.5153125 18.175 19.030625 17.75 18.53125 C13.37731307 13.45580981 8.77962643 8.69093233 4 4 C2.66550269 2.66783166 1.33185596 1.33480907 0 0 Z " fill="#E17F3F" transform="translate(104,64)"/>
<path d="M0 0 C0 1.65 0 3.3 0 5 C-3.69541586 5.95024979 -6.30458414 5.95024979 -10 5 C-10 3.68 -10 2.36 -10 1 C-6.55692321 -0.14769226 -3.59905765 0 0 0 Z " fill="#FA6F18" transform="translate(102,153)"/>
<path d="M0 0 C1.32 0.33 2.64 0.66 4 1 C4 2.65 4 4.3 4 6 C3.01 6.33 2.02 6.66 1 7 C0.67 7.99 0.34 8.98 0 10 C-2.4375 12.6875 -2.4375 12.6875 -5 15 C-5.66 15 -6.32 15 -7 15 C-7.33 15.99 -7.66 16.98 -8 18 C-10.0625 18.6875 -10.0625 18.6875 -12 19 C-11.61328125 18.55269531 -11.2265625 18.10539062 -10.828125 17.64453125 C-8.48222173 14.92119305 -6.15865263 12.20192152 -3.9375 9.375 C-1.78344619 6.73454695 0.55817029 4.37400111 3 2 C2.01 1.67 1.02 1.34 0 1 C0 0.67 0 0.34 0 0 Z " fill="#FEF5DF" transform="translate(140,115)"/>
<path d="M0 0 C0.58523437 0.22042969 1.17046875 0.44085937 1.7734375 0.66796875 C1.0309375 1.05984375 0.2884375 1.45171875 -0.4765625 1.85546875 C-3.47488822 3.83163797 -5.0073289 5.86129096 -7.2265625 8.66796875 C-9.49423671 10.7491243 -11.84380294 12.7202636 -14.2265625 14.66796875 C-14.8865625 14.00796875 -15.5465625 13.34796875 -16.2265625 12.66796875 C-14.8515625 11.16796875 -14.8515625 11.16796875 -13.2265625 9.66796875 C-12.5665625 9.66796875 -11.9065625 9.66796875 -11.2265625 9.66796875 C-10.96617187 9.07628906 -10.70578125 8.48460937 -10.4375 7.875 C-9.1495972 5.52769329 -7.85432072 4.11772107 -5.8515625 2.35546875 C-5.26632813 1.82308594 -4.68109375 1.29070313 -4.078125 0.7421875 C-2.2265625 -0.33203125 -2.2265625 -0.33203125 0 0 Z " fill="#FCEEDD" transform="translate(204.2265625,23.33203125)"/>
<path d="M0 0 C-0.3125 1.9375 -0.3125 1.9375 -1 4 C-3.88211302 4.96070434 -5.69850044 5.10581883 -8.6875 5.0625 C-9.89986328 5.04896484 -9.89986328 5.04896484 -11.13671875 5.03515625 C-12.05904297 5.01775391 -12.05904297 5.01775391 -13 5 C-12.01 4.34 -11.02 3.68 -10 3 C-10.66 2.34 -11.32 1.68 -12 1 C-7.915021 0.45533613 -4.1274515 0 0 0 Z " fill="#787878" transform="translate(215,226)"/>
<path d="M0 0 C0.66 0.66 1.32 1.32 2 2 C-2.62 6.62 -7.24 11.24 -12 16 C-12.33 15.01 -12.66 14.02 -13 13 C-12.34 13 -11.68 13 -11 13 C-10.34 11.35 -9.68 9.7 -9 8 C-8.01 8 -7.02 8 -6 8 C-5.67 7.01 -5.34 6.02 -5 5 C-4.34 5 -3.68 5 -3 5 C-2.690625 4.360625 -2.38125 3.72125 -2.0625 3.0625 C-1 1 -1 1 0 0 Z " fill="#FDF2E2" transform="translate(172,52)"/>
<path d="M0 0 C1.98 1.65 3.96 3.3 6 5 C5.01 5.33 4.02 5.66 3 6 C2.34 5.67 1.68 5.34 1 5 C-0.2236068 7.0745356 -0.2236068 7.0745356 0 10 C-1.65 8.35 -3.3 6.7 -5 5 C-3.35 3.35 -1.7 1.7 0 0 Z " fill="#E57933" transform="translate(174,100)"/>
<path d="M0 0 C3.24208567 0.35049575 4.61527704 0.56221181 6.8125 3.0625 C7.204375 3.701875 7.59625 4.34125 8 5 C7.34 6.32 6.68 7.64 6 9 C5.67 8.01 5.34 7.02 5 6 C3.35 6 1.7 6 0 6 C-1.125 2.25 -1.125 2.25 0 0 Z " fill="#F9701D" transform="translate(111,41)"/>
<path d="M0 0 C3.36720387 1.39332574 4.9859524 2.9789286 7 6 C5.02 5.34 3.04 4.68 1 4 C1 5.32 1 6.64 1 8 C0.34 8.66 -0.32 9.32 -1 10 C-2.5625 8.75 -2.5625 8.75 -4 7 C-3.83394098 4.34305562 -3.21086001 3.23616321 -1.4375 1.25 C-0.963125 0.8375 -0.48875 0.425 0 0 Z " fill="#E08447" transform="translate(84,34)"/>
<path d="M0 0 C1.9375 0.3125 1.9375 0.3125 4 1 C4.33 1.99 4.66 2.98 5 4 C7.00016466 5.20882096 7.00016466 5.20882096 9 6 C6 8 6 8 3 8 C2.67 6.68 2.34 5.36 2 4 C1.01 4 0.02 4 -1 4 C-0.67 2.68 -0.34 1.36 0 0 Z " fill="#FA7218" transform="translate(184,137)"/>
<path d="M0 0 C1.32 0.33 2.64 0.66 4 1 C4 3.31 4 5.62 4 8 C1.36 8 -1.28 8 -4 8 C-4.33 7.34 -4.66 6.68 -5 6 C-3.35 6 -1.7 6 0 6 C0 4.02 0 2.04 0 0 Z " fill="#595959" transform="translate(213,206)"/>
<path d="M0 0 C2.33944736 0.28730055 4.6739143 0.61936779 7 1 C5.55802132 3.88395737 3.29355765 5.76525152 1 8 C1.99 9.32 2.98 10.64 4 12 C2.35 11.67 0.7 11.34 -1 11 C-1.02688151 9.35425434 -1.04634123 7.70838587 -1.0625 6.0625 C-1.07410156 5.14597656 -1.08570313 4.22945313 -1.09765625 3.28515625 C-1 1 -1 1 0 0 Z " fill="#FCE9D2" transform="translate(169,98)"/>
<path d="M0 0 C0.66 0.66 1.32 1.32 2 2 C0.93283928 3.20205464 -0.15438337 4.38632333 -1.25 5.5625 C-2.15492187 6.55443359 -2.15492187 6.55443359 -3.078125 7.56640625 C-5 9 -5 9 -7.234375 8.71484375 C-7.81703125 8.47894531 -8.3996875 8.24304688 -9 8 C-9.66 5.69 -10.32 3.38 -11 1 C-9 2.375 -9 2.375 -7 4 C-7 4.66 -7 5.32 -7 6 C-4.69 4.02 -2.38 2.04 0 0 Z " fill="#FCEBD6" transform="translate(130,78)"/>
<path d="M0 0 C1.65 0 3.3 0 5 0 C5 1.32 5 2.64 5 4 C5.598125 4.103125 6.19625 4.20625 6.8125 4.3125 C9.35666511 5.11209475 10.4657452 5.81974318 12 8 C11.57421875 10.10546875 11.57421875 10.10546875 11 12 C9.16364422 10.19047409 7.33083792 8.37759362 5.5 6.5625 C4.97535156 6.04623047 4.45070312 5.52996094 3.91015625 4.99804688 C2.58775448 3.68423213 1.29164432 2.34406495 0 1 C0 0.67 0 0.34 0 0 Z " fill="#FAE4C8" transform="translate(207,132)"/>
<path d="M0 0 C0.99 0.33 1.98 0.66 3 1 C2.1875 2.9375 2.1875 2.9375 1 5 C-2.3111013 6.10370043 -4.24748949 5.92673641 -7.6875 5.5625 C-8.68136719 5.46066406 -9.67523438 5.35882813 -10.69921875 5.25390625 C-11.45847656 5.17011719 -12.21773437 5.08632812 -13 5 C-13 4.34 -13 3.68 -13 3 C-8.71 3 -4.42 3 0 3 C0 2.01 0 1.02 0 0 Z " fill="#FDF5E5" transform="translate(166,110)"/>
<path d="M0 0 C0.33 1.32 0.66 2.64 1 4 C-0.0725 3.979375 -1.145 3.95875 -2.25 3.9375 C-5.14790424 3.9857984 -7.28612141 4.13155885 -10 5 C-10.33 4.34 -10.66 3.68 -11 3 C-8.21756596 -1.17365106 -4.53441502 -0.22300402 0 0 Z " fill="#5D5D5D" transform="translate(208,197)"/>
<path d="M0 0 C1.65 1.32 3.3 2.64 5 4 C3.95125002 6.62187494 3.35068687 7.79371361 0.875 9.25 C0.25625 9.4975 -0.3625 9.745 -1 10 C-1.66 8.35 -2.32 6.7 -3 5 C-2.01 4.67 -1.02 4.34 0 4 C0 2.68 0 1.36 0 0 Z " fill="#E8782D" transform="translate(214,140)"/>
<path d="M0 0 C0.33 0.66 0.66 1.32 1 2 C0.67 2.66 0.34 3.32 0 4 C0.99 3.67 1.98 3.34 3 3 C2.625 4.9375 2.625 4.9375 2 7 C1.01 7.495 1.01 7.495 0 8 C0 7.34 0 6.68 0 6 C-1.65 6.33 -3.3 6.66 -5 7 C-5.33 7.99 -5.66 8.98 -6 10 C-6 6 -6 6 -4.6875 4.296875 C-4.130625 3.78640625 -3.57375 3.2759375 -3 2.75 C-2.1646875 1.96882812 -2.1646875 1.96882812 -1.3125 1.171875 C-0.879375 0.78515625 -0.44625 0.3984375 0 0 Z " fill="#EB772F" transform="translate(97,147)"/>
<path d="M0 0 C0.99 0 1.98 0 3 0 C3 0.66 3 1.32 3 2 C3.5775 1.7525 4.155 1.505 4.75 1.25 C5.86375 1.12625 5.86375 1.12625 7 1 C9.25 2.8125 9.25 2.8125 11 5 C11 5.66 11 6.32 11 7 C10.34 7 9.68 7 9 7 C8.67 7.66 8.34 8.32 8 9 C6.66368764 7.6905332 5.33102075 6.37734515 4 5.0625 C3.2575 4.33160156 2.515 3.60070313 1.75 2.84765625 C0 1 0 1 0 0 Z " fill="#F1823B" transform="translate(98,35)"/>
<path d="M0 0 C0 0.33 0 0.66 0 1 C-2.31 1 -4.62 1 -7 1 C-7 1.66 -7 2.32 -7 3 C-4.69 3 -2.38 3 0 3 C0 3.33 0 3.66 0 4 C-5.94 4.495 -5.94 4.495 -12 5 C-12 4.34 -12 3.68 -12 3 C-12.66 2.34 -13.32 1.68 -14 1 C-9.32798795 -0.20568053 -4.78503708 -0.09382426 0 0 Z " fill="#767676" transform="translate(77,210)"/>
<path d="M0 0 C2.31 0.33 4.62 0.66 7 1 C6.67 2.98 6.34 4.96 6 7 C5.01 6.67 4.02 6.34 3 6 C3 5.34 3 4.68 3 4 C2.01 4 1.02 4 0 4 C0 2.68 0 1.36 0 0 Z " fill="#F5721C" transform="translate(98,31)"/>
<path d="M0 0 C5.6383837 1.31125202 7.85405343 3.328746 11 8 C10.67 8.99 10.34 9.98 10 11 C8.33035479 9.35718838 6.6643536 7.71067239 5 6.0625 C4.071875 5.14597656 3.14375 4.22945312 2.1875 3.28515625 C0 1 0 1 0 0 Z " fill="#FEE8D1" transform="translate(95,43)"/>
<path d="M0 0 C1.32 0.33 2.64 0.66 4 1 C4 3.31 4 5.62 4 8 C3.01 8 2.02 8 1 8 C0.896875 7.360625 0.79375 6.72125 0.6875 6.0625 C0.460625 5.381875 0.23375 4.70125 0 4 C-0.99 3.67 -1.98 3.34 -3 3 C-2.01 2.67 -1.02 2.34 0 2 C0 1.34 0 0.68 0 0 Z " fill="#F96F1A" transform="translate(94,46)"/>
<path d="M0 0 C0 0.66 0 1.32 0 2 C-4.455 3.485 -4.455 3.485 -9 5 C-8.67 3.35 -8.34 1.7 -8 0 C-4.71023192 -1.09658936 -3.28696233 -0.79953138 0 0 Z " fill="#707070" transform="translate(157,198)"/>
<path d="M0 0 C0.99 0.66 1.98 1.32 3 2 C3 2.99 3 3.98 3 5 C3.99 6.485 3.99 6.485 5 8 C3.68 8.33 2.36 8.66 1 9 C-0.625 6.75 -0.625 6.75 -2 4 C-1.1875 1.6875 -1.1875 1.6875 0 0 Z " fill="#FCEAD5" transform="translate(77,140)"/>
<path d="M0 0 C2.95409701 1.37154504 5.44008376 2.98863724 8 5 C7.67 5.66 7.34 6.32 7 7 C5.02 7 3.04 7 1 7 C0.67 4.69 0.34 2.38 0 0 Z " fill="#FB6F1D" transform="translate(178,107)"/>
<path d="M0 0 C0.66 0 1.32 0 2 0 C2.4375 2.1875 2.4375 2.1875 2 5 C-0.13995327 6.98441782 -2.50175965 8.5023304 -5 10 C-5.66 9.67 -6.32 9.34 -7 9 C-6.57847656 8.60167969 -6.15695313 8.20335937 -5.72265625 7.79296875 C-5.17480469 7.26316406 -4.62695312 6.73335937 -4.0625 6.1875 C-3.51722656 5.66542969 -2.97195312 5.14335937 -2.41015625 4.60546875 C-0.76480908 2.94187802 -0.76480908 2.94187802 0 0 Z " fill="#FDECD6" transform="translate(206,24)"/>
<path d="M0 0 C3.3125 0.1875 3.3125 0.1875 7 1 C9 3.375 9 3.375 10 6 C9.67 6.99 9.34 7.98 9 9 C6 6 3 3 0 0 Z " fill="#FCEFDA" transform="translate(95,21)"/>
<path d="M0 0 C0.33 0.99 0.66 1.98 1 3 C0.01 3.721875 -0.98 4.44375 -2 5.1875 C-4.69218509 7.37283152 -4.69218509 7.37283152 -5.375 10.8125 C-5.25125 11.534375 -5.1275 12.25625 -5 13 C-6.32 11.68 -7.64 10.36 -9 9 C-6.03 6.03 -3.06 3.06 0 0 Z " fill="#DF7D3B" transform="translate(87,134)"/>
<path d="M0 0 C1.65 0 3.3 0 5 0 C4.06725891 1.12894876 3.12859878 2.25300876 2.1875 3.375 C1.66542969 4.00148437 1.14335937 4.62796875 0.60546875 5.2734375 C-1 7 -1 7 -4 9 C-3.67 7.35 -3.34 5.7 -3 4 C-2.01 4 -1.02 4 0 4 C0 2.68 0 1.36 0 0 Z " fill="#E98A4B" transform="translate(130,126)"/>
<path d="M0 0 C2.31 1.65 4.62 3.3 7 5 C7.66 3.68 8.32 2.36 9 1 C9.33 1.66 9.66 2.32 10 3 C9.67 3.99 9.34 4.98 9 6 C7.02 6 5.04 6 3 6 C3 5.34 3 4.68 3 4 C2.01 4.33 1.02 4.66 0 5 C0 3.35 0 1.7 0 0 Z " fill="#FCE0CB" transform="translate(92,158)"/>
<path d="M0 0 C0.33 0 0.66 0 1 0 C1.33 3.96 1.66 7.92 2 12 C1.01 12.33 0.02 12.66 -1 13 C-1.02686553 11.02090602 -1.04633375 9.04171029 -1.0625 7.0625 C-1.07410156 5.96035156 -1.08570312 4.85820313 -1.09765625 3.72265625 C-1 1 -1 1 0 0 Z " fill="#FDEBD8" transform="translate(127,93)"/>
<path d="M0 0 C1.65 0.33 3.3 0.66 5 1 C4.67 2.65 4.34 4.3 4 6 C2.0625 5.6875 2.0625 5.6875 0 5 C-0.33 4.01 -0.66 3.02 -1 2 C-0.67 1.34 -0.34 0.68 0 0 Z " fill="#FA6E14" transform="translate(117,70)"/>
<path d="M0 0 C2.64 0 5.28 0 8 0 C8 1.65 8 3.3 8 5 C4.5625 4.1875 4.5625 4.1875 1 3 C0.67 2.01 0.34 1.02 0 0 Z " fill="#626262" transform="translate(156,197)"/>
<path d="M0 0 C0.66 0.33 1.32 0.66 2 1 C1.54625 1.4125 1.0925 1.825 0.625 2.25 C-1.10907763 3.91263113 -1.10907763 3.91263113 -1.875 6.125 C-3 8 -3 8 -5.625 8.75 C-6.40875 8.8325 -7.1925 8.915 -8 9 C-7.04270084 7.87411986 -6.08412105 6.7493285 -5.125 5.625 C-4.59132813 4.99851563 -4.05765625 4.37203125 -3.5078125 3.7265625 C-2.38567993 2.44163349 -1.20628025 1.20628025 0 0 Z " fill="#FAE0C2" transform="translate(111,149)"/>
<path d="M0 0 C0 0.66 0 1.32 0 2 C0.99 2.33 1.98 2.66 3 3 C2.01 4.485 2.01 4.485 1 6 C-0.875 5.6875 -0.875 5.6875 -3 5 C-3.66 4.01 -4.32 3.02 -5 2 C-2 0 -2 0 0 0 Z " fill="#EA7C35" transform="translate(87,145)"/>
<path d="M0 0 C1.98 0.495 1.98 0.495 4 1 C4.625 2.875 4.625 2.875 5 5 C4.34 5.66 3.68 6.32 3 7 C0 5 0 5 -1 2 C-0.67 1.34 -0.34 0.68 0 0 Z " fill="#FA6D19" transform="translate(210,139)"/>
<path d="M0 0 C0.66 0.33 1.32 0.66 2 1 C1.65120368 4.25543229 0.97866739 5.01873107 -1.5625 7.25 C-2.7690625 8.11625 -2.7690625 8.11625 -4 9 C-4.25 6.75 -4.25 6.75 -4 4 C-2 1.6875 -2 1.6875 0 0 Z " fill="#E6864A" transform="translate(111,122)"/>
<path d="M0 0 C0.33 0.99 0.66 1.98 1 3 C0.01 3.33 -0.98 3.66 -2 4 C-2.73323796 6.01508358 -2.73323796 6.01508358 -3 8 C-4.65 8.33 -6.3 8.66 -8 9 C-7.04270084 7.87411986 -6.08412105 6.7493285 -5.125 5.625 C-4.59132813 4.99851562 -4.05765625 4.37203125 -3.5078125 3.7265625 C-2.38567993 2.44163349 -1.20628025 1.20628025 0 0 Z " fill="#E87B38" transform="translate(126,118)"/>
<path d="M0 0 C1.65 0 3.3 0 5 0 C5 0.99 5 1.98 5 3 C5.66 3 6.32 3 7 3 C7.33 4.65 7.66 6.3 8 8 C6.85073734 7.04578192 5.70569459 6.08647955 4.5625 5.125 C3.92441406 4.59132813 3.28632813 4.05765625 2.62890625 3.5078125 C1 2 1 2 0 0 Z " fill="#FCE6CC" transform="translate(183,108)"/>
<path d="M0 0 C3.71888239 0.50712033 6.73454239 1.11608215 10 3 C7.29120665 4.35439668 4.99066732 4.06501451 2 4 C1.34 2.68 0.68 1.36 0 0 Z " fill="#595959" transform="translate(197,226)"/>
<path d="M0 0 C0.99 0 1.98 0 3 0 C3 2.66666667 3 5.33333333 3 8 C2.01 8.33 1.02 8.66 0 9 C0 6.03 0 3.06 0 0 Z " fill="#5A5A5A" transform="translate(91,198)"/>
<path d="M0 0 C3.3 0 6.6 0 10 0 C8.68 1.65 7.36 3.3 6 5 C2.83884224 3.63016497 2.0072908 3.0109362 0 0 Z " fill="#E47D42" transform="translate(93,158)"/>
<path d="M0 0 C2.64 0 5.28 0 8 0 C7.01 0.495 7.01 0.495 6 1 C6.33 2.32 6.66 3.64 7 5 C4.0625 4.1875 4.0625 4.1875 1 3 C0.67 2.01 0.34 1.02 0 0 Z " fill="#EF7424" transform="translate(187,145)"/>
<path d="M0 0 C0.33 0.66 0.66 1.32 1 2 C0.67 2.66 0.34 3.32 0 4 C0.66 4 1.32 4 2 4 C2.33 5.65 2.66 7.3 3 9 C0.69 7.02 -1.62 5.04 -4 3 C-2.68 2.01 -1.36 1.02 0 0 Z " fill="#FCE6CD" transform="translate(204,123)"/>
<path d="M0 0 C1.14926266 0.95421808 2.29430541 1.91352045 3.4375 2.875 C4.07558594 3.40867187 4.71367188 3.94234375 5.37109375 4.4921875 C7 6 7 6 8 8 C6.35 7.67 4.7 7.34 3 7 C3 6.34 3 5.68 3 5 C2.34 5 1.68 5 1 5 C0.67 3.35 0.34 1.7 0 0 Z " fill="#FBE0C9" transform="translate(111,71)"/>
<path d="M0 0 C3.125 0.375 3.125 0.375 6 1 C5.34 2.32 4.68 3.64 4 5 C2.02 4.01 0.04 3.02 -2 2 C-1.34 1.34 -0.68 0.68 0 0 Z " fill="#5F5F5F" transform="translate(239,197)"/>
<path d="M0 0 C2.64 0.33 5.28 0.66 8 1 C7.67 1.99 7.34 2.98 7 4 C4.69 3.67 2.38 3.34 0 3 C0 2.01 0 1.02 0 0 Z " fill="#5B5B5B" transform="translate(101,197)"/>
<path d="M0 0 C0 4.33685836 -2.08014014 5.9443327 -5 9 C-5.99 9 -6.98 9 -8 9 C-8 8.34 -8 7.68 -8 7 C-6.25 5.2734375 -6.25 5.2734375 -4 3.375 C-3.2575 2.74335938 -2.515 2.11171875 -1.75 1.4609375 C-1.1725 0.97882813 -0.595 0.49671875 0 0 Z " fill="#FDEED5" transform="translate(127,134)"/>
<path d="M0 0 C1.32 0.33 2.64 0.66 4 1 C1.69 3.31 -0.62 5.62 -3 8 C-3.33 7.01 -3.66 6.02 -4 5 C-2.0625 2.3125 -2.0625 2.3125 0 0 Z " fill="#FEE5C8" transform="translate(93,124)"/>
<path d="M0 0 C1.65 0 3.3 0 5 0 C5 0.99 5 1.98 5 3 C5.66 3 6.32 3 7 3 C7.33 3.99 7.66 4.98 8 6 C5 6 5 6 3.61328125 4.6875 C2.40885417 3.125 1.20442708 1.5625 0 0 Z " fill="#FDE6CB" transform="translate(191,116)"/>
<path d="M0 0 C0.66 0 1.32 0 2 0 C2.25 2.3125 2.25 2.3125 2 5 C0.25 6.875 0.25 6.875 -2 8 C-4.25 7.6875 -4.25 7.6875 -6 7 C-5.01 6.21625 -4.02 5.4325 -3 4.625 C-1.515 3.325625 -1.515 3.325625 0 2 C0 1.34 0 0.68 0 0 Z " fill="#FEEBD7" transform="translate(123,48)"/>
<path d="M0 0 C0.66 0 1.32 0 2 0 C2.33 0.99 2.66 1.98 3 3 C0.69 4.98 -1.62 6.96 -4 9 C-4 8.01 -4 7.02 -4 6 C-3.34 6 -2.68 6 -2 6 C-2 5.01 -2 4.02 -2 3 C-1.34 3 -0.68 3 0 3 C0 2.01 0 1.02 0 0 Z " fill="#E98A4B" transform="translate(116,140)"/>
<path d="M0 0 C2.31 1.98 4.62 3.96 7 6 C5.02 6.99 5.02 6.99 3 8 C0.4345406 5.4345406 0.45953913 3.52313332 0 0 Z " fill="#FCEAD5" transform="translate(175,135)"/>
<path d="M0 0 C1.32 0 2.64 0 4 0 C6.3125 2.3125 6.3125 2.3125 8 5 C7.67 5.99 7.34 6.98 7 8 C5.83035398 6.8572081 4.66435444 5.71068285 3.5 4.5625 C2.8503125 3.92441406 2.200625 3.28632813 1.53125 2.62890625 C0 1 0 1 0 0 Z " fill="#FCDDC1" transform="translate(188,136)"/>
<path d="M0 0 C1.14926266 0.95421808 2.29430541 1.91352045 3.4375 2.875 C4.07558594 3.40867187 4.71367187 3.94234375 5.37109375 4.4921875 C7 6 7 6 8 8 C6.35 7.67 4.7 7.34 3 7 C2.67 6.01 2.34 5.02 2 4 C1.01 4.495 1.01 4.495 0 5 C0 3.35 0 1.7 0 0 Z " fill="#EA7632" transform="translate(196,122)"/>
<path d="M0 0 C2.31 0.33 4.62 0.66 7 1 C5.68 2.32 4.36 3.64 3 5 C2.01 4.34 1.02 3.68 0 3 C0 2.01 0 1.02 0 0 Z " fill="#FA6D17" transform="translate(107,62)"/>
<path d="M0 0 C0.99 0.33 1.98 0.66 3 1 C0.69 3.31 -1.62 5.62 -4 8 C-4.33 7.01 -4.66 6.02 -5 5 C-3.35 3.35 -1.7 1.7 0 0 Z " fill="#DE814B" transform="translate(203,49)"/>
<path d="M0 0 C0.66 0.66 1.32 1.32 2 2 C1.67 2.66 1.34 3.32 1 4 C2.32 4 3.64 4 5 4 C4.67 4.99 4.34 5.98 4 7 C2.35 7 0.7 7 -1 7 C-1.625 4.625 -1.625 4.625 -2 2 C-1.34 1.34 -0.68 0.68 0 0 Z " fill="#F66F18" transform="translate(85,37)"/>
<path d="M0 0 C1.65 0.33 3.3 0.66 5 1 C5.33 2.65 5.66 4.3 6 6 C3.69 5.01 1.38 4.02 -1 3 C-0.67 2.01 -0.34 1.02 0 0 Z " fill="#F86E1C" transform="translate(95,25)"/>
<path d="M0 0 C0.99 0 1.98 0 3 0 C2.42655063 2.86724686 2.1385485 3.8614515 0 6 C-0.99 5.67 -1.98 5.34 -3 5 C-1.6875 2.5 -1.6875 2.5 0 0 Z " fill="#DA8A55" transform="translate(203,24)"/>
<path d="M0 0 C0.33 1.32 0.66 2.64 1 4 C-2.81489674 5.46726798 -5.29011622 4.43336419 -9 3 C-9 2.67 -9 2.34 -9 2 C-6.94921875 1.77213542 -4.8984375 1.54427083 -2.84765625 1.31640625 C-0.98859771 1.18113386 -0.98859771 1.18113386 0 0 Z " fill="#6F6F6F" transform="translate(162,225)"/>
<path d="M0 0 C1.14926266 0.95421808 2.29430541 1.91352045 3.4375 2.875 C4.07558594 3.40867188 4.71367188 3.94234375 5.37109375 4.4921875 C7 6 7 6 8 8 C6.35 7.67 4.7 7.34 3 7 C3 6.01 3 5.02 3 4 C2.01 4 1.02 4 0 4 C0 2.68 0 1.36 0 0 Z " fill="#FBDFC7" transform="translate(84,44)"/>
<path d="M0 0 C0.66 0.66 1.32 1.32 2 2 C-0.57784846 4.64752004 -2.91648098 6.94432065 -6 9 C-5.67 7.68 -5.34 6.36 -5 5 C-4.34 5 -3.68 5 -3 5 C-2.5359375 4.0409375 -2.5359375 4.0409375 -2.0625 3.0625 C-1 1 -1 1 0 0 Z " fill="#FCEBD8" transform="translate(180,44)"/>
<path d="M0 0 C0.99 0.99 1.98 1.98 3 3 C1.69593116 5.01920337 0.36176581 7.01924973 -1 9 C-1.33 9 -1.66 9 -2 9 C-2.25 3.375 -2.25 3.375 0 0 Z " fill="#FCF2E6" transform="translate(208,155)"/>
<path d="M0 0 C1.32 0.33 2.64 0.66 4 1 C4.3125 3.3125 4.3125 3.3125 4 6 C1.625 7.875 1.625 7.875 -1 9 C-1.66 8.67 -2.32 8.34 -3 8 C-2.195625 7.38125 -1.39125 6.7625 -0.5625 6.125 C2.03874519 4.25835959 2.03874519 4.25835959 3 2 C2.01 1.67 1.02 1.34 0 1 C0 0.67 0 0.34 0 0 Z " fill="#FCE7CD" transform="translate(140,115)"/>
<path d="M0 0 C0.66 0.99 1.32 1.98 2 3 C1.67 3.66 1.34 4.32 1 5 C-1.64 5 -4.28 5 -7 5 C-5.03747385 3.03747385 -3.46143579 2.19101732 -1 1 C-0.67 0.67 -0.34 0.34 0 0 Z " fill="#FDF5E2" transform="translate(165,67)"/>
<path d="M0 0 C1.32 0.99 2.64 1.98 4 3 C3.67 3.99 3.34 4.98 3 6 C1.35 5.67 -0.3 5.34 -2 5 C-1 2 -1 2 0 0 Z " fill="#F96E19" transform="translate(102,54)"/>
<path d="M0 0 C2.31 1.98 4.62 3.96 7 6 C4 7 4 7 1 6 C0.67 4.02 0.34 2.04 0 0 Z " fill="#E77F3B" transform="translate(91,40)"/>
<path d="M0 0 C1.65 0.99 3.3 1.98 5 3 C3.25 6.875 3.25 6.875 1 8 C0.67 5.36 0.34 2.72 0 0 Z " fill="#E4874E" transform="translate(138,114)"/>
<path d="M0 0 C2.97 0.495 2.97 0.495 6 1 C6 1.99 6 2.98 6 4 C4.35 3.67 2.7 3.34 1 3 C0.67 2.01 0.34 1.02 0 0 Z " fill="#FA6F19" transform="translate(121,77)"/>
<path d="M0 0 C2.31 0.33 4.62 0.66 7 1 C6.67 1.66 6.34 2.32 6 3 C3.69 3 1.38 3 -1 3 C-0.67 2.01 -0.34 1.02 0 0 Z " fill="#5C5C5C" transform="translate(232,227)"/>
<path d="M0 0 C1.32 0 2.64 0 4 0 C3.67 1.32 3.34 2.64 3 4 C1.68 4 0.36 4 -1 4 C-0.67 2.68 -0.34 1.36 0 0 Z " fill="#646464" transform="translate(211,226)"/>
<path d="M0 0 C1.98 0.99 1.98 0.99 4 2 C4.99 1.34 5.98 0.68 7 0 C7 1.32 7 2.64 7 4 C5.35 4.33 3.7 4.66 2 5 C1.34 3.35 0.68 1.7 0 0 Z " fill="#FDE7CD" transform="translate(199,159)"/>
<path d="M0 0 C2.31 0 4.62 0 7 0 C7 0.66 7 1.32 7 2 C6.34 2 5.68 2 5 2 C4.67 3.32 4.34 4.64 4 6 C4 5.01 4 4.02 4 3 C2.68 2.67 1.36 2.34 0 2 C0 1.34 0 0.68 0 0 Z " fill="#FCEEDD" transform="translate(84,150)"/>
<path d="M0 0 C1.65 0 3.3 0 5 0 C3.625 2.5 3.625 2.5 2 5 C1.34 5 0.68 5 0 5 C0 3.35 0 1.7 0 0 Z " fill="#E9823E" transform="translate(92,140)"/>
<path d="M0 0 C1.98 1.65 3.96 3.3 6 5 C5.01 5.99 4.02 6.98 3 8 C3 7.01 3 6.02 3 5 C2.34 5 1.68 5 1 5 C0.67 3.35 0.34 1.7 0 0 Z " fill="#E27D3F" transform="translate(124,73)"/>
<path d="M0 0 C1.98 1.65 3.96 3.3 6 5 C3 6 3 6 0 5 C0 3.35 0 1.7 0 0 Z " fill="#E77E38" transform="translate(98,47)"/>
<path d="M0 0 C2.4375 0.25 2.4375 0.25 5 1 C5.66 1.99 6.32 2.98 7 4 C5.02 3.34 3.04 2.68 1 2 C0.01 2.99 -0.98 3.98 -2 5 C-1.125 1.125 -1.125 1.125 0 0 Z " fill="#EE7B36" transform="translate(84,36)"/>
<path d="M0 0 C2.375 0.3125 2.375 0.3125 5 1 C5.66 1.99 6.32 2.98 7 4 C6.34 4.66 5.68 5.32 5 6 C3.35 4.02 1.7 2.04 0 0 Z " fill="#FCEBD8" transform="translate(105,30)"/>
<path d="M0 0 C1 3 1 3 1 5 C0.01 5.33 -0.98 5.66 -2 6 C-2 5.34 -2 4.68 -2 4 C-2.66 4 -3.32 4 -4 4 C-4 3.34 -4 2.68 -4 2 C-2.68 1.34 -1.36 0.68 0 0 Z " fill="#656565" transform="translate(45,204)"/>
<path d="M0 0 C1.32 0 2.64 0 4 0 C4 0.66 4 1.32 4 2 C4.66 2.33 5.32 2.66 6 3 C4.02 3.33 2.04 3.66 0 4 C0 2.68 0 1.36 0 0 Z " fill="#6E6E6E" transform="translate(60,198)"/>
<path d="M0 0 C1.98 1.65 3.96 3.3 6 5 C3.50907189 6.24546405 2.58919267 5.7767578 0 5 C0 3.35 0 1.7 0 0 Z " fill="#E97630" transform="translate(204,130)"/>
<path d="M0 0 C0.99 0 1.98 0 3 0 C2.6875 1.875 2.6875 1.875 2 4 C1.01 4.66 0.02 5.32 -1 6 C-1.042721 4.33388095 -1.04063832 2.66617115 -1 1 C-0.67 0.67 -0.34 0.34 0 0 Z " fill="#EE8138" transform="translate(102,131)"/>
<path d="M0 0 C2.02054804 1.64169528 4.02043058 3.30911778 6 5 C6 5.33 6 5.66 6 6 C4.35 6 2.7 6 1 6 C0.67 4.02 0.34 2.04 0 0 Z " fill="#E47E38" transform="translate(114,63)"/>
<path d="M0 0 C0.66 1.32 1.32 2.64 2 4 C0.02 4.99 0.02 4.99 -2 6 C-2 2 -2 2 0 0 Z " fill="#DA9769" transform="translate(191,59)"/>
<path d="M0 0 C1.98 1.65 3.96 3.3 6 5 C5.34 5.66 4.68 6.32 4 7 C3.67 6.01 3.34 5.02 3 4 C0.98491642 3.26676204 0.98491642 3.26676204 -1 3 C-0.67 2.01 -0.34 1.02 0 0 Z " fill="#E67F32" transform="translate(104,53)"/>
<path d="M0 0 C2.64 0.66 5.28 1.32 8 2 C7.01 3.485 7.01 3.485 6 5 C2.83884224 3.63016497 2.0072908 3.0109362 0 0 Z " fill="#E38B53" transform="translate(113,50)"/>
<path d="M0 0 C0.99 0.33 1.98 0.66 3 1 C-0.465 3.97 -0.465 3.97 -4 7 C-3.67 5.68 -3.34 4.36 -3 3 C-2.34 3 -1.68 3 -1 3 C-0.67 2.01 -0.34 1.02 0 0 Z " fill="#FCF4E3" transform="translate(186,38)"/>
<path d="M0 0 C2.31 1.98 4.62 3.96 7 6 C6.01 6.495 6.01 6.495 5 7 C4.01 6.67 3.02 6.34 2 6 C0.8125 2.9375 0.8125 2.9375 0 0 Z " fill="#EA7E3F" transform="translate(109,35)"/>
</svg>
