<?xml version="1.0" ?>
<!-- Uploaded to: SVG Repo, www.svgrepo.com, Generator: SVG Repo Mixer Tools -->
<svg width="800px" height="800px" viewBox="0 0 12.7 12.7" id="svg8" version="1.1" xmlns="http://www.w3.org/2000/svg" xmlns:cc="http://creativecommons.org/ns#" xmlns:dc="http://purl.org/dc/elements/1.1/" xmlns:inkscape="http://www.inkscape.org/namespaces/inkscape" xmlns:rdf="http://www.w3.org/1999/02/22-rdf-syntax-ns#" xmlns:sodipodi="http://sodipodi.sourceforge.net/DTD/sodipodi-0.dtd" xmlns:svg="http://www.w3.org/2000/svg">
<defs id="defs2">
<clipPath clipPathUnits="userSpaceOnUse" id="clipPath5343">
<path d="m 3.0688351,285.55677 c -1.613568,1.19596 -2.5662181,3.08478 -2.56883509,5.09323 0,3.50701 2.84299219,6.35 6.35000009,6.35 C 10.357008,297 13.2,294.15701 13.2,290.65 c -0.0022,-0.84296 -0.452078,-2.71271 -0.500228,-2.45359 -0.02424,0.84121 -0.571809,2.35322 -0.602031,2.23138 -0.0026,-0.50621 -0.2876,-1.42626 -0.305098,-1.19509 0.02804,1.40695 -1.48374,3.17677 -2.3076623,3.50038 -0.8310457,0.36942 -1.7371637,0.56412 -2.6117267,0.56534 -0.1736918,2e-5 -1.1686519,-0.13807 -1.6443439,-0.70435 -0.826376,-0.89253 -0.00201,-1.09994 0.4625039,-1.27331 0.5055862,-0.18871 1.030887,-0.30969 1.5203212,-0.42013 0.7456988,-0.16826 0.4710618,-0.52626 0.1049028,-0.6289 -0.9266939,-0.25976 -2.044886,0.33543 -2.8654579,0.30593 -0.848406,-0.0291 -0.804618,-1.69621 -0.1405601,-1.76217 0.7394212,-0.0734 1.6665151,-0.51079 1.461779,-0.65673 -0.8303549,-0.61672 -0.9617369,-0.79081 -1.0595549,-1.16418 -0.1480201,-0.565 0.341282,-1.03557 0.05777,-0.96356 -0.2596169,0.08 -0.4110678,0.15641 -0.5988619,0.25715 -0.1672929,0.0897 -0.293814,0.0546 -0.6751841,0.002 -0.3249449,-0.045 -0.3870058,-0.0557 -0.3755009,-0.25673 0.0115,-0.20097 0.07295,-0.52125 -0.05223,-0.47648 z" id="path5345" style="fill:#7aafff;fill-opacity:1;stroke:none;stroke-width:2.01045942;stroke-linecap:round;stroke-linejoin:round;stroke-miterlimit:4;stroke-dasharray:none;stroke-opacity:1"/>
</clipPath>
<clipPath clipPathUnits="userSpaceOnUse" id="clipPath4543">
<path d="m 1.7760088,291.5696 c -1.82613339,0.17434 -3.2940315,0.91934 -3.4903996,2.16451 -0.2629054,1.66729 1.5678591,3.34127 4.0891213,3.73893 1.2172084,0.19119 2.434234,0.053 3.3807423,-0.38387 0.7310194,0.5283 1.669357,0.90078 2.6704721,1.06008 2.5212691,0.39771 4.7783381,-0.6315 5.0412801,-2.2988 0.262905,-1.6673 -1.490667,-1.94329 -4.257163,-2.17938 -2.7664958,-0.23609 -3.6163896,-1.68839 -5.7470448,-2.04575 -0.5660191,-0.0893 -1.1380808,-0.10817 -1.6870084,-0.0557 z" id="path4545" style="opacity:1;vector-effect:none;fill:#666666;fill-opacity:1;stroke:none;stroke-width:2.11666656;stroke-linecap:round;stroke-linejoin:round;stroke-miterlimit:4;stroke-dasharray:none;stroke-dashoffset:0;stroke-opacity:1"/>
</clipPath>
</defs>
<g id="layer1" transform="translate(0,-284.3)">
<circle cx="6.3499999" cy="290.64999" id="path4514" r="6.3499999" style="fill:#aaccff;fill-opacity:1;stroke:none;stroke-width:1.74658811;stroke-linecap:round;stroke-linejoin:round;stroke-miterlimit:4;stroke-dasharray:none;stroke-opacity:1"/>
<rect height="6.3177867" id="rect4510-5" rx="0.10249449" ry="0.10249449" style="opacity:1;vector-effect:none;fill:#5b99f8;fill-opacity:1;stroke:none;stroke-width:0.50006247;stroke-linecap:round;stroke-linejoin:round;stroke-miterlimit:4;stroke-dasharray:none;stroke-dashoffset:56.69291306;stroke-opacity:1;paint-order:normal" width="8.4324856" x="2.3624172" y="287.71027"/>
<g id="g4594" style="stroke-width:1.06187856" transform="matrix(0.94172726,0,0,0.94172726,0.37003175,16.936979)">
<rect height="6.7087226" id="rect4510" rx="0.1088367" ry="0.1088367" style="opacity:1;vector-effect:none;fill:#ffffff;fill-opacity:1;stroke:none;stroke-width:0.53100562;stroke-linecap:round;stroke-linejoin:round;stroke-miterlimit:4;stroke-dasharray:none;stroke-dashoffset:56.69291306;stroke-opacity:1;paint-order:normal" width="8.9542761" x="1.872862" y="287.29562"/>
<rect height="6.0849319" id="rect4510-3" rx="0.1088367" ry="0.10883671" style="opacity:1;vector-effect:none;fill:#7aafff;fill-opacity:1;stroke:none;stroke-width:0.53100562;stroke-linecap:round;stroke-linejoin:round;stroke-miterlimit:4;stroke-dasharray:none;stroke-dashoffset:56.69291306;stroke-opacity:1;paint-order:normal" width="8.270772" x="2.2146139" y="287.60751"/>
<circle cx="8.835372" cy="288.78641" id="path4527-5" r="0.68928128" style="opacity:1;vector-effect:none;fill:#ffccaa;fill-opacity:1;stroke:none;stroke-width:0.53100562;stroke-linecap:round;stroke-linejoin:round;stroke-miterlimit:4;stroke-dasharray:none;stroke-dashoffset:56.69291306;stroke-opacity:1;paint-order:normal"/>
<path d="m 5.0823769,288.57649 c -0.060203,2.4e-4 -0.1175833,0.0247 -0.15968,0.0677 l -2.7078449,2.76107 v 2.18436 c 0,0.0568 0.04554,0.10284 0.102319,0.10284 h 8.065658 c 0.05678,0 0.102319,-0.0461 0.102319,-0.10284 v -1.8929 l -2.4360271,-2.48409 c -0.04252,-0.0435 -0.100935,-0.068 -0.161747,-0.0677 -0.0602,2.4e-4 -0.1181,0.0247 -0.160197,0.0677 l -0.962732,0.98185 -1.5203208,-1.55029 c -0.042523,-0.0435 -0.1009346,-0.068 -0.1617472,-0.0677 z" id="rect4510-3-7" style="opacity:1;vector-effect:none;fill:#80decc;fill-opacity:1;stroke:none;stroke-width:0.53100562;stroke-linecap:round;stroke-linejoin:round;stroke-miterlimit:4;stroke-dasharray:none;stroke-dashoffset:56.69291306;stroke-opacity:1;paint-order:normal"/>
</g>
</g>
</svg>